<svg id="Livello_1" data-name="Livello 1" xmlns="http://www.w3.org/2000/svg" viewBox="0 0 1028.98 591.86"><defs><style>.cls-1{fill:none;stroke:#000;stroke-linecap:round;stroke-miterlimit:10;stroke-width:30px;}</style></defs><path class="cls-1" d="M1525.47,322A527.1,527.1,0,0,1,1499.65,416c-.58,1.55-28.08,71.23-35.84,60.68-23.87-32.43.87-109.17,15.21-140.78" transform="translate(-524.59 -177.88)"/><path class="cls-1" d="M1514.22,324.45c13.46-18.24,38.25-65.15,14.41-85.38-12.1-10.27-27.44-3.85-40.11,3.34-16.14,9.17-29.41,23.2-42.43,37-8.14,8.65-10.13,16.38-13.8,27.68" transform="translate(-524.59 -177.88)"/><path class="cls-1" d="M692.5,587.6c.66,25.95-.85,109.89-.49,135.85.07,5.59.2,11.41,2.72,16.41,3.86,7.67,12.72,11.79,21.29,12.32,54.76,3.43,111.43-2.29,166.9,1.06,77.46,4.66,154.82-3.93,232.45,1.32,5.62.37,12,.51,16-3.38s4.23-10.23,4.1-15.86c-1-42.17,2.77-141.7,2.77-184,3-60.05-4.47-120-2.59-180.09,1-30.31,4-62.13-8.78-89.63-9.3-20-26-35.4-42.34-50.25-13.62-12.41-27.67-25.08-44.84-31.74s-35.9-6.78-54.22-6.77c-89.79.06-179.69,3.58-269.16,1.5-8.78-.21-18.63,2.19-23.21,9.69-2.73,4.48-3.08,10-3.36,15.21-2.83,53.34.24,106.23-.37,159.93C688.58,448.72,690.76,518.15,692.5,587.6Z" transform="translate(-524.59 -177.88)"/><path class="cls-1" d="M746.92,266.6a612.7,612.7,0,0,1,107.42.67" transform="translate(-524.59 -177.88)"/><path class="cls-1" d="M749.82,324.45,1027.43,322" transform="translate(-524.59 -177.88)"/><path class="cls-1" d="M751.18,383.37l119.18,1.18" transform="translate(-524.59 -177.88)"/><path class="cls-1" d="M753.81,446.65q146.82-8.2,294-4.55" transform="translate(-524.59 -177.88)"/><path class="cls-1" d="M752.15,501l105.65,3.6" transform="translate(-524.59 -177.88)"/><path class="cls-1" d="M751.15,555.28l296.59-6.45" transform="translate(-524.59 -177.88)"/><path class="cls-1" d="M757.94,608.27l73.13-2.71" transform="translate(-524.59 -177.88)"/><path class="cls-1" d="M752.09,667.27a1703.56,1703.56,0,0,1,308.81,4.24" transform="translate(-524.59 -177.88)"/><path class="cls-1" d="M542.52,293.94l25.92,38.66c3.24,4.84,7.8,10.29,13.55,9.38s8.32-7.23,10-12.66c9-28.82,22-62.64,31-91.46" transform="translate(-524.59 -177.88)"/><path class="cls-1" d="M545.79,677.23,575,713.36c2.69,3.33,6.34,7,10.52,6.09,3.85-.86,5.7-5.15,7-8.88l33.36-98.45" transform="translate(-524.59 -177.88)"/><path class="cls-1" d="M1041.48,200.65l-11.12,63.53c-1,5.86-1.85,12.51,2.12,17.15,4.27,5,12.1,5.38,18.94,5.36l64.37-.18" transform="translate(-524.59 -177.88)"/><path class="cls-1" d="M544.26,441.93l80.57,67.71" transform="translate(-524.59 -177.88)"/><path class="cls-1" d="M618.42,438.64a852,852,0,0,0-78.83,79.92" transform="translate(-524.59 -177.88)"/><path class="cls-1" d="M1292.66,594.14a268.9,268.9,0,0,1-77.07,72.72,194.59,194.59,0,0,1,40.79-96.28" transform="translate(-524.59 -177.88)"/><path class="cls-1" d="M1262,558.47c8.41,8.44,33.56,28,45.43,25,7-1.78,11.79-8,16-13.9,14-19.51,29.7-38.43,42.7-58.57,39-60.42,80.28-119.5,126.43-174.66-16.28-14.57-43.89-34-65.12-20.12-20.07,13.09-35.64,50.8-48.82,70.24C1368.43,401.47,1257.84,554.31,1262,558.47Z" transform="translate(-524.59 -177.88)"/></svg>