<?xml version="1.0" encoding="UTF-8" standalone="no"?>
<svg
   xmlns:dc="http://purl.org/dc/elements/1.1/"
   xmlns:cc="http://creativecommons.org/ns#"
   xmlns:rdf="http://www.w3.org/1999/02/22-rdf-syntax-ns#"
   xmlns:svg="http://www.w3.org/2000/svg"
   xmlns="http://www.w3.org/2000/svg"
   xmlns:sodipodi="http://sodipodi.sourceforge.net/DTD/sodipodi-0.dtd"
   xmlns:inkscape="http://www.inkscape.org/namespaces/inkscape"
   sodipodi:docname="logo3-minified.svg"
   inkscape:version="1.0 (4035a4fb49, 2020-05-01)"
   id="svg1666"
   version="1.1"
   viewBox="0 0 158.88301 132.15576"
   height="132.15576mm"
   width="158.88301mm">
  <defs
     id="defs1660" />
  <sodipodi:namedview
     inkscape:window-maximized="1"
     inkscape:window-y="-8"
     inkscape:window-x="-8"
     inkscape:window-height="1017"
     inkscape:window-width="1920"
     inkscape:snap-global="true"
     inkscape:snap-nodes="false"
     inkscape:snap-object-midpoints="true"
     inkscape:snap-center="false"
     inkscape:snap-bbox="false"
     inkscape:snap-intersection-paths="true"
     showgrid="false"
     inkscape:document-rotation="0"
     inkscape:current-layer="layer1"
     inkscape:document-units="mm"
     inkscape:cy="266.57915"
     inkscape:cx="342.71617"
     inkscape:zoom="0.9890377"
     inkscape:pageshadow="2"
     inkscape:pageopacity="0.0"
     borderopacity="1.0"
     bordercolor="#666666"
     pagecolor="#ffffff"
     id="base" />
  <metadata
     id="metadata1663">
    <rdf:RDF>
      <cc:Work
         rdf:about="">
        <dc:format>image/svg+xml</dc:format>
        <dc:type
           rdf:resource="http://purl.org/dc/dcmitype/StillImage" />
        <dc:title></dc:title>
      </cc:Work>
    </rdf:RDF>
  </metadata>
  <g
     transform="translate(-74.319494,-39.892139)"
     style="opacity:1;mix-blend-mode:normal"
     id="layer1"
     inkscape:groupmode="layer"
     inkscape:label="Livello 1">
    <path
       d="m 140.17225,67.996653 a 37.750623,37.750623 0 0 0 -37.75052,37.750807 37.750623,37.750623 0 0 0 37.75052,37.75051 37.750623,37.750623 0 0 0 26.65174,-11.01496 l -10.7618,-10.7618 a 22.531046,22.531046 0 0 1 -15.88994,6.55723 22.531046,22.531046 0 0 1 -22.531,-22.53098 22.531046,22.531046 0 0 1 22.45043,-22.530984 22.531046,22.531046 0 0 1 0.0806,0 22.531046,22.531046 0 0 1 15.88995,6.557228 l 10.7618,-10.761793 A 37.750623,37.750623 0 0 0 140.17225,67.996653 Z"
       style="opacity:1;fill:#00589d;fill-opacity:1;fill-rule:evenodd;stroke:none;stroke-width:0.0449521;stroke-miterlimit:4;stroke-dasharray:none;paint-order:fill markers stroke"
       id="path2231" />
    <path
       d="M 140.39711,39.892139 A 66.077663,66.07766 0 0 0 74.319494,105.97027 66.077663,66.07766 0 0 0 140.39711,172.0479 66.077663,66.07766 0 0 0 187.04749,152.76742 L 174.95004,140.66997 A 49.149748,49.149746 0 0 1 140.43691,154.82672 49.149748,49.149746 0 0 1 91.286933,105.67675 49.149748,49.149746 0 0 1 140.43691,56.527297 49.149748,49.149746 0 0 1 175.24408,70.976544 L 187.04749,59.173131 A 66.077663,66.07766 0 0 0 140.39711,39.892139 Z"
       style="opacity:1;fill:#7f8b99;fill-opacity:1;fill-rule:evenodd;stroke:none;stroke-width:0.0786834;stroke-miterlimit:4;stroke-dasharray:none;paint-order:fill markers stroke"
       id="path2231-8" />
    <rect
       y="99.99572"
       x="159.3681"
       height="11.503185"
       width="34.509552"
       id="rect2470"
       style="opacity:1;fill:#00589d;fill-opacity:1;fill-rule:evenodd;stroke:none;stroke-width:0.0679401;stroke-miterlimit:4;stroke-dasharray:none;paint-order:fill markers stroke" />
    <rect
       transform="rotate(90)"
       style="opacity:1;fill:#00589d;fill-opacity:1;fill-rule:evenodd;stroke:none;stroke-width:0.06794;stroke-miterlimit:4;stroke-dasharray:none;paint-order:fill markers stroke"
       id="rect2470-6"
       width="34.509552"
       height="11.503185"
       x="88.492538"
       y="-182.37448" />
    <rect
       style="opacity:1;mix-blend-mode:normal;fill:#00589d;fill-opacity:1;fill-rule:evenodd;stroke:none;stroke-width:0.06794;stroke-miterlimit:4;stroke-dasharray:none;paint-order:fill markers stroke"
       id="rect2470-0"
       width="34.509552"
       height="11.503185"
       x="198.69295"
       y="99.995728" />
    <rect
       y="-221.69933"
       x="88.492538"
       height="11.503185"
       width="34.509552"
       id="rect2470-6-7"
       style="opacity:1;mix-blend-mode:normal;fill:#00589d;fill-opacity:1;fill-rule:evenodd;stroke:none;stroke-width:0.06794;stroke-miterlimit:4;stroke-dasharray:none;paint-order:fill markers stroke"
       transform="rotate(90)" />
  </g>
</svg>
