<svg id="Livello_1" data-name="Livello 1" xmlns="http://www.w3.org/2000/svg" viewBox="0 0 1174.52 589.45"><path d="M650.16,540.59q0-16.15,1.55-32c-93-3.84-176.07,6.72-253,32.06a17.5,17.5,0,1,0,10.95,33.25c72.85-24,151.86-34,240.54-30.35C650.18,542.54,650.16,541.57,650.16,540.59Z" transform="translate(-386.67 -237.08)"/><path d="M1560.88,539.45a17.49,17.49,0,0,0-20.44-14c-100.26,18.93-154.48,19.24-241.07,5.37,0,.5,0,1,0,1.5a329.79,329.79,0,0,1-1.72,33.65c39.53,6.19,73.12,9.5,107.5,9.5,42,0,85.16-4.94,141.76-15.63A17.49,17.49,0,0,0,1560.88,539.45Z" transform="translate(-386.67 -237.08)"/><path d="M1208.26,352.05c-.6,1.22-1.2,2.45-1.81,3.67q-7.89,15.9-16,31.68a258.27,258.27,0,0,1,44,144.41c0,143.21-116.51,259.73-259.73,259.73S714.94,675,714.94,531.81,831.45,272.08,974.66,272.08a258.22,258.22,0,0,1,144.49,44q7.93-15.84,15.71-31.76a294.94,294.94,0,1,0,73.4,67.72Z" transform="translate(-386.67 -237.08)"/><path d="M983.56,676.53c-28.93,0-45.91-27.7-53.24-39.64l-71.26-116.2a17.5,17.5,0,0,1,29.84-18.3l71.26,116.2c3.49,5.7,14.07,22.93,23.5,22.93h.24c9.84-.32,19.15-19.33,22.21-25.58l176.47-360.49A17.5,17.5,0,1,1,1214,270.84L1037.55,631.33c-5.92,12.08-21.63,44.17-52.52,45.17Z" transform="translate(-386.67 -237.08)"/></svg>