<svg id="Livello_1" data-name="Livello 1" xmlns="http://www.w3.org/2000/svg" viewBox="0 0 1186.05 687.34"><defs><style>.cls-1,.cls-2{fill:none;stroke-linecap:round;stroke-miterlimit:10;}.cls-1{stroke:#000;stroke-width:40px;}.cls-2{stroke:#fff;stroke-width:95px;}.cls-3{fill:#fff;}</style></defs><path class="cls-1" d="M397.63,557.24c78.95-25.43,172.09-38.3,291-28.91" transform="translate(-377.63 -177.76)"/><path class="cls-1" d="M1251.89,540.37c112.79,20.84,170.54,25.22,291.8,2.33" transform="translate(-377.63 -177.76)"/><circle class="cls-2" cx="597.03" cy="362.62" r="277.23"/><circle class="cls-1" cx="597.03" cy="354.05" r="277.23"/><path class="cls-3" d="M1173.6,419.15c11.42-20.9,22.26-42.1,32.85-63.43,10.88-21.91,21.54-43.94,32.37-65.88q9.87-20,20-39.86a35.71,35.71,0,0,0,5.7-17.84,36.35,36.35,0,0,0-.86-19.14,36.15,36.15,0,0,0-8.59-16.33,36.34,36.34,0,0,0-13.47-12.36l-11.46-4.84a48.46,48.46,0,0,0-25.52,0l-11.47,4.84a48.33,48.33,0,0,0-17.22,17.22c-11.74,23-23.12,46.18-34.47,69.37-10.51,21.47-21,43-31.92,64.22q-9.18,17.89-18.81,35.57a35.72,35.72,0,0,0-5.7,17.85,43.11,43.11,0,0,0,9.45,35.46,36.21,36.21,0,0,0,13.47,12.37l11.46,4.83a48.26,48.26,0,0,0,25.52,0l11.47-4.83a48.33,48.33,0,0,0,17.22-17.22Z" transform="translate(-377.63 -177.76)"/><path class="cls-1" d="M874,511.54l71.26,116.2c9.19,15,21.67,31.84,39.23,31.27,18.07-.58,29.41-19.14,37.36-35.38q88.23-180.24,176.47-360.48" transform="translate(-377.63 -177.76)"/></svg>