<svg id="Livello_1" data-name="Livello 1" xmlns="http://www.w3.org/2000/svg" viewBox="0 0 950.7 452.5"><defs><style>.cls-1{fill:none;stroke:#000;stroke-linecap:round;stroke-miterlimit:10;stroke-width:30px;}</style></defs><path d="M1321.59,658.82a15,15,0,0,0-17.3-12.29c-74.11,12.54-122.74,6.5-153-19-28.59-24.06-42.6-66.84-42.85-130.79v-.53c0-.52,0-1.06-.05-1.59l-30-.33c0,1,.06,1.89.1,2.83.32,73.15,17.83,123.32,53.52,153.36,37.56,31.61,93.92,39.76,177.38,25.64A15,15,0,0,0,1321.59,658.82Z" transform="translate(-505.88 -282.48)"/><path d="M526.12,325.08c44.29-16.5,82.53-16.75,107.68-.7,21.58,13.78,34,39.26,36.83,75.78.34,4.15.57,8.4.76,12.69l30,.32c-.21-5.21-.49-10.36-.89-15.39-4.52-57.75-30-85.54-50.6-98.69-17.26-11-38.09-16.6-61.89-16.61h0c-22.21,0-46.55,4.87-72.36,14.49a15,15,0,1,0,10.48,28.11Z" transform="translate(-505.88 -282.48)"/><path d="M926.6,415.62c.62-4.8,1.36-9.49,2.28-14l.14-.85c4-27.89,10.51-46.79,21.19-61.25,13.86-18.43,36.71-27.35,61.14-23.87,24.75,3.53,45.11,18.95,53.14,40.24l.19.47c7.26,17.43,10.42,38.83,11.85,60.94l30.08.33c-1.51-25.48-5.12-50.81-14.14-72.57-12-31.41-41.39-54-76.89-59.11s-68.88,8.26-89.4,35.61l-.07.08c-17.77,24.06-23.78,53.94-26.73,74.48-1.24,6.22-2.19,12.65-2.94,19.22Z" transform="translate(-505.88 -282.48)"/><path d="M894,492.27c.42,60.62.55,123.06-38.42,159.7-22.41,17.33-64.43,20.74-90.43,7.27-60.26-33.86-64.78-100.85-64.07-169.07l-30-.32c-.78,74.43,4.5,153.65,79.6,195.68l.38.2c15.13,7.91,33.49,11.74,52,11.74,26.31,0,53-7.69,71.53-22.33l.9-.77c22.42-20.81,36.57-48.94,43.25-86,5.54-30.68,5.42-63.74,5.2-95.79Z" transform="translate(-505.88 -282.48)"/><path class="cls-1" d="M1311.31,691.76c-.22,8.61,0,18.42,6.53,24.09,7.28,6.38,18.46,4.2,27.66,1.19A290.71,290.71,0,0,0,1425.93,676c7.21-5.25,15.54-11.76,15.65-20.68.05-4.8-15.43-16.47-25.19-22.42-21.22-12.91-25.44-15.92-45.82-24.66-12-5.16-35.92-18.14-48.36-10.49-10.16,6.26-9,21.79-9.32,32.09C1312.24,650.45,1311.83,671.11,1311.31,691.76Z" transform="translate(-505.88 -282.48)"/><path class="cls-1" d="M520.88,452.89c23,.95,46-1.34,69-1.92,240.61-6.05,483.44,6.74,708.79,6.74" transform="translate(-505.88 -282.48)"/><path class="cls-1" d="M1299.69,415.23c-.22-8.62,0-18.44,6.54-24.12,7.28-6.38,18.47-4.2,27.67-1.19A290.81,290.81,0,0,1,1414.4,431c7.21,5.25,15.55,11.77,15.66,20.69,0,4.8-15.44,16.48-25.22,22.44-21.23,12.92-25.45,15.93-45.84,24.68-12,5.16-36,18.15-48.4,10.49-10.17-6.25-9-21.8-9.33-32.11C1300.62,456.57,1300.21,435.89,1299.69,415.23Z" transform="translate(-505.88 -282.48)"/></svg>