<svg id="Livello_1" data-name="Livello 1" xmlns="http://www.w3.org/2000/svg" viewBox="0 0 1006.28 457.5"><defs><style>.cls-1,.cls-2{fill:none;stroke-linecap:round;stroke-miterlimit:10;}.cls-1{stroke:#000;stroke-width:35px;}.cls-2{stroke:#fff;stroke-width:77px;}</style></defs><path class="cls-1" d="M615.59,432.76c86.69-32.29,157.18-8.31,164.7,87.93,7.52,93.1-25,218.95,72.47,273.49,31,16.19,79.91,12.63,107.33-9.07,67.06-62.23,32.15-182.16,48.79-264.75,3.43-24.08,9.55-48.54,24-68.1,37.57-50.07,119.4-35.52,140.35,20,17.51,42.05,13.09,100.72,14.86,146.24.62,161.56,88.19,185.72,213.4,164.53" transform="translate(-547.5 -401.72)"/><path class="cls-2" d="M586,571.13l760.87,8.28" transform="translate(-547.5 -401.72)"/><path class="cls-1" d="M1406,813.5c-.22,8.61,0,18.42,6.53,24.09,7.28,6.38,18.46,4.2,27.66,1.19a290.43,290.43,0,0,0,80.43-41.08c7.21-5.25,15.54-11.76,15.65-20.68,0-4.8-15.43-16.47-25.2-22.42-21.21-12.91-25.43-15.92-45.81-24.66-12-5.16-35.92-18.14-48.36-10.49-10.16,6.26-9,21.79-9.32,32.09C1407,772.19,1406.54,792.85,1406,813.5Z" transform="translate(-547.5 -401.72)"/><path class="cls-1" d="M615.59,574.63c23,1,46-1.34,69-1.92,240.61-6.05,483.44,6.74,708.78,6.74" transform="translate(-547.5 -401.72)"/><path class="cls-1" d="M1394.4,537c-.22-8.62,0-18.44,6.53-24.12,7.29-6.38,18.48-4.2,27.68-1.19a290.61,290.61,0,0,1,80.49,41.12c7.22,5.25,15.56,11.77,15.66,20.69.06,4.8-15.43,16.48-25.21,22.44-21.23,12.92-25.45,15.93-45.84,24.68-12,5.16-36,18.15-48.4,10.49-10.17-6.25-9-21.8-9.33-32.1C1395.33,578.31,1394.92,557.63,1394.4,537Z" transform="translate(-547.5 -401.72)"/></svg>