<svg id="Livello_1" data-name="Livello 1" xmlns="http://www.w3.org/2000/svg" viewBox="0 0 640.17 1044.55"><path d="M824.22,896.59c8.1-.41,1,83.42,4,113.74-158.45,1.92-310.92.75-469.37,2.67-2.82-36.34-1.59-72.76-3.4-109.14,109.53,1.68,116,1.86,201.55-1.09C636.32,900,745,900.59,824.22,896.59Z" transform="translate(-191.13 -373.26)" fill="none" stroke="#000" stroke-linecap="round" stroke-linejoin="round" stroke-width="4"/><path d="M358.9,1032.49c-8.1-.41-1,78.42-4,108.74l468.37,5.67c2.83-36.33,2.59-78.76,4.4-115.14C728.09,1034.81,438.16,1036.5,358.9,1032.49Z" transform="translate(-191.13 -373.26)" fill="none" stroke="#000" stroke-linecap="round" stroke-linejoin="round" stroke-width="4"/><path d="M285.27,1383.11q3.83-484.68-.74-969.84-.22,19.25-.47,38.47" transform="translate(-191.13 -373.26)" fill="none" stroke="#000" stroke-linecap="round" stroke-linejoin="round" stroke-width="4"/><path d="M303.82,444.65c-2.92-12.39-10-24.31-20.43-34.59L262,441.28" transform="translate(-191.13 -373.26)" fill="none" stroke="#000" stroke-linecap="round" stroke-linejoin="round" stroke-width="4"/><path d="M823.36,1165c8.1-.34.21,76.4,2.94,106.75l-468.4,1.36c-2.49-36.35-2.92-72.78-4.4-109.18,99.55,4,134.74,3.63,203.56.79C636.35,1161.39,744.07,1168.23,823.36,1165Z" transform="translate(-191.13 -373.26)" fill="none" stroke="#000" stroke-linecap="round" stroke-linejoin="round" stroke-width="4"/><path d="M587.27,1300.79c3.52,45.15,5.06,69.65,2.56,114.84,0,0-154.31-.42-231.91.18,4.49-40.5.3-116.38.3-116.38C419.63,1299.43,587.4,1302.49,587.27,1300.79Z" transform="translate(-191.13 -373.26)" fill="none" stroke="#000" stroke-linecap="round" stroke-linejoin="round" stroke-width="4"/><path d="M825.05,1300.79c3.37,45.15,4.83,69.65,2.44,114.84,0,0-147.27-.42-221.34.18,4.29-40.5.3-116.38.3-116.38C665.06,1299.43,825.18,1302.49,825.05,1300.79Z" transform="translate(-191.13 -373.26)" fill="none" stroke="#000" stroke-linecap="round" stroke-linejoin="round" stroke-width="4"/><path d="M503.86,933.32h7v41.57h-7Z" transform="translate(-191.13 -373.26)"/><path d="M543.14,960.31c0,10.87-7,15.18-13.43,15.18-7.5,0-13.13-5.44-13.13-14.79,0-9.71,5.87-15.13,13.54-15.13S543.14,951.38,543.14,960.31Zm-19.45.23c0,5.32,2.17,9.8,6.25,9.8,3.85,0,6.09-4.52,6.09-9.86,0-4.41-1.61-9.75-6.09-9.75S523.69,955.94,523.69,960.54Z" transform="translate(-191.13 -373.26)"/><path d="M548.76,954.58c0-3.3-.12-5.91-.24-8.41h6.08l.35,4h.15a9.67,9.67,0,0,1,8.45-4.63c4.94,0,9.35,3.38,9.35,11.74v17.58h-7V958.08c0-3.74-1.24-6.78-4.84-6.78a5.34,5.34,0,0,0-5,4,7.83,7.83,0,0,0-.33,2.39v17.16h-7Z" transform="translate(-191.13 -373.26)"/><path d="M604.29,946.17c-.14,2.05-.26,4.57-.26,8.48v16.28c0,6.26-1.17,10.2-3.93,12.76s-6.46,3.38-10.35,3.38a19.28,19.28,0,0,1-9-2l1.48-5.34a15.63,15.63,0,0,0,7.49,1.92c4.43,0,7.46-2.48,7.46-8.41v-2.39H597a8.45,8.45,0,0,1-7.44,3.89c-6.74,0-11.16-6.08-11.16-14,0-9.64,5.66-15.14,11.92-15.14a8,8,0,0,1,7.44,4.19h.12l.28-3.59Zm-7.22,11.13a7.41,7.41,0,0,0-.24-2c-.67-2.33-2.39-4.24-5.12-4.24-3.72,0-6.26,3.68-6.26,9.42,0,5.29,2.28,9,6.21,9a5.26,5.26,0,0,0,5.08-4,8.45,8.45,0,0,0,.33-2.51Z" transform="translate(-191.13 -373.26)"/><path d="M629.9,938.28a3.71,3.71,0,0,1-3.95,3.83,3.84,3.84,0,1,1,3.95-3.83Zm-7.33,36.61V946.17h7v28.72Z" transform="translate(-191.13 -373.26)"/><path d="M636.79,954.58c0-3.3-.12-5.91-.24-8.41h6.08l.35,4h.15a9.65,9.65,0,0,1,8.45-4.63c4.94,0,9.35,3.38,9.35,11.74v17.58h-7V958.08c0-3.74-1.24-6.78-4.84-6.78a5.34,5.34,0,0,0-5,4,7.83,7.83,0,0,0-.33,2.39v17.16h-7Z" transform="translate(-191.13 -373.26)"/><path d="M675.84,938.1v8.07h6.51v5.16h-6.51v13.34c0,3.52,1.06,5,3.48,5a10.58,10.58,0,0,0,2.56-.27l.14,5.34a15.89,15.89,0,0,1-4.93.66,7.94,7.94,0,0,1-5.9-2.19c-1.51-1.58-2.22-4-2.22-8V951.33h-3.91v-5.16H669v-6.38Z" transform="translate(-191.13 -373.26)"/><path d="M472,1097.42c0,3.33.12,6.16.24,8.53h-6.08l-.36-3.94h-.15a9.65,9.65,0,0,1-8.37,4.54c-5.25,0-9.21-3.4-9.21-12.21v-17.11h7v16c0,4.57,1.28,7.57,4.74,7.57a5.27,5.27,0,0,0,4.85-3.56A6.75,6.75,0,0,0,465,1095v-17.72h7Z" transform="translate(-191.13 -373.26)"/><path d="M479.22,1085.63c0-3.29-.11-5.9-.23-8.4h6.08l.35,4h.15a9.65,9.65,0,0,1,8.44-4.63c4.95,0,9.35,3.37,9.35,11.73V1106h-7v-16.81c0-3.74-1.25-6.78-4.85-6.78a5.34,5.34,0,0,0-5,4,8,8,0,0,0-.33,2.4V1106h-7Z" transform="translate(-191.13 -373.26)"/><path d="M510.1,1099.49a14.2,14.2,0,0,0,6.62,1.92c2.91,0,4.32-1.3,4.32-3.24s-1.08-3-4.35-4.33c-5.21-2.11-7.32-5.08-7.3-8.34,0-5,4-8.87,10.26-8.87a15,15,0,0,1,7,1.62l-1.4,5a11.13,11.13,0,0,0-5.43-1.53c-2.46,0-3.79,1.33-3.79,3s1.18,2.63,4.55,4.08c4.81,2,7.11,4.69,7.12,8.73,0,5.42-4.08,9-11,9a16.25,16.25,0,0,1-8-1.9Z" transform="translate(-191.13 -373.26)"/><path d="M540.54,1069.34a3.7,3.7,0,0,1-3.94,3.83,3.84,3.84,0,1,1,3.94-3.83ZM533.21,1106v-28.72h7V1106Z" transform="translate(-191.13 -373.26)"/><path d="M571.68,1077.23c-.13,2-.25,4.57-.25,8.48V1102c0,6.26-1.17,10.2-3.93,12.76s-6.46,3.38-10.35,3.38a19.28,19.28,0,0,1-9-2l1.47-5.34a15.64,15.64,0,0,0,7.5,1.92c4.43,0,7.46-2.48,7.46-8.41v-2.4h-.12a8.45,8.45,0,0,1-7.45,3.89c-6.73,0-11.15-6.07-11.15-14,0-9.64,5.66-15.14,11.92-15.14a8,8,0,0,1,7.44,4.19h.12l.28-3.59Zm-7.21,11.13a7.36,7.36,0,0,0-.24-2c-.67-2.33-2.39-4.25-5.12-4.25-3.72,0-6.27,3.69-6.27,9.43,0,5.29,2.29,9,6.22,9a5.28,5.28,0,0,0,5.08-4,8.78,8.78,0,0,0,.33-2.51Z" transform="translate(-191.13 -373.26)"/><path d="M578.46,1085.63c0-3.29-.12-5.9-.23-8.4h6.08l.34,4h.16a9.65,9.65,0,0,1,8.44-4.63c4.94,0,9.35,3.37,9.35,11.73V1106h-7v-16.81c0-3.74-1.24-6.78-4.84-6.78a5.34,5.34,0,0,0-5,4,8,8,0,0,0-.33,2.4V1106h-7Z" transform="translate(-191.13 -373.26)"/><path d="M614.81,1093.5c.16,5.57,3.87,7.69,8.13,7.69A19.24,19.24,0,0,0,630,1100l1,4.86a23.55,23.55,0,0,1-9.18,1.68c-8.75,0-13.77-5.64-13.77-14.47,0-8.4,4.73-15.39,13-15.39s11.39,7,11.39,13.73a17.15,17.15,0,0,1-.23,3.14Zm11.19-4.88c0-3.25-1.23-7.11-5.3-7.11s-5.62,4-5.89,7.11Z" transform="translate(-191.13 -373.26)"/><path d="M662.3,1064.38V1098c0,2.77.12,6,.23,8h-6.14l-.34-4.2h-.15a9.2,9.2,0,0,1-8.32,4.8c-6.47,0-11.21-5.92-11.21-14.7,0-9.77,5.48-15.22,11.71-15.22,3.46,0,6,1.48,7.14,3.56h.12v-15.81Zm-7,24.52a10.74,10.74,0,0,0-.14-1.86,5.68,5.68,0,0,0-5.4-4.87c-4.24,0-6.39,4.25-6.39,9.51,0,5.42,2.29,9.24,6.28,9.24,2.44,0,4.68-1.61,5.43-4.69a8,8,0,0,0,.22-2Z" transform="translate(-191.13 -373.26)"/><path d="M688.21,1069.34a3.86,3.86,0,1,1-3.85-3.84A3.7,3.7,0,0,1,688.21,1069.34ZM680.88,1106v-28.72h7V1106Z" transform="translate(-191.13 -373.26)"/><path d="M695.1,1085.63c0-3.29-.11-5.9-.23-8.4H701l.34,4h.16a9.65,9.65,0,0,1,8.44-4.63c4.94,0,9.35,3.37,9.35,11.73V1106h-7v-16.81c0-3.74-1.24-6.78-4.84-6.78a5.34,5.34,0,0,0-5,4,8,8,0,0,0-.33,2.4V1106h-7Z" transform="translate(-191.13 -373.26)"/><path d="M734.15,1069.16v8.07h6.51v5.16h-6.51v13.34c0,3.51,1.07,5,3.49,5a10.58,10.58,0,0,0,2.56-.27l.14,5.34a15.91,15.91,0,0,1-4.94.66,8,8,0,0,1-5.9-2.19c-1.5-1.58-2.22-4-2.22-8v-13.94h-3.9v-5.16h3.9v-6.38Z" transform="translate(-191.13 -373.26)"/><path d="M566.86,1200a3.71,3.71,0,0,1-4,3.83,3.66,3.66,0,0,1-3.76-3.83,3.86,3.86,0,0,1,7.71,0Zm-7.33,36.61v-28.72h7v28.72Z" transform="translate(-191.13 -373.26)"/><path d="M573.75,1216.29c0-3.29-.12-5.9-.24-8.4h6.08l.35,4h.15a9.65,9.65,0,0,1,8.45-4.63c4.94,0,9.35,3.37,9.35,11.73v17.59h-7V1219.8c0-3.75-1.24-6.79-4.84-6.79a5.34,5.34,0,0,0-5,4,8,8,0,0,0-.33,2.4v17.16h-7Z" transform="translate(-191.13 -373.26)"/><path d="M612.8,1199.82v8.07h6.51V1213H612.8v13.35c0,3.51,1.06,5,3.48,5a11.11,11.11,0,0,0,2.56-.27l.14,5.34a15.89,15.89,0,0,1-4.93.66,8,8,0,0,1-5.9-2.19c-1.51-1.58-2.22-4.06-2.22-8v-14H602v-5.15h3.91v-6.39Z" transform="translate(-191.13 -373.26)"/><path d="M446.65,1373.83a17.81,17.81,0,0,1-7.13,1.32c-8.35,0-13.77-5.56-13.77-14.63,0-8.6,5.54-15.2,14.89-15.2a16,16,0,0,1,6.15,1.17l-1.19,5.32a10.78,10.78,0,0,0-4.76-1c-5.1,0-8,4.15-8,9.43,0,5.88,3.42,9.32,8,9.32a11.88,11.88,0,0,0,4.91-1Z" transform="translate(-191.13 -373.26)"/><path d="M451.5,1333h7v16.51h.12a9.63,9.63,0,0,1,3.26-3,9.37,9.37,0,0,1,4.63-1.2c4.78,0,9.15,3.4,9.15,12v17.28h-7V1358c0-3.85-1.24-6.92-4.86-6.92a5.29,5.29,0,0,0-5,3.91,7.45,7.45,0,0,0-.29,2.19v17.48h-7Z" transform="translate(-191.13 -373.26)"/><path d="M497.75,1374.61l-.46-3.12h-.17a9.4,9.4,0,0,1-7.75,3.72,8.23,8.23,0,0,1-8.51-8.53c0-7.29,6.39-10.8,15.75-10.78v-.57c0-2.21-.87-5-5.37-5a13.62,13.62,0,0,0-7,2l-1.37-4.59a19.34,19.34,0,0,1,9.67-2.4c8.66,0,11.07,5.58,11.07,11.83v10.68a42.61,42.61,0,0,0,.43,6.81Zm-.95-14.16c-4.33,0-9.09.92-9.09,5.48,0,2.94,1.81,4.22,3.83,4.22a5.24,5.24,0,0,0,5.07-3.77,5.7,5.7,0,0,0,.19-1.54Z" transform="translate(-191.13 -373.26)"/><path d="M510.72,1354.78c0-3.49-.1-6.37-.23-8.9h6l.29,5.13h.2c1.32-3.71,4.38-5.72,7.25-5.72a7,7,0,0,1,1.6.14v6.68a9.35,9.35,0,0,0-1.9-.17c-3.08,0-5.41,2.09-6.07,5.33a12.45,12.45,0,0,0-.21,2.36v15h-7Z" transform="translate(-191.13 -373.26)"/><path d="M656.71,1368.15a14.2,14.2,0,0,0,6.62,1.92c2.91,0,4.32-1.3,4.32-3.24s-1.08-2.95-4.35-4.33c-5.22-2.12-7.32-5.09-7.3-8.34,0-5,4-8.87,10.26-8.87a15,15,0,0,1,7,1.62l-1.4,5a11.27,11.27,0,0,0-5.43-1.52c-2.46,0-3.79,1.33-3.79,3s1.18,2.62,4.55,4.08c4.81,2,7.1,4.69,7.12,8.73,0,5.42-4.08,9-11,9a16.36,16.36,0,0,1-8-1.9Z" transform="translate(-191.13 -373.26)"/><path d="M679.82,1333h7v16.51h.11a9.66,9.66,0,0,1,3.27-3,9.37,9.37,0,0,1,4.63-1.2c4.78,0,9.15,3.4,9.15,12v17.28h-7V1358c0-3.85-1.24-6.92-4.86-6.92a5.29,5.29,0,0,0-5,3.91,7.45,7.45,0,0,0-.29,2.19v17.48h-7Z" transform="translate(-191.13 -373.26)"/><path d="M736,1360c0,10.87-7,15.18-13.43,15.18-7.5,0-13.14-5.45-13.14-14.79,0-9.71,5.88-15.13,13.55-15.13S736,1351.09,736,1360Zm-19.45.23c0,5.32,2.17,9.79,6.25,9.79,3.85,0,6.09-4.51,6.09-9.86,0-4.41-1.61-9.75-6.1-9.75S716.58,1355.66,716.58,1360.26Z" transform="translate(-191.13 -373.26)"/><path d="M741.64,1354.78c0-3.49-.1-6.37-.24-8.9h6.06l.28,5.13h.2c1.32-3.71,4.38-5.72,7.25-5.72a6.9,6.9,0,0,1,1.6.14v6.68a9.28,9.28,0,0,0-1.9-.17c-3.07,0-5.41,2.09-6.07,5.33a12.52,12.52,0,0,0-.2,2.36v15h-7Z" transform="translate(-191.13 -373.26)"/><path d="M770.55,1337.82v8.06h6.51V1351h-6.51v13.34c0,3.52,1.07,5,3.48,5a10.38,10.38,0,0,0,2.56-.28l.14,5.34a15.49,15.49,0,0,1-4.93.67,8,8,0,0,1-5.9-2.19c-1.51-1.58-2.22-4.06-2.22-8v-14h-3.9v-5.16h3.9v-6.38Z" transform="translate(-191.13 -373.26)"/><path d="M231.6,1324.6a15.51,15.51,0,0,1,1.64,7.17c0,7.37-5.66,12.35-14.45,12.35-8.63,0-15-5.34-15-13.25a12.68,12.68,0,0,1,1.53-6.37l2.31,1a11.24,11.24,0,0,0-1.44,5.74c0,6.84,6,10.15,12.51,10.15,7.45,0,12.19-4.1,12.19-10a13.46,13.46,0,0,0-1.41-6Z" transform="translate(-191.13 -373.26)"/><path d="M218.36,1297.21c10.53,0,14.94,6.33,14.94,12.06,0,6.34-5.24,11.55-14.6,11.55-9.92,0-14.92-5.71-14.92-12C203.78,1302.18,209.15,1297.21,218.36,1297.21Zm.24,20.83c6.34,0,12.4-3.42,12.4-9s-6.09-9.08-12.55-9.08c-5,0-12.36,2.31-12.36,9C206.09,1315.48,213,1318,218.6,1318Z" transform="translate(-191.13 -373.26)"/><path d="M211.08,1290.55c-2.86,0-4.54.12-6.7.24v-2.52l4.63-.18V1288a9.47,9.47,0,0,1-5.23-8.7c0-2.79,1.58-8.85,11.16-8.85H232.7v2.72H215.42c-4.82,0-9.3,1.61-9.3,6.9a8,8,0,0,0,6.34,7.48,10.57,10.57,0,0,0,2.51.31H232.7v2.72Z" transform="translate(-191.13 -373.26)"/><path d="M204.38,1262.94l17.69-6c2.4-.91,4.85-1.69,7.18-2.32v-.15c-2.25-.63-4.73-1.5-7.18-2.38l-17.69-6v-2.85l28.32,10.26v2.37l-28.32,9.93Z" transform="translate(-191.13 -373.26)"/><path d="M218,1237.92c9.74,0,12.84-4.64,12.84-9.68a13.67,13.67,0,0,0-1.46-6.79l2.13-.68a16.08,16.08,0,0,1,1.69,7.85c0,7.56-5.9,12-14.27,12-9.31,0-15.19-4.76-15.19-11.44,0-8.18,8.18-9.87,12.54-9.87a14.74,14.74,0,0,1,1.72.06Zm-2.19-15.72c-4.86-.09-9.76,1.93-9.76,7.38s5.34,7.77,9.76,8.22Z" transform="translate(-191.13 -373.26)"/><path d="M212.29,1212.76c-2.62,0-5.46.11-7.91.23v-2.54l5.41-.12v-.15c-3.25-1.08-6-3.86-6-7.47a5,5,0,0,1,.1-1h2.71a6.12,6.12,0,0,0-.06,1.09c0,3.81,3.44,6.4,7.67,7a18.17,18.17,0,0,0,2.6.19h15.9v2.72Z" transform="translate(-191.13 -373.26)"/><path d="M229.09,1197.83a10.81,10.81,0,0,0,1.82-5.73c0-4-2.32-6.08-5.32-6.08s-4.67,1.55-6.46,5.33c-1.93,4.18-4.33,6.74-7.83,6.74-4.16,0-7.52-3.24-7.52-8.17a10.14,10.14,0,0,1,1.72-5.78l2.22,1.12a8.27,8.27,0,0,0-1.6,5c0,3.34,2.28,5.12,4.74,5.12,2.76,0,4-1.63,5.78-5.21,1.86-4,4.16-6.89,8.49-6.89,5.08,0,8.11,3.75,8.11,9a12.09,12.09,0,0,1-1.87,6.56Z" transform="translate(-191.13 -373.26)"/><path d="M196.53,1173a2.17,2.17,0,1,1,0,4.33,2.25,2.25,0,0,1-2.36-2.17A2.17,2.17,0,0,1,196.53,1173Zm36.17,3.52H204.38v-2.72H232.7Z" transform="translate(-191.13 -373.26)"/><path d="M218.36,1143.46c10.53,0,14.94,6.33,14.94,12.06,0,6.34-5.24,11.55-14.6,11.55-9.92,0-14.92-5.71-14.92-12C203.78,1148.43,209.15,1143.46,218.36,1143.46Zm.24,20.83c6.34,0,12.4-3.43,12.4-9s-6.09-9.07-12.55-9.07c-5,0-12.36,2.31-12.36,9C206.09,1161.73,213,1164.29,218.6,1164.29Z" transform="translate(-191.13 -373.26)"/><path d="M211.08,1136.8c-2.86,0-4.54.11-6.7.23v-2.51l4.63-.18v-.12a9.48,9.48,0,0,1-5.23-8.7c0-2.8,1.58-8.85,11.16-8.85H232.7v2.72H215.42c-4.82,0-9.3,1.61-9.3,6.89a8,8,0,0,0,6.34,7.49,10.59,10.59,0,0,0,2.51.3H232.7v2.73Z" transform="translate(-191.13 -373.26)"/><path d="M191.13,1096.27v-2.73h17.71v-.12a9.61,9.61,0,0,1-3.62-3.41,9.35,9.35,0,0,1-1.44-5.11c0-2.66,1.49-8.77,11-8.77h17.9v2.73H215.28c-4.76,0-9.13,1.69-9.13,6.81,0,3.58,2.63,6.49,6.19,7.57a8.7,8.7,0,0,0,2.59.3H232.7v2.73Z" transform="translate(-191.13 -373.26)"/><path d="M196.53,1064a2.17,2.17,0,1,1,0,4.33,2.25,2.25,0,0,1-2.36-2.17A2.17,2.17,0,0,1,196.53,1064Zm36.17,3.52H204.38v-2.72H232.7Z" transform="translate(-191.13 -373.26)"/><path d="M218,1055.38c9.74,0,12.84-4.64,12.84-9.69a13.59,13.59,0,0,0-1.46-6.78l2.13-.69a16.11,16.11,0,0,1,1.69,7.85c0,7.56-5.9,12-14.27,12-9.31,0-15.19-4.76-15.19-11.44,0-8.18,8.18-9.86,12.54-9.86a14.74,14.74,0,0,1,1.72.06Zm-2.19-15.72c-4.86-.09-9.76,1.93-9.76,7.37s5.34,7.77,9.76,8.22Z" transform="translate(-191.13 -373.26)"/><path d="M212.29,1030.21c-2.62,0-5.46.12-7.91.24v-2.54l5.41-.12v-.15c-3.25-1.08-6-3.87-6-7.47a5,5,0,0,1,.1-1h2.71a6.06,6.06,0,0,0-.06,1.09c0,3.81,3.44,6.4,7.67,7a18.2,18.2,0,0,0,2.6.18h15.9v2.72Z" transform="translate(-191.13 -373.26)"/><path d="M232.7,1000.48l-3.77.36v.15a9.13,9.13,0,0,1,4.37,7.91c0,5-3.69,7.71-7.79,7.71-6.63,0-10.34-5.56-10.28-15.56h-.84c-3.41,0-8.3.61-8.27,6.54a10.79,10.79,0,0,0,1.88,6.18l-2,.83a13.43,13.43,0,0,1-2.21-7.39c0-6.87,5-8.88,10.55-8.88h11.75a47.75,47.75,0,0,0,6.62-.36Zm-15.16.57c-.12,5,.58,12.69,7.61,12.69,4.12,0,5.85-2.5,5.85-5.13a7.38,7.38,0,0,0-5.59-7.32,6.36,6.36,0,0,0-1.74-.24Z" transform="translate(-191.13 -373.26)"/><path d="M212.29,989.86c-2.62,0-5.46.11-7.91.24v-2.55l5.41-.11v-.15c-3.25-1.08-6-3.87-6-7.47a5.06,5.06,0,0,1,.1-1h2.71a6.17,6.17,0,0,0-.06,1.09c0,3.82,3.44,6.41,7.67,7a16.83,16.83,0,0,0,2.6.19h15.9v2.72Z" transform="translate(-191.13 -373.26)"/><path d="M231.6,957.15a15.55,15.55,0,0,1,1.64,7.17c0,7.38-5.66,12.36-14.45,12.36-8.63,0-15-5.34-15-13.25a12.69,12.69,0,0,1,1.53-6.38l2.31,1a11.25,11.25,0,0,0-1.44,5.75c0,6.84,6,10.15,12.51,10.15,7.45,0,12.19-4.11,12.19-10a13.46,13.46,0,0,0-1.41-6Z" transform="translate(-191.13 -373.26)"/><path d="M191.13,951.07v-2.72h17.71v-.12a9.68,9.68,0,0,1-3.62-3.41,9.39,9.39,0,0,1-1.44-5.12c0-2.65,1.49-8.76,11-8.76h17.9v2.72H215.28c-4.76,0-9.13,1.69-9.13,6.81,0,3.59,2.63,6.5,6.19,7.57a8.68,8.68,0,0,0,2.59.31H232.7v2.72Z" transform="translate(-191.13 -373.26)"/><path d="M204.38,923.59l18.13-6.51c2.16-.74,4.38-1.37,6.24-1.88v-.11c-1.74-.51-4-1.22-6.37-2l-18-6.06v-2.87l19.56,7.11c8.63,3,14.63,5.28,18.29,8.92a16.34,16.34,0,0,1,3.33,4.74l-2.28,1a15,15,0,0,0-3.51-4.71,23.12,23.12,0,0,0-6.68-4.11,4,4,0,0,0-1.32-.33,3.13,3.13,0,0,0-1.19.27l-26.2,9.36Z" transform="translate(-191.13 -373.26)"/><path d="M191.69,877.29c5.8,4.42,13.48,7.63,24.23,7.63a39,39,0,0,0,24-7.63v2.55c-4.89,3.76-12.43,7.71-24,7.71s-19.25-3.95-24.2-7.71Z" transform="translate(-191.13 -373.26)"/><path d="M229.09,873a10.81,10.81,0,0,0,1.82-5.73c0-4-2.32-6.08-5.32-6.08s-4.67,1.55-6.46,5.33c-1.93,4.18-4.33,6.74-7.83,6.74-4.16,0-7.52-3.24-7.52-8.17a10.14,10.14,0,0,1,1.72-5.78l2.22,1.12a8.27,8.27,0,0,0-1.6,5c0,3.34,2.28,5.12,4.74,5.12,2.76,0,4-1.63,5.78-5.21,1.86-4,4.16-6.89,8.49-6.89,5.08,0,8.11,3.75,8.11,9a12.07,12.07,0,0,1-1.87,6.56Z" transform="translate(-191.13 -373.26)"/><path d="M211.08,851.71c-2.86,0-4.54.12-6.7.24v-2.52l4.59-.18v-.12a8.81,8.81,0,0,1-5.19-8.27c0-3.45,2.18-6.24,5.72-7.42v-.12a10.83,10.83,0,0,1-3.73-2.84,8.77,8.77,0,0,1-2-5.91c0-2.85,1.7-8.41,11.46-8.41H232.7v2.72h-17c-5.66,0-9.57,1.92-9.57,6.61,0,3.14,2.44,5.71,5.53,6.69a10.39,10.39,0,0,0,2.83.4H232.7v2.72H214.58c-4.71,0-8.46,1.94-8.46,6.33,0,3.36,2.78,6.12,6.24,7a11.07,11.07,0,0,0,2.69.33H232.7v2.72Z" transform="translate(-191.13 -373.26)"/><path d="M232.7,793.69l-3.77.36v.15a9.13,9.13,0,0,1,4.37,7.91c0,5-3.69,7.71-7.79,7.71-6.63,0-10.34-5.57-10.28-15.56h-.84c-3.41,0-8.3.61-8.27,6.54A10.79,10.79,0,0,0,208,807l-2,.83a13.43,13.43,0,0,1-2.21-7.39c0-6.87,5-8.88,10.55-8.88h11.75a49.35,49.35,0,0,0,6.62-.36Zm-15.16.57c-.12,5,.58,12.69,7.61,12.69,4.12,0,5.85-2.5,5.85-5.13a7.38,7.38,0,0,0-5.59-7.32,6.36,6.36,0,0,0-1.74-.24Z" transform="translate(-191.13 -373.26)"/><path d="M191.13,783v-2.72H232.7V783Z" transform="translate(-191.13 -373.26)"/><path d="M191.13,771.3v-2.72H232.7v2.72Z" transform="translate(-191.13 -373.26)"/><path d="M218,758.91c9.74,0,12.84-4.64,12.84-9.68a13.67,13.67,0,0,0-1.46-6.79l2.13-.69a16.16,16.16,0,0,1,1.69,7.86c0,7.55-5.9,12-14.27,12-9.31,0-15.19-4.77-15.19-11.45,0-8.17,8.18-9.86,12.54-9.86a14.74,14.74,0,0,1,1.72.06Zm-2.19-15.72c-4.86-.09-9.76,1.93-9.76,7.38s5.34,7.76,9.76,8.22Z" transform="translate(-191.13 -373.26)"/><path d="M229.09,734.87a10.88,10.88,0,0,0,1.82-5.74c0-4-2.32-6.07-5.32-6.07s-4.67,1.54-6.46,5.32c-1.93,4.18-4.33,6.75-7.83,6.75-4.16,0-7.52-3.24-7.52-8.18a10.17,10.17,0,0,1,1.72-5.78l2.22,1.13a8.25,8.25,0,0,0-1.6,5c0,3.33,2.28,5.12,4.74,5.12,2.76,0,4-1.64,5.78-5.21,1.86-4,4.16-6.89,8.49-6.89,5.08,0,8.11,3.75,8.11,9a12.13,12.13,0,0,1-1.87,6.57Z" transform="translate(-191.13 -373.26)"/><path d="M196.39,709.8h8v-7.25h2.25v7.25H225.3c3.71,0,5.6-1.17,5.6-3.81a8.88,8.88,0,0,0-.36-2.76l2.1-.33a8.75,8.75,0,0,1,.6,3.5,5.54,5.54,0,0,1-1.9,4.55c-1.39,1.16-3.57,1.58-6.67,1.58h-18v4.41h-2.25v-4.41h-7Z" transform="translate(-191.13 -373.26)"/><path d="M196.39,681.37h8v-7.26h2.25v7.26H225.3c3.71,0,5.6-1.18,5.6-3.82a8.88,8.88,0,0,0-.36-2.76l2.1-.33a8.78,8.78,0,0,1,.6,3.5,5.53,5.53,0,0,1-1.9,4.55c-1.39,1.16-3.57,1.58-6.67,1.58h-18v4.41h-2.25v-4.41h-7Z" transform="translate(-191.13 -373.26)"/><path d="M218.36,647.34c10.53,0,14.94,6.33,14.94,12.06,0,6.33-5.24,11.54-14.6,11.54-9.92,0-14.92-5.7-14.92-12C203.78,652.31,209.15,647.34,218.36,647.34Zm.24,20.83c6.34,0,12.4-3.43,12.4-9s-6.09-9.07-12.55-9.07c-5,0-12.36,2.31-12.36,9C206.09,665.61,213,668.17,218.6,668.17Z" transform="translate(-191.13 -373.26)"/><path d="M232.7,629.14c-1.71-.12-4.46-.24-6.34-.24H191.13v-2.72h18v-.12a9.47,9.47,0,0,1-5.38-9c0-6.16,5.49-10.77,14.54-10.77,10.23,0,15,5.82,15,11.3a9.28,9.28,0,0,1-5.36,8.79v.17l4.76.21Zm-10.62-3a8.59,8.59,0,0,0,2-.21c4.71-1.24,7-4.55,7-8.1,0-5.83-5.53-8.85-12.61-8.85-6.42,0-12.3,2.93-12.3,8.72,0,3.71,3,7.13,7.29,8.17a10.91,10.91,0,0,0,2.34.27Z" transform="translate(-191.13 -373.26)"/><path d="M196.53,596a2.17,2.17,0,1,1,0,4.33,2.25,2.25,0,0,1-2.36-2.17A2.17,2.17,0,0,1,196.53,596Zm36.17,3.52H204.38v-2.72H232.7Z" transform="translate(-191.13 -373.26)"/><path d="M204.38,567.55c1.94.12,4.18.24,7.74.24h16.51c7.57,0,10.85,1.29,13,3.44a12.28,12.28,0,0,1,3.23,8.66,14.75,14.75,0,0,1-2.13,8l-2.22-.95a13.87,13.87,0,0,0,2-7.46c0-5.19-2.78-9-11-9h-3.88v.12a9.12,9.12,0,0,1,5,8.58c0,6.23-5.8,10.91-14,10.91-10.26,0-14.95-6-14.95-11.5a8.66,8.66,0,0,1,4.95-8.26v-.11l-4.35-.15Zm10.44,3a8.45,8.45,0,0,0-2.53.3c-3.11,1-6.2,3.45-6.2,7.71,0,5.27,4.9,8.82,12.34,8.82,7,0,12-3.18,12-8.79,0-3.14-1.86-6.28-6.09-7.62a10.26,10.26,0,0,0-2.92-.42Z" transform="translate(-191.13 -373.26)"/><path d="M204.38,538.58c1.94.12,4.18.24,7.74.24h16.51c7.57,0,10.85,1.29,13,3.44a12.28,12.28,0,0,1,3.23,8.66,14.75,14.75,0,0,1-2.13,8l-2.22-1a13.87,13.87,0,0,0,2-7.46c0-5.19-2.78-9-11-9h-3.88v.12a9.12,9.12,0,0,1,5,8.58c0,6.23-5.8,10.91-14,10.91-10.26,0-14.95-6-14.95-11.5a8.66,8.66,0,0,1,4.95-8.26v-.11l-4.35-.15Zm10.44,3a8.45,8.45,0,0,0-2.53.3c-3.11,1-6.2,3.45-6.2,7.71,0,5.27,4.9,8.82,12.34,8.82,7,0,12-3.18,12-8.79,0-3.14-1.86-6.28-6.09-7.62a10.26,10.26,0,0,0-2.92-.42Z" transform="translate(-191.13 -373.26)"/><path d="M218,529.46c9.74,0,12.84-4.64,12.84-9.68a13.67,13.67,0,0,0-1.46-6.79l2.13-.68a16.08,16.08,0,0,1,1.69,7.85c0,7.55-5.9,12-14.27,12-9.31,0-15.19-4.77-15.19-11.45,0-8.17,8.18-9.86,12.54-9.86a14.74,14.74,0,0,1,1.72.06Zm-2.19-15.72c-4.86-.09-9.76,1.93-9.76,7.38s5.34,7.77,9.76,8.22Z" transform="translate(-191.13 -373.26)"/><path d="M229.09,505.42a10.84,10.84,0,0,0,1.82-5.73c0-4-2.32-6.08-5.32-6.08s-4.67,1.54-6.46,5.32c-1.93,4.18-4.33,6.75-7.83,6.75-4.16,0-7.52-3.24-7.52-8.17a10.12,10.12,0,0,1,1.72-5.78l2.22,1.12a8.25,8.25,0,0,0-1.6,5c0,3.33,2.28,5.12,4.74,5.12,2.76,0,4-1.64,5.78-5.21,1.86-4,4.16-6.89,8.49-6.89,5.08,0,8.11,3.75,8.11,9a12.12,12.12,0,0,1-1.87,6.56Z" transform="translate(-191.13 -373.26)"/><path d="M196.39,480.36h8V473.1h2.25v7.26H225.3c3.71,0,5.6-1.18,5.6-3.82a8.88,8.88,0,0,0-.36-2.76l2.1-.33a8.78,8.78,0,0,1,.6,3.5,5.53,5.53,0,0,1-1.9,4.55c-1.39,1.16-3.57,1.58-6.67,1.58h-18v4.41h-2.25v-4.41h-7Z" transform="translate(-191.13 -373.26)"/><path d="M239.91,470.84c-5.81-4.3-13.49-7.63-24.14-7.63s-18.21,3.27-24.08,7.63v-2.55c4.85-3.76,12.42-7.71,24.11-7.71s19.13,3.95,24.11,7.71Z" transform="translate(-191.13 -373.26)"/><path d="M358.52,502.34c-8.1-.41-1,82.42-4,112.74,158.44,1.92,310.92.75,469.36,2.67,2.83-36.33,1.6-72.75,3.41-109.13-109.53,1.67-116,1.86-201.56-1.09C546.42,504.8,437.77,506.35,358.52,502.34Z" transform="translate(-191.13 -373.26)" fill="none" stroke="#000" stroke-linecap="round" stroke-linejoin="round" stroke-width="4"/><path d="M823.84,637.25c8.1-.41,1,78.41,4,108.74l-468.37,5.66c-2.83-36.33-2.59-78.75-4.4-115.13C454.64,639.56,744.58,641.25,823.84,637.25Z" transform="translate(-191.13 -373.26)" fill="none" stroke="#000" stroke-linecap="round" stroke-linejoin="round" stroke-width="4"/><path d="M359.38,769.7c-8.1-.33-.21,76.41-2.94,106.76l468.4,1.36c2.49-36.36,2.92-72.79,4.39-109.18-99.54,4-134.73,3.63-203.55.78C546.39,766.14,438.67,773,359.38,769.7Z" transform="translate(-191.13 -373.26)" fill="none" stroke="#000" stroke-linecap="round" stroke-linejoin="round" stroke-width="4"/><path d="M535.61,539.07v33.61c0,2.77.12,5.94.24,8H529.7l-.34-4.2h-.14a9.22,9.22,0,0,1-8.33,4.8c-6.47,0-11.21-5.93-11.21-14.71,0-9.76,5.48-15.21,11.71-15.21,3.46,0,6,1.48,7.14,3.56h.12V539.07Zm-7,24.53a10.74,10.74,0,0,0-.14-1.86,5.68,5.68,0,0,0-5.4-4.88c-4.23,0-6.39,4.25-6.39,9.52s2.29,9.24,6.29,9.24c2.43,0,4.67-1.61,5.42-4.69a8,8,0,0,0,.22-2Z" transform="translate(-191.13 -373.26)"/><path d="M567.82,566.07c0,10.87-7,15.18-13.44,15.18-7.5,0-13.13-5.45-13.13-14.79,0-9.71,5.87-15.13,13.54-15.13S567.82,557.13,567.82,566.07Zm-19.46.23c0,5.32,2.18,9.79,6.25,9.79,3.85,0,6.1-4.51,6.1-9.86,0-4.41-1.62-9.75-6.1-9.75S548.36,561.7,548.36,566.3Z" transform="translate(-191.13 -373.26)"/><path d="M597.22,572.12c0,3.33.12,6.16.24,8.53h-6.08l-.36-3.94h-.15a9.65,9.65,0,0,1-8.37,4.54c-5.25,0-9.21-3.4-9.21-12.21V551.92h7v16c0,4.57,1.28,7.56,4.74,7.56a5.26,5.26,0,0,0,4.85-3.56,6.67,6.67,0,0,0,.38-2.32V551.92h7Z" transform="translate(-191.13 -373.26)"/><path d="M604.22,580.65c.12-2,.23-5.2.23-8V539.07h7v16.56h.11a9.16,9.16,0,0,1,8.23-4.3c6.43,0,10.82,5.8,10.79,14.47,0,10.29-5.82,15.45-11.86,15.45a8.64,8.64,0,0,1-8-4.69h-.15l-.34,4.09Zm7.2-11.39a7.26,7.26,0,0,0,.2,1.75c.78,3,3,4.66,5.5,4.66,4.1,0,6.38-3.74,6.38-9.53,0-5.13-2.07-9.26-6.34-9.26a6,6,0,0,0-5.51,4.84,8.56,8.56,0,0,0-.23,1.88Z" transform="translate(-191.13 -373.26)"/><path d="M636.15,539.07h7v41.58h-7Z" transform="translate(-191.13 -373.26)"/><path d="M655.57,568.2c.15,5.57,3.86,7.69,8.13,7.69a19.23,19.23,0,0,0,7.09-1.24l1,4.86a23.73,23.73,0,0,1-9.18,1.68c-8.75,0-13.77-5.64-13.77-14.47,0-8.41,4.73-15.39,13-15.39s11.39,7,11.39,13.73a17.23,17.23,0,0,1-.23,3.14Zm11.18-4.89c0-3.24-1.22-7.1-5.3-7.1s-5.62,4-5.89,7.1Z" transform="translate(-191.13 -373.26)"/><path d="M540.25,711.71V688.14H536.4V683h3.85v-1.26a12.37,12.37,0,0,1,4-9.2c2.32-1.94,5.38-3,9.63-3a21.53,21.53,0,0,1,9.43,2v40.19h-7V675.5a7.68,7.68,0,0,0-3.49-.63c-4.12,0-5.63,3.11-5.63,6.73V683h5.48v5.16h-5.45v23.57Z" transform="translate(-191.13 -373.26)"/><path d="M595.44,697.13c0,10.87-7,15.17-13.43,15.17-7.5,0-13.14-5.44-13.14-14.79,0-9.7,5.87-15.12,13.54-15.12S595.44,688.19,595.44,697.13Zm-19.46.23c0,5.32,2.18,9.79,6.25,9.79,3.86,0,6.1-4.51,6.1-9.86,0-4.41-1.62-9.75-6.1-9.75S576,692.75,576,697.36Z" transform="translate(-191.13 -373.26)"/><path d="M616,711.71l-.46-3.12h-.16a9.4,9.4,0,0,1-7.75,3.71,8.22,8.22,0,0,1-8.51-8.52c0-7.29,6.39-10.8,15.75-10.79v-.56c0-2.22-.88-5-5.37-5a13.56,13.56,0,0,0-7,2l-1.37-4.59a19.4,19.4,0,0,1,9.67-2.4c8.67,0,11.08,5.58,11.08,11.83V704.9a43.93,43.93,0,0,0,.42,6.81Zm-.95-14.17c-4.32,0-9.09.93-9.09,5.49,0,2.94,1.81,4.22,3.84,4.22a5.22,5.22,0,0,0,5.06-3.77,5.33,5.33,0,0,0,.19-1.54Z" transform="translate(-191.13 -373.26)"/><path d="M636.68,674.92V683h6.51v5.16h-6.51v13.34c0,3.52,1.07,5,3.49,5a10.5,10.5,0,0,0,2.56-.28l.14,5.34a15.56,15.56,0,0,1-4.94.67,8,8,0,0,1-5.89-2.19c-1.51-1.58-2.23-4.06-2.23-8v-14h-3.9V683h3.9V676.6Z" transform="translate(-191.13 -373.26)"/><path d="M411.88,832.84c0,3.32.12,6.16.24,8.53H406l-.36-4h-.16a9.62,9.62,0,0,1-8.36,4.54c-5.25,0-9.21-3.39-9.21-12.2V812.64h7v16c0,4.56,1.27,7.56,4.74,7.56a5.27,5.27,0,0,0,4.85-3.56,6.71,6.71,0,0,0,.38-2.32V812.64h7Z" transform="translate(-191.13 -373.26)"/><path d="M419.12,821.05c0-3.3-.11-5.9-.23-8.41H425l.34,4h.16a9.65,9.65,0,0,1,8.44-4.63c4.94,0,9.35,3.38,9.35,11.74v17.59h-7V824.56c0-3.75-1.24-6.79-4.84-6.79a5.34,5.34,0,0,0-5,4,7.9,7.9,0,0,0-.33,2.4v17.16h-7Z" transform="translate(-191.13 -373.26)"/><path d="M450,834.91a14.2,14.2,0,0,0,6.62,1.92c2.91,0,4.32-1.3,4.32-3.25s-1.08-3-4.35-4.33c-5.22-2.11-7.32-5.08-7.3-8.34,0-5,4-8.87,10.26-8.87a15,15,0,0,1,7,1.63l-1.4,5a11.17,11.17,0,0,0-5.43-1.52c-2.46,0-3.79,1.32-3.79,3s1.18,2.63,4.55,4.08c4.8,2,7.1,4.7,7.12,8.74,0,5.42-4.08,9-11,9a16.25,16.25,0,0,1-8-1.91Z" transform="translate(-191.13 -373.26)"/><path d="M480.44,804.76a3.72,3.72,0,0,1-3.95,3.83,3.84,3.84,0,1,1,3.95-3.83Zm-7.33,36.61V812.64h7v28.73Z" transform="translate(-191.13 -373.26)"/><path d="M511.58,812.64c-.13,2.06-.25,4.57-.25,8.49v16.28c0,6.25-1.17,10.19-3.93,12.75s-6.46,3.38-10.36,3.38a19.27,19.27,0,0,1-9-2l1.47-5.34a15.53,15.53,0,0,0,7.5,1.92c4.43,0,7.46-2.47,7.46-8.41v-2.39h-.12a8.45,8.45,0,0,1-7.45,3.89c-6.73,0-11.15-6.07-11.15-14,0-9.64,5.66-15.14,11.91-15.14a8.07,8.07,0,0,1,7.45,4.19h.12l.28-3.59Zm-7.21,11.13a7.7,7.7,0,0,0-.24-2c-.67-2.34-2.39-4.25-5.13-4.25-3.71,0-6.26,3.68-6.26,9.42,0,5.29,2.29,9,6.22,9a5.27,5.27,0,0,0,5.08-4,8.69,8.69,0,0,0,.33-2.51Z" transform="translate(-191.13 -373.26)"/><path d="M518.36,821.05c0-3.3-.12-5.9-.24-8.41h6.08l.35,4h.15a9.67,9.67,0,0,1,8.45-4.63c4.94,0,9.35,3.38,9.35,11.74v17.59h-7V824.56c0-3.75-1.24-6.79-4.84-6.79a5.34,5.34,0,0,0-5,4,7.9,7.9,0,0,0-.33,2.4v17.16h-7Z" transform="translate(-191.13 -373.26)"/><path d="M554.71,828.92c.16,5.57,3.87,7.68,8.13,7.68a19.26,19.26,0,0,0,7.1-1.23l1,4.86a23.75,23.75,0,0,1-9.19,1.68c-8.75,0-13.76-5.65-13.76-14.48,0-8.4,4.73-15.39,13-15.39s11.39,7,11.39,13.73a17.28,17.28,0,0,1-.23,3.15ZM565.9,824c0-3.25-1.23-7.11-5.3-7.11s-5.62,4-5.89,7.11Z" transform="translate(-191.13 -373.26)"/><path d="M602.2,799.79V833.4c0,2.77.11,5.94.23,8h-6.14l-.34-4.21h-.15a9.2,9.2,0,0,1-8.32,4.8c-6.47,0-11.21-5.92-11.21-14.7,0-9.76,5.48-15.22,11.7-15.22,3.47,0,6,1.48,7.15,3.56h.12V799.79Zm-7,24.52a9.69,9.69,0,0,0-.15-1.85,5.66,5.66,0,0,0-5.39-4.88c-4.24,0-6.39,4.25-6.39,9.52s2.29,9.23,6.28,9.23c2.43,0,4.68-1.6,5.43-4.68a8,8,0,0,0,.22-2Z" transform="translate(-191.13 -373.26)"/><path d="M620.78,799.79h7v41.58h-7Z" transform="translate(-191.13 -373.26)"/><path d="M660.06,826.79c0,10.86-7,15.17-13.43,15.17-7.5,0-13.13-5.44-13.13-14.79,0-9.71,5.87-15.13,13.54-15.13S660.06,817.85,660.06,826.79Zm-19.45.22c0,5.33,2.17,9.8,6.25,9.8,3.85,0,6.09-4.52,6.09-9.86,0-4.41-1.61-9.75-6.09-9.75S640.61,822.41,640.61,827Z" transform="translate(-191.13 -373.26)"/><path d="M665.68,821.05c0-3.3-.12-5.9-.23-8.41h6.08l.34,4H672a9.67,9.67,0,0,1,8.45-4.63c4.94,0,9.35,3.38,9.35,11.74v17.59h-7V824.56c0-3.75-1.24-6.79-4.84-6.79a5.34,5.34,0,0,0-5,4,7.9,7.9,0,0,0-.33,2.4v17.16h-7Z" transform="translate(-191.13 -373.26)"/><path d="M721.21,812.64c-.14,2.06-.26,4.57-.26,8.49v16.28c0,6.25-1.17,10.19-3.93,12.75s-6.46,3.38-10.35,3.38a19.28,19.28,0,0,1-9-2l1.48-5.34a15.52,15.52,0,0,0,7.49,1.92c4.43,0,7.46-2.47,7.46-8.41v-2.39h-.12a8.43,8.43,0,0,1-7.44,3.89c-6.74,0-11.16-6.07-11.16-14,0-9.64,5.66-15.14,11.92-15.14a8,8,0,0,1,7.44,4.19h.12l.28-3.59ZM714,823.77a7.29,7.29,0,0,0-.24-2c-.67-2.34-2.39-4.25-5.12-4.25-3.72,0-6.26,3.68-6.26,9.42,0,5.29,2.28,9,6.21,9a5.26,5.26,0,0,0,5.08-4,8.36,8.36,0,0,0,.33-2.51Z" transform="translate(-191.13 -373.26)"/><path d="M746.82,804.76a3.72,3.72,0,0,1-3.94,3.83,3.84,3.84,0,1,1,3.94-3.83Zm-7.33,36.61V812.64h7v28.73Z" transform="translate(-191.13 -373.26)"/><path d="M753.71,821.05c0-3.3-.12-5.9-.24-8.41h6.08l.35,4h.15A9.65,9.65,0,0,1,768.5,812c4.94,0,9.35,3.38,9.35,11.74v17.59h-7V824.56c0-3.75-1.24-6.79-4.84-6.79a5.34,5.34,0,0,0-5,4,7.9,7.9,0,0,0-.33,2.4v17.16h-7Z" transform="translate(-191.13 -373.26)"/><path d="M792.76,804.57v8.07h6.51v5.16h-6.51v13.34c0,3.52,1.06,5,3.48,5a10.5,10.5,0,0,0,2.56-.28l.14,5.34a15.56,15.56,0,0,1-4.94.67,7.94,7.94,0,0,1-5.89-2.2c-1.51-1.58-2.22-4.05-2.22-8V817.8H782v-5.16h3.91v-6.38Z" transform="translate(-191.13 -373.26)"/><path d="M823.36,376.46c8.1-.34,3.21,79.4,5.94,109.75-158.45.46-312.94-2.1-471.4-1.64-2.49-36.35-1.92-70.78-3.4-107.17,99.55,4,133.74,1.62,202.56-1.22C636.35,372.9,744.07,379.74,823.36,376.46Z" transform="translate(-191.13 -373.26)" fill="none" stroke="#000" stroke-linecap="round" stroke-linejoin="round" stroke-width="4"/><path d="M452.19,407.94h7v41.58h-7Z" transform="translate(-191.13 -373.26)"/><path d="M491.47,434.94c0,10.87-7,15.17-13.43,15.17-7.5,0-13.13-5.44-13.13-14.79,0-9.7,5.87-15.12,13.54-15.12S491.47,426,491.47,434.94Zm-19.45.23c0,5.32,2.17,9.79,6.25,9.79,3.85,0,6.09-4.51,6.09-9.86,0-4.41-1.61-9.75-6.1-9.75S472,430.56,472,435.17Z" transform="translate(-191.13 -373.26)"/><path d="M497.09,429.2c0-3.3-.12-5.9-.24-8.41h6.08l.35,4h.15a9.65,9.65,0,0,1,8.45-4.63c4.94,0,9.35,3.37,9.35,11.73v17.59h-7V432.71c0-3.75-1.24-6.79-4.84-6.79a5.34,5.34,0,0,0-5,4,7.9,7.9,0,0,0-.33,2.4v17.16h-7Z" transform="translate(-191.13 -373.26)"/><path d="M552.62,420.79c-.14,2.06-.26,4.57-.26,8.49v16.28c0,6.26-1.17,10.19-3.93,12.75s-6.46,3.38-10.35,3.38a19.28,19.28,0,0,1-9-2l1.48-5.34a15.52,15.52,0,0,0,7.49,1.92c4.43,0,7.46-2.47,7.46-8.41v-2.39h-.12a8.43,8.43,0,0,1-7.44,3.89c-6.74,0-11.16-6.07-11.16-14,0-9.64,5.66-15.13,11.92-15.13a8,8,0,0,1,7.44,4.19h.12l.28-3.6Zm-7.22,11.14a7.31,7.31,0,0,0-.24-2c-.67-2.34-2.39-4.25-5.12-4.25-3.72,0-6.26,3.69-6.26,9.42,0,5.29,2.28,9,6.21,9a5.26,5.26,0,0,0,5.08-4,8.34,8.34,0,0,0,.33-2.5Z" transform="translate(-191.13 -373.26)"/><path d="M595.2,407.94v33.61c0,2.77.12,5.94.24,8h-6.15l-.34-4.21h-.14a9.2,9.2,0,0,1-8.33,4.8c-6.47,0-11.21-5.92-11.21-14.7,0-9.76,5.48-15.21,11.71-15.21,3.46,0,6,1.47,7.14,3.55h.12V407.94Zm-7,24.52a10.55,10.55,0,0,0-.14-1.85,5.68,5.68,0,0,0-5.4-4.88c-4.23,0-6.39,4.25-6.39,9.52,0,5.42,2.29,9.23,6.29,9.23,2.43,0,4.67-1.6,5.42-4.68a8,8,0,0,0,.22-2Z" transform="translate(-191.13 -373.26)"/><path d="M627.41,434.94c0,10.87-7,15.17-13.43,15.17-7.51,0-13.14-5.44-13.14-14.79,0-9.7,5.87-15.12,13.54-15.12S627.41,426,627.41,434.94Zm-19.46.23c0,5.32,2.18,9.79,6.25,9.79,3.86,0,6.1-4.51,6.1-9.86,0-4.41-1.62-9.75-6.1-9.75S608,430.56,608,435.17Z" transform="translate(-191.13 -373.26)"/><path d="M656.81,441c0,3.32.12,6.16.24,8.53H651l-.36-3.95h-.15a9.65,9.65,0,0,1-8.37,4.54c-5.24,0-9.21-3.39-9.21-12.2V420.79h7v16c0,4.57,1.28,7.56,4.74,7.56a5.25,5.25,0,0,0,4.85-3.56,6.67,6.67,0,0,0,.38-2.32V420.79h7Z" transform="translate(-191.13 -373.26)"/><path d="M663.81,449.52c.12-2,.23-5.2.23-8V407.94h7V424.5h.11a9.14,9.14,0,0,1,8.23-4.3c6.43,0,10.82,5.8,10.79,14.47,0,10.29-5.82,15.44-11.86,15.44a8.63,8.63,0,0,1-8-4.68h-.15l-.34,4.09Zm7.2-11.39a7.11,7.11,0,0,0,.2,1.74c.78,3,3,4.67,5.5,4.67,4.11,0,6.39-3.74,6.39-9.53,0-5.14-2.08-9.26-6.35-9.26a6,6,0,0,0-5.51,4.84,8.49,8.49,0,0,0-.23,1.88Z" transform="translate(-191.13 -373.26)"/><path d="M695.74,407.94h7v41.58h-7Z" transform="translate(-191.13 -373.26)"/><path d="M715.16,437.07c.15,5.57,3.87,7.69,8.13,7.69a19.23,19.23,0,0,0,7.09-1.24l1,4.86a23.73,23.73,0,0,1-9.18,1.68c-8.75,0-13.77-5.65-13.77-14.48,0-8.4,4.74-15.38,13-15.38s11.39,7,11.39,13.72a17.28,17.28,0,0,1-.23,3.15Zm11.18-4.89c0-3.25-1.22-7.1-5.3-7.1s-5.62,4-5.88,7.1Z" transform="translate(-191.13 -373.26)"/></svg>