<svg id="Livello_1" data-name="Livello 1" xmlns="http://www.w3.org/2000/svg" viewBox="0 0 1789.87 850.52"><path d="M540.79,332.84h27.65v4.72H540.79Zm1.32-14.33h27.65v4.71H542.11Zm7.5-12.49h4l-5.19,45.51h-4.09Zm12.29,0h4l-5.19,45.51h-4.09Z" transform="translate(-80.98 -116.62)" fill="#00a99d"/><path d="M595.56,322.19H580.75V317.5H601v34h-5.46Zm-2.17-16.31a4.34,4.34,0,1,1,4.34,4.48A4.24,4.24,0,0,1,593.39,305.88Z" transform="translate(-80.98 -116.62)" fill="#2a57d3"/><path d="M620.43,317.5h4.47l.46,5.74h.27c3.35-3.71,7-6.58,12-6.58,7.56,0,11.05,4.76,11.05,13.72v21.15h-5.46V331.15c0-6.44-2.1-9.45-7.3-9.45-3.82,0-6.38,2-10.07,6.09v23.74h-5.46Z" transform="translate(-80.98 -116.62)" fill="#2a57d3"/><path d="M659.05,334.58c0-11.41,8.16-17.92,17.83-17.92a15.77,15.77,0,0,1,11.65,5l-2.7,3.71c-2.63-2.38-5.39-3.85-8.75-3.85-7.37,0-12.43,5.25-12.43,13.09s5,13,12.3,13a14.7,14.7,0,0,0,9.87-4.28l2.43,3.78a18.38,18.38,0,0,1-12.69,5.33C666.55,352.37,659.05,345.85,659.05,334.58Z" transform="translate(-80.98 -116.62)" fill="#2a57d3"/><path d="M709.46,340.11V306.37H698.14v-4.69h16.78v38.85c0,4.9,2.5,7,6.31,7a13.74,13.74,0,0,0,6-1.55l1.38,4.35a18.43,18.43,0,0,1-8.55,2C713.21,352.37,709.46,348.17,709.46,340.11Z" transform="translate(-80.98 -116.62)" fill="#2a57d3"/><path d="M737.82,338.64V317.5h5.46v20.37c0,6.37,2.1,9.45,7.37,9.45,3.68,0,6.38-1.82,9.93-6.23V317.5H766v34H761.5l-.46-6h-.26c-3.23,4-7,6.8-11.91,6.8C741.3,352.37,737.82,347.6,737.82,338.64Z" transform="translate(-80.98 -116.62)" fill="#2a57d3"/><path d="M776.18,334.58c0-11.06,6.9-17.92,14.47-17.92,3.82,0,6.78,1.61,9.61,4.34h.13l-.26-6.23V301.68h5.46v49.85h-4.48l-.46-4.49h-.19c-2.64,2.88-6.45,5.33-10.47,5.33C781.7,352.37,776.18,345.92,776.18,334.58Zm24,7.84V325.48c-2.9-2.87-5.6-3.92-8.36-3.92-5.53,0-10,5.18-10,12.95,0,8.12,3.55,12.95,9.41,12.95C794.34,347.46,797.3,345.78,800.13,342.42Z" transform="translate(-80.98 -116.62)" fill="#2a57d3"/><path d="M816.18,334.44c0-11.06,7.77-17.78,16.32-17.78,9.21,0,14.61,6.37,14.61,16a25.21,25.21,0,0,1-.27,3.5h-27v-4.48h23.82l-1.38,1.61c0-8.05-3.75-12-9.61-12s-11,4.76-11,13.23c0,8.82,5.39,13.31,12.5,13.31a16.75,16.75,0,0,0,9.74-3.23l2,3.79a21,21,0,0,1-12.37,4.06C823.81,352.37,816.18,345.78,816.18,334.44Z" transform="translate(-80.98 -116.62)" fill="#2a57d3"/><path d="M898.56,330.52V326L923.1,308.4V314l-19.73,14.14v.28l19.73,14.14v5.61Z" transform="translate(-80.98 -116.62)" fill="#ed1e79"/><path d="M934.82,347l2.5-3.85a21.9,21.9,0,0,0,13.88,4.62c5.4,0,8-2.38,8-5.25,0-2.59-1.25-4.41-9.94-6.3-8.35-1.82-12.5-4.83-12.5-9.94,0-5.46,4.54-9.66,13.29-9.66A23,23,0,0,1,963,321l-2.63,3.71a18.11,18.11,0,0,0-10.73-3.57c-5.39,0-7.37,2.31-7.37,4.9,0,2.94,2.77,4.2,9.35,5.67,10.59,2.45,13.15,5.25,13.15,10.5,0,5.54-5.06,10.16-14.21,10.16A26.89,26.89,0,0,1,934.82,347Z" transform="translate(-80.98 -116.62)" fill="#ed1e79"/><path d="M983.18,338.29v-16.1H974.1v-4.34l9.28-.35.72-10.92h4.54V317.5h15.66v4.69H988.64v16.17c0,6.09,1.91,9.24,8.09,9.24a19.81,19.81,0,0,0,7.64-1.54l1.18,4.28a26.43,26.43,0,0,1-10,2C986.21,352.37,983.18,346.69,983.18,338.29Z" transform="translate(-80.98 -116.62)" fill="#ed1e79"/><path d="M1013.05,334.58c0-11.06,6.91-17.92,14.48-17.92,3.81,0,6.78,1.61,9.6,4.34h.14l-.27-6.23V301.68h5.46v49.85H1038l-.46-4.49h-.2c-2.63,2.88-6.45,5.33-10.46,5.33C1018.58,352.37,1013.05,345.92,1013.05,334.58Zm24,7.84V325.48c-2.89-2.87-5.59-3.92-8.35-3.92-5.53,0-10,5.18-10,12.95,0,8.12,3.55,12.95,9.4,12.95C1031.21,347.46,1034.17,345.78,1037,342.42Z" transform="translate(-80.98 -116.62)" fill="#ed1e79"/><path d="M1069.31,322.19h-14.8V317.5h20.26v34h-5.46Zm-2.17-16.31a4.34,4.34,0,1,1,4.34,4.48A4.24,4.24,0,0,1,1067.14,305.88Z" transform="translate(-80.98 -116.62)" fill="#ed1e79"/><path d="M1092,334.58c0-11.41,7.37-17.92,15.79-17.92s15.79,6.51,15.79,17.92-7.37,17.79-15.79,17.79S1092,345.85,1092,334.58Zm26,0c0-7.84-4.08-13.09-10.2-13.09s-10.2,5.25-10.2,13.09,4.08,13,10.2,13S1118,342.35,1118,334.58Z" transform="translate(-80.98 -116.62)" fill="#ed1e79"/><path d="M1142,346.42c0-3.51,2.37-6,5.33-6s5.33,2.45,5.33,6-2.37,5.95-5.33,5.95S1142,350,1142,346.42Z" transform="translate(-80.98 -116.62)" fill="#ed1e79"/><path d="M1173.14,301.68h5.46v13.58l-.33,8.05h.2c3.23-3.78,7-6.65,11.91-6.65,7.57,0,11,4.76,11,13.72v21.15H1196V331.15c0-6.44-2.1-9.45-7.3-9.45-3.82,0-6.38,2-10.07,6.09v23.74h-5.46Z" transform="translate(-80.98 -116.62)" fill="#ed1e79"/><path d="M1213.54,342.56l19.74-14.14v-.28L1213.54,314v-5.6L1238.08,326v4.48l-24.54,17.65Z" transform="translate(-80.98 -116.62)" fill="#ed1e79"/><path d="M556.08,562.19H541.27V557.5h20.27v34h-5.46Zm-2.17-16.31a4.34,4.34,0,1,1,4.34,4.48A4.24,4.24,0,0,1,553.91,545.88Z" transform="translate(-80.98 -116.62)" fill="#2a57d3"/><path d="M581,557.5h4.47l.46,5.74h.27c3.35-3.71,7-6.58,12-6.58,7.56,0,11,4.76,11,13.72v21.14h-5.46V571.15c0-6.44-2.1-9.45-7.3-9.45-3.82,0-6.38,2-10.07,6.09v23.73H581Z" transform="translate(-80.98 -116.62)" fill="#2a57d3"/><path d="M627.86,578.29v-16.1h-9.08v-4.34l9.28-.35.73-10.92h4.54V557.5H649v4.69H633.33v16.17c0,6.09,1.9,9.24,8.09,9.24a19.9,19.9,0,0,0,7.63-1.54l1.19,4.27a26.48,26.48,0,0,1-10,2C630.89,592.36,627.86,586.69,627.86,578.29Z" transform="translate(-80.98 -116.62)" fill="#2a57d3"/><path d="M697.09,557.5h4.34l.46,4.48H702c1.65-3.15,3.62-5.32,7.3-5.32,3.16,0,5.14,2,6.06,5.88,1.84-3.64,3.81-5.88,7.5-5.88,4.47,0,7.1,3.71,7.1,10.5v24.36h-5.39V567.58c0-3.92-1.05-6-3.42-6s-3.42,1.75-5.13,5.25v24.64h-5V567.58c0-3.92-.92-6-3.29-6s-3.68,1.75-5.26,5.25v24.64h-5.39Z" transform="translate(-80.98 -116.62)" fill="#e54539"/><path d="M738,582.7c0-7.63,6.71-11.34,23.23-12.74-.2-4.62-2.3-8.54-8.49-8.54-4.14,0-8.22,2.1-11.18,4.06l-2.18-3.92c3.29-2.24,8.69-4.9,14.28-4.9,8.75,0,13,5.53,13,14v20.86h-4.54l-.46-4.62h-.2c-3.49,2.94-8.09,5.46-12.57,5.46C743,592.36,738,588.79,738,582.7Zm23.23-.07v-8.82c-13.69,1.12-17.83,4-17.83,8.47,0,3.85,3.29,5.39,7,5.39S757.55,585.85,761.24,582.63Z" transform="translate(-80.98 -116.62)" fill="#e54539"/><path d="M793,562.19h-14.8V557.5h20.27v34H793Zm-2.17-16.31a4.35,4.35,0,1,1,8.69,0,4.35,4.35,0,1,1-8.69,0Z" transform="translate(-80.98 -116.62)" fill="#e54539"/><path d="M817.83,557.5h4.47l.46,5.74H823c3.36-3.71,7-6.58,12.05-6.58,7.56,0,11,4.76,11,13.72v21.14h-5.46V571.15c0-6.44-2.11-9.45-7.31-9.45-3.81,0-6.38,2-10.06,6.09v23.73h-5.46Z" transform="translate(-80.98 -116.62)" fill="#e54539"/><path d="M864.87,572.06c0-13.51,5.6-24.22,14.74-31.78l3,2.94c-8.82,7.91-12.9,17.08-12.9,28.84s4.08,20.93,12.9,28.85l-3,2.94C870.47,596.29,864.87,585.57,864.87,572.06Z" transform="translate(-80.98 -116.62)"/><path d="M898.69,600.91c8.82-7.92,12.9-17.09,12.9-28.85s-4.08-20.93-12.9-28.84l3-2.94c9.15,7.56,14.74,18.27,14.74,31.78s-5.59,24.23-14.74,31.79Z" transform="translate(-80.98 -116.62)"/><path d="M986.4,592.85c0-5.11.66-8.82.66-13.51,0-2.73-1.77-5.39-9.54-5.46v-3.64c7.77-.07,9.54-2.73,9.54-5.46,0-4.41-.66-8.68-.66-13.51,0-7.21,4-9.31,12.18-9.31h4.08v3.29h-3.43c-6.71,0-8.15,1.82-8.15,6.37,0,4,.39,8.33.39,12.67,0,4.55-1.45,6.79-6,7.63v.28c4.54.84,6,3.08,6,7.63,0,4.76-.39,8.4-.39,12.67,0,4.55,1.44,6.38,8.15,6.38h3.43v3.29h-4.08C990.35,602.17,986.4,600.07,986.4,592.85Z" transform="translate(-80.98 -116.62)"/><path d="M659.91,637.5h4.47l.46,4.34h.2c3-3,7.17-5.18,11.05-5.18,8.62,0,13.23,6.79,13.23,17.36,0,11.55-6.84,18.34-14.54,18.34-3,0-6.65-1.61-9.54-4.41h-.13l.26,6.44v11.49h-5.46ZM683.73,654c0-7.49-2.63-12.46-9-12.46-2.83,0-6.12,1.54-9.34,5v16.94a13,13,0,0,0,8.49,3.92C679.52,667.46,683.73,662.42,683.73,654Z" transform="translate(-80.98 -116.62)" fill="#e54539"/><path d="M702.81,637.5h4.54l.53,8H708c3.35-5.53,8.35-8.89,14.28-8.89a12.75,12.75,0,0,1,6.31,1.4l-1.25,5a15.18,15.18,0,0,0-5.92-1.12c-4.8,0-9.34,2.59-13.16,9.73v19.88h-5.46Z" transform="translate(-80.98 -116.62)" fill="#e54539"/><path d="M753.47,642.19h-14.8V637.5h20.27v34h-5.47Zm-2.17-16.31a4.35,4.35,0,1,1,8.69,0,4.35,4.35,0,1,1-8.69,0Z" transform="translate(-80.98 -116.62)" fill="#e54539"/><path d="M778.35,637.5h4.47l.46,5.74h.27c3.35-3.71,7-6.58,12-6.58,7.56,0,11,4.76,11,13.72v21.14h-5.46V651.15c0-6.44-2.11-9.45-7.3-9.45-3.82,0-6.39,2-10.07,6.09v23.73h-5.46Z" transform="translate(-80.98 -116.62)" fill="#e54539"/><path d="M825.26,658.29v-16.1h-9.08v-4.34l9.28-.35.72-10.92h4.54V637.5h15.66v4.69H830.72v16.17c0,6.09,1.91,9.24,8.1,9.24a19.9,19.9,0,0,0,7.63-1.54l1.18,4.27a26.38,26.38,0,0,1-10,2C828.29,672.36,825.26,666.69,825.26,658.29Z" transform="translate(-80.98 -116.62)" fill="#e54539"/><path d="M858,637.85l9.28-.35h18.62v4.69H858Zm9.15-3.22c0-8.26,4.08-13.79,12.9-13.79a22.54,22.54,0,0,1,9.21,2L888,627.14a16.42,16.42,0,0,0-7.44-1.61c-5.72,0-8,3.43-8,8.89v37.1h-5.4Z" transform="translate(-80.98 -116.62)" fill="#e54539"/><path d="M904.35,652.06c0-13.51,5.6-24.22,14.74-31.78l3,2.94c-8.82,7.91-12.9,17.08-12.9,28.84s4.08,20.93,12.9,28.85l-3,2.94C910,676.29,904.35,665.57,904.35,652.06Z" transform="translate(-80.98 -116.62)"/><path d="M938.77,631.13l-.07-7.7h7.24l-.07,7.7-1.71,15.75h-3.68Zm15.13,0-.07-7.7h7.24l-.07,7.7-1.71,15.75h-3.68Z" transform="translate(-80.98 -116.62)" fill="#ed1e79"/><path d="M974.82,625.6h5.6v19.18h17.89V625.6h5.6v45.92h-5.6V650H980.42v21.56h-5.6Z" transform="translate(-80.98 -116.62)" fill="#ed1e79"/><path d="M1013.58,654.44c0-11.06,7.76-17.78,16.32-17.78,9.21,0,14.6,6.37,14.6,16a25.38,25.38,0,0,1-.26,3.5h-27v-4.48H1041l-1.39,1.61c0-8-3.75-12-9.6-12S1019,646,1019,654.44c0,8.82,5.4,13.3,12.51,13.3a16.68,16.68,0,0,0,9.73-3.22l2,3.78a21,21,0,0,1-12.37,4.06C1021.21,672.36,1013.58,665.78,1013.58,654.44Z" transform="translate(-80.98 -116.62)" fill="#ed1e79"/><path d="M1064.77,660.11V626.37h-11.32v-4.69h16.78v38.85c0,4.9,2.5,7,6.32,7a13.78,13.78,0,0,0,6-1.54l1.38,4.34a18.47,18.47,0,0,1-8.56,2C1068.52,672.36,1064.77,668.16,1064.77,660.11Z" transform="translate(-80.98 -116.62)" fill="#ed1e79"/><path d="M1104.25,660.11V626.37h-11.32v-4.69h16.78v38.85c0,4.9,2.5,7,6.32,7a13.78,13.78,0,0,0,6-1.54l1.38,4.34a18.47,18.47,0,0,1-8.56,2C1108,672.36,1104.25,668.16,1104.25,660.11Z" transform="translate(-80.98 -116.62)" fill="#ed1e79"/><path d="M1131.49,654.58c0-11.41,7.37-17.92,15.79-17.92s15.79,6.51,15.79,17.92-7.36,17.78-15.79,17.78S1131.49,665.85,1131.49,654.58Zm26,0c0-7.84-4.08-13.09-10.2-13.09s-10.2,5.25-10.2,13.09,4.08,12.95,10.2,12.95S1157.48,662.35,1157.48,654.58Z" transform="translate(-80.98 -116.62)" fill="#ed1e79"/><path d="M1179.92,682.8c5.59-2.66,8.36-6.45,8.29-12.26L1187,664.1l3.68,5.53a4.5,4.5,0,0,1-3.68,1.61,4.86,4.86,0,0,1-5.14-5.25,5,5,0,0,1,5.27-5.32c3.88,0,5.92,3.43,5.92,9,0,8.2-4.34,13.94-11.58,16.81Z" transform="translate(-80.98 -116.62)" fill="#ed1e79"/><path d="M1246.64,625.53h6.19l3.15,28.84c.4,3.85.66,6.09.86,10.64h.2c.79-4.55,1.25-6.79,2.1-10.57l4.21-17.08h5.27l4.08,17.08c.92,3.78,1.31,6,2.1,10.57h.26c.27-4.55.4-6.79.79-10.57l3-28.91h5.92l-6.31,46h-6.85L1267.43,653c-.66-2.8-1.18-5.46-1.58-8.26h-.19c-.46,2.8-.86,5.46-1.52,8.26l-4.21,18.48h-6.71Z" transform="translate(-80.98 -116.62)" fill="#ed1e79"/><path d="M1289.41,654.58c0-11.41,7.37-17.92,15.79-17.92s15.79,6.51,15.79,17.92-7.37,17.78-15.79,17.78S1289.41,665.85,1289.41,654.58Zm26,0c0-7.84-4.08-13.09-10.2-13.09s-10.2,5.25-10.2,13.09,4.08,12.95,10.2,12.95S1315.4,662.35,1315.4,654.58Z" transform="translate(-80.98 -116.62)" fill="#ed1e79"/><path d="M1334.48,637.5H1339l.53,8h.13c3.36-5.53,8.36-8.89,14.28-8.89a12.73,12.73,0,0,1,6.31,1.4l-1.25,5a15.15,15.15,0,0,0-5.92-1.12c-4.8,0-9.34,2.59-13.16,9.73v19.88h-5.46Z" transform="translate(-80.98 -116.62)" fill="#ed1e79"/><path d="M1380.61,660.11V626.37h-11.32v-4.69h16.78v38.85c0,4.9,2.5,7,6.31,7a13.72,13.72,0,0,0,6-1.54l1.38,4.34a18.43,18.43,0,0,1-8.55,2C1384.36,672.36,1380.61,668.16,1380.61,660.11Z" transform="translate(-80.98 -116.62)" fill="#ed1e79"/><path d="M1407.85,654.58c0-11.06,6.91-17.92,14.47-17.92,3.82,0,6.78,1.61,9.61,4.34h.13l-.26-6.23V621.68h5.46v49.84h-4.47l-.47-4.48h-.19c-2.63,2.87-6.45,5.32-10.46,5.32C1413.38,672.36,1407.85,665.92,1407.85,654.58Zm24,7.84V645.48c-2.9-2.87-5.59-3.92-8.36-3.92-5.52,0-10,5.18-10,13,0,8.12,3.55,13,9.41,13C1426,667.46,1429,665.78,1431.8,662.42Z" transform="translate(-80.98 -116.62)" fill="#ed1e79"/><path d="M1458.25,666.9c0-3.36,2.24-5.39,4.87-5.39s4.87,2,4.87,5.39-2.24,5.46-4.87,5.46S1458.25,670.26,1458.25,666.9Zm2.3-35.7-.13-6.58h5.4l-.14,6.58-.72,24h-3.68Z" transform="translate(-80.98 -116.62)" fill="#ed1e79"/><path d="M1489.37,621.82h4.87l21.58,60.91H1511Z" transform="translate(-80.98 -116.62)" fill="#f7931e"/><path d="M1528.46,637.5h4.47l.46,5.74h.27c3.35-3.71,7-6.58,12-6.58,7.56,0,11,4.76,11,13.72v21.14h-5.46V651.15c0-6.44-2.11-9.45-7.3-9.45-3.82,0-6.39,2-10.07,6.09v23.73h-5.46Z" transform="translate(-80.98 -116.62)" fill="#f7931e"/><path d="M1570.44,631.13l-.07-7.7h7.24l-.07,7.7-1.71,15.75h-3.68Zm15.13,0-.07-7.7h7.24l-.06,7.7L1591,646.88h-3.69Z" transform="translate(-80.98 -116.62)" fill="#ed1e79"/><path d="M1609.33,680.91c8.81-7.92,12.89-17.09,12.89-28.85s-4.08-20.93-12.89-28.84l3-2.94c9.15,7.56,14.74,18.27,14.74,31.78s-5.59,24.23-14.74,31.79Z" transform="translate(-80.98 -116.62)"/><path d="M1653.67,682.8c5.6-2.66,8.36-6.45,8.29-12.26l-1.18-6.44,3.68,5.53a4.49,4.49,0,0,1-3.68,1.61,4.85,4.85,0,0,1-5.13-5.25,5,5,0,0,1,5.26-5.32c3.88,0,5.92,3.43,5.92,9,0,8.2-4.34,13.94-11.58,16.81Zm1.52-41.45c0-3.5,2.37-6,5.33-6s5.33,2.45,5.33,6-2.37,5.95-5.33,5.95S1655.19,644.92,1655.19,641.35Z" transform="translate(-80.98 -116.62)"/><path d="M663.33,717.5h4.54l.53,8h.13c3.35-5.53,8.35-8.89,14.28-8.89a12.75,12.75,0,0,1,6.31,1.4l-1.25,5a15.15,15.15,0,0,0-5.92-1.12c-4.8,0-9.34,2.59-13.16,9.73v19.88h-5.46Z" transform="translate(-80.98 -116.62)" fill="#2a57d3"/><path d="M697.74,734.44c0-11.06,7.77-17.78,16.32-17.78,9.21,0,14.61,6.37,14.61,16a23.75,23.75,0,0,1-.27,3.5h-27v-4.48h23.82l-1.38,1.61c0-8-3.75-12-9.61-12s-11.05,4.76-11.05,13.23c0,8.82,5.39,13.3,12.5,13.3a16.72,16.72,0,0,0,9.74-3.22l2,3.78A21,21,0,0,1,715,752.36C705.38,752.36,697.74,745.78,697.74,734.44Z" transform="translate(-80.98 -116.62)" fill="#2a57d3"/><path d="M746.3,738.29v-16.1h-9.08v-4.34l9.28-.35.72-10.92h4.54V717.5h15.66v4.69H751.76v16.17c0,6.09,1.91,9.24,8.1,9.24a19.9,19.9,0,0,0,7.63-1.54l1.18,4.27a26.38,26.38,0,0,1-10,2C749.33,752.36,746.3,746.69,746.3,738.29Z" transform="translate(-80.98 -116.62)" fill="#2a57d3"/><path d="M777.29,738.64V717.5h5.47v20.37c0,6.37,2.1,9.45,7.37,9.45,3.68,0,6.38-1.82,9.93-6.23V717.5h5.46v34H801l-.46-5.95h-.26c-3.23,4-7,6.79-11.91,6.79C780.78,752.36,777.29,747.6,777.29,738.64Z" transform="translate(-80.98 -116.62)" fill="#2a57d3"/><path d="M821.25,717.5h4.54l.52,8h.14c3.35-5.53,8.35-8.89,14.27-8.89a12.77,12.77,0,0,1,6.32,1.4l-1.25,5a15.18,15.18,0,0,0-5.92-1.12c-4.8,0-9.34,2.59-13.16,9.73v19.88h-5.46Z" transform="translate(-80.98 -116.62)" fill="#2a57d3"/><path d="M857.31,717.5h4.47l.46,5.74h.26c3.36-3.71,7-6.58,12-6.58,7.57,0,11.06,4.76,11.06,13.72v21.14h-5.46V731.15c0-6.44-2.11-9.45-7.31-9.45-3.81,0-6.38,2-10.06,6.09v23.73h-5.46Z" transform="translate(-80.98 -116.62)" fill="#2a57d3"/><path d="M934.82,729.05c0-15,5.72-23,15.06-23s15.07,8.05,15.07,23-5.72,23.31-15.07,23.31S934.82,743.89,934.82,729.05Zm25.07,0c0-12.81-4.15-18.34-10-18.34s-10,5.53-10,18.34,4.15,18.62,10,18.62S959.89,741.86,959.89,729.05Zm-14.08-.49c0-2.87,1.9-4.62,4.07-4.62s4.08,1.75,4.08,4.62-1.9,4.69-4.08,4.69S945.81,731.5,945.81,728.56Z" transform="translate(-80.98 -116.62)"/><path d="M982.52,762.8c5.59-2.66,8.36-6.45,8.29-12.26l-1.18-6.44,3.68,5.53a4.5,4.5,0,0,1-3.68,1.61A4.85,4.85,0,0,1,984.5,746a5,5,0,0,1,5.26-5.32c3.88,0,5.92,3.43,5.92,9,0,8.2-4.34,13.94-11.58,16.81ZM984,721.35c0-3.5,2.36-6,5.33-6s5.32,2.45,5.32,6-2.36,5.95-5.32,5.95S984,724.92,984,721.35Z" transform="translate(-80.98 -116.62)"/><path d="M541.87,838.88h3.35c6.71,0,8.23-1.82,8.23-6.37,0-4.27-.4-7.92-.4-12.68,0-4.55,1.38-6.79,5.92-7.63v-.28c-4.54-.84-5.92-3.08-5.92-7.63,0-4.34.4-8.68.4-12.67,0-4.55-1.52-6.37-8.23-6.37h-3.35V782h4c8.29,0,12.11,2.1,12.11,9.31,0,4.83-.6,9.1-.6,13.51,0,2.73,1.78,5.39,9.54,5.46v3.64c-7.76.07-9.54,2.73-9.54,5.46,0,4.69.6,8.41.6,13.52,0,7.21-3.82,9.31-12.11,9.31h-4Z" transform="translate(-80.98 -116.62)"/><path d="M701,288.35c-20.49-59.58-75-106.12-137-117.08" transform="translate(-80.98 -116.62)" fill="none" stroke="#000" stroke-linecap="round" stroke-linejoin="round" stroke-width="3.5"/><path d="M590.91,208.46c-10.07-12.2-21.86-26.65-31.93-38.85l51.49-14.4" transform="translate(-80.98 -116.62)" fill="none" stroke="#000" stroke-linecap="round" stroke-linejoin="round" stroke-width="3.5"/><path d="M629.33,664.67,492,664.49" transform="translate(-80.98 -116.62)" fill="none" stroke="#000" stroke-linecap="round" stroke-linejoin="round" stroke-width="3.5"/><path d="M529.34,690.63c-13.46-8.23-28-18.41-41.45-26.63,18.7-7.42,26.3-15.25,38.09-30.17" transform="translate(-80.98 -116.62)" fill="none" stroke="#000" stroke-linecap="round" stroke-linejoin="round" stroke-width="3.5"/><path d="M1082.29,270.28A134.73,134.73,0,0,1,1216,151.88" transform="translate(-80.98 -116.62)" fill="none" stroke="#000" stroke-linecap="round" stroke-linejoin="round" stroke-width="3.5"/><path d="M1173.82,129.73c16.51,7.77,28.83,12.82,45.33,20.6-11.46,16.37-19,26-30.47,42.37" transform="translate(-80.98 -116.62)" fill="none" stroke="#000" stroke-linecap="round" stroke-linejoin="round" stroke-width="3.5"/><path d="M1256.35,610.27A134.75,134.75,0,0,1,1390.1,491.88" transform="translate(-80.98 -116.62)" fill="none" stroke="#000" stroke-linecap="round" stroke-linejoin="round" stroke-width="3.5"/><path d="M1347.89,469.73c16.51,7.77,28.82,12.82,45.33,20.59-11.46,16.38-19,26-30.47,42.38" transform="translate(-80.98 -116.62)" fill="none" stroke="#000" stroke-linecap="round" stroke-linejoin="round" stroke-width="3.5"/><path d="M987.31,779.34c-3.06,28.84,24.42,56.88,57.9,71.62s72,19,109.46,22.91" transform="translate(-80.98 -116.62)" fill="none" stroke="#000" stroke-linecap="round" stroke-linejoin="round" stroke-width="3.5"/><path d="M1121.35,838.85c10.7,15.87,22.14,26.8,38.1,36.21-18.42,10.08-31.4,16.25-51.54,20.74" transform="translate(-80.98 -116.62)" fill="none" stroke="#000" stroke-linecap="round" stroke-linejoin="round" stroke-width="3.5"/><path d="M952.84,767.68c0,58.57-17.93,108.44-38.57,130.21s-43.61,21.29-65.91,20.49" transform="translate(-80.98 -116.62)" fill="none" stroke="#000" stroke-linecap="round" stroke-linejoin="round" stroke-width="3.5"/><path d="M884.81,886.28c-11.09,14.68-22.34,24.33-37.45,31.94,15.33,12.21,26.23,19.89,43.66,26.68" transform="translate(-80.98 -116.62)" fill="none" stroke="#000" stroke-linecap="round" stroke-linejoin="round" stroke-width="3.5"/><path d="M1524,698c-3.19,28.82,11.83,55.41,31,68.47s42,15.45,64,17.6" transform="translate(-80.98 -116.62)" fill="none" stroke="#000" stroke-linecap="round" stroke-linejoin="round" stroke-width="3.5"/><path d="M1592.8,805.69c8.63-10.51,16.9-17.11,27.51-21.82-8.91-10.69-15.34-17.51-26.13-24.16" transform="translate(-80.98 -116.62)" fill="none" stroke="#000" stroke-linecap="round" stroke-linejoin="round" stroke-width="3.5"/><path d="M931.59,633.22c-3-9.36,2.46-14.13-.57-23.49,222.31,2.88,445.32.49,668.4.72-1.88,6.65,4.76,15.93,2.89,22.58" transform="translate(-80.98 -116.62)" fill="none" stroke="#000" stroke-linecap="round" stroke-linejoin="round" stroke-width="3.5"/><path d="M881.65,313.71c.62-8.36,1.24-30.91,1.87-39.28,129.73-3.68,237.65-3.06,371.61,0,2.07,31.3.87,17.22,1,39.19" transform="translate(-80.98 -116.62)" fill="none" stroke="#000" stroke-linecap="round" stroke-linejoin="round" stroke-width="3.5"/><path d="M366.71,134.29v50.54h-3.46V134.29Z" transform="translate(-80.98 -116.62)"/><path d="M378.82,157.36c0-3.64-.15-5.78-.3-8.52h3.2l.23,5.83h.15c2-3.82,5.2-6.59,10.52-6.59,4.38,0,7.93,2.76,9.43,7.27h.15a13.63,13.63,0,0,1,3.61-4.74,11.1,11.1,0,0,1,7.51-2.53c3.62,0,10.69,2.15,10.69,14.55v22.2h-3.46V163.21c0-7.19-2.44-12.16-8.4-12.16-4,0-7.25,3.1-8.5,7a13,13,0,0,0-.5,3.59v23.16h-3.46v-23c0-6-2.48-10.74-8.05-10.74-4.27,0-7.79,3.53-8.93,7.93a13.86,13.86,0,0,0-.43,3.42v22.43h-3.46Z" transform="translate(-80.98 -116.62)"/><path d="M434.88,160.21c0-5-.14-8.4-.3-11.37h3.32l.22,6.21h.15a12.41,12.41,0,0,1,11.59-7c8.05,0,13.83,7,13.83,18.29,0,13.13-7,19.22-14.69,19.22a11.59,11.59,0,0,1-10.5-6h-.15v20h-3.47Zm3.47,10.72a14.49,14.49,0,0,0,.26,2.88c1.43,6,5.83,8.85,10.27,8.85,7.47,0,11.28-6.95,11.28-16.14,0-8-3.72-15.51-11.12-15.51-4.68,0-9.1,3.87-10.3,9.33a15.42,15.42,0,0,0-.39,3Z" transform="translate(-80.98 -116.62)"/><path d="M499.57,166.6c0,13.39-8,19-15.33,19-8.05,0-14.67-6.66-14.67-18.56,0-12.6,7.25-18.95,15.2-18.95C493.26,148.08,499.57,154.9,499.57,166.6Zm-26.47.31c0,8.06,4.35,15.75,11.4,15.75S496,174.93,496,166.72c0-6.37-2.94-15.71-11.45-15.71C476.35,151,473.1,159.73,473.1,166.91Z" transform="translate(-80.98 -116.62)"/><path d="M508,158.89c0-3.33-.15-6.94-.3-10h3.23l.15,6.87h.19c1.37-4.14,4.92-7.63,9.49-7.63a6.11,6.11,0,0,1,1.23.12v3.44a7.49,7.49,0,0,0-1.39-.08c-4.85,0-8.14,4.38-8.91,9.75a23.67,23.67,0,0,0-.23,3.31v20.21H508Z" transform="translate(-80.98 -116.62)"/><path d="M535.14,138.68v10.16h9.23v2.85h-9.23v23.74c0,4.71,1.49,7.12,4.85,7.12a11.16,11.16,0,0,0,3.51-.46l.42,2.67a11.32,11.32,0,0,1-4.45.76,7.07,7.07,0,0,1-5.78-2.41c-1.48-1.78-2-4.55-2-8.49V151.69h-5.6v-2.85h5.6v-9Z" transform="translate(-80.98 -116.62)"/><path d="M207.58,611.68v50.55h-3.25V611.68Z" transform="translate(-80.98 -116.62)"/><path d="M219,634.75c0-3.64-.14-5.77-.28-8.52h3l.21,5.88H222a11.26,11.26,0,0,1,10.4-6.64c3.33,0,10.57,2,10.57,14.18v22.58h-3.25v-22c0-6.13-1.92-11.82-8.24-11.82-4.15,0-7.8,3.3-8.94,8a14.11,14.11,0,0,0-.37,3.19v22.55H219Z" transform="translate(-80.98 -116.62)"/><path d="M252,626.23l7.17,22.48c1.09,3.06,2,6.16,2.77,9.13h.18c.76-2.86,1.8-6,2.85-9.13l7.18-22.48h3.4l-12.26,36H260.4l-11.85-36Z" transform="translate(-80.98 -116.62)"/><path d="M306.8,644c0,13.39-7.56,19-14.4,19-7.57,0-13.8-6.66-13.8-18.56,0-12.6,6.82-18.95,14.29-18.95C300.87,625.47,306.8,632.29,306.8,644Zm-24.88.32c0,8.05,4.09,15.75,10.72,15.75s10.84-7.74,10.84-15.95c0-6.36-2.76-15.71-10.76-15.71C285,628.4,281.92,637.12,281.92,644.31Z" transform="translate(-80.98 -116.62)"/><path d="M318,643.55h.14c.78-1.09,1.94-2.64,2.87-3.8l10.8-13.52h3.87l-12.37,15,14,21h-3.9L321.06,643.5,318,647.26v15h-3.25V609.38H318Z" transform="translate(-80.98 -116.62)"/><path d="M343.33,643.59c0,12.38,5.53,16.32,11.56,16.32a15.51,15.51,0,0,0,8.11-1.86l.82,2.71c-1.4.88-4.57,2.15-9.38,2.15-9,0-14.36-7.5-14.36-18.14,0-11.83,5.69-19.3,13.67-19.3,9.77,0,11.79,10.39,11.79,15.94a17.77,17.77,0,0,1-.08,2.18Zm18.78-2.79c.1-6.17-2.32-12.4-8.82-12.4s-9.28,6.79-9.82,12.4Z" transform="translate(-80.98 -116.62)"/><path d="M368.17,665.23l20-54.31h3.26l-20.12,54.31Z" transform="translate(-80.98 -116.62)"/><path d="M417.55,660.82a17.65,17.65,0,0,1-8.57,2.09c-8.81,0-14.76-7.2-14.76-18.37,0-11,6.38-19.07,15.83-19.07a14.33,14.33,0,0,1,7.61,1.95l-1.13,2.92a12.91,12.91,0,0,0-6.86-1.83c-8.18,0-12.13,7.7-12.13,15.9,0,9.48,4.9,15.5,12,15.5a15.3,15.3,0,0,0,7.2-1.8Z" transform="translate(-80.98 -116.62)"/><path d="M441.27,662.23l-.43-4.8h-.17a10.81,10.81,0,0,1-9.46,5.55c-6,0-9.21-4.69-9.21-9.9,0-8.42,6.65-13.14,18.59-13.06V639c0-4.34-.73-10.55-7.81-10.51a12.35,12.35,0,0,0-7.38,2.39l-1-2.55a15.3,15.3,0,0,1,8.83-2.81c8.21,0,10.62,6.32,10.62,13.41v14.93a64.41,64.41,0,0,0,.43,8.42ZM440.59,643c-5.94-.16-15.16.73-15.16,9.66,0,5.25,3,7.44,6.13,7.44,4.82,0,7.74-3.35,8.75-7.1a8.79,8.79,0,0,0,.28-2.21Z" transform="translate(-80.98 -116.62)"/><path d="M454,609.38h3.26v52.85H454Z" transform="translate(-80.98 -116.62)"/><path d="M468,609.38h3.26v52.85H468Z" transform="translate(-80.98 -116.62)"/><path d="M229.09,694.47c0-3.23-.09-5.38-.19-7.28H231l.15,4h.09a7.94,7.94,0,0,1,7.42-4.47c5.15,0,8.85,4.47,8.85,11.71,0,8.41-4.48,12.3-9.4,12.3a7.45,7.45,0,0,1-6.73-3.86h-.09v12.8h-2.22Zm2.22,6.86a9.33,9.33,0,0,0,.17,1.84c.91,3.84,3.73,5.67,6.57,5.67,4.78,0,7.22-4.45,7.22-10.34,0-5.14-2.38-9.92-7.12-9.92-3,0-5.82,2.47-6.59,6a9.72,9.72,0,0,0-.25,1.92Z" transform="translate(-80.98 -116.62)" fill="#4d4d4d"/><path d="M253,693.62c0-2.13-.1-4.44-.19-6.43h2.07l.09,4.39H255c.88-2.64,3.15-4.88,6.08-4.88a3.89,3.89,0,0,1,.78.08V689a4.8,4.8,0,0,0-.88-.05c-3.11,0-5.21,2.8-5.71,6.24a14.59,14.59,0,0,0-.15,2.12v12.94H253Z" transform="translate(-80.98 -116.62)" fill="#4d4d4d"/><path d="M269.09,680.8a1.77,1.77,0,1,1-3.53,0,1.83,1.83,0,0,1,1.77-1.92A1.77,1.77,0,0,1,269.09,680.8Zm-2.87,29.43v-23h2.21v23Z" transform="translate(-80.98 -116.62)" fill="#4d4d4d"/><path d="M275.58,692.64c0-2.33-.1-3.7-.19-5.45h2l.15,3.76h.1a7.69,7.69,0,0,1,7.08-4.25c2.27,0,7.19,1.28,7.19,9.08v14.45h-2.21V696.16c0-3.91-1.31-7.56-5.61-7.56a6.49,6.49,0,0,0-6.09,5.16,8.44,8.44,0,0,0-.25,2v14.43h-2.21Z" transform="translate(-80.98 -116.62)" fill="#4d4d4d"/><path d="M301.8,680.69v6.5h5.91V689H301.8v15.2c0,3,1,4.55,3.1,4.55a7.24,7.24,0,0,0,2.25-.29l.27,1.71a7.16,7.16,0,0,1-2.85.49,4.52,4.52,0,0,1-3.7-1.55c-.95-1.14-1.29-2.91-1.29-5.43V689H296v-1.82h3.58v-5.74Z" transform="translate(-80.98 -116.62)" fill="#4d4d4d"/><path d="M312.57,710.23V689h-3.16v-1.82h3.16v-1.4c0-3.21.57-6,2.33-7.9a6.6,6.6,0,0,1,4.79-2,6.34,6.34,0,0,1,3.13.73l-.68,1.75a5.65,5.65,0,0,0-2.67-.58c-3.9,0-4.68,3.78-4.68,7.94v1.43h5.63V689h-5.63v21.22Z" transform="translate(-80.98 -116.62)" fill="#4d4d4d"/><path d="M333.74,710.23V689h-3.16v-1.82h3.16v-1.4c0-3.21.56-6,2.33-7.9a6.58,6.58,0,0,1,4.79-2,6.37,6.37,0,0,1,3.13.73l-.68,1.75a5.65,5.65,0,0,0-2.67-.58c-3.91,0-4.69,3.78-4.69,7.94v1.43h5.63V689H336v21.22Z" transform="translate(-80.98 -116.62)" fill="#4d4d4d"/><path d="M361,704.54c0,2.22.09,4,.19,5.69h-2l-.16-3.59h-.1a7.94,7.94,0,0,1-6.95,4.07c-3.18,0-7.07-1.94-7.07-9.65V687.19h2.22V700.6c0,4.71,1.26,8.19,5.36,8.19a6.61,6.61,0,0,0,6-4.49,9.47,9.47,0,0,0,.35-2.42V687.19H361Z" transform="translate(-80.98 -116.62)" fill="#4d4d4d"/><path d="M368.12,692.64c0-2.33-.09-3.7-.19-5.45H370l.14,3.76h.1a7.69,7.69,0,0,1,7.08-4.25c2.27,0,7.2,1.28,7.2,9.08v14.45h-2.22V696.16c0-3.91-1.3-7.56-5.6-7.56a6.51,6.51,0,0,0-6.1,5.16,9,9,0,0,0-.24,2v14.43h-2.22Z" transform="translate(-80.98 -116.62)" fill="#4d4d4d"/><path d="M405.7,709.33a12.63,12.63,0,0,1-5.83,1.34c-6,0-10.05-4.61-10.05-11.76s4.34-12.21,10.77-12.21a10.19,10.19,0,0,1,5.19,1.25l-.77,1.87a9.22,9.22,0,0,0-4.68-1.17c-5.56,0-8.25,4.92-8.25,10.17,0,6.07,3.34,9.92,8.14,9.92a10.93,10.93,0,0,0,4.9-1.15Z" transform="translate(-80.98 -116.62)" fill="#4d4d4d"/><path d="M414.21,680.69v6.5h5.91V689h-5.91v15.2c0,3,1,4.55,3.11,4.55a7.34,7.34,0,0,0,2.25-.29l.26,1.71a7.14,7.14,0,0,1-2.84.49,4.54,4.54,0,0,1-3.71-1.55c-.94-1.14-1.28-2.91-1.28-5.43V689h-3.59v-1.82H412v-5.74Z" transform="translate(-80.98 -116.62)" fill="#4d4d4d"/><path d="M427.58,680.8a1.77,1.77,0,1,1-3.52,0,1.83,1.83,0,0,1,1.76-1.92A1.77,1.77,0,0,1,427.58,680.8Zm-2.87,29.43v-23h2.22v23Z" transform="translate(-80.98 -116.62)" fill="#4d4d4d"/><path d="M451.59,698.55c0,8.58-5.14,12.16-9.81,12.16-5.15,0-9.39-4.26-9.39-11.88,0-8.07,4.64-12.13,9.73-12.13C447.55,686.7,451.59,691.07,451.59,698.55Zm-16.94.21c0,5.15,2.79,10.08,7.3,10.08s7.38-5,7.38-10.21c0-4.07-1.88-10-7.32-10C436.73,688.58,434.65,694.16,434.65,698.76Z" transform="translate(-80.98 -116.62)" fill="#4d4d4d"/><path d="M457,692.64c0-2.33-.09-3.7-.19-5.45h2.05L459,691h.09a7.69,7.69,0,0,1,7.08-4.25c2.27,0,7.2,1.28,7.2,9.08v14.45h-2.21V696.16c0-3.91-1.31-7.56-5.61-7.56a6.49,6.49,0,0,0-6.09,5.16,8.44,8.44,0,0,0-.25,2v14.43H457Z" transform="translate(-80.98 -116.62)" fill="#4d4d4d"/><path d="M95.81,434a37.67,37.67,0,0,1,9.11-1.05c5.67,0,9.26,1.35,11.78,4a13.45,13.45,0,0,1,3.25,9.14c0,6.89-3.58,11.11-8.86,13.19v.15c3.78,1.22,6,5,7.18,11.17,1.49,7.84,2.38,11.39,3.24,13.21h-3.37c-.74-1.5-1.7-6-2.9-12.44-1.39-7.31-4.15-10.54-10.2-10.74h-6v23.18H95.81Zm3.25,23.88h6.08c6.89,0,11.49-4.39,11.49-11.16,0-7.46-4.53-10.88-11.81-10.88a23.38,23.38,0,0,0-5.76.58Z" transform="translate(-80.98 -116.62)"/><path d="M129.55,465.17c0,12.39,5.54,16.32,11.56,16.32a15.58,15.58,0,0,0,8.12-1.86l.81,2.71c-1.4.89-4.57,2.15-9.38,2.15-9,0-14.36-7.5-14.36-18.14,0-11.83,5.69-19.3,13.67-19.3,9.77,0,11.79,10.39,11.79,15.94a17.77,17.77,0,0,1-.08,2.18Zm18.78-2.78c.1-6.18-2.31-12.41-8.82-12.41s-9.28,6.79-9.82,12.41Z" transform="translate(-80.98 -116.62)"/><path d="M164.11,437.66v10.15h8.67v2.85h-8.67V474.4c0,4.71,1.4,7.12,4.56,7.12a9.93,9.93,0,0,0,3.3-.46l.39,2.67a9.86,9.86,0,0,1-4.18.76,6.46,6.46,0,0,1-5.44-2.41c-1.39-1.78-1.88-4.54-1.88-8.49V450.66h-5.27v-2.85h5.27v-9Z" transform="translate(-80.98 -116.62)"/><path d="M203,474.93c0,3.46.13,6.27.28,8.88h-3l-.24-5.6h-.15a11.6,11.6,0,0,1-10.2,6.36c-4.68,0-10.38-3-10.38-15.09V447.81h3.25v21c0,7.36,1.85,12.79,7.88,12.79,4.71,0,7.74-3.88,8.8-7a15.22,15.22,0,0,0,.51-3.78v-23H203Z" transform="translate(-80.98 -116.62)"/><path d="M213.4,457.87c0-3.33-.13-6.94-.28-10.06h3l.14,6.87h.18c1.29-4.13,4.62-7.63,8.92-7.63a5.43,5.43,0,0,1,1.16.12v3.45a6.63,6.63,0,0,0-1.31-.08c-4.55,0-7.65,4.38-8.37,9.75a23.69,23.69,0,0,0-.22,3.31v20.21H213.4Z" transform="translate(-80.98 -116.62)"/><path d="M232.89,456.33c0-3.64-.13-5.77-.28-8.52h3l.22,5.88H236a11.25,11.25,0,0,1,10.39-6.64c3.34,0,10.57,2,10.57,14.18v22.58h-3.25v-22c0-6.13-1.92-11.82-8.23-11.82-4.16,0-7.8,3.3-9,8.06a14.57,14.57,0,0,0-.36,3.18v22.55h-3.26Z" transform="translate(-80.98 -116.62)"/><path d="M280.62,447.81l7.17,22.48c1.09,3.06,2,6.16,2.77,9.14h.18c.76-2.87,1.8-6,2.85-9.14l7.18-22.48h3.4l-12.26,36h-2.84l-11.85-36Z" transform="translate(-80.98 -116.62)"/><path d="M326.62,483.81l-.43-4.8H326a10.78,10.78,0,0,1-9.45,5.56c-6,0-9.21-4.7-9.21-9.9,0-8.43,6.65-13.15,18.59-13.06v-1.08c0-4.34-.73-10.55-7.81-10.51a12.34,12.34,0,0,0-7.39,2.4l-1-2.56a15.3,15.3,0,0,1,8.83-2.81c8.21,0,10.61,6.32,10.61,13.41v14.93a66.1,66.1,0,0,0,.43,8.42Zm-.68-19.27c-5.94-.16-15.16.73-15.16,9.67,0,5.24,3,7.43,6.13,7.43,4.81,0,7.74-3.34,8.74-7.1a8.35,8.35,0,0,0,.29-2.21Z" transform="translate(-80.98 -116.62)"/><path d="M339.35,431h3.25v52.84h-3.25Z" transform="translate(-80.98 -116.62)"/><path d="M376.86,474.93c0,3.46.13,6.27.28,8.88h-3l-.25-5.6h-.14a11.6,11.6,0,0,1-10.2,6.36c-4.68,0-10.38-3-10.38-15.09V447.81h3.25v21c0,7.36,1.85,12.79,7.88,12.79,4.71,0,7.74-3.88,8.8-7a15.22,15.22,0,0,0,.51-3.78v-23h3.26Z" transform="translate(-80.98 -116.62)"/><path d="M388.07,465.17c0,12.39,5.53,16.32,11.56,16.32a15.51,15.51,0,0,0,8.11-1.86l.82,2.71c-1.4.89-4.57,2.15-9.38,2.15-9,0-14.36-7.5-14.36-18.14,0-11.83,5.69-19.3,13.67-19.3,9.77,0,11.79,10.39,11.79,15.94a17.77,17.77,0,0,1-.08,2.18Zm18.78-2.78C407,456.21,404.53,450,398,450s-9.28,6.79-9.82,12.41Z" transform="translate(-80.98 -116.62)"/><path d="M307.57,507.66v10.15h8.68v2.85h-8.68V544.4c0,4.71,1.41,7.12,4.56,7.12a9.88,9.88,0,0,0,3.3-.46l.39,2.67a9.83,9.83,0,0,1-4.18.76,6.44,6.44,0,0,1-5.43-2.41c-1.39-1.78-1.89-4.54-1.89-8.49V520.66h-5.27v-2.85h5.27v-9Z" transform="translate(-80.98 -116.62)"/><path d="M323,517.81l7.77,23c.88,2.75,1.64,5.57,2.24,7.93h.14c.61-2.21,1.46-5.13,2.35-8.09l7.24-22.88h3.44l-8.51,24.86c-3.58,11-6.31,18.59-10.65,23.25a19.06,19.06,0,0,1-5.67,4.22l-1.22-2.89a18,18,0,0,0,5.64-4.45,30.14,30.14,0,0,0,4.91-8.5,5.56,5.56,0,0,0,.39-1.68,4.16,4.16,0,0,0-.33-1.5l-11.18-33.31Z" transform="translate(-80.98 -116.62)"/><path d="M352.21,529.19c0-5-.13-8.41-.28-11.38H355l.22,6.22h.14c2.34-4.66,6.09-7,10.89-7,7.57,0,13,7,13,18.29,0,13.14-6.59,19.23-13.82,19.23a10.81,10.81,0,0,1-9.87-6h-.14v20h-3.26Zm3.26,10.71a15.38,15.38,0,0,0,.25,2.89c1.34,6,5.48,8.85,9.65,8.85,7,0,10.61-6.95,10.61-16.15,0-8-3.51-15.51-10.46-15.51-4.4,0-8.55,3.87-9.69,9.33a17.17,17.17,0,0,0-.36,3Z" transform="translate(-80.98 -116.62)"/><path d="M388.07,535.17c0,12.39,5.53,16.32,11.56,16.32a15.51,15.51,0,0,0,8.11-1.86l.82,2.71c-1.4.89-4.57,2.15-9.38,2.15-9,0-14.36-7.5-14.36-18.14,0-11.83,5.69-19.3,13.67-19.3,9.77,0,11.79,10.39,11.79,15.94a17.77,17.77,0,0,1-.08,2.18Zm18.78-2.78C407,526.21,404.53,520,398,520s-9.28,6.79-9.82,12.41Z" transform="translate(-80.98 -116.62)"/><path d="M1242.59,165.63a13.84,13.84,0,0,0,7.29,2.3c5.08,0,7.72-2.94,7.72-6.76s-2-5.94-6.77-8.2c-5.31-2.46-8.57-5.51-8.57-10,0-5.28,4.12-9.55,10.39-9.55a12.79,12.79,0,0,1,7.34,2.19l-1.42,2.82a10.49,10.49,0,0,0-6.38-2c-4.24,0-6.51,2.89-6.51,6,0,3.52,2.08,5.13,6.62,7.35,5.1,2.36,8.75,5.28,8.75,10.79,0,6.45-4.76,10.31-11.4,10.31a15.42,15.42,0,0,1-8.34-2.37Z" transform="translate(-80.98 -116.62)"/><path d="M1274.45,124.06v10.16h9.22v2.85h-9.22v23.74c0,4.71,1.49,7.12,4.85,7.12a11.16,11.16,0,0,0,3.51-.46l.41,2.67a11.23,11.23,0,0,1-4.44.76,7.1,7.1,0,0,1-5.79-2.41c-1.48-1.78-2-4.54-2-8.49V137.07h-5.61v-2.85H1271v-9Z" transform="translate(-80.98 -116.62)"/><path d="M1316.08,117.37v44.79c0,2.39.14,5.88.3,8.06h-3.09L1313,164h-.23a11.9,11.9,0,0,1-11.23,7c-7.74,0-13.87-6.81-13.87-18.25,0-12.27,6.71-19.26,14.48-19.26,5,0,8.64,2.55,10.28,5.83h.16V117.37Zm-3.46,30.89a15.91,15.91,0,0,0-.28-3.06c-1-4.8-4.8-8.81-9.91-8.81-7.16,0-11.2,7.09-11.2,16,0,8.1,3.44,15.63,11,15.63,4.23,0,8.56-2.73,10.13-9a11.06,11.06,0,0,0,.31-2.83Z" transform="translate(-80.98 -116.62)"/><path d="M1331.63,124.24a2.76,2.76,0,1,1-5.5,0,2.86,2.86,0,0,1,2.75-3A2.77,2.77,0,0,1,1331.63,124.24Zm-4.48,46v-36h3.46v36Z" transform="translate(-80.98 -116.62)"/><path d="M1369.15,152c0,13.39-8,19-15.32,19-8.06,0-14.68-6.66-14.68-18.56,0-12.6,7.25-18.95,15.2-18.95C1362.84,133.46,1369.15,140.28,1369.15,152Zm-26.47.32c0,8,4.35,15.74,11.41,15.74s11.53-7.73,11.53-15.94c0-6.36-2.94-15.71-11.45-15.71C1345.93,136.39,1342.68,145.11,1342.68,152.3Z" transform="translate(-80.98 -116.62)"/><path d="M1374.21,167.74a3,3,0,0,1,2.94-3.31c1.8,0,2.9,1.39,2.9,3.31a2.93,2.93,0,1,1-5.84,0Z" transform="translate(-80.98 -116.62)"/><path d="M1388.8,117.37h3.46v22.52h.15a12.18,12.18,0,0,1,4.34-4.6,11.93,11.93,0,0,1,6.5-1.83c3.37,0,11.13,1.89,11.13,14v22.76h-3.46V148.07c0-6-2.14-11.6-8.65-11.6-4.56,0-8.25,3.34-9.62,7.87a10.81,10.81,0,0,0-.39,3.29v22.59h-3.46Z" transform="translate(-80.98 -116.62)"/><path d="M1440.75,170.22V137.07h-4.94v-2.85h4.94v-2.43c0-8.71,4-15.17,13.06-15.17a13.37,13.37,0,0,1,7.61,2.3l-1.52,2.71a12.05,12.05,0,0,0-6.69-2c-7.14,0-9,5.6-9,12.5v2.14H1463v36h-3.46V137.07h-15.32v33.15Z" transform="translate(-80.98 -116.62)"/><path d="M1474.15,117.37h3.46v52.85h-3.46Z" transform="translate(-80.98 -116.62)"/><path d="M1489.9,151.58c0,12.38,5.89,16.31,12.31,16.31a17.34,17.34,0,0,0,8.62-1.85l.87,2.71c-1.49.88-4.86,2.15-10,2.15-9.6,0-15.27-7.5-15.27-18.14,0-11.83,6-19.3,14.54-19.3,10.39,0,12.54,10.39,12.54,15.94a17.86,17.86,0,0,1-.08,2.18Zm20-2.79c.11-6.17-2.46-12.4-9.38-12.4s-9.87,6.79-10.44,12.4Z" transform="translate(-80.98 -116.62)"/><path d="M1659,772.59h-17.06v22.16h19.19v3h-22.44V747.17H1660v3h-18.13v19.49H1659Z" transform="translate(-80.98 -116.62)"/><path d="M1667.14,793.13a12.49,12.49,0,0,0,6.85,2.31c4.79,0,7.26-3,7.26-6.77s-1.84-5.94-6.36-8.2c-5-2.45-8.06-5.51-8.06-10a9.36,9.36,0,0,1,9.77-9.55,11.53,11.53,0,0,1,6.9,2.19l-1.34,2.82a9.45,9.45,0,0,0-6-2,5.81,5.81,0,0,0-6.11,6c0,3.52,2,5.13,6.22,7.35,4.8,2.36,8.23,5.28,8.23,10.79,0,6.45-4.48,10.31-10.72,10.31a13.86,13.86,0,0,1-7.84-2.37Z" transform="translate(-80.98 -116.62)"/><path d="M1713.49,796.31a17.65,17.65,0,0,1-8.57,2.09c-8.81,0-14.76-7.2-14.76-18.37,0-11,6.38-19.07,15.83-19.07a14.33,14.33,0,0,1,7.61,1.95l-1.13,2.92a12.91,12.91,0,0,0-6.86-1.83c-8.18,0-12.13,7.7-12.13,15.9,0,9.48,4.9,15.5,12,15.5a15.22,15.22,0,0,0,7.19-1.8Z" transform="translate(-80.98 -116.62)"/><path d="M1737.21,797.72l-.43-4.8h-.17a10.81,10.81,0,0,1-9.46,5.55c-6,0-9.21-4.69-9.21-9.9,0-8.42,6.65-13.14,18.59-13.06v-1.07c0-4.34-.73-10.55-7.81-10.51a12.4,12.4,0,0,0-7.39,2.39l-1-2.55a15.3,15.3,0,0,1,8.83-2.81c8.21,0,10.62,6.32,10.62,13.41V789.3a64.41,64.41,0,0,0,.43,8.42Zm-.68-19.27c-5.94-.16-15.16.73-15.16,9.66,0,5.25,3,7.43,6.13,7.43,4.82,0,7.74-3.33,8.74-7.09a8.4,8.4,0,0,0,.29-2.21Z" transform="translate(-80.98 -116.62)"/><path d="M1749.91,773.09c0-5-.14-8.4-.28-11.37h3.11l.21,6.22h.14c2.34-4.67,6.09-7,10.9-7,7.56,0,13,7,13,18.29,0,13.14-6.59,19.22-13.82,19.22a10.82,10.82,0,0,1-9.87-6h-.14v20h-3.25Zm3.25,10.72a16.26,16.26,0,0,0,.25,2.89c1.35,6,5.48,8.84,9.65,8.84,7,0,10.61-6.94,10.61-16.14,0-8-3.5-15.51-10.46-15.51-4.39,0-8.55,3.87-9.68,9.33a17.08,17.08,0,0,0-.37,3Z" transform="translate(-80.98 -116.62)"/><path d="M1785.76,779.08c0,12.38,5.54,16.32,11.57,16.32a15.54,15.54,0,0,0,8.11-1.86l.81,2.71c-1.4.88-4.57,2.15-9.38,2.15-9,0-14.36-7.5-14.36-18.14,0-11.83,5.69-19.3,13.67-19.3,9.77,0,11.79,10.39,11.79,15.94a17.77,17.77,0,0,1-.08,2.18Zm18.78-2.79c.1-6.17-2.31-12.4-8.82-12.4s-9.28,6.79-9.81,12.4Z" transform="translate(-80.98 -116.62)"/><path d="M1659.42,876.31a17.66,17.66,0,0,1-8.58,2.09c-8.81,0-14.75-7.2-14.75-18.37,0-11,6.38-19.07,15.83-19.07a14.36,14.36,0,0,1,7.61,1.95l-1.14,2.92a12.88,12.88,0,0,0-6.86-1.83c-8.17,0-12.12,7.7-12.12,15.9,0,9.48,4.9,15.5,12,15.5a15.22,15.22,0,0,0,7.19-1.8Z" transform="translate(-80.98 -116.62)"/><path d="M1666.68,824.87h3.26v22.52h.14a11.8,11.8,0,0,1,4.08-4.6,10.68,10.68,0,0,1,6.1-1.83c3.18,0,10.47,1.89,10.47,14v22.76h-3.25V855.57c0-6.05-2-11.6-8.13-11.6-4.29,0-7.76,3.34-9,7.87a11.52,11.52,0,0,0-.36,3.29v22.59h-3.26Z" transform="translate(-80.98 -116.62)"/><path d="M1717.61,877.72l-.43-4.8H1717a10.79,10.79,0,0,1-9.45,5.55c-6,0-9.22-4.69-9.22-9.9,0-8.42,6.65-13.14,18.59-13.06v-1.07c0-4.34-.73-10.55-7.81-10.51a12.35,12.35,0,0,0-7.38,2.39l-1-2.55a15.3,15.3,0,0,1,8.83-2.81c8.21,0,10.62,6.32,10.62,13.41V869.3a64.41,64.41,0,0,0,.43,8.42Zm-.68-19.27c-5.93-.16-15.16.73-15.16,9.66,0,5.25,3,7.43,6.13,7.43,4.82,0,7.74-3.33,8.75-7.09a8.79,8.79,0,0,0,.28-2.21Z" transform="translate(-80.98 -116.62)"/><path d="M1730.31,851.78c0-3.33-.14-6.95-.28-10.06h3l.14,6.87h.18c1.29-4.13,4.62-7.63,8.92-7.63a5.34,5.34,0,0,1,1.15.12v3.45a6.52,6.52,0,0,0-1.3-.08c-4.56,0-7.65,4.37-8.38,9.74a25.47,25.47,0,0,0-.22,3.32v20.21h-3.25Z" transform="translate(-80.98 -116.62)"/><path d="M1765.83,877.72l-.43-4.8h-.17a10.79,10.79,0,0,1-9.45,5.55c-6,0-9.22-4.69-9.22-9.9,0-8.42,6.65-13.14,18.6-13.06v-1.07c0-4.34-.74-10.55-7.82-10.51a12.37,12.37,0,0,0-7.38,2.39l-1-2.55a15.3,15.3,0,0,1,8.83-2.81c8.21,0,10.62,6.32,10.62,13.41V869.3a64.41,64.41,0,0,0,.43,8.42Zm-.67-19.27c-5.94-.16-15.16.73-15.16,9.66,0,5.25,3,7.43,6.13,7.43,4.81,0,7.73-3.33,8.74-7.09a8.84,8.84,0,0,0,.29-2.21Z" transform="translate(-80.98 -116.62)"/><path d="M1799.42,876.31a17.58,17.58,0,0,1-8.57,2.09c-8.81,0-14.76-7.2-14.76-18.37,0-11,6.38-19.07,15.83-19.07a14.37,14.37,0,0,1,7.62,1.95l-1.14,2.92a12.91,12.91,0,0,0-6.86-1.83c-8.17,0-12.12,7.7-12.12,15.9,0,9.48,4.9,15.5,12,15.5a15.22,15.22,0,0,0,7.19-1.8Z" transform="translate(-80.98 -116.62)"/><path d="M1811.93,831.56v10.16h8.67v2.85h-8.67v23.74c0,4.71,1.4,7.12,4.56,7.12a9.93,9.93,0,0,0,3.3-.46l.39,2.67a9.89,9.89,0,0,1-4.18.76,6.46,6.46,0,0,1-5.44-2.41c-1.39-1.78-1.88-4.54-1.88-8.49V844.57h-5.27v-2.85h5.27v-9Z" transform="translate(-80.98 -116.62)"/><path d="M1827.64,859.08c0,12.38,5.53,16.32,11.56,16.32a15.51,15.51,0,0,0,8.11-1.86l.82,2.71c-1.4.88-4.57,2.15-9.38,2.15-9,0-14.36-7.5-14.36-18.14,0-11.83,5.69-19.3,13.67-19.3,9.77,0,11.78,10.39,11.78,15.94a20.3,20.3,0,0,1-.07,2.18Zm18.78-2.79c.1-6.17-2.32-12.4-8.82-12.4s-9.28,6.79-9.82,12.4Z" transform="translate(-80.98 -116.62)"/><path d="M1857.7,851.78c0-3.33-.14-6.95-.28-10.06h3l.14,6.87h.18c1.29-4.13,4.62-7.63,8.92-7.63a5.4,5.4,0,0,1,1.15.12v3.45a6.57,6.57,0,0,0-1.3-.08c-4.56,0-7.65,4.37-8.38,9.74a25.47,25.47,0,0,0-.22,3.32v20.21h-3.25Z" transform="translate(-80.98 -116.62)"/><path d="M1406,506.87a16.06,16.06,0,0,0,9.13,3c6.58,0,10.66-4.24,10.66-10.47,0-5.56-2.78-8.93-8.64-11.84-6-2.59-11.25-6.82-11.25-13.95,0-7.39,5.53-12.66,13-12.66a15.08,15.08,0,0,1,8.46,2.23l-1.27,2.94a13,13,0,0,0-7.5-2.2c-6.89,0-9.44,5-9.44,9,0,5.79,3.07,8.47,9.08,11.49,7.1,3.71,10.81,7.67,10.81,14.7,0,7.65-5.06,13.77-14.1,13.77-3.74,0-8.06-1.35-10.15-3.07Z" transform="translate(-80.98 -116.62)"/><path d="M1441.5,466v10.15h8.67V479h-8.67v23.74c0,4.71,1.4,7.12,4.56,7.12a9.93,9.93,0,0,0,3.3-.46l.39,2.67a9.86,9.86,0,0,1-4.18.76,6.46,6.46,0,0,1-5.44-2.41c-1.39-1.78-1.88-4.54-1.88-8.49V479H1433v-2.85h5.27v-9Z" transform="translate(-80.98 -116.62)"/><path d="M1456.89,486.21c0-3.33-.14-6.94-.29-10.06h3l.14,6.87h.18c1.29-4.13,4.62-7.63,8.92-7.63a5.43,5.43,0,0,1,1.16.12V479a6.63,6.63,0,0,0-1.31-.08c-4.55,0-7.65,4.38-8.37,9.75a23.69,23.69,0,0,0-.22,3.31v20.21h-3.25Z" transform="translate(-80.98 -116.62)"/><path d="M1480.59,466.18a2.71,2.71,0,0,1-2.69,3c-1.46,0-2.48-1.33-2.48-3a2.79,2.79,0,0,1,2.58-3C1479.59,463.17,1480.59,464.49,1480.59,466.18Zm-4.21,46v-36h3.25v36Z" transform="translate(-80.98 -116.62)"/><path d="M1490.12,484.67c0-3.64-.13-5.77-.28-8.52h3l.21,5.88h.15a11.25,11.25,0,0,1,10.39-6.64c3.34,0,10.57,2,10.57,14.18v22.58h-3.25v-22c0-6.12-1.92-11.82-8.23-11.82-4.16,0-7.8,3.3-9,8.06a14,14,0,0,0-.36,3.18v22.55h-3.26Z" transform="translate(-80.98 -116.62)"/><path d="M1548.94,476.15c-.14,2.46-.28,5.31-.28,9.84v21c0,9.63-1.54,13.8-4.11,16.55a14.17,14.17,0,0,1-10.35,4.1c-3.52,0-7.35-1-9.57-2.7l1.13-2.82a15.87,15.87,0,0,0,8.91,2.59c6.2,0,10.74-3.53,10.74-13.94v-4.93h-.14a10.84,10.84,0,0,1-10.25,6.33c-7.45,0-13-7.37-13-17.76,0-13,7.21-19,13.73-19a10.32,10.32,0,0,1,9.87,6.3h.14l.18-5.54Zm-3.53,13.26a11.66,11.66,0,0,0-.36-3.21c-1.19-3.95-4.12-7.88-9.21-7.88-6.3,0-10.53,6.23-10.53,15.69,0,8.91,3.79,15.21,10.49,15.21,3.75,0,7.51-2.36,9.1-7.73a13.46,13.46,0,0,0,.51-3.73Z" transform="translate(-80.98 -116.62)"/><path d="M1594,510.74a17.47,17.47,0,0,1-8.57,2.09c-8.81,0-14.76-7.2-14.76-18.37,0-11,6.38-19.07,15.83-19.07a14.4,14.4,0,0,1,7.62,1.95l-1.14,2.93a12.82,12.82,0,0,0-6.86-1.83c-8.17,0-12.13,7.69-12.13,15.89,0,9.48,4.91,15.5,12,15.5a15.22,15.22,0,0,0,7.19-1.8Z" transform="translate(-80.98 -116.62)"/><path d="M1626.75,493.91c0,13.4-7.56,19-14.41,19-7.56,0-13.79-6.67-13.79-18.56,0-12.61,6.82-19,14.29-19C1620.82,475.39,1626.75,482.21,1626.75,493.91Zm-24.88.32c0,8,4.09,15.75,10.72,15.75s10.84-7.74,10.84-16c0-6.36-2.76-15.71-10.76-15.71C1604.92,478.32,1601.87,487,1601.87,494.23Z" transform="translate(-80.98 -116.62)"/><path d="M1634.72,484.67c0-3.64-.14-5.77-.29-8.52h3l.22,5.88h.14a11.26,11.26,0,0,1,10.4-6.64c3.33,0,10.57,2,10.57,14.18v22.58h-3.26v-22c0-6.12-1.92-11.82-8.23-11.82-4.16,0-7.8,3.3-9,8.06a14.57,14.57,0,0,0-.36,3.18v22.55h-3.25Z" transform="translate(-80.98 -116.62)"/><path d="M1667.67,507.56a12.53,12.53,0,0,0,6.86,2.31c4.78,0,7.25-2.95,7.25-6.76s-1.84-5.94-6.36-8.21c-5-2.45-8.05-5.51-8.05-10a9.35,9.35,0,0,1,9.76-9.55,11.57,11.57,0,0,1,6.91,2.19l-1.34,2.82a9.5,9.5,0,0,0-6-2,5.82,5.82,0,0,0-6.12,6c0,3.52,2,5.13,6.22,7.36,4.8,2.35,8.23,5.27,8.23,10.78,0,6.46-4.48,10.31-10.72,10.31a13.86,13.86,0,0,1-7.84-2.37Z" transform="translate(-80.98 -116.62)"/><path d="M1697.62,466v10.15h8.68V479h-8.68v23.74c0,4.71,1.41,7.12,4.56,7.12a9.88,9.88,0,0,0,3.3-.46l.39,2.67a9.81,9.81,0,0,1-4.17.76,6.44,6.44,0,0,1-5.44-2.41c-1.39-1.78-1.89-4.54-1.89-8.49V479h-5.27v-2.85h5.27v-9Z" transform="translate(-80.98 -116.62)"/><path d="M1729.64,512.15l-.43-4.8H1729a10.78,10.78,0,0,1-9.45,5.56c-6,0-9.21-4.7-9.21-9.9,0-8.43,6.65-13.15,18.59-13.06v-1.08c0-4.34-.73-10.55-7.81-10.51a12.34,12.34,0,0,0-7.39,2.4l-1-2.56a15.3,15.3,0,0,1,8.83-2.81c8.21,0,10.61,6.32,10.61,13.41v14.93a66.1,66.1,0,0,0,.43,8.42Zm-.68-19.27c-5.94-.16-15.16.74-15.16,9.67,0,5.24,3,7.43,6.13,7.43,4.81,0,7.74-3.34,8.74-7.1a8.35,8.35,0,0,0,.29-2.21Z" transform="translate(-80.98 -116.62)"/><path d="M1742.37,484.67c0-3.64-.14-5.77-.28-8.52h3l.22,5.88h.14a11.26,11.26,0,0,1,10.4-6.64c3.33,0,10.57,2,10.57,14.18v22.58h-3.25v-22c0-6.12-1.92-11.82-8.24-11.82-4.15,0-7.8,3.3-9,8.06a14.57,14.57,0,0,0-.36,3.18v22.55h-3.25Z" transform="translate(-80.98 -116.62)"/><path d="M1780.88,466v10.15h8.68V479h-8.68v23.74c0,4.71,1.41,7.12,4.56,7.12a9.88,9.88,0,0,0,3.3-.46l.39,2.67a9.86,9.86,0,0,1-4.18.76,6.44,6.44,0,0,1-5.43-2.41c-1.39-1.78-1.89-4.54-1.89-8.49V479h-5.27v-2.85h5.27v-9Z" transform="translate(-80.98 -116.62)"/><path d="M1201.11,855.19H1183v22.15h20.42v3H1179.5V829.76h22.74v3H1183v19.49h18.15Z" transform="translate(-80.98 -116.62)"/><path d="M1211,852.83c0-3.63-.15-5.77-.3-8.52h3.2l.23,5.88h.15a12,12,0,0,1,11.06-6.63c3.55,0,11.25,2,11.25,14.18v22.57h-3.47v-22c0-6.12-2-11.81-8.76-11.81-4.42,0-8.29,3.3-9.51,8.05a13.39,13.39,0,0,0-.39,3.19v22.54H1211Z" transform="translate(-80.98 -116.62)"/><path d="M1273.32,827.47v44.78c0,2.39.14,5.88.3,8.06h-3.09l-.27-6.22H1270a11.89,11.89,0,0,1-11.23,7c-7.74,0-13.87-6.82-13.87-18.25,0-12.27,6.7-19.26,14.48-19.26,5,0,8.64,2.55,10.28,5.83h.15V827.47Zm-3.47,30.89a15.83,15.83,0,0,0-.27-3.06c-1-4.81-4.8-8.82-9.91-8.82-7.16,0-11.2,7.1-11.2,16,0,8.1,3.44,15.63,11,15.63,4.22,0,8.56-2.74,10.13-9a11.07,11.07,0,0,0,.3-2.83Z" transform="translate(-80.98 -116.62)"/><path d="M1183.87,904.34a2.76,2.76,0,1,1-5.5,0,2.86,2.86,0,0,1,2.75-3A2.77,2.77,0,0,1,1183.87,904.34Zm-4.48,46v-36h3.46v36Z" transform="translate(-80.98 -116.62)"/><path d="M1194,922.83c0-3.63-.14-5.77-.3-8.52h3.2l.23,5.88h.15a12,12,0,0,1,11.06-6.63c3.55,0,11.25,2,11.25,14.18v22.57h-3.46v-22c0-6.12-2-11.81-8.76-11.81-4.42,0-8.3,3.3-9.52,8.05a13.39,13.39,0,0,0-.39,3.19v22.54H1194Z" transform="translate(-80.98 -116.62)"/><path d="M1229.08,945.72a13.84,13.84,0,0,0,7.29,2.31c5.08,0,7.72-2.94,7.72-6.76s-2-5.94-6.77-8.2c-5.31-2.46-8.57-5.51-8.57-10,0-5.27,4.12-9.54,10.39-9.54a12.87,12.87,0,0,1,7.34,2.18l-1.42,2.82a10.5,10.5,0,0,0-6.39-2c-4.23,0-6.5,2.9-6.5,6,0,3.51,2.08,5.12,6.62,7.35,5.1,2.36,8.75,5.28,8.75,10.78,0,6.46-4.76,10.32-11.4,10.32a15.42,15.42,0,0,1-8.34-2.38Z" transform="translate(-80.98 -116.62)"/><path d="M1260.94,904.16v10.15h9.22v2.86h-9.22V940.9c0,4.71,1.49,7.13,4.85,7.13a11.16,11.16,0,0,0,3.51-.47l.41,2.68a11.23,11.23,0,0,1-4.44.76,7.05,7.05,0,0,1-5.79-2.42c-1.48-1.77-2-4.54-2-8.48V917.17h-5.6v-2.86h5.6v-9Z" transform="translate(-80.98 -116.62)"/><path d="M1277.3,924.37c0-3.33-.14-6.94-.3-10.06h3.24l.15,6.88h.19c1.37-4.14,4.91-7.63,9.49-7.63a6,6,0,0,1,1.22.11v3.45a7.32,7.32,0,0,0-1.38-.08c-4.85,0-8.14,4.38-8.91,9.75a22.23,22.23,0,0,0-.24,3.31v20.21h-3.46Z" transform="translate(-80.98 -116.62)"/><path d="M1322.57,941.43c0,3.46.14,6.28.3,8.88h-3.2l-.26-5.6h-.16a12.4,12.4,0,0,1-10.85,6.36c-5,0-11-3-11-15.09V914.31h3.46v21c0,7.37,2,12.79,8.38,12.79,5,0,8.23-3.88,9.36-7a14.28,14.28,0,0,0,.55-3.77v-23h3.46Z" transform="translate(-80.98 -116.62)"/><path d="M1355.85,948.91a19.61,19.61,0,0,1-9.11,2.09c-9.38,0-15.7-7.2-15.7-18.38,0-11,6.78-19.06,16.84-19.06a16.08,16.08,0,0,1,8.1,1.94l-1.21,2.93a14.29,14.29,0,0,0-7.3-1.83c-8.69,0-12.9,7.69-12.9,15.89,0,9.49,5.22,15.5,12.73,15.5a17.17,17.17,0,0,0,7.65-1.79Z" transform="translate(-80.98 -116.62)"/><path d="M1369.16,904.16v10.15h9.22v2.86h-9.22V940.9c0,4.71,1.49,7.13,4.85,7.13a11.11,11.11,0,0,0,3.51-.47l.41,2.68a11.23,11.23,0,0,1-4.44.76,7,7,0,0,1-5.78-2.42c-1.48-1.77-2-4.54-2-8.48V917.17h-5.61v-2.86h5.61v-9Z" transform="translate(-80.98 -116.62)"/><path d="M1390,904.34a2.76,2.76,0,1,1-5.5,0,2.86,2.86,0,0,1,2.75-3A2.77,2.77,0,0,1,1390,904.34Zm-4.48,46v-36H1389v36Z" transform="translate(-80.98 -116.62)"/><path d="M1427.56,932.08c0,13.39-8,19-15.33,19-8,0-14.67-6.66-14.67-18.56,0-12.61,7.25-19,15.2-19C1421.25,913.56,1427.56,920.38,1427.56,932.08Zm-26.47.31c0,8.06,4.35,15.75,11.41,15.75s11.53-7.73,11.53-15.95c0-6.36-2.94-15.71-11.45-15.71C1404.34,916.48,1401.09,925.2,1401.09,932.39Z" transform="translate(-80.98 -116.62)"/><path d="M1436,922.83c0-3.63-.14-5.77-.3-8.52h3.2l.23,5.88h.15a12,12,0,0,1,11.06-6.63c3.55,0,11.25,2,11.25,14.18v22.57h-3.46v-22c0-6.12-2-11.81-8.76-11.81-4.42,0-8.3,3.3-9.52,8.05a13.41,13.41,0,0,0-.38,3.19v22.54H1436Z" transform="translate(-80.98 -116.62)"/><path d="M500.57,868.81a42.67,42.67,0,0,1,9.7-1c6,0,9.85,1.36,12.53,4a12.94,12.94,0,0,1,3.46,9.13c0,6.89-3.81,11.11-9.43,13.2v.15c4,1.21,6.44,5,7.64,11.16,1.59,7.85,2.53,11.39,3.45,13.21h-3.58c-.79-1.49-1.81-6-3.09-12.43-1.48-7.31-4.42-10.55-10.86-10.74H504v23.17h-3.47ZM504,892.69h6.47c7.33,0,12.22-4.38,12.22-11.16,0-7.46-4.82-10.88-12.57-10.88a26.31,26.31,0,0,0-6.12.58Z" transform="translate(-80.98 -116.62)"/><path d="M536.47,900c0,12.39,5.89,16.32,12.3,16.32a17.23,17.23,0,0,0,8.63-1.86l.87,2.71c-1.49.89-4.86,2.16-10,2.16-9.6,0-15.28-7.51-15.28-18.14,0-11.84,6.06-19.3,14.55-19.3,10.39,0,12.54,10.38,12.54,15.93A17.77,17.77,0,0,1,560,900Zm20-2.78c.11-6.17-2.46-12.41-9.38-12.41s-9.87,6.79-10.44,12.41Z" transform="translate(-80.98 -116.62)"/><path d="M573.24,872.5v10.15h9.22v2.86h-9.22v23.73c0,4.71,1.49,7.13,4.85,7.13a11.11,11.11,0,0,0,3.51-.47l.41,2.68a11.23,11.23,0,0,1-4.44.76,7.08,7.08,0,0,1-5.79-2.42c-1.47-1.77-2-4.54-2-8.48V885.51h-5.61v-2.86h5.61v-9Z" transform="translate(-80.98 -116.62)"/><path d="M614.62,909.77c0,3.46.14,6.28.3,8.88h-3.2l-.26-5.6h-.15a12.43,12.43,0,0,1-10.86,6.36c-5,0-11-3-11-15.09V882.65h3.46v21c0,7.37,2,12.79,8.38,12.79,5,0,8.23-3.88,9.36-7a14.28,14.28,0,0,0,.55-3.77v-23h3.46Z" transform="translate(-80.98 -116.62)"/><path d="M625.68,892.71c0-3.33-.15-6.94-.3-10.06h3.23l.15,6.88H629c1.37-4.14,4.92-7.63,9.49-7.63a6.12,6.12,0,0,1,1.23.11v3.45a7.49,7.49,0,0,0-1.39-.08c-4.84,0-8.14,4.38-8.91,9.75a23.67,23.67,0,0,0-.23,3.31v20.21h-3.46Z" transform="translate(-80.98 -116.62)"/><path d="M646.41,891.17c0-3.63-.14-5.77-.3-8.52h3.2l.23,5.88h.15a12,12,0,0,1,11.06-6.63c3.55,0,11.25,2,11.25,14.18v22.57h-3.46v-22c0-6.12-2-11.81-8.76-11.81-4.42,0-8.3,3.3-9.52,8a13.39,13.39,0,0,0-.39,3.19v22.54h-3.46Z" transform="translate(-80.98 -116.62)"/><path d="M697.18,882.65l7.63,22.49c1.16,3.05,2.15,6.16,3,9.13H708c.8-2.87,1.91-6,3-9.13l7.64-22.49h3.61l-13,36h-3l-12.62-36Z" transform="translate(-80.98 -116.62)"/><path d="M746.12,918.65l-.46-4.8h-.18a11.6,11.6,0,0,1-10.06,5.56c-6.4,0-9.8-4.7-9.8-9.9,0-8.43,7.07-13.14,19.78-13.06v-1.08c0-4.33-.78-10.55-8.31-10.51a13.74,13.74,0,0,0-7.86,2.4l-1.06-2.56a17.07,17.07,0,0,1,9.39-2.8c8.74,0,11.3,6.31,11.3,13.4v14.94a60.81,60.81,0,0,0,.46,8.41Zm-.72-19.27c-6.32-.16-16.13.74-16.13,9.67,0,5.24,3.17,7.43,6.52,7.43a9.38,9.38,0,0,0,9.3-7.1,8,8,0,0,0,.31-2.21Z" transform="translate(-80.98 -116.62)"/><path d="M759.66,865.81h3.46v52.84h-3.46Z" transform="translate(-80.98 -116.62)"/><path d="M799.56,909.77c0,3.46.15,6.28.3,8.88h-3.2l-.26-5.6h-.15a12.42,12.42,0,0,1-10.85,6.36c-5,0-11-3-11-15.09V882.65h3.46v21c0,7.37,2,12.79,8.39,12.79,5,0,8.23-3.88,9.36-7a14.29,14.29,0,0,0,.54-3.77v-23h3.46Z" transform="translate(-80.98 -116.62)"/><path d="M811.49,900c0,12.39,5.89,16.32,12.3,16.32a17.23,17.23,0,0,0,8.63-1.86l.87,2.71c-1.49.89-4.86,2.16-10,2.16-9.61,0-15.28-7.51-15.28-18.14,0-11.84,6.06-19.3,14.55-19.3,10.39,0,12.54,10.38,12.54,15.93A17.77,17.77,0,0,1,835,900Zm20-2.78c.11-6.17-2.46-12.41-9.38-12.41s-9.87,6.79-10.45,12.41Z" transform="translate(-80.98 -116.62)"/><path d="M600.45,955c0,8.57-5.14,12.16-9.8,12.16-5.16,0-9.4-4.27-9.4-11.88,0-8.07,4.64-12.13,9.73-12.13C596.41,943.13,600.45,947.49,600.45,955Zm-16.94.2c0,5.16,2.79,10.08,7.3,10.08s7.38-5,7.38-10.21c0-4.07-1.88-10-7.32-10C585.59,945,583.51,950.58,583.51,955.18Z" transform="translate(-80.98 -116.62)" fill="#4d4d4d"/><path d="M606.15,966.65V945.44H603v-1.83h3.16v-1.4c0-3.21.57-6,2.33-7.89a6.59,6.59,0,0,1,4.79-2,6.34,6.34,0,0,1,3.13.73l-.68,1.76a5.51,5.51,0,0,0-2.67-.59c-3.9,0-4.68,3.79-4.68,7.94v1.43H614v1.83h-5.62v21.21Z" transform="translate(-80.98 -116.62)" fill="#4d4d4d"/><path d="M630.08,937.11v6.5H636v1.83h-5.91v15.19c0,3,1,4.56,3.11,4.56a7.28,7.28,0,0,0,2.25-.3l.26,1.71a7.16,7.16,0,0,1-2.85.49,4.49,4.49,0,0,1-3.7-1.55c-.94-1.13-1.28-2.9-1.28-5.43V945.44h-3.59v-1.83h3.59v-5.73Z" transform="translate(-80.98 -116.62)" fill="#4d4d4d"/><path d="M640.58,932.83h2.22v14.41h.09a7.93,7.93,0,0,1,2.78-3,7.61,7.61,0,0,1,4.16-1.16c2.16,0,7.13,1.2,7.13,9v14.57h-2.22V952.48c0-3.87-1.37-7.43-5.54-7.43a6.63,6.63,0,0,0-6.16,5,7.21,7.21,0,0,0-.24,2.11v14.45h-2.22Z" transform="translate(-80.98 -116.62)" fill="#4d4d4d"/><path d="M664.49,954.72c0,7.93,3.77,10.45,7.87,10.45a11.17,11.17,0,0,0,5.53-1.19l.55,1.73a13,13,0,0,1-6.39,1.38c-6.14,0-9.78-4.8-9.78-11.61,0-7.58,3.88-12.35,9.31-12.35,6.66,0,8,6.64,8,10.2a11.58,11.58,0,0,1-.05,1.39Zm12.79-1.78c.07-4-1.58-7.94-6-7.94s-6.32,4.34-6.68,7.94Z" transform="translate(-80.98 -116.62)" fill="#4d4d4d"/><path d="M694.85,966.65V945.44h-3.16v-1.83h3.16v-1.4c0-3.21.57-6,2.33-7.89a6.62,6.62,0,0,1,4.79-2,6.34,6.34,0,0,1,3.13.73l-.68,1.76a5.51,5.51,0,0,0-2.67-.59c-3.9,0-4.68,3.79-4.68,7.94v1.43h5.63v1.83h-5.63v21.21Z" transform="translate(-80.98 -116.62)" fill="#4d4d4d"/><path d="M722.14,961c0,2.21.09,4,.19,5.68h-2.05l-.17-3.58H720a8,8,0,0,1-6.95,4.07c-3.19,0-7.07-1.94-7.07-9.66V943.61h2.21V957c0,4.72,1.26,8.19,5.37,8.19a6.57,6.57,0,0,0,6-4.49,9,9,0,0,0,.35-2.41v-14.7h2.22Z" transform="translate(-80.98 -116.62)" fill="#4d4d4d"/><path d="M729.23,949.06c0-2.32-.09-3.69-.19-5.45h2.05l.15,3.76h.09a7.71,7.71,0,0,1,7.08-4.24c2.28,0,7.2,1.27,7.2,9.07v14.45H743.4V952.59c0-3.92-1.31-7.56-5.61-7.56a6.49,6.49,0,0,0-6.09,5.15,8.44,8.44,0,0,0-.25,2v14.43h-2.22Z" transform="translate(-80.98 -116.62)" fill="#4d4d4d"/><path d="M766.81,965.75a12.5,12.5,0,0,1-5.83,1.34c-6,0-10.05-4.61-10.05-11.76s4.34-12.2,10.78-12.2a10.27,10.27,0,0,1,5.18,1.24l-.77,1.87a9.17,9.17,0,0,0-4.67-1.17c-5.57,0-8.26,4.93-8.26,10.18,0,6.07,3.34,9.92,8.15,9.92a10.85,10.85,0,0,0,4.89-1.15Z" transform="translate(-80.98 -116.62)" fill="#4d4d4d"/><path d="M775.33,937.11v6.5h5.9v1.83h-5.9v15.19c0,3,.95,4.56,3.1,4.56a7.19,7.19,0,0,0,2.25-.3l.27,1.71a7.2,7.2,0,0,1-2.85.49,4.48,4.48,0,0,1-3.7-1.55c-.95-1.13-1.29-2.9-1.29-5.43V945.44h-3.58v-1.83h3.58v-5.73Z" transform="translate(-80.98 -116.62)" fill="#4d4d4d"/><path d="M788.69,937.23a1.77,1.77,0,1,1-3.52,0,1.83,1.83,0,0,1,1.76-1.93A1.77,1.77,0,0,1,788.69,937.23Zm-2.86,29.42v-23H788v23Z" transform="translate(-80.98 -116.62)" fill="#4d4d4d"/><path d="M812.71,955c0,8.57-5.15,12.16-9.81,12.16-5.16,0-9.4-4.27-9.4-11.88,0-8.07,4.65-12.13,9.73-12.13C808.67,943.13,812.71,947.49,812.71,955Zm-17,.2c0,5.16,2.79,10.08,7.3,10.08s7.39-5,7.39-10.21c0-4.07-1.88-10-7.33-10C797.85,945,795.76,950.58,795.76,955.18Z" transform="translate(-80.98 -116.62)" fill="#4d4d4d"/><path d="M818.13,949.06c0-2.32-.09-3.69-.19-5.45h2l.14,3.76h.1a7.7,7.7,0,0,1,7.08-4.24c2.27,0,7.2,1.27,7.2,9.07v14.45h-2.22V952.59c0-3.92-1.31-7.56-5.61-7.56a6.49,6.49,0,0,0-6.09,5.15,8.44,8.44,0,0,0-.25,2v14.43h-2.21Z" transform="translate(-80.98 -116.62)" fill="#4d4d4d"/><path d="M554,368.15c-17.06.36-25.74-.3-42.79.06,2-28.88,3.14-50.77,1.3-80,12.12.23,29-.57,41.14-.34" transform="translate(-80.98 -116.62)" fill="none" stroke="#000" stroke-linecap="round" stroke-linejoin="round" stroke-width="3.5"/><path d="M512.05,331.38l-97.26-1.64" transform="translate(-80.98 -116.62)" fill="none" stroke="#000" stroke-linecap="round" stroke-linejoin="round" stroke-width="3.5"/><path d="M441.31,301.73c-9.46,9-18.92,19-28.38,27.93,9.83,8.72,20.13,18.38,30.78,24.65" transform="translate(-80.98 -116.62)" fill="none" stroke="#000" stroke-linecap="round" stroke-linejoin="round" stroke-width="3.5"/><path d="M81,274.1a41.18,41.18,0,0,1,9.14-1c5.07,0,9,1.47,11.5,4.07,2.2,2.33,3.51,5.66,3.51,10s-1,7.34-3,9.82c-2.84,3.81-7.66,5.79-13.07,5.79a17.5,17.5,0,0,1-4.86-.46V324H81Zm3.25,25.17a17,17,0,0,0,5,.58c7.68,0,12.59-4.22,12.59-12.41,0-7.28-4.44-11.38-11.85-11.38a27.21,27.21,0,0,0-5.72.53Z" transform="translate(-80.98 -116.62)"/><path d="M112.08,298.08c0-3.33-.14-6.94-.28-10.06h3l.15,6.87h.17c1.29-4.13,4.62-7.63,8.93-7.63a5.4,5.4,0,0,1,1.15.12v3.45a6.63,6.63,0,0,0-1.31-.08c-4.55,0-7.64,4.38-8.37,9.75a25.32,25.32,0,0,0-.22,3.31V324h-3.25Z" transform="translate(-80.98 -116.62)"/><path d="M131.08,305.38c0,12.39,5.54,16.32,11.57,16.32a15.54,15.54,0,0,0,8.11-1.86l.81,2.71c-1.4.89-4.57,2.15-9.38,2.15-9,0-14.36-7.5-14.36-18.14,0-11.83,5.69-19.3,13.67-19.3,9.77,0,11.79,10.39,11.79,15.94a17.77,17.77,0,0,1-.08,2.18Zm18.78-2.78c.1-6.18-2.31-12.41-8.82-12.41s-9.28,6.79-9.81,12.41Z" transform="translate(-80.98 -116.62)"/><path d="M161.14,299.4c0-5-.13-8.41-.28-11.38H164l.22,6.22h.14c2.34-4.66,6.09-7,10.89-7,7.57,0,13,7,13,18.29,0,13.14-6.59,19.23-13.82,19.23a10.81,10.81,0,0,1-9.87-6h-.14v20h-3.26Zm3.26,10.71a15.38,15.38,0,0,0,.25,2.89c1.34,6,5.48,8.85,9.65,8.85,7,0,10.61-7,10.61-16.15,0-8-3.51-15.51-10.46-15.51-4.4,0-8.55,3.87-9.69,9.33a17.17,17.17,0,0,0-.36,3Z" transform="translate(-80.98 -116.62)"/><path d="M196.18,298.08c0-3.33-.14-6.94-.28-10.06h3l.14,6.87h.18c1.29-4.13,4.62-7.63,8.92-7.63a5.34,5.34,0,0,1,1.15.12v3.45a6.52,6.52,0,0,0-1.3-.08c-4.56,0-7.65,4.38-8.38,9.75a25.35,25.35,0,0,0-.21,3.31V324h-3.26Z" transform="translate(-80.98 -116.62)"/><path d="M240.14,305.78c0,13.4-7.56,19-14.41,19-7.57,0-13.79-6.67-13.79-18.56,0-12.61,6.81-19,14.28-19C234.2,287.26,240.14,294.08,240.14,305.78Zm-24.88.32c0,8,4.09,15.75,10.72,15.75s10.84-7.74,10.84-16c0-6.36-2.76-15.71-10.76-15.71C218.31,290.19,215.26,298.91,215.26,306.1Z" transform="translate(-80.98 -116.62)"/><path d="M269,322.61a17.47,17.47,0,0,1-8.57,2.09c-8.81,0-14.76-7.2-14.76-18.37,0-11,6.38-19.07,15.83-19.07a14.37,14.37,0,0,1,7.62,1.95l-1.14,2.93a12.82,12.82,0,0,0-6.86-1.83c-8.17,0-12.12,7.69-12.12,15.89,0,9.48,4.9,15.5,12,15.5a15.22,15.22,0,0,0,7.19-1.8Z" transform="translate(-80.98 -116.62)"/><path d="M276.73,305.38c0,12.39,5.54,16.32,11.57,16.32a15.54,15.54,0,0,0,8.11-1.86l.81,2.71c-1.4.89-4.57,2.15-9.38,2.15-9,0-14.36-7.5-14.36-18.14,0-11.83,5.69-19.3,13.67-19.3,9.77,0,11.79,10.39,11.79,15.94a20.3,20.3,0,0,1-.07,2.18Zm18.78-2.78c.11-6.18-2.31-12.41-8.81-12.41s-9.29,6.79-9.82,12.41Z" transform="translate(-80.98 -116.62)"/><path d="M305.45,319.43a12.49,12.49,0,0,0,6.85,2.31c4.79,0,7.26-2.95,7.26-6.76s-1.84-5.94-6.36-8.21c-5-2.45-8.06-5.51-8.06-10a9.36,9.36,0,0,1,9.77-9.55,11.53,11.53,0,0,1,6.9,2.19l-1.34,2.82a9.45,9.45,0,0,0-6-2,5.82,5.82,0,0,0-6.12,6c0,3.52,1.95,5.13,6.22,7.36,4.8,2.35,8.23,5.27,8.23,10.78,0,6.46-4.48,10.31-10.72,10.31a13.86,13.86,0,0,1-7.84-2.37Z" transform="translate(-80.98 -116.62)"/><path d="M329.56,319.43a12.49,12.49,0,0,0,6.85,2.31c4.79,0,7.26-2.95,7.26-6.76s-1.84-5.94-6.36-8.21c-5-2.45-8.06-5.51-8.06-10a9.36,9.36,0,0,1,9.77-9.55,11.53,11.53,0,0,1,6.9,2.19l-1.34,2.82a9.45,9.45,0,0,0-6-2,5.82,5.82,0,0,0-6.12,6c0,3.52,1.95,5.13,6.22,7.36,4.8,2.35,8.23,5.27,8.23,10.78,0,6.46-4.48,10.31-10.72,10.31a13.86,13.86,0,0,1-7.84-2.37Z" transform="translate(-80.98 -116.62)"/><path d="M380.78,305.78c0,13.4-7.56,19-14.4,19-7.57,0-13.8-6.67-13.8-18.56,0-12.61,6.82-19,14.29-19C374.85,287.26,380.78,294.08,380.78,305.78Zm-24.88.32c0,8,4.09,15.75,10.72,15.75s10.84-7.74,10.84-16c0-6.36-2.76-15.71-10.76-15.71C359,290.19,355.9,298.91,355.9,306.1Z" transform="translate(-80.98 -116.62)"/><path d="M388.71,298.08c0-3.33-.13-6.94-.28-10.06h3l.14,6.87h.18c1.29-4.13,4.62-7.63,8.92-7.63a5.43,5.43,0,0,1,1.16.12v3.45a6.63,6.63,0,0,0-1.31-.08c-4.55,0-7.65,4.38-8.37,9.75a23.69,23.69,0,0,0-.22,3.31V324h-3.26Z" transform="translate(-80.98 -116.62)"/><path d="M212.88,341.18V386c0,2.39.14,5.88.28,8.06h-2.9L210,387.8h-.21a11.18,11.18,0,0,1-10.56,7c-7.27,0-13-6.82-13-18.26,0-12.27,6.3-19.26,13.61-19.26a10.32,10.32,0,0,1,9.66,5.83h.15V341.18Zm-3.25,30.89a17.68,17.68,0,0,0-.26-3.07c-.91-4.8-4.51-8.81-9.32-8.81-6.73,0-10.52,7.1-10.52,16,0,8.09,3.23,15.63,10.29,15.63,4,0,8-2.74,9.52-9a12.06,12.06,0,0,0,.29-2.83Z" transform="translate(-80.98 -116.62)"/><path d="M227.5,348.05a2.71,2.71,0,0,1-2.69,3c-1.45,0-2.48-1.33-2.48-3a2.79,2.79,0,0,1,2.59-3C226.51,345,227.5,346.36,227.5,348.05Zm-4.21,46V358h3.25v36Z" transform="translate(-80.98 -116.62)"/><path d="M237,368.08c0-3.33-.13-6.94-.28-10.06h3l.14,6.87h.18c1.29-4.13,4.62-7.63,8.92-7.63a5.34,5.34,0,0,1,1.15.12v3.45a6.52,6.52,0,0,0-1.3-.08c-4.56,0-7.65,4.38-8.38,9.75a25.35,25.35,0,0,0-.21,3.31V394H237Z" transform="translate(-80.98 -116.62)"/><path d="M256,375.38c0,12.39,5.53,16.32,11.56,16.32a15.51,15.51,0,0,0,8.11-1.86l.82,2.71c-1.4.89-4.57,2.15-9.38,2.15-9,0-14.36-7.5-14.36-18.14,0-11.83,5.69-19.3,13.67-19.3,9.77,0,11.78,10.39,11.78,15.94a20.3,20.3,0,0,1-.07,2.18Zm18.78-2.78c.1-6.18-2.32-12.41-8.82-12.41s-9.28,6.79-9.82,12.41Z" transform="translate(-80.98 -116.62)"/><path d="M307,392.61a17.47,17.47,0,0,1-8.57,2.09c-8.81,0-14.76-7.2-14.76-18.37,0-11,6.38-19.07,15.83-19.07a14.4,14.4,0,0,1,7.62,1.95l-1.14,2.93a12.82,12.82,0,0,0-6.86-1.83c-8.17,0-12.13,7.69-12.13,15.89,0,9.48,4.91,15.5,12,15.5a15.22,15.22,0,0,0,7.19-1.8Z" transform="translate(-80.98 -116.62)"/><path d="M319.47,347.86V358h8.67v2.85h-8.67v23.74c0,4.71,1.4,7.12,4.56,7.12a9.93,9.93,0,0,0,3.3-.46l.39,2.67a9.89,9.89,0,0,1-4.18.76,6.44,6.44,0,0,1-5.44-2.41c-1.39-1.78-1.89-4.54-1.89-8.49V360.87H311V358h5.26v-9Z" transform="translate(-80.98 -116.62)"/><path d="M339.1,348.05a2.71,2.71,0,0,1-2.69,3c-1.46,0-2.48-1.33-2.48-3a2.79,2.79,0,0,1,2.59-3C338.1,345,339.1,346.36,339.1,348.05Zm-4.21,46V358h3.25v36Z" transform="translate(-80.98 -116.62)"/><path d="M347.92,358l7.17,22.48c1.09,3.06,2,6.16,2.78,9.13H358c.76-2.86,1.8-6,2.85-9.13L368.07,358h3.4l-12.26,36h-2.83l-11.86-36Z" transform="translate(-80.98 -116.62)"/><path d="M377.83,375.38c0,12.39,5.53,16.32,11.56,16.32a15.51,15.51,0,0,0,8.11-1.86l.82,2.71c-1.4.89-4.57,2.15-9.38,2.15-9,0-14.36-7.5-14.36-18.14,0-11.83,5.69-19.3,13.67-19.3,9.77,0,11.78,10.39,11.78,15.94a20.3,20.3,0,0,1-.07,2.18Zm18.78-2.78c.1-6.18-2.32-12.41-8.82-12.41S378.51,367,378,372.6Z" transform="translate(-80.98 -116.62)"/><text x="-80.98" y="-116.62"/><path d="M590.61,527.35c-1.41-18.32-28.71-32.28-59.26-37.21s-64-2.68-96.37-.4" transform="translate(-80.98 -116.62)" fill="none" stroke="#000" stroke-linecap="round" stroke-linejoin="round" stroke-width="3.5"/><path d="M465.59,512.15c-10.14-10.55-20.16-17.28-33.35-22.24,12.39-10.12,21.25-16.56,35.68-22.69" transform="translate(-80.98 -116.62)" fill="none" stroke="#000" stroke-linecap="round" stroke-linejoin="round" stroke-width="3.5"/></svg>