<?xml version="1.0" encoding="UTF-8"?>
<svg width="650.73" height="300.05" version="1.1" viewBox="0 0 650.73 300.05" xml:space="preserve" xmlns="http://www.w3.org/2000/svg" xmlns:cc="http://creativecommons.org/ns#" xmlns:dc="http://purl.org/dc/elements/1.1/" xmlns:rdf="http://www.w3.org/1999/02/22-rdf-syntax-ns#"><metadata><rdf:RDF><cc:Work rdf:about=""><dc:format>image/svg+xml</dc:format><dc:type rdf:resource="http://purl.org/dc/dcmitype/StillImage"/></cc:Work></rdf:RDF></metadata><defs><clipPath id="clipPath72"><path d="m0 0h737.04v425.52h-737.04z"/></clipPath><clipPath id="clipPath88"><path d="m0 0h737.04v425.52h-737.04z"/></clipPath>






</defs><g transform="matrix(1.3333 0 0 -1.3333 -178.39 410)">

<path d="m189.5 292.35h339.54v-93.821h-339.54z" fill="#fdeada" fill-rule="evenodd"/><path d="m189.5 292.35h339.54v-93.821h-339.54z" fill="none" stroke="#fdeada" stroke-linejoin="round" stroke-miterlimit="10" stroke-width="2"/><path d="m189.5 201.35h339.54v-93.821h-339.54z" fill="#dce6f2" fill-rule="evenodd"/><path d="m189.5 201.35h339.54v-93.821h-339.54z" fill="none" stroke="#dce6f2" stroke-linejoin="round" stroke-miterlimit="10" stroke-width="2"/><g clip-path="url(#clipPath72)"><g transform="translate(185.32 292.35)"><path d="m0 0c0 2.304 1.868 4.172 4.172 4.172 2.305 0 4.173-1.868 4.173-4.172s-1.868-4.172-4.173-4.172c-2.304 0-4.172 1.868-4.172 4.172" fill="#fff" fill-rule="evenodd"/><path d="m0 0c0 2.304 1.868 4.172 4.172 4.172 2.305 0 4.173-1.868 4.173-4.172s-1.868-4.172-4.173-4.172c-2.304 0-4.172 1.868-4.172 4.172z" fill="none" stroke="#000" stroke-linejoin="round" stroke-miterlimit="10" stroke-width="2"/></g></g><g clip-path="url(#clipPath88)"><g transform="translate(524.57 107.23)"><path d="m0 0c0 2.304 1.868 4.172 4.172 4.172 2.305 0 4.173-1.868 4.173-4.172s-1.868-4.172-4.173-4.172c-2.304 0-4.172 1.868-4.172 4.172" fill="#fff" fill-rule="evenodd"/><path d="m0 0c0 2.304 1.868 4.172 4.172 4.172 2.305 0 4.173-1.868 4.173-4.172s-1.868-4.172-4.173-4.172c-2.304 0-4.172 1.868-4.172 4.172z" fill="none" stroke="#000" stroke-linejoin="round" stroke-miterlimit="10" stroke-width="2"/></g></g>
<g transform="translate(192.45 289.4)"><path d="m0 0 247.54-88.047" fill="none" stroke="#000" stroke-linejoin="round" stroke-miterlimit="10" stroke-width="1.5"/></g><g transform="translate(439.98 201.35)"><path d="m0 0 85.813-91.166" fill="none" stroke="#000" stroke-linejoin="round" stroke-miterlimit="10" stroke-width="1.5"/></g><g transform="translate(537.69 289.39)"><path d="m0 0 0.571-86.552" fill="none" stroke="#000" stroke-linejoin="round" stroke-miterlimit="10" stroke-width="1.5"/></g><g transform="translate(541.72 208.86)"><path d="m0 0-3.461-6.023-3.539 5.977" fill="none" stroke="#000" stroke-linecap="round" stroke-miterlimit="10" stroke-width="1.5"/></g><g transform="translate(534.23 283.36)"><path d="M 0,0 3.46,6.023 7,0.047" fill="none" stroke="#000" stroke-linecap="round" stroke-miterlimit="10" stroke-width="1.5"/></g><text transform="matrix(1 0 0 -1 545.47 240.04)" fill="#000000" font-family="Consolas" font-size="15.72px"><tspan x="0 8.6459999" y="0">d1</tspan></text>
<g transform="translate(178.21 198.04)"><path d="m0 0 0.571-86.552" fill="none" stroke="#000" stroke-linejoin="round" stroke-miterlimit="10" stroke-width="1.5"/></g><g transform="translate(182.24 117.51)"><path d="m0 0-3.461-6.023-3.539 5.977" fill="none" stroke="#000" stroke-linecap="round" stroke-miterlimit="10" stroke-width="1.5"/></g><g transform="translate(174.75 192.01)"><path d="M 0,0 3.46,6.023 7,0.047" fill="none" stroke="#000" stroke-linecap="round" stroke-miterlimit="10" stroke-width="1.5"/></g><text transform="matrix(1 0 0 -1 156.78 148.69)" fill="#000000" font-family="Consolas" font-size="15.72px"><tspan x="0 8.6459999" y="0">d2</tspan></text>
<g transform="translate(528.88 97.716)"><path d="m0 0h-334.95" fill="none" stroke="#000" stroke-linejoin="round" stroke-miterlimit="10" stroke-width="1.5"/></g><g transform="translate(199.93 101.22)"><path d="m0 0-6-3.5 6-3.5" fill="none" stroke="#000" stroke-linecap="round" stroke-miterlimit="10" stroke-width="1.5"/></g><g transform="translate(522.88 94.216)"><path d="M 0,0 6,3.5 0,7" fill="none" stroke="#000" stroke-linecap="round" stroke-miterlimit="10" stroke-width="1.5"/></g><text transform="matrix(1 0 0 -1 345.38 82.598)" fill="#000000" font-family="Consolas" font-size="15.72px"><tspan x="0 8.6459999 17.292 25.938" y="0">wmax</tspan></text>
<g transform="translate(438.5 192.41)"><path d="m0 0h-246.7" fill="none" stroke="#000" stroke-linejoin="round" stroke-miterlimit="10" stroke-width="1.5"/></g><g transform="translate(197.79 195.91)"><path d="m0 0-6-3.5 6-3.5" fill="none" stroke="#000" stroke-linecap="round" stroke-miterlimit="10" stroke-width="1.5"/></g><g transform="translate(432.5 188.91)"><path d="M 0,0 6,3.5 0,7" fill="none" stroke="#000" stroke-linecap="round" stroke-miterlimit="10" stroke-width="1.5"/></g><g fill="#000000" font-family="Consolas"><text transform="scale(1,-1)" x="310.81" y="-173.73" font-size="15.72px"><tspan x="310.81" y="-173.73">w</tspan><tspan x="313.30948 321.95547" y="-253.32036">v1</tspan><tspan x="490.08087 498.7269" y="-161.32692">v2</tspan></text><text transform="scale(1,-1)" x="156.71686" y="-275.80261" font-size="16px" stroke-width="2.8346" text-align="center" text-anchor="middle" xml:space="preserve"><tspan x="156.71686" y="-275.80261"><tspan x="156.71686" y="-275.80261" dy="-20">life</tspan></tspan><tspan x="156.71686" y="-275.80261"><tspan x="156.71686" y="-275.80261">guard</tspan></tspan></text><text transform="scale(1,-1)" x="580.40887" y="-92.603218" font-size="16px" stroke-width="2.8346" text-align="center" text-anchor="middle" style="line-height:0" xml:space="preserve"><tspan x="580.40887" y="-92.603218" dy="-20" style="line-height:3.1">swimmer</tspan><tspan x="580.40887" y="-92.603218" style="line-height:2.7"><tspan x="580.40887" y="-92.603218">in danger</tspan></tspan></text></g></g></svg>
