<?xml version="1.0" encoding="UTF-8"?>
<!-- Created with Inkscape (http://www.inkscape.org/) -->
<svg width="189.34mm" height="197.53mm" version="1.1" viewBox="0 0 189.34 197.53" xml:space="preserve" xmlns="http://www.w3.org/2000/svg" xmlns:xlink="http://www.w3.org/1999/xlink"><defs><marker id="Arrow1" overflow="visible" markerHeight="6.7071066" markerWidth="4.0606604" orient="auto-start-reverse" preserveAspectRatio="xMidYMid" viewBox="0 0 4.0606602 6.7071068"><path transform="rotate(180 .125 0)" d="m3-3-3 3 3 3" fill="none" stroke="context-stroke"/></marker><marker id="RoundedArrow-2" overflow="visible" markerHeight="5.93049479" markerWidth="6.13475207" orient="auto-start-reverse" preserveAspectRatio="xMidYMid" viewBox="0 0 6.1347524 5.9304951"><path transform="scale(.7)" d="m-0.21115-4.1056 6.4223 3.2111a1 1 90 0 1 0 1.7889l-6.4223 3.2111a1.2361 1.2361 31.717 0 1-1.7889-1.1056v-6a1.2361 1.2361 148.28 0 1 1.7889-1.1056z" fill="context-stroke" fill-rule="evenodd"/></marker><marker id="RoundedArrow-2-8" overflow="visible" markerHeight="5.9304948" markerWidth="6.1347523" orient="auto-start-reverse" preserveAspectRatio="xMidYMid" viewBox="0 0 6.1347524 5.9304951"><path transform="scale(.7)" d="m-0.21115-4.1056 6.4223 3.2111a1 1 90 0 1 0 1.7889l-6.4223 3.2111a1.2361 1.2361 31.717 0 1-1.7889-1.1056v-6a1.2361 1.2361 148.28 0 1 1.7889-1.1056z" fill="context-stroke" fill-rule="evenodd"/></marker><marker id="Arrow1-7" overflow="visible" markerHeight="6.7071066" markerWidth="4.0606604" orient="auto-start-reverse" preserveAspectRatio="xMidYMid" viewBox="0 0 4.0606602 6.7071068"><path transform="rotate(180 .125 0)" d="m3-3-3 3 3 3" fill="none" stroke="context-stroke"/></marker><marker id="Arrow1-0" overflow="visible" markerHeight="6.7071066" markerWidth="4.0606604" orient="auto-start-reverse" preserveAspectRatio="xMidYMid" viewBox="0 0 4.0606602 6.7071068"><path transform="rotate(180 .125 0)" d="m3-3-3 3 3 3" fill="none" stroke="context-stroke"/></marker><marker id="Arrow1-7-1" overflow="visible" markerHeight="6.7071066" markerWidth="4.0606604" orient="auto-start-reverse" preserveAspectRatio="xMidYMid" viewBox="0 0 4.0606602 6.7071068"><path transform="rotate(180 .125 0)" d="m3-3-3 3 3 3" fill="none" stroke="context-stroke"/></marker><marker id="Arrow1-7-1-5" overflow="visible" markerHeight="6.7071066" markerWidth="4.0606604" orient="auto-start-reverse" preserveAspectRatio="xMidYMid" viewBox="0 0 4.0606602 6.7071068"><path transform="rotate(180 .125 0)" d="m3-3-3 3 3 3" fill="none" stroke="context-stroke"/></marker><marker id="RoundedArrow-2-8-6" overflow="visible" markerHeight="5.9304953" markerWidth="6.1347523" orient="auto-start-reverse" preserveAspectRatio="xMidYMid" viewBox="0 0 6.1347524 5.9304951"><path transform="scale(.7)" d="m-0.21115-4.1056 6.4223 3.2111a1 1 90 0 1 0 1.7889l-6.4223 3.2111a1.2361 1.2361 31.717 0 1-1.7889-1.1056v-6a1.2361 1.2361 148.28 0 1 1.7889-1.1056z" fill="context-stroke" fill-rule="evenodd"/></marker><marker id="RoundedArrow-2-8-6-3" overflow="visible" markerHeight="5.9304953" markerWidth="6.1347523" orient="auto-start-reverse" preserveAspectRatio="xMidYMid" viewBox="0 0 6.1347524 5.9304951"><path transform="scale(.7)" d="m-0.21115-4.1056 6.4223 3.2111a1 1 90 0 1 0 1.7889l-6.4223 3.2111a1.2361 1.2361 31.717 0 1-1.7889-1.1056v-6a1.2361 1.2361 148.28 0 1 1.7889-1.1056z" fill="context-stroke" fill-rule="evenodd"/></marker><marker id="Arrow1-7-1-5-3" overflow="visible" markerHeight="6.7071066" markerWidth="4.0606604" orient="auto-start-reverse" preserveAspectRatio="xMidYMid" viewBox="0 0 4.0606602 6.7071068"><path transform="rotate(180 .125 0)" d="m3-3-3 3 3 3" fill="none" stroke="context-stroke"/></marker><linearGradient id="linearGradient39417" x1="104.44" x2="104.47" y1="65.071" y2="44.513" gradientUnits="userSpaceOnUse"><stop offset="0"/><stop stop-opacity="0" offset="1"/></linearGradient><linearGradient id="linearGradient42341" x1="-104.44" x2="-104.44" y1="-203.43" y2="-214.96" gradientUnits="userSpaceOnUse"><stop offset="0"/><stop stop-opacity="0" offset="1"/></linearGradient></defs><g transform="translate(-7.1624 -26.338)"><g><text x="152.88368" y="55.753464" fill="#000000" font-family="consolas" font-size="5.6444px" stroke-width=".5" text-align="center" text-anchor="middle" style="line-height:3.1" xml:space="preserve"><tspan x="152.88368" y="55.753464" font-family="consolas" stroke-width=".5">0x0FFC</tspan></text><rect x="141.3" y="39.9" width="55.209" height="13.636" fill="#fff"/><path d="m141.55 53.411h54.959" stroke="#b5b5b5" stroke-linejoin="round" stroke-width=".5"/></g><rect x="67.579" y="42.005" width="73.719" height="23.061" fill="none" stroke="url(#linearGradient39417)" stroke-width=".5"/><path d="m165.26 41.329v165.07" fill="none" stroke="#b5b5b5" stroke-dasharray="1, 1" stroke-linecap="round" stroke-linejoin="round" stroke-width=".5"/><g><rect x="93.95" y="71.502" width="20.266" height="9.6899" fill="#e1cdfe"/><rect x="93.95" y="94.813" width="20.266" height="9.6899" fill="#bafbfd"/><rect x="93.95" y="117.62" width="20.266" height="9.6899" fill="#b1fdc6"/><rect x="93.95" y="140.44" width="20.266" height="9.6899" fill="#f2fdac"/><rect x="93.95" y="163.75" width="20.266" height="9.6899" fill="#fec6a1"/><g stroke="#000"><rect x="67.579" y="65.067" width="73.719" height="11.531" fill="#e1cdfe" stroke-width=".5"/><rect x="67.579" y="65.071" width="73.719" height="23.057" fill="#e1cdfe" stroke-width=".5"/><rect x="67.579" y="88.128" width="73.719" height="11.531" fill="#bafbfd" stroke-width=".5"/><rect x="67.579" y="88.021" width="73.719" height="23.167" fill="#bafbfd" stroke-width=".5"/><g stroke-width=".5"><rect x="67.579" y="111.19" width="73.719" height="11.531" fill="#b1fdc6"/><rect x="67.579" y="111.19" width="73.719" height="23.061" fill="#b1fdc6"/><rect x="67.579" y="134.25" width="73.719" height="11.531" fill="#fec6a1"/></g><rect x="67.579" y="134.25" width="73.719" height="23.061" fill="#feb0a1" stroke-width=".5"/><rect x="67.579" y="157.31" width="73.719" height="11.531" fill="#feeea1" stroke-width=".5"/><rect x="67.579" y="157.07" width="73.719" height="23.303" fill="#feeea1" stroke-width=".5"/></g></g><g><rect x="67.579" y="180.37" width="73.719" height="11.531" fill="#fff" stroke="#000" stroke-width=".5"/><rect x="67.579" y="180.37" width="73.719" height="23.061" fill="#fff" stroke="#000" stroke-width=".5"/><rect transform="scale(-1)" x="-141.3" y="-214.96" width="73.719" height="11.531" fill="none" stroke="url(#linearGradient42341)" stroke-width=".5"/></g><g text-anchor="middle"><g font-family="sans-serif"><text x="104.46561" y="223.79417" fill="#000000" font-size="7.7611px" stroke-width=".5" text-align="center" style="line-height:3.1" xml:space="preserve"><tspan x="104.46561" y="223.79417" fill="#000000" font-family="sans-serif" font-size="7.7611px" font-style="italic" font-weight="bold" stroke-width=".5">RAM with 32-bit words</tspan></text><text x="62.816792" y="40.887714" fill="#051c4f" font-size="7.0556px" stroke-width=".5" text-align="center" style="line-height:3.1" xml:space="preserve"><tspan x="62.816792" y="40.887714" fill="#051c4f" font-family="Consolas" font-size="7.0556px" font-weight="bold" stroke-width=".5">int a[5] <tspan fill="#051c4f" fill-opacity=".44369">= {3, 1, 0, 2, 9};</tspan></tspan></text><text x="150.51164" y="33.580711" fill="#000000" font-size="5.6444px" stroke-width=".5" text-align="center" style="line-height:3.1" xml:space="preserve"><tspan x="150.51164" y="33.580711" dy="11.28" font-weight="bold">Addr.</tspan><tspan x="150.51164" y="51.078476">(Hex)</tspan></text></g><g font-family="consolas" stroke-width=".5"><text x="181.79662" y="50.971676" fill="#051c4f" font-size="5.6444px" font-weight="bold" text-align="center" style="line-height:3.1" xml:space="preserve"><tspan x="181.79662" y="50.971676" fill="#051c4f" font-family="consolas" font-weight="bold" stroke-width=".5"><tspan fill="#000000">p = &amp;</tspan>a[0]</tspan></text><text x="152.88368" y="78.814537" fill="#000000" font-size="5.6444px" text-align="center" style="line-height:3.1" xml:space="preserve"><tspan x="152.88368" y="78.814537" font-family="consolas" stroke-width=".5">0x1000</tspan></text><text x="72.104958" y="87.307449" fill="#a162fc" font-size="3.175px" font-style="italic" font-weight="bold" text-align="center" style="line-height:3.1" xml:space="preserve"><tspan x="72.104958" y="87.307449" fill="#a162fc" font-family="consolas" font-size="3.175px" font-style="italic" font-weight="bold" stroke-width=".5">1000</tspan></text></g></g><g fill="#000000" font-family="consolas" font-size="5.6444px" stroke-width=".5" text-anchor="middle"><text x="152.96553" y="101.8756" text-align="center" style="line-height:3.1" xml:space="preserve"><tspan x="152.96553" y="101.8756" font-family="consolas" stroke-width=".5">0x1004</tspan></text><text x="153.14897" y="171.56927" text-align="center" style="line-height:3.1" xml:space="preserve"><tspan x="153.14897" y="171.56927" font-family="consolas" stroke-width=".5">0x1010</tspan></text><text x="153.23082" y="194.63036" text-align="center" style="line-height:3.1" xml:space="preserve"><tspan x="153.23082" y="194.63036" font-family="consolas" stroke-width=".5">0x1014</tspan></text><text x="153.01633" y="124.93673" text-align="center" style="line-height:3.1" xml:space="preserve"><tspan x="153.01633" y="124.93673" font-family="consolas" stroke-width=".5">0x1008</tspan></text><text x="153.09818" y="147.99785" text-align="center" style="line-height:3.1" xml:space="preserve"><tspan x="153.09818" y="147.99785" font-family="consolas" stroke-width=".5">0x100C</tspan></text></g><g><path d="m67.579 57.566c-4.7846-9.782-15.8-9.7957-15.8-9.7957-0.09705 0-11.94 0-18.952-2.9878" fill="none" marker-start="url(#RoundedArrow-2)" stroke="#051c4f" stroke-dasharray="1, 2" stroke-linecap="round"/><path d="m156.24 195.32v1.7741h6.6441v-1.7725" fill="none" stroke="#fb304e" stroke-width=".8"/><text x="26.232841" y="147.46338" fill="#fe9480" font-family="sans-serif" font-size="7.0556px" stroke-width=".7" text-align="center" text-anchor="middle" style="line-height:3.1" xml:space="preserve"><tspan x="26.232841" y="147.46338" fill="#fe9480" font-family="Consolas" font-size="7.0556px" font-weight="bold" stroke-width=".7">a[3]</tspan></text></g><g fill="none"><path d="m37.93 145.27s11.819-0.70991 20.805 0.58815" marker-end="url(#RoundedArrow-2-8)" stroke="#fe9480" stroke-width=".7"/><path d="m169.97 211.02s-4.3018-1.9175-8.9613-9.7099" marker-end="url(#RoundedArrow-2-8-6)" stroke="#fb304e" stroke-width=".7"/><path d="m66.474 135.12h-3.2328v21.824h3.23" stroke="#fe9480" stroke-width=".7"/></g><g><text x="23.762056" y="20.555391" fill="#34a8f1" font-family="sans-serif" font-size="4.2333px" font-style="italic" font-weight="bold" stroke-width=".5" text-align="center" text-anchor="end" style="line-height:3.1" xml:space="preserve"><tspan x="23.762056" y="20.555391" dy="9" text-align="end">32-bit/ </tspan><tspan x="23.762056" y="33.678715" text-align="end">4 bytes</tspan></text><text x="17.876329" y="52.595821" fill="#fd9c5c" font-family="consolas" font-size="4.2333px" stroke="#fd9c5c" stroke-width=".7" text-align="center" text-anchor="middle" style="line-height:3.1" xml:space="preserve"><tspan x="17.876329" y="52.595821"/><tspan x="17.876329" y="65.719147"/></text><text x="184.46346" y="78.711235" fill="#000000" font-family="consolas" font-size="6.35px" stroke-width=".5" style="line-height:3.1" xml:space="preserve"><tspan x="184.46346" y="78.711235" font-family="consolas" font-size="6.35px" font-weight="bold" stroke-width=".5">p/a</tspan></text><path d="m183.37 77.138h-13.793" fill="#fd9c5c" marker-end="url(#Arrow1)" stroke="#000" stroke-width=".5"/><text x="184.54446" y="101.50402" fill="#000000" font-family="consolas" font-size="6.35px" stroke-width=".5" style="line-height:3.1" xml:space="preserve"><tspan x="184.54446" y="101.50402" font-family="consolas" font-size="6.35px" font-weight="bold" stroke-width=".5">p+1</tspan></text><path d="m183.37 99.93h-13.793" fill="#fd9c5c" marker-end="url(#Arrow1-7)" stroke="#000" stroke-width=".5"/><text x="184.46346" y="124.82597" fill="#000000" font-family="consolas" font-size="6.35px" stroke-width=".5" style="line-height:3.1" xml:space="preserve"><tspan x="184.46346" y="124.82597" font-family="consolas" font-size="6.35px" font-weight="bold" stroke-width=".5">p+2</tspan></text><path d="m183.37 123.25h-13.793" fill="#fd9c5c" marker-end="url(#Arrow1-0)" stroke="#000" stroke-width=".5"/><text x="184.54446" y="147.6187" fill="#000000" font-family="consolas" font-size="6.35px" stroke-width=".5" style="line-height:3.1" xml:space="preserve"><tspan x="184.54446" y="147.6187" font-family="consolas" font-size="6.35px" font-weight="bold" stroke-width=".5">p+3</tspan></text><path d="m183.37 146.05h-13.793" fill="#fd9c5c" marker-end="url(#Arrow1-7-1)" stroke="#000" stroke-width=".5"/><text x="183.90979" y="170.75269" fill="#000000" font-family="consolas" font-size="6.35px" stroke-width=".5" style="line-height:3.1" xml:space="preserve"><tspan x="183.90979" y="170.75269" font-family="consolas" font-size="6.35px" font-weight="bold" stroke-width=".5">p+4</tspan></text><path d="m182.73 169.18h-13.793" fill="#fd9c5c" marker-end="url(#Arrow1-7-1-5)" stroke="#000" stroke-width=".5"/><text x="185.30104" y="194.41583" fill="#000000" font-family="consolas" font-size="6.35px" stroke-width=".5" style="line-height:3.1" xml:space="preserve"><tspan x="185.30104" y="194.41583" font-family="consolas" font-size="6.35px" font-weight="bold" stroke-width=".5">p+i</tspan></text><path d="m184.12 192.84h-13.793" fill="#fd9c5c" marker-end="url(#Arrow1-7-1-5-3)" stroke="#000" stroke-width=".5"/><text x="178.17291" y="44.860714" fill="#000000" font-family="sans-serif" font-size="5.6444px" stroke-width=".5" text-align="center" text-anchor="middle" style="line-height:3.1" xml:space="preserve"><tspan x="178.17291" y="44.860714" fill="#000000" font-family="sans-serif" font-weight="bold" stroke-width=".5">Pointer</tspan></text><text x="174.11198" y="215.17094" fill="#fb304e" font-family="sans-serif" font-size="4.2333px" stroke-width=".5" text-align="center" text-anchor="middle" style="line-height:3.1" xml:space="preserve"><tspan x="174.11198" y="215.17094" fill="#fb304e" font-family="sans-serif" font-size="4.2333px" font-style="italic" font-weight="bold" stroke-width=".5">4+4 bit = 1 byte</tspan></text></g><g fill="none" stroke="#fff" stroke-linejoin="round" stroke-opacity=".52027" stroke-width=".6"><path d="m104.44 47.771v161.43"/><path d="m85.708 47.771v161.43"/><path d="m123.07 47.771v161.43"/></g><g fill="#000000" font-family="sans-serif" font-size="6.35px" font-weight="bold" stroke-width=".5" text-anchor="middle"><text x="104.43822" y="78.492813" text-align="center" style="line-height:3.1" xml:space="preserve"><tspan x="104.43822" y="78.492813" font-family="consolas" font-size="6.35px" font-weight="bold" stroke-width=".5">a[0]<tspan font-family="sans-serif" font-weight="normal">  or  </tspan>*a</tspan></text><text x="104.43822" y="101.55389" text-align="center" style="line-height:3.1" xml:space="preserve"><tspan x="104.43822" y="101.55389" font-family="consolas" font-size="6.35px" font-weight="bold" stroke-width=".5">a[1]<tspan font-family="sans-serif" font-weight="normal">  or  </tspan>*(a + 1)</tspan></text><text x="104.43822" y="124.61497" text-align="center" style="line-height:3.1" xml:space="preserve"><tspan x="104.43822" y="124.61497" font-family="consolas" font-size="6.35px" font-weight="bold" stroke-width=".5">a[2]<tspan font-family="sans-serif" font-weight="normal">  or  </tspan>*(a + 2)</tspan></text><text x="104.43823" y="147.67598" text-align="center" style="line-height:3.1" xml:space="preserve"><tspan x="104.43823" y="147.67598" font-family="consolas" font-size="6.35px" font-weight="bold" stroke-width=".5">a[3]<tspan font-family="sans-serif" font-weight="normal">  or  </tspan>*(a + 3)</tspan></text><text x="104.43822" y="170.73705" text-align="center" style="line-height:3.1" xml:space="preserve"><tspan x="104.43822" y="170.73705" font-family="consolas" font-size="6.35px" font-weight="bold" stroke-width=".5">a[4]<tspan font-family="sans-serif" font-weight="normal">  or  </tspan>*(a + 4)</tspan></text></g><rect x="67.579" y="65.071" width="18.204" height="23.057" fill="none" stroke="#fb304e" stroke-width=".8"/><g><text x="56.735672" y="92.738853" fill="#fb304e" font-family="sans-serif" font-size="4.2333px" stroke-width=".5" text-align="center" text-anchor="middle" style="line-height:3.1" xml:space="preserve"><tspan x="56.735672" y="92.738853" fill="#fb304e" font-family="sans-serif" font-size="4.2333px" font-style="italic" font-weight="bold" stroke-width=".5">1 byte</tspan></text><text x="49.802166" y="77.447716" fill="#f9853f" font-family="sans-serif" font-size="4.2333px" stroke-width=".5" text-align="center" text-anchor="middle" style="line-height:3.1" xml:space="preserve"><tspan x="49.802166" y="77.447716" fill="#f9853f" font-family="sans-serif" font-size="4.2333px" font-style="italic" font-weight="bold" stroke-width=".5">1 word</tspan></text><g transform="matrix(.82682 0 0 .82682 -131 75.658)" fill="#f9853f"><path d="m232.1 1.136c2.3891 1.2198 2.389 4.0993 2.389 6.525 0 3.6777 0.20057 5.9318 4.1523 5.9318 0.79091 0 0.79091 1.1864 0 1.1864-5.3387 0-5.3387-3.9468-5.3387-7.1182 0-3.6777-0.20058-5.9318-4.1523-5.9318-0.79091 0-0.79091-1.1864 0-1.1864 3.9517 0 4.1523-2.2541 4.1523-5.9318 0-3.1714 0-7.1182 5.3387-7.1182 0.79091 0 0.79091 1.1864 0 1.1864-3.9517 0-4.1523 2.2541-4.1523 5.9318 0 2.4257 1.5e-4 5.3052-2.389 6.525z" fill="#f9853f"/></g></g><path d="m59.079 88.93s2.6501-3.8935 11.145-7.0972" fill="none" marker-end="url(#RoundedArrow-2-8-6-3)" stroke="#fb304e" stroke-width=".7"/><g fill="#a162fc" font-family="consolas" font-size="3.175px" font-style="italic" font-weight="bold"><g stroke-width=".5" text-anchor="middle"><text x="90.46183" y="87.307449" text-align="center" style="line-height:3.1" xml:space="preserve"><tspan x="90.46183" y="87.307449" fill="#a162fc" font-family="consolas" font-size="3.175px" font-style="italic" font-weight="bold" stroke-width=".5">1001</tspan></text><text x="109.34787" y="87.15554" text-align="center" style="line-height:3.1" xml:space="preserve"><tspan x="109.34787" y="87.15554" fill="#a162fc" font-family="consolas" font-size="3.175px" font-style="italic" font-weight="bold" stroke-width=".5">1002</tspan></text><text x="128.23392" y="87.15554" text-align="center" style="line-height:3.1" xml:space="preserve"><tspan x="128.23392" y="87.15554" fill="#a162fc" font-family="consolas" font-size="3.175px" font-style="italic" font-weight="bold" stroke-width=".5">1003</tspan></text></g><text x="144.40327" y="54.592655" stroke="#ffffff" stroke-opacity=".60586" stroke-width=".6" style="line-height:3.1" xml:space="preserve"><tspan x="144.40327" y="54.592655" stroke-width=".6"/></text></g></g></svg>
