<?xml version="1.0" encoding="UTF-8" standalone="no"?>
<!-- Created with Inkscape (http://www.inkscape.org/) -->

<svg
   xmlns:dc="http://purl.org/dc/elements/1.1/"
   xmlns:cc="http://creativecommons.org/ns#"
   xmlns:rdf="http://www.w3.org/1999/02/22-rdf-syntax-ns#"
   xmlns:svg="http://www.w3.org/2000/svg"
   xmlns="http://www.w3.org/2000/svg"
   xmlns:xlink="http://www.w3.org/1999/xlink"
   xmlns:sodipodi="http://sodipodi.sourceforge.net/DTD/sodipodi-0.dtd"
   xmlns:inkscape="http://www.inkscape.org/namespaces/inkscape"
   width="264.1846"
   height="293.34909"
   id="svg2"
   sodipodi:version="0.32"
   inkscape:version="0.48.1 r9760"
   sodipodi:docname="Pointers.svg"
   inkscape:output_extension="org.inkscape.output.svg.inkscape"
   version="1.0">
  <defs
     id="defs4">
    <marker
       inkscape:stockid="Arrow1Lstart"
       orient="auto"
       refY="0"
       refX="0"
       id="Arrow1Lstart"
       style="overflow:visible">
      <path
         id="path5803"
         d="M 0,0 L 5,-5 L -12.5,0 L 5,5 L 0,0 z"
         style="fill-rule:evenodd;stroke:#000000;stroke-width:1pt;marker-start:none"
         transform="matrix(0.8,0,0,0.8,10,0)" />
    </marker>
    <marker
       inkscape:stockid="TriangleOutM"
       orient="auto"
       refY="0"
       refX="0"
       id="TriangleOutM"
       style="overflow:visible">
      <path
         id="path5949"
         d="M 5.77,0 L -2.88,5 L -2.88,-5 L 5.77,0 z"
         style="fill-rule:evenodd;stroke:#000000;stroke-width:1pt;marker-start:none"
         transform="scale(0.4,0.4)" />
    </marker>
    <marker
       inkscape:stockid="TriangleOutS"
       orient="auto"
       refY="0"
       refX="0"
       id="TriangleOutS"
       style="overflow:visible">
      <path
         id="path5952"
         d="M 5.77,0 L -2.88,5 L -2.88,-5 L 5.77,0 z"
         style="fill-rule:evenodd;stroke:#000000;stroke-width:1pt;marker-start:none"
         transform="scale(0.2,0.2)" />
    </marker>
    <marker
       inkscape:stockid="Arrow1Send"
       orient="auto"
       refY="0"
       refX="0"
       id="Arrow1Send"
       style="overflow:visible">
      <path
         id="path5818"
         d="M 0,0 L 5,-5 L -12.5,0 L 5,5 L 0,0 z"
         style="fill-rule:evenodd;stroke:#000000;stroke-width:1pt;marker-start:none"
         transform="matrix(-0.2,0,0,-0.2,-1.2,0)" />
    </marker>
    <marker
       inkscape:stockid="Arrow2Lend"
       orient="auto"
       refY="0"
       refX="0"
       id="Arrow2Lend"
       style="overflow:visible">
      <path
         id="path5824"
         style="font-size:12px;fill-rule:evenodd;stroke-width:0.625;stroke-linejoin:round"
         d="M 8.7185878,4.0337352 L -2.2072895,0.016013256 L 8.7185884,-4.0017078 C 6.97309,-1.6296469 6.9831476,1.6157441 8.7185878,4.0337352 z"
         transform="matrix(-1.1,0,0,-1.1,-1.1,0)" />
    </marker>
    <marker
       inkscape:stockid="Arrow1Mend"
       orient="auto"
       refY="0"
       refX="0"
       id="Arrow1Mend"
       style="overflow:visible">
      <path
         id="path5812"
         d="M 0,0 L 5,-5 L -12.5,0 L 5,5 L 0,0 z"
         style="fill-rule:evenodd;stroke:#000000;stroke-width:1pt;marker-start:none"
         transform="matrix(-0.4,0,0,-0.4,-4,0)" />
    </marker>
    <marker
       inkscape:stockid="Arrow1Lend"
       orient="auto"
       refY="0"
       refX="0"
       id="Arrow1Lend"
       style="overflow:visible">
      <path
         id="path5806"
         d="M 0,0 L 5,-5 L -12.5,0 L 5,5 L 0,0 z"
         style="fill-rule:evenodd;stroke:#000000;stroke-width:1pt;marker-start:none"
         transform="matrix(-0.8,0,0,-0.8,-10,0)" />
    </marker>
    <linearGradient
       inkscape:collect="always"
       id="linearGradient5730">
      <stop
         style="stop-color:#000000;stop-opacity:1;"
         offset="0"
         id="stop5732" />
      <stop
         style="stop-color:#000000;stop-opacity:0;"
         offset="1"
         id="stop5734" />
    </linearGradient>
    <inkscape:perspective
       sodipodi:type="inkscape:persp3d"
       inkscape:vp_x="0 : 526.18109 : 1"
       inkscape:vp_y="0 : 1000 : 0"
       inkscape:vp_z="744.09448 : 526.18109 : 1"
       inkscape:persp3d-origin="372.04724 : 350.78739 : 1"
       id="perspective10" />
    <inkscape:perspective
       id="perspective2447"
       inkscape:persp3d-origin="372.04724 : 350.78739 : 1"
       inkscape:vp_z="744.09448 : 526.18109 : 1"
       inkscape:vp_y="0 : 1000 : 0"
       inkscape:vp_x="0 : 526.18109 : 1"
       sodipodi:type="inkscape:persp3d" />
    <linearGradient
       inkscape:collect="always"
       xlink:href="#linearGradient5730"
       id="linearGradient5736"
       x1="290.38342"
       y1="257.71997"
       x2="261.22598"
       y2="350.50516"
       gradientUnits="userSpaceOnUse"
       gradientTransform="matrix(0.6641521,0,0,0.4264673,55.363725,17.002897)" />
    <linearGradient
       inkscape:collect="always"
       xlink:href="#linearGradient5730"
       id="linearGradient8694"
       gradientUnits="userSpaceOnUse"
       gradientTransform="matrix(0.6641521,0,0,0.4264673,55.363725,114.86004)"
       x1="188.15694"
       y1="252.07594"
       x2="202.71902"
       y2="166.65656" />
    <filter
       inkscape:collect="always"
       id="filter13094">
      <feGaussianBlur
         inkscape:collect="always"
         stdDeviation="2.538008"
         id="feGaussianBlur13096" />
    </filter>
  </defs>
  <sodipodi:namedview
     id="base"
     pagecolor="#ffffff"
     bordercolor="#666666"
     borderopacity="1.0"
     inkscape:pageopacity="0.0"
     inkscape:pageshadow="2"
     inkscape:zoom="1.4"
     inkscape:cx="123.5792"
     inkscape:cy="164.49737"
     inkscape:document-units="px"
     inkscape:current-layer="layer1"
     showgrid="false"
     showguides="true"
     inkscape:guide-bbox="true"
     inkscape:window-width="1918"
     inkscape:window-height="1171"
     inkscape:window-x="0"
     inkscape:window-y="27"
     inkscape:window-maximized="0" />
  <metadata
     id="metadata7">
    <rdf:RDF>
      <cc:Work
         rdf:about="">
        <dc:format>image/svg+xml</dc:format>
        <dc:type
           rdf:resource="http://purl.org/dc/dcmitype/StillImage" />
      </cc:Work>
    </rdf:RDF>
  </metadata>
  <g
     inkscape:label="Ebene 1"
     inkscape:groupmode="layer"
     id="layer1"
     transform="translate(-7.2439651,-7.5845217)">
    <rect
       style="opacity:0.50865054;fill:#ececec;fill-opacity:1;fill-rule:evenodd;stroke:none;stroke-width:2.79999995;stroke-linecap:round;stroke-linejoin:miter;marker:none;marker-start:none;marker-mid:none;stroke-miterlimit:4;stroke-dasharray:none;stroke-dashoffset:0;stroke-opacity:1;visibility:visible;display:inline;overflow:visible;filter:url(#filter13094);enable-background:accumulate"
       id="rect10870"
       width="73.236061"
       height="265.16501"
       x="88.893425"
       y="17.965975" />
    <text
       xml:space="preserve"
       style="font-size:12px;font-style:italic;font-variant:normal;font-weight:normal;font-stretch:normal;text-align:center;text-anchor:middle;fill:#548dd4;fill-opacity:1;stroke:none;stroke-width:1px;stroke-linecap:butt;stroke-linejoin:miter;stroke-opacity:1;font-family:Verdana;-inkscape-font-specification:Verdana Italic"
       x="123.57143"
       y="32.701466"
       id="text2453"><tspan
         sodipodi:role="line"
         x="123.57143"
         y="32.701466"
         id="tspan2457">storage</tspan><tspan
         sodipodi:role="line"
         x="123.57143"
         y="47.701466"
         id="tspan5764">address</tspan></text>
    <text
       id="text2459"
       y="33.076466"
       x="50.714279"
       style="font-size:12px;font-style:italic;font-variant:normal;font-weight:normal;font-stretch:normal;text-align:center;text-anchor:middle;fill:#548dd4;fill-opacity:1;stroke:none;stroke-width:1px;stroke-linecap:butt;stroke-linejoin:miter;stroke-opacity:1;font-family:Verdana;-inkscape-font-specification:Verdana Italic"
       xml:space="preserve"><tspan
         y="33.076466"
         x="50.714279"
         sodipodi:role="line"
         id="tspan2467">name of</tspan><tspan
         y="48.076466"
         x="50.714279"
         sodipodi:role="line"
         id="tspan2471">variable</tspan></text>
    <text
       xml:space="preserve"
       style="font-size:12px;font-style:italic;font-variant:normal;font-weight:normal;font-stretch:normal;text-align:center;text-anchor:middle;fill:#548dd4;fill-opacity:1;stroke:none;stroke-width:1px;stroke-linecap:butt;stroke-linejoin:miter;stroke-opacity:1;font-family:Verdana;-inkscape-font-specification:Verdana Italic"
       x="215.71428"
       y="40.201466"
       id="text2473"><tspan
         id="tspan2477"
         sodipodi:role="line"
         x="215.71428"
         y="40.201466">content</tspan></text>
    <path
       id="path2890"
       style="fill:none;fill-opacity:1;stroke:url(#linearGradient5736);stroke-width:0.99999994;stroke-miterlimit:4;stroke-dasharray:none;stroke-opacity:1;visibility:visible"
       d="M 180.82855,55.18429 L 180.82855,72.66847 M 180.82855,55.18429 L 180.82855,72.66847 M 180.82855,55.18429 L 180.82855,72.66847 M 180.82855,55.18429 L 180.82855,72.66847 M 180.82855,72.66847 L 252.60076,72.66847 M 180.82855,72.66847 L 252.60076,72.66847 M 252.60076,55.18429 L 252.60076,72.66847 M 252.60076,55.18429 L 252.60076,72.66847 M 180.82855,55.18429 L 252.60076,55.18429 M 180.82855,55.18429 L 252.60076,55.18429 M 180.82855,72.66847 L 180.82855,90.15265 M 180.82855,72.66847 L 180.82855,90.15265 M 180.82855,72.66847 L 180.82855,90.15265 M 180.82855,72.66847 L 180.82855,90.15265 M 180.82855,90.15265 L 252.60076,90.15265 M 180.82855,90.15265 L 252.60076,90.15265 M 252.60076,72.66847 L 252.60076,90.15265 M 252.60076,72.66847 L 252.60076,90.15265 M 180.82855,72.66847 L 252.60076,72.66847 M 180.82855,72.66847 L 252.60076,72.66847 M 180.82855,90.15265 L 180.82855,107.63682 M 180.82855,90.15265 L 180.82855,107.63682 M 180.82855,90.15265 L 180.82855,107.63682 M 180.82855,90.15265 L 180.82855,107.63682 M 180.82855,107.63682 L 252.60076,107.63682 M 180.82855,107.63682 L 252.60076,107.63682 M 252.60076,90.15265 L 252.60076,107.63682 M 252.60076,90.15265 L 252.60076,107.63682 M 180.82855,90.15265 L 252.60076,90.15265 M 180.82855,90.15265 L 252.60076,90.15265 M 180.82855,107.63682 L 180.82855,125.12099 M 180.82855,107.63682 L 180.82855,125.12099 M 180.82855,107.63682 L 180.82855,125.12099 M 180.82855,107.63682 L 180.82855,125.12099 M 180.82855,125.12099 L 252.60076,125.12099 M 180.82855,125.12099 L 252.60076,125.12099 M 252.60076,107.63682 L 252.60076,125.12099 M 252.60076,107.63682 L 252.60076,125.12099 M 180.82855,107.63682 L 252.60076,107.63682 M 180.82855,107.63682 L 252.60076,107.63682 M 180.82855,125.12099 L 180.82855,142.60516 M 180.82855,125.12099 L 180.82855,142.60516 M 180.82855,125.12099 L 180.82855,142.60516 M 180.82855,125.12099 L 180.82855,142.60516 M 180.82855,142.60516 L 252.60076,142.60516 M 180.82855,142.60516 L 252.60076,142.60516 M 252.60076,125.12099 L 252.60076,142.60516 M 252.60076,125.12099 L 252.60076,142.60516 M 180.82855,125.12099 L 252.60076,125.12099 M 180.82855,125.12099 L 252.60076,125.12099 M 180.82855,142.60516 L 180.82855,160.08934 M 180.82855,142.60516 L 180.82855,160.08934 M 180.82855,142.60516 L 180.82855,160.08934 M 180.82855,142.60516 L 180.82855,160.08934 M 180.82855,160.08934 L 252.60076,160.08934 M 180.82855,160.08934 L 252.60076,160.08934 M 252.60076,142.60516 L 252.60076,160.08934 M 252.60076,142.60516 L 252.60076,160.08934 M 180.82855,142.60516 L 252.60076,142.60516 M 180.82855,142.60516 L 252.60076,142.60516 M 180.82855,160.08934 L 180.82855,177.61834 M 180.82855,160.08934 L 180.82855,177.61834 M 180.82855,160.08934 L 180.82855,177.61834 M 180.82855,160.08934 L 180.82855,177.61834 M 180.82855,177.61834 L 252.60076,177.61834 M 180.82855,177.61834 L 252.60076,177.61834 M 252.60076,160.08934 L 252.60076,177.61834 M 252.60076,160.08934 L 252.60076,177.61834 M 180.82855,160.08934 L 252.60076,160.08934 M 180.82855,160.08934 L 252.60076,160.08934"
       sodipodi:nodetypes="cccccccccccccccccccccccccccccccccccccccccccccccccccccccccccccccccccccccccccccccccccccccccccccccccccccccccccccccccccccccccccccccccccccccccccccccccccccccccccccccccccccccc" />
    <text
       xml:space="preserve"
       style="font-size:12px;font-style:normal;font-variant:normal;font-weight:normal;font-stretch:normal;text-align:center;text-anchor:middle;fill:#000000;fill-opacity:1;stroke:none;stroke-width:1px;stroke-linecap:butt;stroke-linejoin:miter;stroke-opacity:1;font-family:Verdana;-inkscape-font-specification:Verdana"
       x="123.6324"
       y="68.473602"
       id="text5738"><tspan
         sodipodi:role="line"
         id="tspan5740"
         x="123.6324"
         y="68.473602">0000</tspan></text>
    <text
       id="text5742"
       y="86.252312"
       x="123.6324"
       style="font-size:12px;font-style:normal;font-variant:normal;font-weight:normal;font-stretch:normal;text-align:center;text-anchor:middle;fill:#000000;fill-opacity:1;stroke:none;stroke-width:1px;stroke-linecap:butt;stroke-linejoin:miter;stroke-opacity:1;font-family:Verdana;-inkscape-font-specification:Verdana"
       xml:space="preserve"><tspan
         y="86.252312"
         x="123.6324"
         id="tspan5744"
         sodipodi:role="line">0001</tspan></text>
    <text
       xml:space="preserve"
       style="font-size:12px;font-style:normal;font-variant:normal;font-weight:normal;font-stretch:normal;text-align:center;text-anchor:middle;fill:#f57900;fill-opacity:1;stroke:none;stroke-width:1px;stroke-linecap:butt;stroke-linejoin:miter;stroke-opacity:1;font-family:Verdana;-inkscape-font-specification:Verdana"
       x="123.6324"
       y="104.03097"
       id="text5746"><tspan
         sodipodi:role="line"
         id="tspan5748"
         x="123.6324"
         y="104.03097">0002</tspan></text>
    <text
       id="text5750"
       y="121.80962"
       x="123.6324"
       style="font-size:12px;font-style:normal;font-variant:normal;font-weight:normal;font-stretch:normal;text-align:center;text-anchor:middle;fill:#000000;fill-opacity:1;stroke:none;stroke-width:1px;stroke-linecap:butt;stroke-linejoin:miter;stroke-opacity:1;font-family:Verdana;-inkscape-font-specification:Verdana"
       xml:space="preserve"><tspan
         y="121.80962"
         x="123.6324"
         id="tspan5752"
         sodipodi:role="line">0003</tspan></text>
    <text
       xml:space="preserve"
       style="font-size:12px;font-style:normal;font-variant:normal;font-weight:normal;font-stretch:normal;text-align:center;text-anchor:middle;fill:#000000;fill-opacity:1;stroke:none;stroke-width:1px;stroke-linecap:butt;stroke-linejoin:miter;stroke-opacity:1;font-family:Verdana;-inkscape-font-specification:Verdana"
       x="123.6324"
       y="139.58833"
       id="text5754"><tspan
         sodipodi:role="line"
         id="tspan5756"
         x="123.6324"
         y="139.58833">0004</tspan></text>
    <text
       id="text5758"
       y="157.36702"
       x="123.6324"
       style="font-size:12px;font-style:normal;font-variant:normal;font-weight:normal;font-stretch:normal;text-align:center;text-anchor:middle;opacity:0.58131486;fill:#000000;fill-opacity:1;stroke:none;stroke-width:1px;stroke-linecap:butt;stroke-linejoin:miter;stroke-opacity:1;font-family:Verdana;-inkscape-font-specification:Verdana"
       xml:space="preserve"><tspan
         y="157.36702"
         x="123.6324"
         id="tspan5760"
         sodipodi:role="line">...</tspan></text>
    <text
       id="text5774"
       y="102.60239"
       x="217.20383"
       style="font-size:12px;font-style:normal;font-variant:normal;font-weight:bold;font-stretch:normal;text-align:center;text-anchor:middle;fill:#000000;fill-opacity:1;stroke:none;font-family:Verdana;-inkscape-font-specification:Verdana Bold"
       xml:space="preserve"><tspan
         y="102.60239"
         x="217.20383"
         id="tspan5776"
         sodipodi:role="line">1008</tspan></text>
    <text
       xml:space="preserve"
       style="font-size:12px;font-style:normal;font-variant:normal;font-weight:bold;font-stretch:normal;text-align:center;text-anchor:middle;fill:#f57900;fill-opacity:1;stroke:none;stroke-width:1px;stroke-linecap:butt;stroke-linejoin:miter;stroke-opacity:1;font-family:Verdana;-inkscape-font-specification:Verdana Bold"
       x="49.999992"
       y="102.36217"
       id="text5790"><tspan
         id="tspan5794"
         sodipodi:role="line"
         x="49.999992"
         y="102.36217">a</tspan></text>
    <path
       style="opacity:1;fill:none;fill-opacity:1;fill-rule:evenodd;stroke:#000000;stroke-width:2.70000005;stroke-linecap:round;stroke-linejoin:miter;marker:none;marker-start:none;marker-mid:none;marker-end:url(#TriangleOutM);stroke-miterlimit:1;stroke-dasharray:none;stroke-dashoffset:0;stroke-opacity:1;visibility:visible;display:inline;overflow:visible;enable-background:accumulate"
       d="M 63.214285,99.505039 L 93.214285,99.505039"
       id="path5798"
       sodipodi:nodetypes="cc" />
    <text
       id="text8660"
       y="200.61646"
       x="123.6324"
       style="font-size:12px;font-style:normal;font-variant:normal;font-weight:normal;font-stretch:normal;text-align:center;text-anchor:middle;fill:#000000;fill-opacity:1;stroke:none;stroke-width:1px;stroke-linecap:butt;stroke-linejoin:miter;stroke-opacity:1;font-family:Verdana;-inkscape-font-specification:Verdana"
       xml:space="preserve"><tspan
         y="200.61646"
         x="123.6324"
         id="tspan8662"
         sodipodi:role="line">1004</tspan></text>
    <text
       xml:space="preserve"
       style="font-size:12px;font-style:normal;font-variant:normal;font-weight:normal;font-stretch:normal;text-align:center;text-anchor:middle;fill:#000000;fill-opacity:1;stroke:none;stroke-width:1px;stroke-linecap:butt;stroke-linejoin:miter;stroke-opacity:1;font-family:Verdana;-inkscape-font-specification:Verdana"
       x="123.6324"
       y="218.39517"
       id="text8664"><tspan
         sodipodi:role="line"
         id="tspan8666"
         x="123.6324"
         y="218.39517">1005</tspan></text>
    <text
       id="text8668"
       y="236.17383"
       x="123.6324"
       style="font-size:12px;font-style:normal;font-variant:normal;font-weight:normal;font-stretch:normal;text-align:center;text-anchor:middle;fill:#73d216;fill-opacity:1;stroke:none;stroke-width:1px;stroke-linecap:butt;stroke-linejoin:miter;stroke-opacity:1;font-family:Verdana;-inkscape-font-specification:Verdana"
       xml:space="preserve"><tspan
         y="236.17383"
         x="123.6324"
         id="tspan8670"
         sodipodi:role="line">1008</tspan></text>
    <text
       xml:space="preserve"
       style="font-size:12px;font-style:normal;font-variant:normal;font-weight:normal;font-stretch:normal;text-align:center;text-anchor:middle;fill:#000000;fill-opacity:1;stroke:none;stroke-width:1px;stroke-linecap:butt;stroke-linejoin:miter;stroke-opacity:1;font-family:Verdana;-inkscape-font-specification:Verdana"
       x="123.6324"
       y="253.95248"
       id="text8672"><tspan
         sodipodi:role="line"
         id="tspan8674"
         x="123.6324"
         y="253.95248">1009</tspan></text>
    <text
       id="text8676"
       y="271.7312"
       x="123.6324"
       style="font-size:12px;font-style:normal;font-variant:normal;font-weight:normal;font-stretch:normal;text-align:center;text-anchor:middle;fill:#000000;fill-opacity:1;stroke:none;stroke-width:1px;stroke-linecap:butt;stroke-linejoin:miter;stroke-opacity:1;font-family:Verdana;-inkscape-font-specification:Verdana"
       xml:space="preserve"><tspan
         y="271.7312"
         x="123.6324"
         id="tspan8678"
         sodipodi:role="line">1010</tspan></text>
    <text
       xml:space="preserve"
       style="font-size:12px;font-style:normal;font-variant:normal;font-weight:normal;font-stretch:normal;text-align:center;text-anchor:middle;opacity:0.58131486;fill:#000000;fill-opacity:1;stroke:none;stroke-width:1px;stroke-linecap:butt;stroke-linejoin:miter;stroke-opacity:1;font-family:Verdana;-inkscape-font-specification:Verdana"
       x="123.6324"
       y="184.50987"
       id="text8680"><tspan
         sodipodi:role="line"
         id="tspan8682"
         x="123.6324"
         y="184.50987">...</tspan></text>
    <path
       sodipodi:nodetypes="cccccccccccccccccccccccccccccccccccccccccccccccccccccccccccccccccccccccccccccccccccccccccccccccccccccccccccccccccccccccccccccccccccccccccccccccccccccccccccccccccccccccc"
       d="M 180.82855,153.04143 L 180.82855,170.52561 M 180.82855,153.04143 L 180.82855,170.52561 M 180.82855,153.04143 L 180.82855,170.52561 M 180.82855,153.04143 L 180.82855,170.52561 M 180.82855,170.52561 L 252.60076,170.52561 M 180.82855,170.52561 L 252.60076,170.52561 M 252.60076,153.04143 L 252.60076,170.52561 M 252.60076,153.04143 L 252.60076,170.52561 M 180.82855,153.04143 L 252.60076,153.04143 M 180.82855,153.04143 L 252.60076,153.04143 M 180.82855,170.52561 L 180.82855,188.00979 M 180.82855,170.52561 L 180.82855,188.00979 M 180.82855,170.52561 L 180.82855,188.00979 M 180.82855,170.52561 L 180.82855,188.00979 M 180.82855,188.00979 L 252.60076,188.00979 M 180.82855,188.00979 L 252.60076,188.00979 M 252.60076,170.52561 L 252.60076,188.00979 M 252.60076,170.52561 L 252.60076,188.00979 M 180.82855,170.52561 L 252.60076,170.52561 M 180.82855,170.52561 L 252.60076,170.52561 M 180.82855,188.00979 L 180.82855,205.49396 M 180.82855,188.00979 L 180.82855,205.49396 M 180.82855,188.00979 L 180.82855,205.49396 M 180.82855,188.00979 L 180.82855,205.49396 M 180.82855,205.49396 L 252.60076,205.49396 M 180.82855,205.49396 L 252.60076,205.49396 M 252.60076,188.00979 L 252.60076,205.49396 M 252.60076,188.00979 L 252.60076,205.49396 M 180.82855,188.00979 L 252.60076,188.00979 M 180.82855,188.00979 L 252.60076,188.00979 M 180.82855,205.49396 L 180.82855,222.97813 M 180.82855,205.49396 L 180.82855,222.97813 M 180.82855,205.49396 L 180.82855,222.97813 M 180.82855,205.49396 L 180.82855,222.97813 M 180.82855,222.97813 L 252.60076,222.97813 M 180.82855,222.97813 L 252.60076,222.97813 M 252.60076,205.49396 L 252.60076,222.97813 M 252.60076,205.49396 L 252.60076,222.97813 M 180.82855,205.49396 L 252.60076,205.49396 M 180.82855,205.49396 L 252.60076,205.49396 M 180.82855,222.97813 L 180.82855,240.4623 M 180.82855,222.97813 L 180.82855,240.4623 M 180.82855,222.97813 L 180.82855,240.4623 M 180.82855,222.97813 L 180.82855,240.4623 M 180.82855,240.4623 L 252.60076,240.4623 M 180.82855,240.4623 L 252.60076,240.4623 M 252.60076,222.97813 L 252.60076,240.4623 M 252.60076,222.97813 L 252.60076,240.4623 M 180.82855,222.97813 L 252.60076,222.97813 M 180.82855,222.97813 L 252.60076,222.97813 M 180.82855,240.4623 L 180.82855,257.94648 M 180.82855,240.4623 L 180.82855,257.94648 M 180.82855,240.4623 L 180.82855,257.94648 M 180.82855,240.4623 L 180.82855,257.94648 M 180.82855,257.94648 L 252.60076,257.94648 M 180.82855,257.94648 L 252.60076,257.94648 M 252.60076,240.4623 L 252.60076,257.94648 M 252.60076,240.4623 L 252.60076,257.94648 M 180.82855,240.4623 L 252.60076,240.4623 M 180.82855,240.4623 L 252.60076,240.4623 M 180.82855,257.94648 L 180.82855,275.47548 M 180.82855,257.94648 L 180.82855,275.47548 M 180.82855,257.94648 L 180.82855,275.47548 M 180.82855,257.94648 L 180.82855,275.47548 M 180.82855,275.47548 L 252.60076,275.47548 M 180.82855,275.47548 L 252.60076,275.47548 M 252.60076,257.94648 L 252.60076,275.47548 M 252.60076,257.94648 L 252.60076,275.47548 M 180.82855,257.94648 L 252.60076,257.94648 M 180.82855,257.94648 L 252.60076,257.94648"
       style="fill:none;fill-opacity:1;stroke:url(#linearGradient8694);stroke-width:0.99999994;stroke-miterlimit:4;stroke-dasharray:none;stroke-opacity:1;visibility:visible"
       id="path8688" />
    <text
       xml:space="preserve"
       style="font-size:12px;font-style:normal;font-variant:normal;font-weight:bold;font-stretch:normal;text-align:center;text-anchor:middle;fill:#000000;fill-opacity:1;stroke:none;font-family:Verdana;-inkscape-font-specification:Verdana Bold"
       x="217.20383"
       y="235.45953"
       id="text8690"><tspan
         sodipodi:role="line"
         id="tspan8692"
         x="217.20383"
         y="235.45953" /></text>
    <text
       id="text8696"
       y="236.64789"
       x="49.999992"
       style="font-size:12px;font-style:normal;font-variant:normal;font-weight:bold;font-stretch:normal;text-align:center;text-anchor:middle;opacity:0.50865054;fill:#8ae234;fill-opacity:1;stroke:none;stroke-width:1px;stroke-linecap:butt;stroke-linejoin:miter;stroke-opacity:1;font-family:Verdana;-inkscape-font-specification:Verdana Bold"
       xml:space="preserve"><tspan
         y="236.64789"
         x="49.999992"
         sodipodi:role="line"
         id="tspan8698">b</tspan></text>
    <g
       id="g10862"
       style="fill:#ff0000;fill-opacity:1;stroke:#ffffff;stroke-width:2.79999995;stroke-miterlimit:4;stroke-dasharray:none;stroke-opacity:1">
      <path
         style="fill:#ff0000;fill-opacity:1;fill-rule:evenodd;stroke:#ffffff;stroke-width:2.79999995;stroke-linecap:round;stroke-linejoin:miter;stroke-miterlimit:4;stroke-dasharray:none;stroke-opacity:1"
         d="M 232.39181,105.99413 C 231.26528,106.06309 230.22574,106.62285 229.54806,107.52538 L 147.65625,217.15625 C 146.72177,218.23659 146.46216,219.74547 146.98184,221.07601 C 147.50151,222.40654 148.71506,223.34004 150.13438,223.50104 C 151.5537,223.66204 152.94551,223.02408 153.75,221.84375 L 235.64181,112.24413 C 236.59528,111.054 236.75652,109.4133 236.05297,108.06032 C 235.34943,106.70735 233.91368,105.89708 232.39181,105.99413 z"
         id="path8702"
         sodipodi:nodetypes="cccssccsc" />
      <path
         style="fill:#ff0000;fill-opacity:1;fill-rule:evenodd;stroke:#ffffff;stroke-width:2.79999995;marker-start:none;stroke-miterlimit:4;stroke-dasharray:none;stroke-opacity:1"
         d="M 159.52058,220.69248 L 145.29001,226.54313 L 147.32284,211.29168"
         id="path10868"
         sodipodi:nodetypes="cccc" />
    </g>
    <path
       sodipodi:nodetypes="cc"
       id="path10860"
       d="M 63.214285,232.36218 L 93.214285,232.36218"
       style="opacity:0.50865054;fill:none;fill-opacity:1;fill-rule:evenodd;stroke:#000000;stroke-width:2.70000005;stroke-linecap:round;stroke-linejoin:miter;marker:none;marker-start:none;marker-mid:none;marker-end:url(#TriangleOutM);stroke-miterlimit:1;stroke-dasharray:none;stroke-dashoffset:0;stroke-opacity:1;visibility:visible;display:inline;overflow:visible;enable-background:accumulate" />
    <text
       xml:space="preserve"
       style="font-size:12px;font-style:normal;font-variant:normal;font-weight:bold;font-stretch:normal;text-align:center;text-anchor:middle;fill:#ff0000;fill-opacity:1;stroke:none;stroke-width:1px;stroke-linecap:butt;stroke-linejoin:miter;stroke-opacity:1;font-family:Verdana;-inkscape-font-specification:Verdana Bold"
       x="-24.46364"
       y="247.24644"
       id="text13102"
       transform="matrix(0.6069407,-0.7947471,0.7947471,0.6069407,0,0)"><tspan
         sodipodi:role="line"
         id="tspan13104"
         x="-24.46364"
         y="247.24644">points to</tspan></text>
  </g>
</svg>
