<svg id="Layer_1" data-name="Layer 1" xmlns="http://www.w3.org/2000/svg" viewBox="0 0 1100.99 1198.89"><path d="M729.87,673.68c15.88-26.11,27.84-56.07,50.57-77.27,24.82-23.14,60.56-27.56,92-16.54C904.08,591,931.49,617.16,942,649.32c12.18,37.38,0,76.29-17.91,109.61s-41,64.2-63.08,94.9c-22.74,31.62-46,63.06-64.69,97.34-17.47,32.1-32.19,68.27-34.31,105.16-1.73,30,7.59,59.94,27.43,82.68,43.17,49.51,117.61,49.22,176.44,34.85,64.34-15.71,127.87-50,172.89-99.09,10.71-11.67,22.52-25,28.49-39.86,6.72-16.64-1.6-31.88-11.73-45.07-11.55-15-25.69-27.83-40-40.12-14.63-12.53-29.31-24.92-43.62-37.82-63.08-56.9-132.6-106.17-195.41-163.37-29.59-26.95-59.28-54.89-75.31-92.34-14.79-34.53-15.71-73.12-1.74-108.06,11.94-29.86,33.5-58.71,65.45-68.32,27.59-8.3,57.14-1.89,83.42,8,61.26,23,118.5,63.68,150.49,121.78,15.31,27.8,24.5,59.06,25.07,90.88a181.87,181.87,0,0,1-25.53,95.29c-33.57,57.07-92.82,91.73-153.28,114.37-60,22.45-123.11,34.9-185.55,48.31-47.47,10.2-100.14,14-141.75,41.39-19.38,12.78-34.14,31.46-37.73,54.84-4.36,28.34,4.42,58.49,17.11,83.64,28.74,56.93,82.55,99.37,136.46,131.12,25.53,15,52.37,28.43,80.19,38.7,31.48,11.62,64.54,18.71,97.84,22.51,69.41,7.91,142.52,1.68,208-23.44a312.15,312.15,0,0,0,44.65-21.09c15.1-8.74,30.12-18.71,40.87-32.68,8.58-11.15,13.64-24.6,13.15-38.77s-6-27.89-13-40.11c-17.3-29.85-43.61-53.57-67.34-78.15-31.24-32.36-61.2-65.93-90.74-99.84-29.3-33.64-58.18-67.63-87.55-101.21a1097.47,1097.47,0,0,0-93.26-94.89c-27.94-25.06-63.49-41-88-70C760,708.8,751.66,681.09,757,653s21.4-53.14,40.37-74a260,260,0,0,1,71.16-54.79c27.7-14.57,56.72-21.75,87.94-23.42,36.23-1.95,72.26,3.37,107.13,13,69.73,19.32,134,53.88,202.74,76,66.44,21.36,144,34.25,209,1.73a193.39,193.39,0,0,0,45.43-31.76c11.24-10.53,21.24-24,23.81-39.58,4.92-29.85-19.3-51.13-45.15-60.07-36.63-12.67-79.15-10-116.14-.52-39.11,10.06-75.59,28.71-109.64,50.09-34.92,21.91-69.69,44.77-101.63,70.9-32.41,26.52-59.56,57.78-83.94,91.72-24.1,33.53-45.49,69-70.46,101.91-23.65,31.18-50.49,60.21-80.58,85.27C884.93,903,820.64,931.76,752.35,935.78c-28.69,1.7-59.12-1.58-83.82-17.42-24.34-15.61-46.38-48-35-77.61,5.26-13.75,16.79-24.06,29.68-30.61,16-8.14,33.61-9.6,51.32-9.24,41.2.85,81.5,11.87,120,26,39.3,14.45,77.11,32.51,115.3,49.58,38.4,17.17,77.46,33.51,119.1,40.93,41.31,7.36,84,5.64,123.56-8.92,34.91-12.85,67.74-34.38,91.41-63.32,21.24-26,34.61-59,27.32-92.83-6.06-28.14-25.8-52.8-47.16-71.32-15.32-13.28-43.34-30.48-57.36-6.08-7.2,12.53-10.08,27.37-14.44,41-5.62,17.61-16.49,33.54-26.47,48.94-21.34,32.93-43.89,67.42-49.26,107.18-5.1,37.79,10.24,73.32,30.61,104.34,39.38,60,100.4,108.51,114.53,182.19,6,31.09,2.17,65.33-19.31,89.93-26,29.8-68.43,39.06-106.09,42.7-39.94,3.87-81.26,5.06-121.25,1.42-35.9-3.27-72.73-12-103.18-32-12.19-8-24.22-18.91-28.13-33.49-3.26-12.14.2-24.61,6.09-35.37,7.94-14.51,19.66-26.73,31.84-37.74,15.4-13.92,32.29-26.13,49.61-37.53,37.84-24.91,78.06-46.16,118.67-66.15,30.38-14.95,61.31-28.72,91.8-43.42,53-25.54,104.27-60.13,144.36-103.4,25.23-27.22,45.46-58.19,62.07-91.31,18.5-36.88,32.85-76.23,38.36-117.27,5.69-42.36.62-84.06-14-124.14-14.29-39.11-34.89-75.41-55.94-111.2-9.1-15.49-19.27-30.74-26.91-47-5.36-11.45-9.47-23.46-14.14-35.2-8.25-20.74-18.65-45.65-40.59-55.11-11.75-5.08-24.42-4.14-36.52-.8A142.74,142.74,0,0,0,1197.79,340c-25.36,16.76-45.34,40.76-59.84,67.31a251.78,251.78,0,0,0-28.34,87.52,212.52,212.52,0,0,0-1.57,44.38c1.48,18.92,7,37.14,14.72,54.43,16,36,40.93,67.29,66,97.37,26.46,31.75,53.48,63.12,77.48,96.82,23,32.37,45.52,68,57,106.37,10.38,34.6,9.73,71.34.09,106-19.18,69-69.92,128.92-129,167.94-62.25,41.13-139.77,40.56-211.21,32.8-60.5-6.56-120.24-18-181.08-21.27-38.22-2.08-76.6-2.76-114.81-.29-40.92,2.63-84.48,7.75-121.61,26.34-14.66,7.33-28.48,17.53-37.26,31.61-9.11,14.6-11,31.86-8.17,48.59,4.19,24.51,16.51,46.75,37.25,60.91,23.71,16.2,53.48,21.72,81.55,24.41,60.33,5.77,127.22,4.19,176.87-35.08,28.59-22.6,48.28-56.34,55.55-91.92,8.21-40.16.69-81.35-12.19-119.68C835.56,1054,799.6,984.93,749.52,929.45a397.81,397.81,0,0,0-41.36-39.71c-14.57-12.07-30-23.06-44.62-35.09-29-23.88-56.16-50.65-75.17-83.33-20-34.44-27.22-72.55-24.31-112.1,2.77-37.57,13.26-76.77,31-110.1,15-28.16,43.28-55,75.68-60.47,33.52-5.66,59.85,21,78,45.83,19.92,27.34,34.16,58.72,45.12,90.6,11,32.14,17.39,65,23.27,98.44,13.18,74.85,24.68,158,80.87,214.13,23.5,23.48,52.28,41.11,83.19,53,36.45,14.05,75.71,19.12,114.51,21.24,21.86,1.19,43.76,1.32,65.64,1,21.05-.29,42.27-.36,63.28-1.73,39.51-2.57,78-14.76,117.69-14.76,31.65,0,60.24,10.26,81.32,34.26,17.68,20.13,28.13,46.11,32.52,72.32,4.36,26,2.58,53.74-7.3,78.34a94.7,94.7,0,0,1-57.25,54.9c-30.78,10.93-65.52,11.39-97.36,5.22-28.48-5.53-62.49-17.49-75.57-45.79-11.94-25.83-.91-56,12-79.17,18.8-33.66,46-61.87,74.32-87.62,29-26.33,59.2-51.16,87.16-78.61,27.27-26.77,53.86-55.51,72.75-89,12.7-22.49,23.53-49.42,20.43-75.79a71.91,71.91,0,0,0-21.4-42.95c-28-27.6-70.93-37.63-108.42-43.81-45.88-7.57-92.63-9.21-139-9.11-36.13.08-72.32,1-108.43,1.89-33.63.83-67.31,3.38-100.92.71-32.45-2.57-66.21-10.54-91.42-32.33-28.58-24.7-42.12-61-49.82-97-4-18.51-7.51-37.62-9.17-56.49-1.85-21.1,1.57-42,3.68-62.93,1.61-15.87,3.47-32.93-3.37-47.88-4.75-10.39-13.43-18.4-23.44-23.69-22-11.63-48.83-12.87-73.22-12.17-31.28.89-61.37,7.21-90,20-31,13.82-59.18,34.15-82.72,58.58a263.07,263.07,0,0,0-55,84.44c-12.07,30.19-20.09,65.87-12.14,98.08,7.17,29,27.74,51.06,51.27,68.27,30,22,64.06,39.15,96.77,56.7,39,20.92,78.34,40.95,118.84,58.83,39.44,17.41,79.36,34.07,116.9,55.42,30.65,17.43,62.22,33.15,93,50.41,31,17.42,61.6,36.77,86.72,62.23,51,51.63,70.36,130.75,56.51,201.22-12.36,62.86-53.36,120-111.35,148-26.69,12.89-55.89,19.91-85.11,24.11-15.75,2.27-31.64,3.64-47.52,4.58s-31.37,1.54-46.28,7.48c-25.54,10.19-42.22,31.54-56.34,54.22-15.7,25.22-29.82,55.06-54.48,72.89-25.94,18.76-59.53,22.08-90.24,15.71-28.51-5.91-58.22-19.59-77.93-41.54-19.55-21.76-33.26-50-41.21-78-7.16-25.19-11.69-58.1,6.06-80.16,9-11.19,21.85-19,34.51-25.31,14.51-7.28,29.85-12.82,45.3-17.75,34.17-10.93,69.08-21.09,105-23.55,43.54-3,87,3.51,128.19,17.65,40.76,14,79.18,33.68,118.42,51.3,38.13,17.12,77,31.18,118.07,39.15,40.61,7.87,82.08,11.15,123.41,11,38-.18,75.76-2.22,112-14.19,34.68-11.44,67.81-29,96.15-52.06,21.51-17.53,39.47-39.44,55.64-61.88s33.24-48.45,37.08-76.36c1.36-9.93.86-21.27-5.46-29.54-6.18-8.1-16.28-12.19-25.86-14.66-24.3-6.28-50.52-5-75.35-3.73-32.61,1.66-65.25,1.69-97.85,3.85-46,3-91.75,8.16-137.64,12.12-42.91,3.7-86.15,6.66-129.24,6.15-39.6-.47-79.2-5.88-115.43-22.65-18.74-8.67-36.63-19.63-54.55-29.86-17.72-10.11-36.6-20.48-51.64-34.43-11.66-10.81-19.58-24.52-19.82-40.7-.24-16,5.58-31.61,12-46,28.48-64.21,77-115,133.51-155.68,55.69-40.13,117-71.43,175.87-106.46,14.21-8.45,28.27-17,42.91-24.74,14.79-7.79,29.75-15.25,44.36-23.38,28.17-15.67,56.18-34.32,74.42-61.53,27.26-40.7,32.67-108.44-4.06-145.49-21.86-22.05-53.56-23.3-82.8-21.89a318.58,318.58,0,0,0-112.92,26.91c-15.57,6.9-30.81,14.95-43.24,26.79a99.52,99.52,0,0,0-23.9,36.1c-10.8,27.74-9.63,58.79-5.74,87.78,5,37.15,14.88,73.41,19.75,110.6,5.86,44.85,7.26,90.42,2.31,135.43-4.07,37-12.79,73.68-23.81,109.19-10.59,34.13-24,67.5-41.57,98.67-17,30.13-38,58.25-64.18,81-27.25,23.6-60.14,41.63-93.78,54.31-68.47,25.82-144.91,29.72-215.28,9.16-34-9.93-69.27-25.33-96.83-48-20.92-17.19-36.44-40.83-39.93-68-6.82-53.16,31.07-101.67,79.38-119.66,36.9-13.74,76.16-9.65,113.89-1.68,21.14,4.46,42,10,63.25,14.13,21.62,4.24,43.61,6.63,65.51,9,45.95,4.9,92.1,7.77,138.29,9.2s92.43,2.23,138.5-1.13c89.64-6.55,178.1-24.51,268.13-26.47,35.85-.78,72.83-.09,107.28-11.55s63.48-35.19,84-64.91c19.11-27.72,30.62-63.59,16.13-95.89-13.06-29.1-42.3-45.57-71.8-53.85-29.92-8.4-61.54-10.1-92.46-9.85-40.15.32-80,4.64-119.57,11.44-88.16,15.15-174.08,40.9-262.33,55.66q-69.3,11.6-139.48,16.78-34.51,2.6-69.14,3.71c-22.71.74-45.29-.88-67.9-2.85-22.9-2-45.91-4.26-68.93-3.67-13.76.34-27.45,2.73-41,4.8-16,2.44-32.14,4.87-48.39,5.46-14.52.53-30.12-.07-43.54-6.28-26.53-12.29-31.63-47.55-26.27-73.43,2.73-13.21,8.49-24.7,19.53-32.76,12.12-8.85,26.47-14.52,40.79-18.69a201.47,201.47,0,0,1,48.07-8c13.57-.55,27.86,0,40.63,5.12,23.84,9.49,34.47,34,36.52,58.18,2.14,25.28-2.74,51.86-12.92,75.06-13.34,30.38-39.64,49.68-64.63,70s-50.44,45.54-53.77,79.19c-2.71,27.35,13.51,51.3,33.53,68.26,21.93,18.57,48.48,31.54,75.42,41.12,31.13,11.07,64.17,15.69,96.29,22.92,31.42,7.08,65.27,15.87,90.52,37,25.49,21.28,32,54.82,32.75,86.49.36,16.28-.73,32.54-2.19,48.74-1.26,14-2.69,27.91-5.76,41.66-6.36,28.41-17.68,57.12-36.87,79.39-20,23.27-47.5,35.31-78.3,33.26-11.23-.75-22.94-3.88-31.5-11.53-7.38-6.59-11.65-15.52-13.8-25.06-5-22.35.09-46.68,6.78-68.12,11.1-35.6,29.13-69.49,46.9-102.13,40.17-73.82,86.32-144.34,128.88-216.79,19.71-33.56,38.28-68.16,50.61-105.2,11.8-35.45,18.7-75.19,11.73-112.35-13-69-73.26-116.95-120.25-164-15-15-30-29.89-46.06-43.69-14.39-12.36-30.19-22.59-45.06-34.28-12.59-9.9-21.43-21.82-25.76-37.38a102.39,102.39,0,0,1-3.75-36.22c4-45.82,46.73-72.11,87-83.6,43.63-12.44,94-13.79,137.31.91,12.91,4.39,25.21,10.78,37.17,17.28,15.78,8.58,31.22,18.26,44.65,30.27s24,26.52,28.76,44.24c4.94,18.54,3.18,38.06-1.6,56.44-9.46,36.38-29.2,70-48.29,102.12-18.25,30.67-38,60.41-56.63,90.84-35.26,57.59-68,120.29-69.6,189.33-.87,37.32,8,73.25,22.45,107.45,16.76,39.67,37.43,77.51,58.14,115.21,20.42,37.16,40.84,74.36,57.85,113.24,12.34,28.16,24.28,56.64,40.29,83,15.41,25.36,35.1,49.71,61.69,63.9,26,13.86,59.34,18.49,85.94,3.81,26.06-14.37,41.66-42.63,55.11-68,16.69-31.47,25.36-65.24,29.07-100.56,4-37.68,2.75-75.75.22-113.49-2.51-37.54-5.07-75.34-9.54-112.7-10.48-87.58-34.44-172.93-58.4-257.59-11.69-41.33-22.84-83-26.65-125.93-3.91-44.17.11-88.44-.07-132.67-.08-21.36-1.27-42.73-4.69-63.83a248.28,248.28,0,0,0-7-31.54c-2.09-7-4.67-13.84-6.59-20.89-1.56-5.72-4-13.25-1.62-19.07,2-4.82,6.34-8.36,10.68-11,11.07-6.64,24.49-9.35,37.11-11.23,53.07-7.94,119.92.79,153.41,47.67,19,26.55,20.75,59.65,14.48,90.75-7.22,35.82-23.1,69.61-41.51,100.94-38.53,65.58-91.76,120.86-148.4,171.06-64.18,56.88-135,104.22-208.77,147.71-38.38,22.63-77.06,44.8-114.42,69.12-15.49,10.09-31.1,20.18-46.09,31-13.18,9.52-25.72,20-35.57,33.05-20.17,26.67-23.91,62.05-21.45,94.49,2.58,34,12.43,67.32,27.24,98,14.34,29.68,33.84,57.81,58.89,79.45,29.36,25.36,62.49,47.43,96.4,66.19,70.2,38.83,149.87,62,230.48,60.6,77.75-1.38,153.39-27.81,220.18-66.65,28.63-16.65,56.11-36.9,75.93-63.77,22-29.78,29.55-66.16,25.9-102.69-4-39.7-20.58-76.36-38.15-111.68-18.69-37.55-36.53-75.13-49.65-115a579.78,579.78,0,0,1-25.88-120c-2.15-20.44-3.17-40.78-1.25-61.28,1.86-19.93,6-39.57,11-58.92,10.11-38.88,23.93-76.74,32.41-116.06,7.24-33.61,15.24-74-4.59-104.84-15.59-24.24-40-40.46-68.64-44.17S1283,454,1255.9,462.62c-5.5,1.75-3.15,10.44,2.39,8.68,31.74-10.09,67.67-19,100.24-7.4,17,6.08,31.39,18.27,41.55,33.1,10.26,15,13.17,31.44,12.29,49.33-4,80.58-45.61,153.66-51.4,234-2.9,40.33,3.73,82.13,12.44,121.43,8.79,39.62,21.91,78.12,38.1,115.3,30.93,71,87,148.51,58.46,229.77-11.38,32.43-36.81,57.78-64.31,77.28-30,21.24-63.68,38-97.68,51.68-37,14.9-76,25.42-115.76,29.17-41.12,3.88-82.65.78-123-7.78-79.08-16.78-151.55-55.7-214.77-105.37-53.6-42.12-88.35-108.52-94.72-176.36-3.1-33-.19-69.72,21.67-96.29,10.72-13,24.23-23.36,38.07-32.87q24.49-16.85,49.63-32.82c74.3-47.27,152.53-87.94,224.13-139.46,65.55-47.16,127.45-101.14,180.45-162.21a552.83,552.83,0,0,0,61-85.5c17.93-31,33.45-64.61,40.57-99.92,6.2-30.77,5.36-63.61-11.13-91.18-15-25-40.05-41.78-67.18-51.17-26-9-53.8-11.28-81.12-9.31-13.13,1-26.38,2.66-39.07,6.23-11.07,3.13-23.16,7.87-30.47,17.22-8.43,10.81-4.61,24.28-.92,36.27,5.45,17.74,10.45,35.13,13,53.6,6,43.73,2.38,88,1.8,131.91a525.89,525.89,0,0,0,14.14,129.66c10,42.19,23,83.69,34.15,125.58,11.44,42.81,22.17,85.86,30.12,129.48,7.42,40.8,11,81.79,14.42,123.06,6.08,72.81,14,151-10.29,221.52-5.61,16.3-13.62,31.53-22.13,46.47-7.51,13.16-15.76,26.18-26.5,37-9.79,9.87-21.61,17.23-35.33,20.06-15.75,3.25-32.72.51-47.63-5.08-28.73-10.78-50.11-34.81-66.28-60-16.76-26.13-29.09-54.75-41.45-83.13-33.8-77.6-81-148.4-114.95-225.9-15.51-35.42-25.68-72.23-24.77-111.18.79-34.06,9.62-67.32,22.65-98.65C913.59,743.23,957.05,686,992.69,625c34-58.17,79.93-141.68,22.41-200.53-22.86-23.38-53.91-40.64-83.94-53-19.91-8.22-41.63-11.9-63-13.23-45.87-2.84-96.9,4.81-135.92,30.48-17.57,11.55-32.23,27.26-39.91,47-8.72,22.47-7.14,49.27,1.7,71.46,5.53,13.89,15,24.57,26.69,33.63,15.25,11.8,31.21,22.36,45.79,35.07,29.3,25.53,56.34,53.91,83.91,81.28,24.58,24.39,48.85,50.24,64.48,81.47,16.92,33.82,18.4,71.08,11.6,107.81-14.51,78.37-62.7,146.18-102.69,213.39-44.16,74.22-92.1,146.66-125.46,226.65-9.22,22.13-16.17,45.89-17.16,70-.84,20.31,3.4,42.83,20,56.27,20.29,16.4,52.49,15.72,76,7.74,27.21-9.22,47.75-30.8,61.63-55.33,14.27-25.22,22.63-53.74,26.23-82.4,3.85-30.7,6.51-62.73,2.45-93.52-2-15.56-6-31-13.73-44.83-7.43-13.36-18.34-23.88-31-32.27-27.69-18.34-61.24-26.3-93.29-33.14-31.27-6.68-63.12-11.77-93.11-23.25-26.87-10.28-54.09-24.35-74.26-45.25-9.16-9.5-16.78-20.79-20-33.73-3.54-14.25-.83-29,5.57-42.09,15.81-32.17,47.56-51,73.53-74,12.27-10.85,23.6-23,31.61-37.41a152.33,152.33,0,0,0,13.27-33.09c6.87-24.6,9.38-51.94,2.68-76.86-6.4-23.78-22.75-42.89-47-49.28-28.8-7.57-62.13-2.35-90,6.4-13.9,4.36-27.88,10.14-39.66,18.83-10.57,7.78-17.42,17.87-21.28,30.42-7.73,25.17-5.48,59.28,12.86,79.61,19.62,21.75,54.67,20.3,81.15,17.57,15.89-1.64,31.63-4.37,47.44-6.62a264.12,264.12,0,0,1,50.21-2c22.63,1.08,45.14,3.69,67.73,5.21,23.24,1.56,46.34,1,69.59-.15q68.57-3.32,136.66-12.48c45-6.07,89.55-14.3,133.82-24.26,43.88-9.88,87.52-20.83,131.55-30,43.55-9.09,87.6-16.51,132.08-18.89,31.61-1.69,63.91-1.84,95.23,3.2,29.59,4.76,61.7,14.52,81.37,38.61,24.71,30.26,16.25,69.33-3.48,99.67-20.34,31.27-50.92,55.79-86.9,66.26-35.73,10.4-73.56,8.55-110.35,9.71-90.61,2.87-179.72,21.71-270.12,27.06-45.79,2.7-91.9,1.51-137.71-.17-46.55-1.72-93.06-4.94-139.34-10.28-22.23-2.57-44.21-5.75-66.06-10.62-21.13-4.71-42.11-10.15-63.45-13.91-35.9-6.33-73-7.21-107.18,7-47.29,19.64-84.12,66.31-81.42,119.1,1.36,26.38,12.82,50.94,30.85,70.08,23.34,24.77,56.45,41.19,87.82,53.24,67.39,25.9,142.82,28.61,212.4,10a350.05,350.05,0,0,0,99.4-44,278.3,278.3,0,0,0,73.79-70c41.36-56.46,65.39-124.94,80.37-192.75a523.14,523.14,0,0,0,12.19-127.29c-1.2-44-7.81-87.4-16.86-130.43-11.82-56.15-25.35-130.62,28.84-169.73,14.9-10.75,32.53-18.22,49.72-24.44a322.7,322.7,0,0,1,57-14.88,273.9,273.9,0,0,1,59.3-3.51c14.47.78,28.39,3.17,40.69,11.28,21.39,14.09,30.84,40.31,32.34,64.92,1.63,26.73-4.79,54.49-19.62,76.94-18.55,28.09-48.45,46.43-77.44,62.16-14.62,7.93-29.53,15.31-44.18,23.18s-28.72,16.72-43,25.16c-59.22,34.93-120.72,66.52-176.16,107.46s-103,91.69-131,155.29c-12.13,27.58-20.24,59.14-.63,85.41,11.2,15,27.63,25.4,43.31,35.14,17.69,11,36.08,20.76,54.17,31.05,34.54,19.66,71.77,30.35,111.32,33.5,41.06,3.26,82.85.69,123.87-2.15,46-3.18,91.79-8.32,137.71-12.2,22.8-1.93,45.64-3.55,68.5-4.47,16.28-.66,32.6-.37,48.86-1.21,24.3-1.25,48.82-3,73.08-.18,10.63,1.27,22.65,3.34,31.55,9.72,8.18,5.86,9.56,15.65,8.67,25.11-1.24,13.29-6.85,26.18-12.9,37.9a303.17,303.17,0,0,1-24.65,39.17c-16.47,22.6-34.89,44.32-57,61.54a293.9,293.9,0,0,1-101,50.4c-37.41,10.37-77.53,10.64-116.1,9.77-41.81-.94-83.68-5.52-124.37-15.4-41.53-10.09-80.39-27.19-119-45.14s-77.61-36.76-119-47.82a325,325,0,0,0-126.54-8.46c-33.56,4.48-67.25,14.67-99.21,25.8-26.64,9.29-57.78,21.31-74.74,45.24-16,22.58-13.35,53.81-7,79.22a217.64,217.64,0,0,0,38.66,80c17.79,22.83,43.61,38,70.9,46.93,29.33,9.56,62.66,11.6,91.81.27,29.58-11.51,48.09-35.67,64.36-61.82,14.37-23.09,27-49.52,49.18-66.35,25.88-19.67,58.64-16.51,89.26-19.59,29.65-3,59.34-8.12,87.41-18.36,26.89-9.81,51.87-24.32,72.72-44,23.52-22.24,41.31-50.37,53.58-80.21,27.09-65.85,19.6-147.12-16.23-208.26-36-61.49-102.59-95.39-163.45-127.44-34.33-18.08-67.67-37.84-102.9-54.18-39.18-18.19-79.35-34.2-118-53.57q-59.55-29.85-117.45-62.9c-26.61-15.16-54.92-31.26-73.89-56-20.65-26.91-22.24-59.67-15.33-91.82,7.23-33.66,22.72-65.16,43.46-92.53,40.94-54.06,104.5-94.2,173-98.74,24.53-1.62,50.79-1.89,74.16,6.75,10.63,3.93,20.68,10.46,26.4,20.49,8,14,5.48,31.58,3.93,46.86-2.15,21.29-5.64,42.56-3.58,64,1.76,18.43,5.08,37,8.83,55.13,7.36,35.63,20.13,71.22,46.21,97.58,48.14,48.62,124.35,43.22,187.08,40.89,38.25-1.42,76.69-2,115-2.4,46.08-.43,92.53.58,138.21,7.17,21.71,3.13,43.4,7.5,64.19,14.63,16.92,5.8,33.92,13.61,47.36,25.67,11.73,10.53,20,24.31,21.77,40.14,3.18,27.92-10.19,56.24-24.53,79.25-41.7,66.92-107.55,113.49-164,166.84-26.92,25.47-52.62,54.1-69.25,87.51-11.74,23.57-19.68,52.07-9,77.51,11.82,28.29,42.23,42.76,70.29,50,31.06,8,64.75,9.33,96.15,2.51,28.19-6.13,53.64-20.09,70-44.33,14.61-21.64,20.88-48.24,21.19-74.11.6-50.68-22-108.81-69.66-132.51-33.22-16.53-71.72-12.17-107.05-6.44-20.1,3.25-40.12,7.37-60.43,9.17-20.67,1.84-41.67,1.7-62.41,2.06-77.63,1.36-160.6-.66-228-44.08-28.71-18.5-53-43.65-69.26-73.74-19.46-35.91-28.29-77.8-36.07-117.54-7.25-37-11.93-74.73-21.47-111.27-8.35-32-19.87-63.46-35.24-92.77-14.42-27.5-32.91-54.52-58.52-72.72-27.84-19.78-61.51-14.1-88.38,4.47a143.5,143.5,0,0,0-35.35,35.25c-9.83,13.91-16.46,29.95-22.32,45.87-13.22,35.92-20.65,74.89-18.37,113.25s16,73.59,38.42,104.65c22,30.49,50.36,55.49,79.87,78.52,15,11.7,30.18,23,44.17,35.88a406.78,406.78,0,0,1,38.45,40.75c24,29.13,43.89,61.46,60.72,95.18,17.6,35.27,33.5,72.53,42.78,110.94,9.95,41.13,9.86,84.57-9.36,123.1-15.41,30.89-40.37,55.14-72,69-30.12,13.24-63.13,16.26-95.68,15.72-51.1-.86-125.47-3.31-147.26-59.79-6.41-16.62-9.81-35.13-3.74-52.36,5.23-14.82,17.21-26,30.39-33.93,34.56-20.85,78.17-26.27,117.65-29.31,39.13-3,78.49-2.56,117.67-.56,58,3,115,13,172.62,20,70.92,8.6,147.64,12,212.73-22.52,31.09-16.48,59.09-40.68,82.69-66.6,24.08-26.45,44.23-56.59,57.87-89.73,13.31-32.37,19.83-67.88,16.13-102.84-4.05-38.22-20.71-73.2-40.22-105.85-20.9-35-46.16-67.12-72.07-98.48-25.73-31.14-53.11-61.3-75.14-95.28-20.93-32.28-35.65-67.16-34.88-106.16a239.89,239.89,0,0,1,19.79-89.9c12.23-28.3,30-54.64,53.92-74.36a137.82,137.82,0,0,1,39.07-22.81c12.29-4.61,26.07-8.66,39-4.45,22.73,7.37,32.66,35.61,40.44,55.69,4.43,11.43,8.56,23,13.94,34.06,8.15,16.74,18.62,32.52,28,48.57,21.48,36.62,42.44,73.92,56,114.3a248.29,248.29,0,0,1,8.49,125.81c-7.88,42-24.61,82-45.25,119.26a358.88,358.88,0,0,1-65.94,85.85c-38.91,37.21-85.89,66.9-134.51,89.79-33,15.53-66.12,30.62-98.68,47-40.57,20.42-80.79,42.23-118,68.32-16.28,11.4-32.15,23.66-46.24,37.72-11.24,11.2-21.84,23.87-28.15,38.56-5.21,12.14-7,25.75-2.54,38.43,5.4,15.23,17.69,26.63,30.85,35.37,29.64,19.68,65.32,28.79,100.29,32.74,39.59,4.47,80.29,3.2,119.95.17,38.3-2.92,79.76-10.12,110.31-35.2,24.18-19.85,35.84-49.8,35.83-80.66,0-74.57-54-129.33-97.12-184.08-23.13-29.4-47-63.59-51.13-101.81-4.26-39.67,15.24-77.79,35.87-110.28,11-17.39,22.93-34.3,32.41-52.63,7-13.45,10.25-27.86,15-42.13,3.29-9.83,7.53-24,20.38-22.8,11.95,1.08,23.08,10.55,31.57,18.25,21.88,19.86,41.85,45.91,43.85,76.41,2.38,36.16-19.19,68.52-44.89,91.93a212.88,212.88,0,0,1-107.07,51.89c-43,7.28-86.92.18-128-13.2-39.53-12.87-77-31.39-114.91-48.38-38.05-17.07-76.63-33.58-117-44.47a348.09,348.09,0,0,0-59-10.91c-18.05-1.65-37-2.37-54.76,2-27.84,6.93-54.21,27.63-56.8,57.89s19.47,59.27,44.08,74.34C690.13,942.17,719.81,946.13,748,945c66.78-2.67,131.1-28.87,183.59-69.52,30.67-23.77,58-51.68,82.34-81.86,25.36-31.45,46.72-65.75,69.59-99,24.17-35.14,50.33-68.81,82.49-97.06,31.6-27.75,67-50.78,102.19-73.6,34.31-22.23,70.58-42.21,110.06-53.59,37.87-10.91,81.9-14.7,119.69-1.27,13.72,4.88,27.29,13.32,34.3,26.51,6.48,12.22,4.68,26.29-1.84,38.1-9,16.34-25,28.79-40.31,38.95a172.81,172.81,0,0,1-49,22.59c-35,9.77-72.11,8-107.6,2-36.36-6.15-71.54-17.59-105.88-30.81-66.82-25.73-131.92-58.88-203.21-70.62-35.34-5.82-72.19-6.53-107.39.78-27.18,5.64-53,18.25-76,33.53-45.48,30.21-92.22,79.12-94.49,136.89-1.16,29.26,11.71,56,31.84,76.69C791.39,757.26,807,768,822.43,778.63a409.42,409.42,0,0,1,46.14,36c33,30.2,63.22,62.42,92.58,96.14s58.18,67.64,87.56,101.21c29.62,33.85,59.75,67.28,91.23,99.41,22.93,23.42,48.68,47.16,62.6,77.43,5.87,12.75,8.83,27.09,4.93,40.85-4.82,17-18.68,29.77-32.87,39.35-27.9,18.83-59.45,31.86-91.83,40.69-68.45,18.67-142.59,19.88-211.93,5.31-61.29-12.88-119.05-41.2-169.89-77.43-50.24-35.8-100.24-85.48-111.19-148.76-4.4-25.46-.78-50.74,18.06-69.6,17.41-17.42,41.71-26.67,64.94-33.34,24.13-6.93,48.91-11,73.54-15.7,28-5.28,55.84-11.61,83.61-17.9,63.7-14.45,128.5-31.88,185.3-65.12,55.87-32.68,102.28-83.92,114.41-149.15,11.82-63.54-11.23-127.78-53.19-175.63-22.26-25.39-49.34-45-78.77-61.21-26.52-14.63-55.12-27.86-85.3-32.48-27-4.13-54.9-.4-77.39,16.05-27.92,20.43-46.12,55.09-52.29,88.65-6.57,35.69,1,72,18.66,103.49,19.56,34.93,50.66,62.16,80.29,88.38,32,28.29,65.39,54.81,98.64,81.54q49.5,39.79,96.76,81.95c14.31,12.78,29.43,24.62,43.66,37.49,13.91,12.58,29.33,26.85,37.33,44.16,8.14,17.61-5.26,33.47-15.88,46.66a259,259,0,0,1-32.73,33.5c-51.05,44-118.38,75-185.73,81.51-31.65,3.07-65.49.87-94.32-13.64-27.16-13.68-47.66-37.71-55.21-67.34-8.81-34.54,1.13-71.29,14.43-103.35,14.9-35.9,36.71-68.52,59.12-100.09,22.13-31.16,45-61.82,65.94-93.84,20.53-31.47,39.54-66.49,42.07-104.73,2.27-34.51-11.54-67.53-36.71-91-24-22.37-57.24-36-90.26-32.6-26.67,2.78-49.36,16.14-66,36.93-16.37,20.42-27.09,44.5-40.62,66.74-3,5,4.76,9.49,7.77,4.55Z" transform="translate(-444.31 -314.06)"/></svg>