<?xml version="1.0" encoding="UTF-8" standalone="no"?>
<svg
   xmlns:dc="http://purl.org/dc/elements/1.1/"
   xmlns:cc="http://creativecommons.org/ns#"
   xmlns:rdf="http://www.w3.org/1999/02/22-rdf-syntax-ns#"
   xmlns:svg="http://www.w3.org/2000/svg"
   xmlns="http://www.w3.org/2000/svg"
   xmlns:sodipodi="http://sodipodi.sourceforge.net/DTD/sodipodi-0.dtd"
   xmlns:inkscape="http://www.inkscape.org/namespaces/inkscape"
   height="549.78998"
   width="1388.3101"
   inkscape:version="1.0 (4035a4fb49, 2020-05-01)"
   sodipodi:docname="variable-declaration.svg"
   version="1.1"
   viewBox="0 0 1388.31 549.79"
   data-name="Livello 1"
   id="Livello_1">
  <metadata
     id="metadata75">
    <rdf:RDF>
      <cc:Work
         rdf:about="">
        <dc:format>image/svg+xml</dc:format>
        <dc:type
           rdf:resource="http://purl.org/dc/dcmitype/StillImage" />
        <dc:title />
      </cc:Work>
    </rdf:RDF>
  </metadata>
  <sodipodi:namedview
     inkscape:snap-object-midpoints="false"
     inkscape:snap-center="false"
     inkscape:snap-text-baseline="false"
     inkscape:snap-global="true"
     inkscape:current-layer="Livello_1"
     inkscape:window-maximized="0"
     inkscape:window-y="0"
     inkscape:window-x="946"
     inkscape:cy="464.73448"
     inkscape:cx="706.55474"
     inkscape:zoom="0.59905312"
     showgrid="false"
     id="namedview73"
     inkscape:window-height="1008"
     inkscape:window-width="958"
     inkscape:pageshadow="2"
     inkscape:pageopacity="0"
     guidetolerance="10"
     gridtolerance="10"
     objecttolerance="10"
     borderopacity="1"
     bordercolor="#666666"
     pagecolor="#ffffff"
     inkscape:document-rotation="0" />
  <defs
     id="defs4">
    <style
       id="style2">.cls-1{fill:#1c4dc6;}.cls-2{fill:#24d3c2;}.cls-3{fill:none;stroke:#000;stroke-linecap:round;stroke-linejoin:round;stroke-width:6px;}</style>
  </defs>
  <path
     style="stroke-width:0.645512"
     id="path6"
     d="m 424.21576,264.56939 h -17.42884 v -5.1641 h 23.88398 v 37.64631 h -6.45514 z m -2.58204,-18.07436 c 0,-2.94999 2.16892,-4.95753 5.11245,-4.95753 2.94355,0 5.11247,2.00754 5.11247,4.95753 0,2.95 -2.16892,4.95754 -5.11247,4.95754 -2.94353,0 -5.08664,-1.91717 -5.08664,-4.95754 z"
     class="cls-1" />
  <path
     style="stroke-width:0.645512"
     id="path8"
     d="m 453.49622,259.36656 h 5.26739 l 0.54222,6.35184 h 0.30985 c 3.95054,-4.10545 8.28838,-7.28139 14.20128,-7.28139 8.90808,0 13.01353,5.2674 13.01353,15.18247 v 23.39338 h -6.45512 v -22.54131 c 0,-7.10064 -2.47876,-10.4573 -8.59823,-10.4573 -4.51859,0 -7.51377,2.24638 -11.8516,6.73916 v 26.25945 h -6.45514 z"
     class="cls-1" />
  <path
     style="stroke-width:0.645512"
     id="path10"
     d="M 508.72629,282.37263 V 264.56939 H 498.0366 v -4.80261 l 10.92207,-0.38731 0.85209,-12.08401 h 5.34483 v 12.08401 h 18.4294 v 5.1641 h -18.4294 v 17.90652 c 0,6.73916 2.24638,10.22493 9.52132,10.22493 a 24.755411,24.755411 0 0 0 8.98553,-1.70416 l 1.3943,4.72515 a 32.830774,32.830774 0 0 1 -11.76768,2.24639 c -10.99954,0 -14.56277,-6.26148 -14.56277,-15.56977 z"
     class="cls-1" />
  <path
     style="stroke-width:0.645512"
     id="path12"
     d="m 592.9205,259.36656 h 5.26739 l 0.54224,6.35184 h 0.30984 c 3.95054,-4.10545 8.28837,-7.28139 14.20127,-7.28139 8.90807,0 13.01354,5.2674 13.01354,15.18247 v 23.39338 h -6.45513 v -22.54131 c 0,-7.10064 -2.47877,-10.4573 -8.59822,-10.4573 -4.51859,0 -7.51377,2.24638 -11.85162,6.73916 v 26.25945 h -6.45512 z" />
  <path
     style="stroke-width:0.645512"
     id="path14"
     d="m 638.15804,282.75993 v -23.39337 h 6.45512 v 22.54129 c 0,7.049 2.47877,10.45731 8.6757,10.45731 4.33783,0 7.51376,-2.014 11.69667,-6.89407 v -26.10453 h 6.45514 v 37.6463 h -5.34484 l -0.54223,-6.58423 h -0.38086 c -3.79561,4.41531 -8.21092,7.51377 -14.02054,7.51377 -8.88871,0 -12.99416,-5.26738 -12.99416,-15.18247 z" />
  <path
     style="stroke-width:0.645512"
     id="path16"
     d="m 683.16319,259.36656 h 5.11245 l 0.54224,4.95753 h 0.15491 c 1.93654,-3.48577 4.26039,-5.88708 8.59823,-5.88708 3.71815,0 6.042,2.16893 7.10064,6.50677 2.16893,-4.02799 4.51859,-6.50677 8.83061,-6.50677 5.26738,0 8.39166,4.10547 8.39166,11.61924 v 26.95661 h -6.3712 v -26.46603 c 0,-4.33784 -1.23939,-6.58422 -4.028,-6.58422 -2.63368,0 -4.02799,1.93654 -6.042,5.80961 v 27.26646 h -5.88707 v -26.46602 c 0,-4.33785 -1.08447,-6.58424 -3.87307,-6.58424 -2.6337,0 -4.33785,1.93655 -6.19693,5.80962 v 27.26646 h -6.35185 z" />
  <path
     style="stroke-width:0.645512"
     id="path18"
     d="m 778.20846,260.76087 h 33.30845 v 4.80261 h -33.30845 z m 0,16.57676 h 33.30845 v 4.80262 h -33.30845 z" />
  <path
     style="stroke-width:0.645512"
     id="path20"
     d="m 868.9159,291.20324 3.17594,-4.26038 c 3.33083,2.94354 7.35884,5.65469 13.94306,5.65469 6.89408,0 12.47131,-4.33785 12.47131,-11.23192 0,-6.89408 -4.80261,-10.76716 -12.084,-10.76716 -4.10546,0 -6.58423,1.00701 -10.06999,2.94354 l -3.40831,-2.16892 1.62669,-23.77423 h 27.96361 v 5.57077 h -22.30892 l -1.29103,14.56277 a 21.172816,21.172816 0 0 1 9.14046,-2.014 c 9.45032,0 16.96408,4.80261 16.96408,15.4923 0,10.68969 -8.83062,16.7317 -18.28092,16.7317 -8.85643,0 -14.04636,-3.33086 -17.84198,-6.73916 z"
     class="cls-2" />
  <path
     style="stroke-width:3.416;stroke-miterlimit:4;stroke-dasharray:none"
     id="path22"
     d="M 474.65613,236.63805 C 470.78305,194.17623 447.02819,153.94787 411.75092,129.99291"
     class="cls-3" />
  <path
     style="stroke-width:3.416;stroke-miterlimit:4;stroke-dasharray:none"
     id="path24"
     d="m 407.15487,163.30782 a 81.244227,81.244227 0 0 0 0.3163,-36.5683 c 16.06681,4.66706 28.26699,7.40404 44.33381,12.07108"
     class="cls-3" />
  <path
     style="stroke-width:3.416;stroke-miterlimit:4;stroke-dasharray:none"
     id="path26"
     d="m 657.94945,318.14694 a 308.49052,308.49052 0 0 1 2.4594,109.35631"
     class="cls-3" />
  <path
     style="stroke-width:3.416;stroke-miterlimit:4;stroke-dasharray:none"
     id="path28"
     d="m 642.68953,406.22714 17.96463,26.10454 20.01088,-30.98461"
     class="cls-3" />
  <path
     style="stroke-width:3.416;stroke-miterlimit:4;stroke-dasharray:none"
     id="path30"
     d="m 877.50123,211.28231 c -19.12009,2.89191 -34.21217,16.13782 -40.35745,31.18472 -6.14528,15.0469 -4.39595,31.55912 0.55514,46.89651 5.8096,17.93233 19.02325,37.00078 41.38381,40.40908 13.55576,2.06565 27.8216,-2.44649 37.87223,-10.141 10.05063,-7.69451 16.27983,-18.22927 19.90761,-29.04807 5.4094,-16.18947 5.25448,-34.06371 -3.66651,-49.18806 -8.92098,-15.12437 -27.47947,-26.89207 -48.04551,-27.65377 -20.56603,-0.7617 -41.64203,11.11573 -45.2698,27.63439"
     class="cls-3" />
  <path
     style="stroke-width:3.416;stroke-miterlimit:4;stroke-dasharray:none"
     id="path32"
     d="m 897.97689,197.1585 c 22.37347,-36.29718 60.34898,-63.9574 103.52731,-75.40234"
     class="cls-3" />
  <path
     style="stroke-width:3.416;stroke-miterlimit:4;stroke-dasharray:none"
     id="path34"
     d="m 975.1802,116.10147 29.7775,2.014 -14.44656,30.93942"
     class="cls-3" />
  <path
     style="stroke-width:0.645512"
     id="path36"
     d="m 282.82268,60.051605 v 10.48312 h 9.52776 v 2.96291 h -9.52776 V 98.02712 c 0,4.86071 1.54277,7.35238 5.00917,7.35238 a 11.806427,11.806427 0 0 0 3.62778,-0.47121 l 0.42604,2.75633 a 11.490125,11.490125 0 0 1 -4.5896,0.78752 c -2.50458,0 -4.60897,-0.78106 -5.97744,-2.49812 -1.52342,-1.83325 -2.0721,-4.68643 -2.0721,-8.759625 v -23.69676 h -5.80961 v -2.95 h 5.80961 v -9.2631 z" />
  <path
     style="stroke-width:0.645512"
     id="path38"
     d="m 299.74801,70.534725 8.53367,23.80005 c 0.97473,2.84027 1.80745,5.757985 2.47232,8.191565 h 0.15492 c 0.64551,-2.28512 1.60087,-5.299665 2.58206,-8.352935 l 7.95272,-23.63868 h 3.76978 l -9.34056,25.6785 c -3.93118,11.328745 -6.93281,19.204005 -11.7096,24.013075 a 21.243822,21.243822 0 0 1 -6.22275,4.36366 l -1.35557,-2.99518 a 19.546124,19.546124 0 0 0 6.19046,-4.59604 30.603756,30.603756 0 0 0 5.40295,-8.77897 5.2738386,5.2738386 0 0 0 0.42603,-1.72998 4.0860953,4.0860953 0 0 0 -0.36149,-1.55569 L 295.97822,70.534725 Z" />
  <path
     style="stroke-width:0.645512"
     id="path40"
     d="m 331.87518,82.283055 c 0,-5.20283 -0.15493,-8.67568 -0.30984,-11.74833 h 3.41475 l 0.23883,6.45513 h 0.15493 c 2.58205,-4.81553 6.68752,-7.20392 11.96781,-7.20392 8.30774,0 14.28519,7.20392 14.28519,18.89415 0,13.555775 -7.2362,19.849525 -15.17599,19.849525 a 12.000081,12.000081 0 0 1 -10.85108,-6.22919 h -0.15492 v 20.6564 h -3.56968 z m 3.56968,11.07054 a 15.259919,15.259919 0 0 0 0.27757,2.98228 c 1.47822,6.184015 6.02264,9.140465 10.59932,9.140465 7.74615,0 11.65796,-7.1781 11.65796,-16.673605 0,-8.29483 -3.87308,-16.02162 -11.49012,-16.02162 -4.82843,0 -9.39221,3.99572 -10.63805,9.63105 a 16.576765,16.576765 0 0 0 -0.40668,3.11137 z" />
  <path
     style="stroke-width:0.645512"
     id="path42"
     d="m 371.26437,88.467075 c 0,12.794065 6.08717,16.854335 12.71014,16.854335 4.51859,0 7.0619,-0.9489 8.90808,-1.93654 l 0.89725,2.80153 c -1.53631,0.91663 -5.02208,2.22701 -10.3282,2.22701 -9.92153,0 -15.77633,-7.74615 -15.77633,-18.719865 0,-12.21955 6.25502,-19.93343 15.02108,-19.93343 10.73487,0 12.94899,10.72842 12.94899,16.46057 a 19.617131,19.617131 0 0 1 -0.0774,2.25284 z m 20.65641,-2.87899 c 0.10971,-6.37121 -2.54334,-12.80697 -9.6827,-12.80697 -7.02318,0 -10.19911,7.01027 -10.78652,12.80697 z" />
  <path
     style="stroke-width:0.645512"
     id="path44"
     d="m 554.1962,455.11828 c 0,1.73643 -1.05864,3.10491 -2.95644,3.10491 -1.60087,0 -2.73052,-1.36848 -2.73052,-3.10491 a 2.956448,2.956448 0 0 1 2.84671,-3.11138 c 1.74288,0 2.84025,1.36204 2.84025,3.11138 z m -4.62833,47.47746 v -37.18153 h 3.56969 v 37.18153 z" />
  <path
     style="stroke-width:0.645512"
     id="path46"
     d="m 591.26799,448.01763 v 46.25744 c 0,2.46587 0.14848,6.07428 0.30985,8.32067 h -3.22756 l -0.26466,-6.45514 h -0.23239 c -1.65251,3.69234 -5.51267,7.20393 -11.61923,7.20393 -7.99144,0 -14.32392,-7.04254 -14.32392,-18.84898 -0.0387,-12.6714 6.92635,-19.89469 14.95652,-19.89469 5.2093,0 8.92099,2.6337 10.62514,6.02262 h 0.21948 v -22.60585 z m -3.55677,31.9077 a 16.905977,16.905977 0 0 0 -0.28403,-3.16301 c -1.00054,-4.964 -4.95753,-9.10173 -10.23138,-9.10173 -7.39757,0 -11.57404,7.32657 -11.57404,16.55095 0,8.39166 3.55678,16.13781 11.30938,16.13781 4.36367,0 8.83708,-2.8338 10.46377,-9.30829 a 11.619228,11.619228 0 0 0 0.3163,-2.92418 z" />
  <path
     style="stroke-width:0.645512"
     id="path48"
     d="m 603.55856,483.34009 c 0,12.79406 6.08718,16.8608 12.71014,16.8608 4.51859,0 7.0619,-0.94891 8.91453,-1.93655 l 0.89081,2.80154 c -1.53632,0.91663 -5.01564,2.22701 -10.32821,2.22701 -9.92152,0 -15.78278,-7.74615 -15.78278,-18.71987 0,-12.21956 6.25502,-19.93343 15.02109,-19.93343 10.73488,0 12.95544,10.72841 12.95544,16.46057 a 17.958162,17.958162 0 0 1 -0.0839,2.24639 z m 20.65641,-2.87253 c 0.11619,-6.37122 -2.54334,-12.80697 -9.6827,-12.80697 -7.02317,0 -10.1991,7.00381 -10.79297,12.80697 z" />
  <path
     style="stroke-width:0.645512"
     id="path50"
     d="m 636.62817,474.219 c 0,-3.75689 -0.14847,-5.96454 -0.30985,-8.80479 h 3.31148 l 0.23239,6.07426 h 0.13556 a 12.419664,12.419664 0 0 1 11.42558,-6.85533 c 3.6665,0 11.61922,2.06563 11.61922,14.64667 v 23.31593 h -3.57614 v -22.68978 c 0,-6.32602 -2.10438,-12.20664 -9.03718,-12.20664 -4.57022,0 -8.56595,3.40831 -9.83115,8.32065 a 13.807515,13.807515 0 0 0 -0.40023,3.29212 v 23.28365 h -3.57614 z" />
  <path
     style="stroke-width:0.645512"
     id="path52"
     d="m 678.94799,454.92462 v 10.48959 h 9.52776 v 2.94998 h -9.52776 v 24.52949 c 0,4.86071 1.54277,7.35239 5.00917,7.35239 a 11.574042,11.574042 0 0 0 3.62778,-0.47768 l 0.42604,2.76279 a 11.490125,11.490125 0 0 1 -4.58959,0.7875 c -2.50459,0 -4.60896,-0.78105 -5.971,-2.49811 -1.52987,-1.83325 -2.07855,-4.68642 -2.07855,-8.75959 v -23.69679 h -5.80961 v -2.94998 h 5.80961 v -9.2502 z" />
  <path
     style="stroke-width:0.645512"
     id="path54"
     d="m 700.52102,455.11828 c 0,1.73643 -1.05865,3.10491 -2.9629,3.10491 -1.59442,0 -2.72407,-1.36848 -2.72407,-3.10491 a 2.9499929,2.9499929 0 0 1 2.8467,-3.11138 c 1.7429,0 2.84027,1.36204 2.84027,3.11138 z m -4.63479,47.47746 v -37.18153 h 3.57614 v 37.18153 z" />
  <path
     style="stroke-width:0.645512"
     id="path56"
     d="m 711.43664,502.59574 v -34.21218 h -5.10602 v -2.94999 h 5.10602 v -2.50459 c 0,-8.99844 4.099,-15.67304 13.48476,-15.67304 3.11136,0 6.40348,1.16192 7.86234,2.38194 l -1.56859,2.7757 a 12.45194,12.45194 0 0 0 -6.9199,-2.11083 c -7.3653,0 -9.28248,5.77734 -9.28248,12.91025 v 2.20766 h 19.36538 v 37.18153 h -3.57614 v -34.21218 h -15.81506 v 34.21218 z" />
  <path
     style="stroke-width:0.645512"
     id="path58"
     d="m 746.78491,483.34009 c 0,12.79406 6.08719,16.8608 12.71015,16.8608 4.51858,0 7.0619,-0.94891 8.90807,-1.93655 l 0.89727,2.80154 c -1.53633,0.91663 -5.0221,2.22701 -10.32821,2.22701 -9.92799,0 -15.78279,-7.74615 -15.78279,-18.71987 0,-12.21956 6.25502,-19.93343 15.02109,-19.93343 10.73486,0 12.94898,10.72841 12.94898,16.46057 a 19.442841,19.442841 0 0 1 -0.0774,2.24639 z m 20.65641,-2.87253 c 0.11618,-6.37122 -2.54333,-12.80697 -9.6827,-12.80697 -7.02317,0 -10.19909,7.00381 -10.78652,12.80697 z" />
  <path
     style="stroke-width:0.645512"
     id="path60"
     d="m 779.81579,475.8005 c 0,-3.43413 -0.14847,-7.16518 -0.30985,-10.38629 h 3.34376 l 0.15493,7.10063 h 0.19365 c 1.41368,-4.27329 5.07373,-7.8817 9.80534,-7.8817 a 6.1840114,6.1840116 0 0 1 1.29102,0.12263 v 3.55679 a 8.1980111,8.198011 0 0 0 -1.43304,-0.0774 c -5.00918,0 -8.39167,4.5186 -9.205,10.06355 a 24.46493,24.46493 0 0 0 -0.23885,3.42121 v 20.87588 h -3.57614 z" />
  <path
     style="stroke-width:0.645512"
     id="path62"
     d="m 1027.1698,95.399875 7.8817,23.238455 c 1.1878,3.15011 2.2141,6.35831 3.0404,9.43095 h 0.1936 c 0.8328,-2.96291 1.9817,-6.21629 3.1308,-9.43095 l 7.8945,-23.238455 h 3.7311 l -13.4718,37.181535 h -3.1178 l -13.02,-37.181535 z" />
  <path
     style="stroke-width:0.645512"
     id="path64"
     d="m 1077.7134,132.58141 -0.4712,-4.95754 h -0.1936 a 11.967804,11.967804 0 0 1 -10.3864,5.73861 c -6.6035,0 -10.1216,-4.84781 -10.1216,-10.22492 0,-8.70151 7.3072,-13.55577 20.424,-13.48475 v -1.11029 c 0,-4.47986 -0.8004,-10.896255 -8.5853,-10.857525 a 14.201279,14.201279 0 0 0 -8.1077,2.472315 l -1.0973,-2.640155 a 17.59022,17.59022 0 0 1 9.6827,-2.89835 c 9.0372,0 11.6645,6.519685 11.6645,13.846245 v 15.42776 a 63.7121,63.712102 0 0 0 0.4712,8.6886 z m -0.7488,-19.90116 c -6.5261,-0.16137 -16.6541,0.76171 -16.6541,9.98609 0,5.40938 3.2791,7.67515 6.7326,7.67515 5.2932,0 8.5015,-3.4535 9.6052,-7.33303 a 8.2367418,8.236742 0 0 0 0.3163,-2.27867 z" />
  <path
     style="stroke-width:0.645512"
     id="path66"
     d="m 1091.7017,78.016215 h 3.5696 v 54.578105 h -3.5696 z" />
  <path
     style="stroke-width:0.645512"
     id="path68"
     d="m 1132.9113,123.41513 c 0,3.56968 0.1484,6.45513 0.3099,9.16628 h -3.2793 l -0.271,-5.80962 h -0.1551 a 12.826337,12.826337 0 0 1 -11.206,6.56487 c -5.1641,0 -11.4126,-3.12428 -11.4126,-15.58267 V 95.399875 h 3.5761 v 21.644045 c 0,7.6106 2.0269,13.2072 8.6563,13.2072 5.1641,0 8.5014,-4.00219 9.6828,-7.23621 a 14.904888,14.904888 0 0 0 0.5615,-3.87307 V 95.399875 h 3.5761 z" />
  <path
     style="stroke-width:0.645512"
     id="path70"
     d="m 1145.2276,113.33222 c 0,12.79407 6.0873,16.85434 12.7102,16.85434 4.5186,0 7.0619,-0.9489 8.9082,-1.93653 l 0.8972,2.80152 c -1.5363,0.91662 -5.0221,2.22702 -10.3283,2.22702 -9.9216,0 -15.7827,-7.74616 -15.7827,-18.71987 0,-12.21955 6.255,-19.933435 15.0211,-19.933435 10.7347,0 12.9553,10.728415 12.9553,16.460575 a 18.119541,18.119541 0 0 1 -0.084,2.25285 z m 20.6565,-2.87898 c 0.1162,-6.37121 -2.5433,-12.806975 -9.6827,-12.806975 -7.0167,0 -10.1991,7.010265 -10.7865,12.806975 z" />
</svg>
