<svg id="Livello_1" data-name="Livello 1" xmlns="http://www.w3.org/2000/svg" viewBox="0 0 752.19 1014.65"><defs><style>.cls-1,.cls-2,.cls-3{fill:none;stroke-linecap:round;stroke-linejoin:round;stroke-width:4px;}.cls-1{stroke:#000;}.cls-2{stroke:#d30700;}.cls-3{stroke:#00bd00;}</style></defs><path class="cls-1" d="M565.64,775.69C501,808.37,420,855.8,355.38,888.48c79.31,49.55,129,78.84,208,136.94C634.76,978.27,714,934.15,781.31,884.25c6.35-4.71-181.46-87.36-215.67-108.56" transform="translate(-186.53 -610.76)"/><path class="cls-1" d="M568.45,1268.67c2.88,9.82-1,115.66-1,115.66l-208.14,1.09c-46.87.54-112.09-2-159-1.47-11.55-167.54-14.84-302.49-9.07-496.7,47-5.71,43.77-6,94.49-4.37l64.28,2.55" transform="translate(-186.53 -610.76)"/><path class="cls-1" d="M305.25,912.41a107.45,107.45,0,0,1,47.3-24.29c-13-9.58-25.91-19-41.82-30.66" transform="translate(-186.53 -610.76)"/><path class="cls-1" d="M776.86,883.28c50.68,3,105.87-3.44,156.55-.45,1.1,196.16,2.2,397,3.3,593.2l-371.43,5c1.67,98,2,13.42,2,135.55" transform="translate(-186.53 -610.76)"/><path d="M481.56,908.81a16.84,16.84,0,0,1-6.77,1.26c-7.92,0-13.07-5.28-13.07-13.89,0-8.16,5.26-14.42,14.14-14.42a15.4,15.4,0,0,1,5.84,1.1l-1.13,5.06a10.24,10.24,0,0,0-4.52-.93c-4.85,0-7.63,3.94-7.61,8.94,0,5.59,3.24,8.85,7.63,8.85a11.18,11.18,0,0,0,4.66-.95Z" transform="translate(-186.53 -610.76)"/><path d="M509.45,895.72c0,10.31-6.62,14.4-12.75,14.4-7.12,0-12.47-5.17-12.47-14,0-9.21,5.58-14.35,12.86-14.35S509.45,887.24,509.45,895.72Zm-18.47.21c0,5.05,2.07,9.3,5.94,9.3,3.65,0,5.78-4.29,5.78-9.36,0-4.19-1.53-9.25-5.79-9.25S491,891.57,491,895.93Z" transform="translate(-186.53 -610.76)"/><path d="M514.78,890.27c0-3.13-.11-5.6-.22-8h5.77l.33,3.83h.14a9.16,9.16,0,0,1,8-4.39c4.69,0,8.87,3.2,8.87,11.13v16.69h-6.62V893.6c0-3.56-1.18-6.44-4.6-6.44a5.06,5.06,0,0,0-4.75,3.83,7.52,7.52,0,0,0-.31,2.28v16.28h-6.63Z" transform="translate(-186.53 -610.76)"/><path d="M567.53,870.1V902c0,2.63.11,5.64.22,7.56h-5.83l-.32-4h-.14a8.74,8.74,0,0,1-7.9,4.56c-6.14,0-10.64-5.62-10.64-14,0-9.27,5.2-14.44,11.11-14.44,3.29,0,5.67,1.4,6.78,3.37h.11v-15Zm-6.61,23.27a9.55,9.55,0,0,0-.13-1.76,5.39,5.39,0,0,0-5.12-4.63c-4,0-6.07,4-6.07,9s2.18,8.77,6,8.77c2.31,0,4.43-1.53,5.14-4.45a7.31,7.31,0,0,0,.21-1.94Z" transform="translate(-186.53 -610.76)"/><path d="M581.38,874.81a3.52,3.52,0,0,1-3.75,3.63,3.47,3.47,0,0,1-3.57-3.63,3.66,3.66,0,0,1,7.32,0Zm-7,34.74V882.29H581v27.26Z" transform="translate(-186.53 -610.76)"/><path d="M595.58,874.63v7.66h6.18v4.9h-6.18v12.66c0,3.34,1,4.78,3.31,4.78a10.15,10.15,0,0,0,2.43-.26l.13,5.06a14.8,14.8,0,0,1-4.69.64,7.51,7.51,0,0,1-5.59-2.09c-1.43-1.49-2.11-3.84-2.11-7.56V887.19h-3.7v-4.9h3.7v-6Z" transform="translate(-186.53 -610.76)"/><path d="M613.41,874.81a3.52,3.52,0,0,1-3.74,3.63,3.48,3.48,0,0,1-3.58-3.63,3.66,3.66,0,0,1,7.32,0Zm-7,34.74V882.29h6.63v27.26Z" transform="translate(-186.53 -610.76)"/><path d="M643.62,895.72c0,10.31-6.62,14.4-12.74,14.4-7.12,0-12.47-5.17-12.47-14,0-9.21,5.57-14.35,12.85-14.35S643.62,887.24,643.62,895.72Zm-18.46.21c0,5.05,2.06,9.3,5.93,9.3,3.66,0,5.78-4.29,5.78-9.36,0-4.19-1.53-9.25-5.78-9.25S625.16,891.57,625.16,895.93Z" transform="translate(-186.53 -610.76)"/><path d="M649,890.27c0-3.13-.11-5.6-.23-8h5.77l.33,3.83H655a9.13,9.13,0,0,1,8-4.39c4.69,0,8.88,3.2,8.88,11.13v16.69h-6.63V893.6c0-3.56-1.18-6.44-4.59-6.44a5.07,5.07,0,0,0-4.76,3.83,7.52,7.52,0,0,0-.31,2.28v16.28H649Z" transform="translate(-186.53 -610.76)"/><path d="M445.57,1220.53a13.49,13.49,0,0,0,6.28,1.82c2.76,0,4.1-1.23,4.1-3.08s-1-2.8-4.13-4.11c-4.95-2-6.95-4.82-6.93-7.91,0-4.77,3.81-8.42,9.74-8.42a14.15,14.15,0,0,1,6.63,1.54l-1.32,4.71a10.69,10.69,0,0,0-5.16-1.45c-2.33,0-3.6,1.26-3.6,2.88s1.12,2.49,4.32,3.87c4.56,1.88,6.74,4.45,6.76,8.29,0,5.14-3.87,8.5-10.45,8.5a15.49,15.49,0,0,1-7.57-1.81Z" transform="translate(-186.53 -610.76)"/><path d="M475.16,1191.74v7.65h6.18v4.9h-6.18V1217c0,3.34,1,4.78,3.31,4.78a10.15,10.15,0,0,0,2.43-.26l.13,5.07a15.08,15.08,0,0,1-4.68.63,7.55,7.55,0,0,1-5.6-2.08c-1.43-1.5-2.11-3.85-2.11-7.57v-13.23h-3.7v-4.9h3.7v-6.05Z" transform="translate(-186.53 -610.76)"/><path d="M500.25,1226.66l-.44-3h-.16a8.91,8.91,0,0,1-7.35,3.52,7.8,7.8,0,0,1-8.08-8.09c0-6.92,6.07-10.25,14.95-10.23v-.54c0-2.1-.83-4.79-5.1-4.77a12.93,12.93,0,0,0-6.65,1.87l-1.3-4.35a18.33,18.33,0,0,1,9.17-2.28c8.23,0,10.52,5.3,10.52,11.23v10.14a41,41,0,0,0,.4,6.46Zm-.9-13.44c-4.11,0-8.63.87-8.63,5.2,0,2.79,1.72,4,3.64,4a5,5,0,0,0,4.81-3.58,5.17,5.17,0,0,0,.18-1.46Z" transform="translate(-186.53 -610.76)"/><path d="M519.85,1191.74v7.65H526v4.9h-6.18V1217c0,3.34,1,4.78,3.31,4.78a10,10,0,0,0,2.42-.26l.14,5.07a15.15,15.15,0,0,1-4.69.63,7.55,7.55,0,0,1-5.59-2.08c-1.43-1.5-2.11-3.85-2.11-7.57v-13.23h-3.7v-4.9h3.7v-6.05Z" transform="translate(-186.53 -610.76)"/><path d="M535.21,1214.84c.15,5.29,3.67,7.3,7.71,7.3a18.31,18.31,0,0,0,6.74-1.18l1,4.61a22.36,22.36,0,0,1-8.72,1.6c-8.3,0-13.06-5.36-13.06-13.74,0-8,4.49-14.6,12.37-14.6s10.81,6.65,10.81,13a16.55,16.55,0,0,1-.22,3Zm10.62-4.64c0-3.08-1.17-6.74-5-6.74s-5.33,3.83-5.58,6.74Z" transform="translate(-186.53 -610.76)"/><path d="M557.21,1207.37c0-3.12-.11-5.6-.22-8h5.68l.31,3.78h.15a8.79,8.79,0,0,1,7.78-4.34,7.2,7.2,0,0,1,7,4.7h.11a10.47,10.47,0,0,1,3.16-3.28,8.72,8.72,0,0,1,5-1.42c4.46,0,8.42,3.16,8.42,11.3v16.53h-6.49v-15.51c0-4.17-1.23-6.92-4.33-6.92a4.7,4.7,0,0,0-4.35,3.5,8.35,8.35,0,0,0-.3,2.26v16.67h-6.49v-16.27c0-3.42-1.18-6.16-4.21-6.16A4.9,4.9,0,0,0,564,1208a7.7,7.7,0,0,0-.31,2.25v16.45h-6.49Z" transform="translate(-186.53 -610.76)"/><path d="M606.27,1214.84c.15,5.29,3.67,7.3,7.72,7.3a18.3,18.3,0,0,0,6.73-1.18l1,4.61a22.32,22.32,0,0,1-8.72,1.6c-8.3,0-13.06-5.36-13.06-13.74,0-8,4.49-14.6,12.38-14.6s10.81,6.65,10.81,13a16.55,16.55,0,0,1-.22,3Zm10.62-4.64c0-3.08-1.16-6.74-5-6.74s-5.34,3.83-5.59,6.74Z" transform="translate(-186.53 -610.76)"/><path d="M628.27,1207.37c0-3.12-.11-5.6-.22-8h5.77l.33,3.83h.14a9.18,9.18,0,0,1,8-4.39c4.69,0,8.87,3.2,8.87,11.13v16.7h-6.62v-16c0-3.55-1.18-6.44-4.6-6.44a5.06,5.06,0,0,0-4.75,3.84,7.41,7.41,0,0,0-.31,2.27v16.29h-6.63Z" transform="translate(-186.53 -610.76)"/><path d="M665.34,1191.74v7.65h6.17v4.9h-6.17V1217c0,3.34,1,4.78,3.3,4.78a10,10,0,0,0,2.43-.26l.14,5.07a15.15,15.15,0,0,1-4.69.63,7.55,7.55,0,0,1-5.59-2.08c-1.44-1.5-2.11-3.85-2.11-7.57v-13.23h-3.71v-4.9h3.71v-6.05Z" transform="translate(-186.53 -610.76)"/><path d="M675.84,1220.53a13.49,13.49,0,0,0,6.28,1.82c2.76,0,4.1-1.23,4.1-3.08s-1-2.8-4.13-4.11c-5-2-7-4.82-6.93-7.91,0-4.77,3.81-8.42,9.74-8.42a14.15,14.15,0,0,1,6.63,1.54l-1.32,4.71a10.69,10.69,0,0,0-5.16-1.45c-2.33,0-3.59,1.26-3.59,2.88s1.11,2.49,4.31,3.87c4.56,1.88,6.74,4.45,6.76,8.29,0,5.14-3.87,8.5-10.45,8.5a15.49,15.49,0,0,1-7.57-1.81Z" transform="translate(-186.53 -610.76)"/><path class="cls-1" d="M547.19,1589.55l19,33.86,25.44-36" transform="translate(-186.53 -610.76)"/><path class="cls-2" d="M804.2,792.78c-23.23,28.78-29.12,33.28-52.2,48.9" transform="translate(-186.53 -610.76)"/><path class="cls-2" d="M751,796.4c23.6,15.17,40.27,26.32,60.94,45.28" transform="translate(-186.53 -610.76)"/><path class="cls-3" d="M583.43,1044.54l23.64,40a211.35,211.35,0,0,1,38.07-63.27" transform="translate(-186.53 -610.76)"/><path class="cls-1" d="M565.08,612.76a1555.49,1555.49,0,0,0,.74,161.31l.47-6.4" transform="translate(-186.53 -610.76)"/><path class="cls-1" d="M546.53,739.68c2.93,12.4,10,24.32,20.43,34.6l21.37-31.22" transform="translate(-186.53 -610.76)"/><path class="cls-1" d="M351.7,1150.66c-7.32-.41.92,82.42-1.8,112.74l423.31,5.67c2.56-36.33,3.25-75.76,4.89-112.14C688.1,1160,423.34,1154.66,351.7,1150.66Z" transform="translate(-186.53 -610.76)"/><path class="cls-1" d="M562.5,1025.42a835.11,835.11,0,0,0,.73,118.16l.47-4.69" transform="translate(-186.53 -610.76)"/><path class="cls-1" d="M581.43,1115.2a75.58,75.58,0,0,1-17.68,34.59l-18.5-31.22" transform="translate(-186.53 -610.76)"/></svg>