<svg id="Livello_1" data-name="Livello 1" xmlns="http://www.w3.org/2000/svg" viewBox="0 0 959.84 1300.36"><defs><style>.cls-1,.cls-2{fill:none;stroke:#000;stroke-linecap:round;stroke-linejoin:round;}.cls-1{stroke-width:4px;}.cls-2{stroke-width:5px;}</style></defs><path class="cls-1" d="M380.63,334.55q-3.83,93.29.74,186.64l.46-7.4" transform="translate(-64.58 -332.55)"/><path class="cls-1" d="M362.07,489.81c2.93,12.39,10,24.31,20.43,34.59l21.37-31.22" transform="translate(-64.58 -332.55)"/><path class="cls-1" d="M616.73,523.19c8.09-.41-1,84.42,2,114.74L150.36,643.6c-2.83-36.33-3.6-72.76-5.4-109.14,109.53,1.68,118,1.86,203.55-1.09C427.82,530.64,537.47,527.2,616.73,523.19Z" transform="translate(-64.58 -332.55)"/><path class="cls-2" d="M983.49,484.81c3.58,73.18,5.14,112.91,2.6,186.16,0,0-156.75-.69-235.57.29,4.56-65.66.31-188.66.31-188.66C813.21,482.6,983.62,487.56,983.49,484.81Z" transform="translate(-64.58 -332.55)"/><path class="cls-1" d="M377,643.6q-3.82,93.27.74,186.63l.46-7.4" transform="translate(-64.58 -332.55)"/><path class="cls-1" d="M395.89,799.85a75.64,75.64,0,0,1-17.69,34.6l-18.5-31.23" transform="translate(-64.58 -332.55)"/><path class="cls-1" d="M144.73,834.23c-8.1-.41,1,82.42-2,112.74l468.36,5.67c2.83-36.33,3.6-75.75,5.41-112.13C516.92,843.55,224,838.24,144.73,834.23Z" transform="translate(-64.58 -332.55)"/><path class="cls-1" d="M373.27,952.64q-3.82,279.87.74,560,.23-11.12.47-22.22" transform="translate(-64.58 -332.55)"/><path class="cls-1" d="M354.72,1481.26c2.92,12.4,10,24.32,20.43,34.6l21.37-31.22" transform="translate(-64.58 -332.55)"/><path class="cls-1" d="M609.91,1514.8c8.1-.33-1.78,84.41,1,114.75l-468.4,1.36c-2.5-36.35-2.93-72.78-4.4-109.17,99.54,4,134.73,3.62,203.55.78C420.9,1519.24,530.62,1518.08,609.91,1514.8Z" transform="translate(-64.58 -332.55)"/><path class="cls-1" d="M1017.43,987.25c4.64,73.19,6.67,112.92,3.37,186.17,0,0-203.18-.69-305.37.28,5.92-65.65.4-188.65.4-188.65C796.7,985.05,1017.61,990,1017.43,987.25Z" transform="translate(-64.58 -332.55)"/><path class="cls-1" d="M1017.43,1208.24c4.64,101.08,6.67,156,3.37,257.12,0,0-203.18-.95-305.37.4,5.92-90.68.4-260.56.4-260.56C796.7,1205.2,1017.61,1212.05,1017.43,1208.24Z" transform="translate(-64.58 -332.55)"/><path d="M268.05,597.93a18,18,0,0,0,8.58,2.25c4.41,0,6.86-2.2,6.86-5.45,0-3.07-2-4.85-6.5-6.8-5.92-2.48-9.78-6.14-9.78-11.41,0-6.43,5.08-11.33,13.35-11.33A18.55,18.55,0,0,1,289,567l-1.57,5.73a14.59,14.59,0,0,0-7-1.73c-4.3,0-6.18,2.45-6.18,4.8,0,3.06,2.08,4.49,7,6.69,6.36,2.83,9.28,6.41,9.28,11.69,0,6.62-4.91,11.87-14.22,11.87a20.68,20.68,0,0,1-9.69-2.27Z" transform="translate(-64.58 -332.55)"/><path d="M321.57,590.92c0,10.86-7,15.17-13.43,15.17-7.5,0-13.14-5.44-13.14-14.79,0-9.71,5.88-15.13,13.55-15.13S321.57,582,321.57,590.92Zm-19.45.22c0,5.32,2.17,9.8,6.25,9.8,3.85,0,6.09-4.52,6.09-9.86,0-4.41-1.61-9.75-6.1-9.75S302.12,586.54,302.12,591.14Z" transform="translate(-64.58 -332.55)"/><path d="M351,597c0,3.32.12,6.16.23,8.53h-6.08l-.35-4h-.16a9.62,9.62,0,0,1-8.36,4.54c-5.25,0-9.21-3.39-9.21-12.2V576.77h7v16c0,4.56,1.28,7.56,4.75,7.56a5.27,5.27,0,0,0,4.85-3.56,6.71,6.71,0,0,0,.38-2.32V576.77h7Z" transform="translate(-64.58 -332.55)"/><path d="M358.21,585.66c0-3.49-.1-6.37-.24-8.89H364l.28,5.12h.2c1.33-3.7,4.38-5.72,7.26-5.72a6.32,6.32,0,0,1,1.59.15V583a9.32,9.32,0,0,0-1.89-.16c-3.08,0-5.42,2.09-6.07,5.32a11.82,11.82,0,0,0-.21,2.36v15h-7Z" transform="translate(-64.58 -332.55)"/><path d="M396.5,604.71a17.78,17.78,0,0,1-7.13,1.33c-8.35,0-13.77-5.56-13.77-14.64,0-8.6,5.54-15.19,14.9-15.19a16.29,16.29,0,0,1,6.15,1.16l-1.19,5.33a10.85,10.85,0,0,0-4.76-1c-5.11,0-8,4.15-8,9.42,0,5.89,3.42,9.33,8,9.33a12,12,0,0,0,4.92-1Z" transform="translate(-64.58 -332.55)"/><path d="M406,593.05c.16,5.57,3.87,7.68,8.13,7.68a19.26,19.26,0,0,0,7.1-1.23l1,4.86a23.75,23.75,0,0,1-9.19,1.68c-8.75,0-13.76-5.65-13.76-14.48,0-8.4,4.73-15.39,13-15.39s11.39,7,11.39,13.73a18.25,18.25,0,0,1-.23,3.15Zm11.19-4.89c0-3.25-1.23-7.11-5.3-7.11s-5.63,4-5.89,7.11Z" transform="translate(-64.58 -332.55)"/><path d="M441.44,605.5V581.93h-3.85v-5.16h3.85V575.3c0-6.73,4.49-12,13.25-12a16,16,0,0,1,7.43,1.67l-1.43,5.32a12.82,12.82,0,0,0-5.95-1.39c-4.86,0-6.36,3-6.36,6.66v1.19h16.09V605.5h-7V581.93h-9.08V605.5Z" transform="translate(-64.58 -332.55)"/><path d="M471.68,563.92h7V605.5h-7Z" transform="translate(-64.58 -332.55)"/><path d="M491.1,593.05c.15,5.57,3.87,7.68,8.13,7.68a19.2,19.2,0,0,0,7.09-1.23l1,4.86a23.69,23.69,0,0,1-9.18,1.68c-8.75,0-13.77-5.65-13.77-14.48,0-8.4,4.74-15.39,13-15.39s11.39,7,11.39,13.73a17.28,17.28,0,0,1-.23,3.15Zm11.18-4.89c0-3.25-1.22-7.11-5.3-7.11s-5.62,4-5.88,7.11Z" transform="translate(-64.58 -332.55)"/><path d="M289.71,893.38c0,13.81-7.22,20.91-17,20.91-10.24,0-16.4-8.53-16.4-20.29,0-12.12,6.75-20.67,17-20.67C283.92,873.33,289.71,882.2,289.71,893.38Zm-26.07.54c0,8.27,3.36,14.65,9.43,14.65s9.3-6.72,9.3-14.92c0-7.42-3-14.61-9.31-14.61S263.64,885.7,263.64,893.92Z" transform="translate(-64.58 -332.55)"/><path d="M295.18,913.69c.11-2,.23-5.2.23-8V872.12h7v16.56h.12a9.14,9.14,0,0,1,8.23-4.31c6.43,0,10.82,5.8,10.78,14.47,0,10.3-5.81,15.45-11.85,15.45a8.64,8.64,0,0,1-8-4.69h-.14l-.34,4.09Zm7.19-11.38a7.09,7.09,0,0,0,.21,1.74c.78,3,3,4.66,5.5,4.66,4.1,0,6.38-3.73,6.38-9.53,0-5.13-2.08-9.26-6.35-9.26a6,6,0,0,0-5.5,4.85,7.84,7.84,0,0,0-.24,1.87Z" transform="translate(-64.58 -332.55)"/><path d="M321.15,920.39c2.05-.2,3.85-.73,5-2,1.27-1.43,1.72-3.66,1.72-9.49V885h7V910.8c0,6-1.15,9.52-3.66,11.93-2.33,2.17-6.09,3.11-9.32,3.14Zm14-43.31a3.86,3.86,0,1,1-3.83-3.84A3.7,3.7,0,0,1,335.16,877.08Z" transform="translate(-64.58 -332.55)"/><path d="M347,901.25c.15,5.57,3.86,7.68,8.13,7.68a19.23,19.23,0,0,0,7.09-1.24l1,4.86a23.55,23.55,0,0,1-9.18,1.68c-8.75,0-13.77-5.64-13.77-14.47,0-8.4,4.73-15.39,13-15.39s11.39,7,11.39,13.73a17.36,17.36,0,0,1-.23,3.15Zm11.18-4.89c0-3.25-1.22-7.11-5.3-7.11s-5.62,4-5.89,7.11Z" transform="translate(-64.58 -332.55)"/><path d="M389.45,912.91a17.77,17.77,0,0,1-7.13,1.32c-8.35,0-13.77-5.55-13.77-14.63,0-8.6,5.54-15.2,14.9-15.2a16.23,16.23,0,0,1,6.15,1.17l-1.19,5.32a11,11,0,0,0-4.76-1c-5.11,0-8,4.15-8,9.42,0,5.89,3.42,9.32,8,9.32a11.93,11.93,0,0,0,4.91-1Z" transform="translate(-64.58 -332.55)"/><path d="M403.27,876.9V885h6.5v5.16h-6.5v13.34c0,3.51,1.06,5,3.48,5a10.58,10.58,0,0,0,2.56-.27l.14,5.34a15.91,15.91,0,0,1-4.94.66,7.91,7.91,0,0,1-5.89-2.19c-1.51-1.58-2.23-4-2.23-8V890.13h-3.9V885h3.9v-6.38Z" transform="translate(-64.58 -332.55)"/><path d="M427,913.69V890.13h-3.85V885H427V883.5c0-6.73,4.49-12,13.25-12a16,16,0,0,1,7.43,1.67l-1.43,5.32a12.81,12.81,0,0,0-5.95-1.4c-4.86,0-6.36,3-6.36,6.66V885H450v28.72h-7V890.13h-9.08v23.56Z" transform="translate(-64.58 -332.55)"/><path d="M457.2,872.12h7v41.57h-7Z" transform="translate(-64.58 -332.55)"/><path d="M476.62,901.25c.15,5.57,3.87,7.68,8.13,7.68a19.23,19.23,0,0,0,7.09-1.24l1,4.86a23.55,23.55,0,0,1-9.18,1.68c-8.75,0-13.77-5.64-13.77-14.47,0-8.4,4.73-15.39,13-15.39s11.39,7,11.39,13.73a17.36,17.36,0,0,1-.23,3.15Zm11.18-4.89c0-3.25-1.22-7.11-5.3-7.11s-5.62,4-5.88,7.11Z" transform="translate(-64.58 -332.55)"/><path d="M228,1579.68H214.64v12h15v5.82H207.66v-39.77h21.11v5.83H214.64V1574H228Z" transform="translate(-64.58 -332.55)"/><path d="M240,1568.74l3,5.46c.86,1.58,1.59,3.09,2.32,4.59h.14c.73-1.61,1.47-3.15,2.24-4.66l2.86-5.39H258l-8.72,13.89,8.85,14.83h-7.81l-3.14-5.79c-.84-1.51-1.56-3-2.31-4.64h-.14c-.72,1.62-1.48,3.1-2.27,4.66l-3,5.77H232l8.94-14.55-8.67-14.17Z" transform="translate(-64.58 -332.55)"/><path d="M266.21,1585c.15,5.56,3.87,7.68,8.13,7.68a19.23,19.23,0,0,0,7.09-1.24l1,4.86a23.51,23.51,0,0,1-9.18,1.68c-8.75,0-13.77-5.64-13.77-14.47,0-8.4,4.73-15.39,13-15.39s11.39,7,11.39,13.73a17.36,17.36,0,0,1-.23,3.15Zm11.18-4.89c0-3.25-1.22-7.11-5.3-7.11s-5.62,4-5.88,7.11Z" transform="translate(-64.58 -332.55)"/><path d="M308.66,1596.68a17.75,17.75,0,0,1-7.12,1.32c-8.36,0-13.78-5.55-13.78-14.63,0-8.6,5.54-15.2,14.9-15.2a16.23,16.23,0,0,1,6.15,1.17l-1.19,5.32a11,11,0,0,0-4.76-1c-5.11,0-8,4.15-8,9.42,0,5.89,3.42,9.32,8,9.32a11.93,11.93,0,0,0,4.91-1Z" transform="translate(-64.58 -332.55)"/><path d="M337.48,1588.94c0,3.32.12,6.16.24,8.52h-6.08l-.36-3.94h-.15a9.65,9.65,0,0,1-8.37,4.54c-5.24,0-9.21-3.39-9.21-12.21v-17.11h7v16c0,4.57,1.28,7.57,4.74,7.57a5.25,5.25,0,0,0,4.85-3.56,6.71,6.71,0,0,0,.38-2.32v-17.72h7Z" transform="translate(-64.58 -332.55)"/><path d="M352.8,1560.67v8.07h6.51v5.16H352.8v13.34c0,3.51,1.07,5,3.48,5a10.46,10.46,0,0,0,2.56-.27l.14,5.34a15.79,15.79,0,0,1-4.93.66,8,8,0,0,1-5.9-2.19c-1.51-1.58-2.22-4-2.22-8V1573.9H342v-5.16h3.9v-6.38Z" transform="translate(-64.58 -332.55)"/><path d="M379.23,1597.46l-.46-3.11h-.16a9.41,9.41,0,0,1-7.76,3.71,8.22,8.22,0,0,1-8.5-8.53c0-7.29,6.39-10.79,15.75-10.78v-.56c0-2.22-.88-5-5.37-5a13.66,13.66,0,0,0-7,2l-1.37-4.59a19.4,19.4,0,0,1,9.67-2.4c8.67,0,11.08,5.59,11.08,11.83v10.69a43.79,43.79,0,0,0,.42,6.8Zm-1-14.16c-4.32,0-9.09.92-9.09,5.49,0,2.94,1.81,4.22,3.84,4.22a5.23,5.23,0,0,0,5.06-3.77,5.4,5.4,0,0,0,.19-1.55Z" transform="translate(-64.58 -332.55)"/><path d="M392,1597.46c.12-2,.24-5.2.24-8v-33.61h7v16.56h.12a9.13,9.13,0,0,1,8.22-4.31c6.44,0,10.83,5.8,10.79,14.47,0,10.29-5.82,15.45-11.85,15.45a8.63,8.63,0,0,1-8-4.69h-.14l-.34,4.09Zm7.2-11.38a7.11,7.11,0,0,0,.2,1.74c.79,3,3,4.66,5.5,4.66,4.11,0,6.39-3.73,6.39-9.53,0-5.13-2.08-9.26-6.35-9.26a6,6,0,0,0-5.51,4.85,8.4,8.4,0,0,0-.23,1.87Z" transform="translate(-64.58 -332.55)"/><path d="M423.9,1555.89h7v41.57h-7Z" transform="translate(-64.58 -332.55)"/><path d="M443.32,1585c.16,5.56,3.87,7.68,8.13,7.68a19.24,19.24,0,0,0,7.1-1.24l1,4.86a23.56,23.56,0,0,1-9.19,1.68c-8.75,0-13.76-5.64-13.76-14.47,0-8.4,4.73-15.39,13-15.39s11.39,7,11.39,13.73a18.34,18.34,0,0,1-.23,3.15Zm11.19-4.89c0-3.25-1.23-7.11-5.3-7.11s-5.63,4-5.89,7.11Z" transform="translate(-64.58 -332.55)"/><path d="M478.74,1597.46V1573.9h-3.85v-5.16h3.85v-1.47c0-6.73,4.49-12,13.25-12a16,16,0,0,1,7.43,1.67l-1.43,5.32a12.81,12.81,0,0,0-5.95-1.4c-4.86,0-6.36,3-6.36,6.66v1.2h16.09v28.72h-7V1573.9h-9.08v23.56Z" transform="translate(-64.58 -332.55)"/><path d="M509,1555.89h7v41.57h-7Z" transform="translate(-64.58 -332.55)"/><path d="M528.4,1585c.15,5.56,3.87,7.68,8.13,7.68a19.19,19.19,0,0,0,7.09-1.24l1,4.86a23.51,23.51,0,0,1-9.18,1.68c-8.75,0-13.77-5.64-13.77-14.47,0-8.4,4.74-15.39,13-15.39s11.39,7,11.39,13.73a17.36,17.36,0,0,1-.23,3.15Zm11.18-4.89c0-3.25-1.22-7.11-5.3-7.11s-5.62,4-5.88,7.11Z" transform="translate(-64.58 -332.55)"/><path d="M788.63,523.55v16.07h14.6V523.55h7v39.77h-7V545.78h-14.6v17.54h-7V523.55Z" transform="translate(-64.58 -332.55)"/><path d="M822.68,550.87c.15,5.57,3.87,7.68,8.13,7.68a19.2,19.2,0,0,0,7.09-1.23l1,4.86a23.69,23.69,0,0,1-9.18,1.68c-8.75,0-13.77-5.65-13.77-14.48,0-8.4,4.74-15.38,13-15.38s11.39,7,11.39,13.72a17.28,17.28,0,0,1-.23,3.15ZM833.87,546c0-3.25-1.23-7.11-5.31-7.11s-5.62,4-5.88,7.11Z" transform="translate(-64.58 -332.55)"/><path d="M860.83,563.32l-.46-3.12h-.16a9.39,9.39,0,0,1-7.75,3.71,8.22,8.22,0,0,1-8.51-8.53c0-7.28,6.39-10.79,15.75-10.78V544c0-2.22-.88-5-5.37-5a13.56,13.56,0,0,0-7,2l-1.37-4.59a19.4,19.4,0,0,1,9.67-2.4c8.67,0,11.08,5.58,11.08,11.83v10.68a44,44,0,0,0,.42,6.81Zm-1-14.17c-4.32,0-9.08.93-9.08,5.49,0,2.94,1.81,4.22,3.83,4.22a5.24,5.24,0,0,0,5.07-3.77,5.74,5.74,0,0,0,.18-1.54Z" transform="translate(-64.58 -332.55)"/><path d="M898.13,521.74v33.61c0,2.77.12,5.94.24,8h-6.15l-.34-4.21h-.14a9.21,9.21,0,0,1-8.33,4.8c-6.47,0-11.21-5.92-11.21-14.7,0-9.76,5.48-15.21,11.71-15.21,3.46,0,6,1.47,7.14,3.55h.12V521.74Zm-7,24.52a10.55,10.55,0,0,0-.14-1.85,5.69,5.69,0,0,0-5.4-4.88c-4.23,0-6.39,4.25-6.39,9.52,0,5.42,2.29,9.23,6.28,9.23,2.44,0,4.68-1.6,5.43-4.68a8,8,0,0,0,.22-2Z" transform="translate(-64.58 -332.55)"/><path d="M910.47,550.87c.15,5.57,3.87,7.68,8.13,7.68a19.2,19.2,0,0,0,7.09-1.23l1,4.86a23.69,23.69,0,0,1-9.18,1.68c-8.75,0-13.77-5.65-13.77-14.48,0-8.4,4.74-15.38,13-15.38s11.39,7,11.39,13.72a17.28,17.28,0,0,1-.23,3.15ZM921.66,546c0-3.25-1.23-7.11-5.31-7.11s-5.62,4-5.88,7.11Z" transform="translate(-64.58 -332.55)"/><path d="M933.64,543.48c0-3.49-.1-6.36-.24-8.89h6.06l.28,5.12h.2c1.32-3.7,4.38-5.71,7.25-5.71a6.44,6.44,0,0,1,1.6.14v6.67a9.35,9.35,0,0,0-1.9-.16c-3.07,0-5.41,2.09-6.07,5.33a12.45,12.45,0,0,0-.21,2.36v15h-7Z" transform="translate(-64.58 -332.55)"/><path d="M782.22,634.12V610.55h-3.85v-5.16h3.85v-1.47c0-6.73,4.49-12,13.26-12a16,16,0,0,1,7.43,1.66l-1.44,5.32a12.91,12.91,0,0,0-6-1.39c-4.86,0-6.35,3-6.35,6.66v1.19h16.09v28.73h-7V610.55H789.2v23.57Z" transform="translate(-64.58 -332.55)"/><path d="M812.46,592.54h7v41.58h-7Z" transform="translate(-64.58 -332.55)"/><path d="M831.88,621.67c.16,5.57,3.87,7.68,8.13,7.68a19.26,19.26,0,0,0,7.1-1.23l1,4.86a23.75,23.75,0,0,1-9.19,1.68c-8.75,0-13.76-5.65-13.76-14.48,0-8.4,4.73-15.38,13-15.38s11.39,7,11.39,13.72a18.25,18.25,0,0,1-.23,3.15Zm11.19-4.89c0-3.25-1.23-7.11-5.3-7.11s-5.63,4-5.89,7.11Z" transform="translate(-64.58 -332.55)"/><path d="M748.57,1057.21a18.2,18.2,0,0,0,8.58,2.25c4.41,0,6.86-2.21,6.86-5.46,0-3.07-2-4.85-6.5-6.8-5.91-2.48-9.78-6.13-9.78-11.41,0-6.43,5.08-11.33,13.35-11.33a18.4,18.4,0,0,1,8.45,1.81L768,1032a14.59,14.59,0,0,0-7-1.73c-4.3,0-6.18,2.45-6.18,4.8,0,3.06,2.08,4.49,7,6.69,6.36,2.83,9.28,6.41,9.28,11.7,0,6.61-4.91,11.86-14.22,11.86a20.68,20.68,0,0,1-9.69-2.27Z" transform="translate(-64.58 -332.55)"/><path d="M784.64,1028V1036h6.5v5.16h-6.5v13.34c0,3.52,1.06,5,3.48,5a10.5,10.5,0,0,0,2.56-.28l.14,5.34a15.56,15.56,0,0,1-4.94.67,8,8,0,0,1-5.89-2.19c-1.51-1.58-2.23-4.06-2.23-8v-14h-3.9V1036h3.9v-6.38Z" transform="translate(-64.58 -332.55)"/><path d="M811.06,1064.77l-.45-3.12h-.17a9.39,9.39,0,0,1-7.75,3.71,8.22,8.22,0,0,1-8.51-8.53c0-7.28,6.39-10.79,15.75-10.78v-.56c0-2.22-.87-5-5.37-5a13.5,13.5,0,0,0-7,2l-1.37-4.59a19.34,19.34,0,0,1,9.67-2.4c8.66,0,11.07,5.58,11.07,11.83V1058a42.61,42.61,0,0,0,.43,6.81Zm-.94-14.17c-4.33,0-9.09.93-9.09,5.49,0,2.94,1.81,4.22,3.83,4.22a5.24,5.24,0,0,0,5.07-3.77,5.75,5.75,0,0,0,.19-1.54Z" transform="translate(-64.58 -332.55)"/><path d="M824.05,1044.45c0-3.3-.11-5.9-.23-8.41h6.08l.35,4h.15a9.65,9.65,0,0,1,8.44-4.63c4.95,0,9.35,3.37,9.35,11.73v17.59h-7V1048c0-3.75-1.25-6.79-4.85-6.79a5.34,5.34,0,0,0-5,4,7.9,7.9,0,0,0-.33,2.4v17.16h-7Z" transform="translate(-64.58 -332.55)"/><path d="M879.63,1023.19v33.61c0,2.77.12,5.94.24,8h-6.15l-.34-4.21h-.14a9.21,9.21,0,0,1-8.33,4.8c-6.47,0-11.21-5.92-11.21-14.7,0-9.76,5.48-15.21,11.71-15.21,3.46,0,6,1.47,7.14,3.55h.12v-15.81Zm-7,24.52a10.55,10.55,0,0,0-.14-1.85,5.68,5.68,0,0,0-5.4-4.88c-4.23,0-6.39,4.25-6.39,9.52,0,5.42,2.29,9.23,6.29,9.23,2.43,0,4.67-1.6,5.42-4.68a8,8,0,0,0,.22-2Z" transform="translate(-64.58 -332.55)"/><path d="M901.86,1064.77l-.45-3.12h-.17a9.39,9.39,0,0,1-7.75,3.71,8.22,8.22,0,0,1-8.51-8.53c0-7.28,6.39-10.79,15.75-10.78v-.56c0-2.22-.87-5-5.37-5a13.5,13.5,0,0,0-7,2l-1.37-4.59a19.34,19.34,0,0,1,9.67-2.4c8.66,0,11.07,5.58,11.07,11.83V1058a42.61,42.61,0,0,0,.43,6.81Zm-.94-14.17c-4.33,0-9.09.93-9.09,5.49,0,2.94,1.81,4.22,3.83,4.22a5.24,5.24,0,0,0,5.07-3.77,5.75,5.75,0,0,0,.19-1.54Z" transform="translate(-64.58 -332.55)"/><path d="M914.84,1044.94c0-3.5-.1-6.37-.23-8.9h6l.29,5.12h.2c1.32-3.7,4.38-5.71,7.25-5.71a6.86,6.86,0,0,1,1.59.14v6.68a8.53,8.53,0,0,0-1.89-.17c-3.08,0-5.41,2.09-6.07,5.33a12.45,12.45,0,0,0-.21,2.36v15h-7Z" transform="translate(-64.58 -332.55)"/><path d="M958.16,1023.19v33.61c0,2.77.12,5.94.24,8h-6.15l-.34-4.21h-.14a9.21,9.21,0,0,1-8.33,4.8c-6.47,0-11.21-5.92-11.21-14.7,0-9.76,5.48-15.21,11.71-15.21,3.46,0,6,1.47,7.14,3.55h.12v-15.81Zm-7,24.52a10.55,10.55,0,0,0-.14-1.85,5.69,5.69,0,0,0-5.4-4.88c-4.23,0-6.39,4.25-6.39,9.52,0,5.42,2.29,9.23,6.29,9.23,2.43,0,4.67-1.6,5.42-4.68a8,8,0,0,0,.22-2Z" transform="translate(-64.58 -332.55)"/><path d="M748.59,1094h7v41.58h-7Z" transform="translate(-64.58 -332.55)"/><path d="M770.26,1099a3.7,3.7,0,0,1-3.94,3.83,3.67,3.67,0,0,1-3.77-3.83,3.86,3.86,0,0,1,7.71,0Zm-7.33,36.61v-28.73h7v28.73Z" transform="translate(-64.58 -332.55)"/><path d="M776.9,1135.57c.12-2,.24-5.2.24-8V1094h7v16.56h.12a9.12,9.12,0,0,1,8.22-4.3c6.44,0,10.83,5.79,10.79,14.47,0,10.29-5.82,15.44-11.85,15.44a8.64,8.64,0,0,1-8-4.68h-.14l-.34,4.09Zm7.2-11.39a7.11,7.11,0,0,0,.2,1.74c.79,3,3,4.67,5.5,4.67,4.11,0,6.39-3.74,6.39-9.53,0-5.14-2.08-9.26-6.35-9.26a6,6,0,0,0-5.51,4.84,8.49,8.49,0,0,0-.23,1.88Z" transform="translate(-64.58 -332.55)"/><path d="M808.82,1115.74c0-3.5-.1-6.37-.24-8.9h6.06l.28,5.12h.2c1.33-3.7,4.38-5.71,7.26-5.71a6.86,6.86,0,0,1,1.59.14v6.68a8.59,8.59,0,0,0-1.89-.17c-3.08,0-5.42,2.09-6.07,5.33a11.68,11.68,0,0,0-.21,2.36v15h-7Z" transform="translate(-64.58 -332.55)"/><path d="M842.92,1135.57l-.46-3.12h-.16a9.39,9.39,0,0,1-7.75,3.71,8.22,8.22,0,0,1-8.51-8.53c0-7.28,6.39-10.79,15.75-10.78v-.56c0-2.22-.87-5-5.37-5a13.5,13.5,0,0,0-7,2l-1.37-4.59a19.34,19.34,0,0,1,9.67-2.4c8.66,0,11.07,5.58,11.07,11.83v10.68a42.69,42.69,0,0,0,.43,6.81ZM842,1121.4c-4.33,0-9.09.93-9.09,5.49,0,2.94,1.81,4.22,3.83,4.22a5.24,5.24,0,0,0,5.07-3.77,5.75,5.75,0,0,0,.19-1.54Z" transform="translate(-64.58 -332.55)"/><path d="M855.9,1115.74c0-3.5-.1-6.37-.23-8.9h6.05L862,1112h.2c1.32-3.7,4.38-5.71,7.25-5.71a6.86,6.86,0,0,1,1.59.14v6.68a8.53,8.53,0,0,0-1.89-.17c-3.08,0-5.41,2.09-6.07,5.33a12.45,12.45,0,0,0-.21,2.36v15h-7Z" transform="translate(-64.58 -332.55)"/><path d="M881.21,1106.84l4.6,15.48c.52,1.82,1,3.87,1.43,5.49h.15c.39-1.59.87-3.67,1.35-5.52l4-15.45H900l-6.63,19.88c-3.23,9.37-5.68,14.56-9,17.84a14.73,14.73,0,0,1-7.12,3.91l-1.75-5.91a13.34,13.34,0,0,0,7.65-6.69,3,3,0,0,0,.43-1.29,3.3,3.3,0,0,0-.33-1.31l-9.67-26.43Z" transform="translate(-64.58 -332.55)"/><path d="M780.34,1260.07c0,13.8-7.21,20.91-17,20.91-10.24,0-16.41-8.53-16.41-20.29,0-12.12,6.76-20.68,17-20.68C774.56,1240,780.34,1248.89,780.34,1260.07Zm-26.06.54c0,8.27,3.36,14.65,9.42,14.65s9.31-6.72,9.31-14.93c0-7.41-3-14.6-9.31-14.6S754.28,1252.39,754.28,1260.61Z" transform="translate(-64.58 -332.55)"/><path d="M794.84,1243.59v8.07h6.51v5.15h-6.51v13.35c0,3.51,1.07,5,3.48,5a11,11,0,0,0,2.56-.27l.14,5.33a15.49,15.49,0,0,1-4.93.67,8,8,0,0,1-5.9-2.19c-1.51-1.58-2.22-4.06-2.22-8v-14h-3.9v-5.15H788v-6.39Z" transform="translate(-64.58 -332.55)"/><path d="M806.29,1238.8h7v16.51h.12a9.67,9.67,0,0,1,3.27-3,9.35,9.35,0,0,1,4.63-1.2c4.78,0,9.14,3.4,9.14,12v17.28h-7v-16.66c0-3.85-1.25-6.92-4.86-6.92a5.29,5.29,0,0,0-5,3.91,7.12,7.12,0,0,0-.3,2.19v17.48h-7Z" transform="translate(-64.58 -332.55)"/><path d="M842.65,1267.93c.15,5.57,3.87,7.69,8.13,7.69a19.23,19.23,0,0,0,7.09-1.24l1,4.86a23.73,23.73,0,0,1-9.18,1.68c-8.75,0-13.77-5.64-13.77-14.47,0-8.41,4.73-15.39,13-15.39s11.39,7,11.39,13.73a17.23,17.23,0,0,1-.23,3.14Zm11.18-4.89c0-3.24-1.22-7.1-5.3-7.1s-5.62,4-5.89,7.1Z" transform="translate(-64.58 -332.55)"/><path d="M865.81,1260.55c0-3.49-.1-6.37-.23-8.89h6l.29,5.12h.2c1.32-3.71,4.38-5.72,7.25-5.72a6.86,6.86,0,0,1,1.59.14v6.68a9.18,9.18,0,0,0-1.89-.17c-3.08,0-5.41,2.09-6.07,5.33a12.53,12.53,0,0,0-.21,2.36v15h-7Z" transform="translate(-64.58 -332.55)"/><path d="M748.59,1309.6h7v41.58h-7Z" transform="translate(-64.58 -332.55)"/><path d="M770.26,1314.57a3.7,3.7,0,0,1-3.94,3.83,3.66,3.66,0,0,1-3.77-3.83,3.86,3.86,0,0,1,7.71,0Zm-7.33,36.61v-28.72h7v28.72Z" transform="translate(-64.58 -332.55)"/><path d="M776.9,1351.18c.12-2,.24-5.2.24-8V1309.6h7v16.56h.12a9.12,9.12,0,0,1,8.22-4.3c6.44,0,10.83,5.8,10.79,14.47,0,10.29-5.82,15.45-11.85,15.45a8.65,8.65,0,0,1-8-4.69h-.14l-.34,4.09Zm7.2-11.39a7.26,7.26,0,0,0,.2,1.75c.79,3,3,4.66,5.5,4.66,4.11,0,6.39-3.74,6.39-9.53,0-5.13-2.08-9.26-6.35-9.26a6,6,0,0,0-5.51,4.84,8.56,8.56,0,0,0-.23,1.88Z" transform="translate(-64.58 -332.55)"/><path d="M808.82,1331.35c0-3.49-.1-6.37-.24-8.89h6.06l.28,5.12h.2c1.33-3.71,4.38-5.72,7.26-5.72a6.86,6.86,0,0,1,1.59.14v6.68a9.25,9.25,0,0,0-1.89-.17c-3.08,0-5.42,2.09-6.07,5.33a11.75,11.75,0,0,0-.21,2.36v15h-7Z" transform="translate(-64.58 -332.55)"/><path d="M842.92,1351.18l-.46-3.12h-.16a9.4,9.4,0,0,1-7.75,3.72,8.22,8.22,0,0,1-8.51-8.53c0-7.29,6.39-10.8,15.75-10.78v-.56c0-2.22-.87-5.05-5.37-5a13.59,13.59,0,0,0-7,2l-1.37-4.59a19.34,19.34,0,0,1,9.67-2.4c8.66,0,11.07,5.58,11.07,11.83v10.68a42.61,42.61,0,0,0,.43,6.81ZM842,1337c-4.32,0-9.08.92-9.08,5.48,0,2.94,1.81,4.22,3.83,4.22a5.24,5.24,0,0,0,5.07-3.77,5.69,5.69,0,0,0,.18-1.54Z" transform="translate(-64.58 -332.55)"/><path d="M855.9,1331.35c0-3.49-.1-6.37-.23-8.89h6.05l.29,5.12h.2c1.32-3.71,4.38-5.72,7.25-5.72a6.86,6.86,0,0,1,1.59.14v6.68a9.18,9.18,0,0,0-1.89-.17c-3.08,0-5.42,2.09-6.07,5.33a12.53,12.53,0,0,0-.21,2.36v15h-7Z" transform="translate(-64.58 -332.55)"/><path d="M882.77,1314.57a3.7,3.7,0,0,1-3.94,3.83,3.66,3.66,0,0,1-3.77-3.83,3.86,3.86,0,0,1,7.71,0Zm-7.33,36.61v-28.72h7v28.72Z" transform="translate(-64.58 -332.55)"/><path d="M894.74,1338.73c.16,5.57,3.87,7.69,8.13,7.69a19.24,19.24,0,0,0,7.1-1.24l1,4.86a23.75,23.75,0,0,1-9.19,1.68c-8.75,0-13.76-5.64-13.76-14.47,0-8.41,4.73-15.39,13-15.39s11.39,7,11.39,13.73a17.23,17.23,0,0,1-.23,3.14Zm11.19-4.89c0-3.24-1.23-7.1-5.3-7.1s-5.62,4-5.89,7.1Z" transform="translate(-64.58 -332.55)"/><path d="M917.53,1344.72a14.2,14.2,0,0,0,6.62,1.92c2.91,0,4.32-1.3,4.32-3.24s-1.08-3-4.35-4.33c-5.22-2.11-7.32-5.09-7.31-8.34,0-5,4-8.87,10.27-8.87a15,15,0,0,1,7,1.62l-1.4,5a11.27,11.27,0,0,0-5.43-1.52c-2.46,0-3.79,1.33-3.79,3s1.18,2.62,4.55,4.08c4.8,2,7.1,4.69,7.12,8.73,0,5.42-4.08,9-11,9a16.43,16.43,0,0,1-8-1.9Z" transform="translate(-64.58 -332.55)"/><path d="M937,1358.41a92.39,92.39,0,0,0,3.89-15.36l7.32-.59a77.26,77.26,0,0,1-6.51,15.48Z" transform="translate(-64.58 -332.55)"/><path d="M773.54,1407.4c0,10.87-7,15.18-13.43,15.18-7.5,0-13.14-5.45-13.14-14.79,0-9.71,5.87-15.13,13.54-15.13S773.54,1398.46,773.54,1407.4Zm-19.46.23c0,5.32,2.18,9.79,6.25,9.79,3.86,0,6.1-4.51,6.1-9.86,0-4.41-1.62-9.75-6.1-9.75S754.08,1403,754.08,1407.63Z" transform="translate(-64.58 -332.55)"/><path d="M778.91,1422c.12-2,.23-5.2.23-8v-33.6h7V1397h.11a9.16,9.16,0,0,1,8.23-4.3c6.43,0,10.82,5.8,10.79,14.47,0,10.29-5.82,15.45-11.86,15.45a8.64,8.64,0,0,1-8-4.69h-.15l-.34,4.09Zm7.2-11.39a7.26,7.26,0,0,0,.2,1.75c.78,3,3,4.66,5.5,4.66,4.1,0,6.39-3.74,6.39-9.53,0-5.13-2.08-9.26-6.35-9.26a6,6,0,0,0-5.51,4.84,8.56,8.56,0,0,0-.23,1.88Z" transform="translate(-64.58 -332.55)"/><path d="M804.88,1428.68c2-.2,3.85-.74,5-2,1.27-1.42,1.72-3.65,1.72-9.48v-24h7v25.84c0,6-1.15,9.52-3.66,11.92-2.33,2.17-6.09,3.12-9.32,3.14Zm14-43.31a3.71,3.71,0,0,1-3.93,3.83,3.66,3.66,0,0,1-3.78-3.83,3.86,3.86,0,0,1,7.71,0Z" transform="translate(-64.58 -332.55)"/><path d="M830.73,1409.53c.15,5.57,3.87,7.69,8.13,7.69A19.19,19.19,0,0,0,846,1416l1,4.86a23.69,23.69,0,0,1-9.18,1.68c-8.75,0-13.77-5.64-13.77-14.47,0-8.4,4.74-15.39,13-15.39s11.39,7,11.39,13.73a17.23,17.23,0,0,1-.23,3.14Zm11.19-4.89c0-3.24-1.23-7.1-5.31-7.1s-5.62,4-5.88,7.1Z" transform="translate(-64.58 -332.55)"/><path d="M873.18,1421.2a17.72,17.72,0,0,1-7.12,1.32c-8.35,0-13.78-5.56-13.78-14.63,0-8.6,5.54-15.2,14.9-15.2a16,16,0,0,1,6.15,1.17l-1.19,5.32a10.93,10.93,0,0,0-4.76-1c-5.11,0-8,4.15-8,9.43,0,5.88,3.42,9.32,8,9.32a11.92,11.92,0,0,0,4.91-1Z" transform="translate(-64.58 -332.55)"/><path d="M887,1385.19v8.06h6.51v5.16H887v13.34c0,3.52,1.06,5,3.48,5a11.11,11.11,0,0,0,2.56-.27l.14,5.33a15.54,15.54,0,0,1-4.93.67,8,8,0,0,1-5.9-2.19c-1.51-1.58-2.22-4.06-2.22-8v-13.95h-3.91v-5.16h3.91v-6.38Z" transform="translate(-64.58 -332.55)"/><path d="M910.69,1422v-23.57h-3.85v-5.16h3.85v-1.47c0-6.72,4.49-12,13.25-12a15.86,15.86,0,0,1,7.43,1.67l-1.43,5.31a13,13,0,0,0-6-1.39c-4.86,0-6.36,3-6.36,6.66v1.19h16.09V1422h-7v-23.57h-9.08V1422Z" transform="translate(-64.58 -332.55)"/><path d="M940.93,1380.41h7V1422h-7Z" transform="translate(-64.58 -332.55)"/><path d="M960.35,1409.53c.15,5.57,3.87,7.69,8.13,7.69a19.19,19.19,0,0,0,7.09-1.24l1,4.86a23.69,23.69,0,0,1-9.18,1.68c-8.75,0-13.77-5.64-13.77-14.47,0-8.4,4.74-15.39,13-15.39s11.39,7,11.39,13.73a17.23,17.23,0,0,1-.23,3.14Zm11.19-4.89c0-3.24-1.23-7.1-5.31-7.1s-5.62,4-5.88,7.1Z" transform="translate(-64.58 -332.55)"/><path d="M983.14,1415.52a14.13,14.13,0,0,0,6.61,1.92c2.91,0,4.33-1.3,4.33-3.24s-1.08-3-4.36-4.33c-5.21-2.12-7.32-5.09-7.3-8.34,0-5,4-8.87,10.27-8.87a15,15,0,0,1,7,1.62l-1.39,5a11.31,11.31,0,0,0-5.43-1.52c-2.47,0-3.8,1.33-3.8,3s1.18,2.62,4.55,4.08c4.81,2,7.11,4.69,7.12,8.73,0,5.42-4.08,9-11,9a16.36,16.36,0,0,1-8-1.9Z" transform="translate(-64.58 -332.55)"/><path class="cls-1" d="M871.7,672c4,23.19-12.88,45.92-33.88,56.35s-45.24,11.38-68.66,12.13l-391.37,12.5" transform="translate(-64.58 -332.55)"/><path class="cls-1" d="M412.3,732.35l-34.85,19.39,35.07,18.13" transform="translate(-64.58 -332.55)"/><path class="cls-1" d="M714.31,1072.18q-169.78,49.53-334.46,114.71" transform="translate(-64.58 -332.55)"/><path class="cls-1" d="M712.38,1323.59,373.57,1249.4" transform="translate(-64.58 -332.55)"/><path class="cls-1" d="M403.46,1271.12c-8.34-5.88-20.69-15.75-29-21.63l34.19-13.8" transform="translate(-64.58 -332.55)"/><path class="cls-1" d="M399.46,1161.47a94.12,94.12,0,0,1-25.26,27c10.54,4.42,21.08,7.85,31.61,12.28" transform="translate(-64.58 -332.55)"/><path d="M81.59,456.1H67.3v17.44H83.37v2.33H64.58V436.1h17.9v2.34H67.3v15.33H81.59Z" transform="translate(-64.58 -332.55)"/><path d="M109.3,434.3v35.23c0,1.88.12,4.63.24,6.34h-2.43L106.9,471h-.17a9.36,9.36,0,0,1-8.84,5.49C91.8,476.47,87,471.1,87,462.11c0-9.66,5.28-15.16,11.4-15.16a8.72,8.72,0,0,1,8.09,4.59h.12V434.3Zm-2.72,24.3a12.28,12.28,0,0,0-.22-2.41c-.76-3.78-3.77-6.93-7.79-6.93-5.64,0-8.82,5.58-8.82,12.61,0,6.37,2.71,12.29,8.62,12.29,3.32,0,6.73-2.15,8-7.08a8.82,8.82,0,0,0,.24-2.23Z" transform="translate(-64.58 -332.55)"/><path d="M121.54,439.7a2.17,2.17,0,1,1-4.33,0,2.25,2.25,0,0,1,2.16-2.37A2.18,2.18,0,0,1,121.54,439.7ZM118,475.87V447.55h2.72v28.32Z" transform="translate(-64.58 -332.55)"/><path d="M133.25,439.56v8h7.26v2.24h-7.26v18.68c0,3.71,1.17,5.6,3.81,5.6a8.9,8.9,0,0,0,2.77-.36l.33,2.1a8.78,8.78,0,0,1-3.5.6,5.53,5.53,0,0,1-4.55-1.9c-1.17-1.39-1.58-3.57-1.58-6.67v-18h-4.41v-2.24h4.41V440.5Z" transform="translate(-64.58 -332.55)"/><path d="M167.28,461.52c0,10.54-6.33,15-12.06,15-6.33,0-11.55-5.24-11.55-14.6,0-9.92,5.71-14.92,12-14.92C162.31,447,167.28,452.32,167.28,461.52Zm-20.83.25c0,6.34,3.43,12.39,9,12.39s9.07-6.08,9.07-12.54c0-5-2.31-12.36-9-12.36C149,449.26,146.45,456.12,146.45,461.77Z" transform="translate(-64.58 -332.55)"/><path d="M173.91,455.46c0-2.62-.11-5.46-.23-7.91h2.54l.12,5.41h.15c1.08-3.26,3.87-6,7.47-6a4.28,4.28,0,0,1,1,.1v2.71a6.12,6.12,0,0,0-1.09-.06c-3.81,0-6.4,3.44-7,7.66a18.44,18.44,0,0,0-.18,2.61v15.9h-2.73Z" transform="translate(-64.58 -332.55)"/><path d="M94,757.73a21.34,21.34,0,0,1-9.17,1.74c-8.61,0-16.86-5.8-16.86-20.14,0-13.1,7.56-20.71,18-20.71a17.29,17.29,0,0,1,7.86,1.5L93,722.45A15.89,15.89,0,0,0,85.88,721c-8.75,0-15,6.19-15,18.25,0,11.73,5.82,17.84,14.77,17.84a17.47,17.47,0,0,0,7.62-1.59Z" transform="translate(-64.58 -332.55)"/><path d="M120.94,744.58c0,10.54-6.32,14.94-12,14.94-6.34,0-11.55-5.24-11.55-14.6,0-9.92,5.71-14.91,12-14.91C116,730,120.94,735.37,120.94,744.58Zm-20.82.25c0,6.33,3.43,12.39,9,12.39s9.08-6.09,9.08-12.55c0-5-2.31-12.36-9-12.36C102.68,732.31,100.12,739.17,100.12,744.83Z" transform="translate(-64.58 -332.55)"/><path d="M127.61,737.31c0-2.86-.12-4.55-.24-6.71h2.52l.18,4.59h.12a8.82,8.82,0,0,1,8.27-5.18,7.77,7.77,0,0,1,7.43,5.71H146a10.65,10.65,0,0,1,2.83-3.72,8.72,8.72,0,0,1,5.91-2c2.85,0,8.41,1.69,8.41,11.45v17.47h-2.72v-17c0-5.65-1.92-9.56-6.61-9.56-3.14,0-5.7,2.44-6.69,5.52a10.4,10.4,0,0,0-.39,2.83v18.23H144V740.8c0-4.71-1.95-8.45-6.34-8.45-3.35,0-6.12,2.77-7,6.24a10.94,10.94,0,0,0-.34,2.69v17.65h-2.72Z" transform="translate(-64.58 -332.55)"/><path d="M171.71,739.55c0-4-.11-6.61-.23-8.95h2.6l.18,4.9h.12A9.76,9.76,0,0,1,183.5,730c6.33,0,10.88,5.49,10.88,14.39,0,10.33-5.52,15.12-11.56,15.12a9.16,9.16,0,0,1-8.27-4.74h-.11V770.5h-2.73Zm2.73,8.44a11.49,11.49,0,0,0,.21,2.27c1.12,4.71,4.58,7,8.07,7,5.88,0,8.88-5.47,8.88-12.7,0-6.32-2.93-12.21-8.75-12.21-3.68,0-7.16,3.05-8.11,7.34a12.81,12.81,0,0,0-.3,2.37Z" transform="translate(-64.58 -332.55)"/><path d="M204.59,722.76a2.17,2.17,0,1,1-4.33,0,2.25,2.25,0,0,1,2.17-2.37A2.18,2.18,0,0,1,204.59,722.76Zm-3.53,36.17V730.6h2.73v28.33Z" transform="translate(-64.58 -332.55)"/><path d="M212.57,717.35h2.72v41.58h-2.72Z" transform="translate(-64.58 -332.55)"/><path d="M225,744.26c0,9.75,4.64,12.84,9.68,12.84a13.67,13.67,0,0,0,6.79-1.46l.68,2.13a15.93,15.93,0,0,1-7.85,1.7c-7.56,0-12-5.91-12-14.28,0-9.31,4.76-15.18,11.44-15.18,8.18,0,9.87,8.17,9.87,12.54a14.65,14.65,0,0,1-.06,1.71Zm15.72-2.19c.09-4.86-1.94-9.76-7.38-9.76s-7.77,5.34-8.22,9.76Z" transform="translate(-64.58 -332.55)"/><path d="M250.12,738.52c0-2.62-.11-5.47-.23-7.92h2.54l.12,5.41h.15c1.08-3.25,3.86-6,7.46-6a5,5,0,0,1,1,.09v2.71a6.17,6.17,0,0,0-1.09-.06c-3.82,0-6.4,3.44-7,7.67a18.39,18.39,0,0,0-.19,2.6v15.91h-2.72Z" transform="translate(-64.58 -332.55)"/><path d="M70.29,1197.87H73v37.46H89v2.31H70.29Z" transform="translate(-64.58 -332.55)"/><path d="M97.92,1201.47a2.17,2.17,0,1,1-4.33,0,2.25,2.25,0,0,1,2.17-2.37A2.18,2.18,0,0,1,97.92,1201.47Zm-3.53,36.17v-28.32h2.73v28.32Z" transform="translate(-64.58 -332.55)"/><path d="M105.9,1216c0-2.86-.12-4.54-.24-6.7h2.52l.18,4.63h.12a9.46,9.46,0,0,1,8.7-5.23c2.79,0,8.85,1.58,8.85,11.16v17.76H123.3v-17.28c0-4.82-1.6-9.3-6.89-9.3-3.48,0-6.52,2.6-7.49,6.34a10.59,10.59,0,0,0-.3,2.51v17.73H105.9Z" transform="translate(-64.58 -332.55)"/><path d="M137.33,1223h.11c.66-.86,1.62-2.08,2.4-3l9-10.64h3.23l-10.35,11.8,11.73,16.52h-3.26l-10.34-14.73-2.57,3v11.77H134.6v-41.57h2.73Z" transform="translate(-64.58 -332.55)"/><path d="M158.53,1223c0,9.74,4.63,12.84,9.68,12.84a13.54,13.54,0,0,0,6.79-1.47l.68,2.14a16.08,16.08,0,0,1-7.85,1.69c-7.56,0-12-5.9-12-14.27,0-9.31,4.76-15.19,11.44-15.19,8.18,0,9.87,8.18,9.87,12.54a14.74,14.74,0,0,1-.06,1.72Zm15.72-2.19c.09-4.86-1.94-9.76-7.38-9.76s-7.77,5.34-8.22,9.76Z" transform="translate(-64.58 -332.55)"/><path d="M183.69,1217.23c0-2.62-.12-5.46-.24-7.91H186l.11,5.41h.15c1.08-3.26,3.87-6,7.47-6a4.37,4.37,0,0,1,1,.1v2.71a6.17,6.17,0,0,0-1.09-.06c-3.82,0-6.41,3.44-7,7.66a17.06,17.06,0,0,0-.19,2.61v15.9h-2.72Z" transform="translate(-64.58 -332.55)"/></svg>