<svg xmlns="http://www.w3.org/2000/svg" viewBox="0 0 1757.96 600.18"><defs><style>.a{fill:#2a57d3;}.b{fill:#e54539;}.c,.d{fill:none;stroke:#000;}.c{stroke-miterlimit:10;stroke-width:14px;}.d{stroke-linecap:round;stroke-linejoin:round;stroke-width:4px;}.e{fill:#27c46a;}.f{fill:#d6b425;}</style></defs><path class="a" d="M256.63,303.88l11.32-.4h22.7v5.37h-34Zm11.15-3.69c0-9.47,5-15.8,15.73-15.8a29,29,0,0,1,11.23,2.24l-1.53,5a21,21,0,0,0-9.06-1.85c-7,0-9.79,3.93-9.79,10.19v42.51h-6.58Z" transform="translate(-117.14 -196.93)"/><path class="a" d="M316.23,329.39V290.72H302.44v-5.37h20.45v44.52c0,5.61,3.05,8,7.7,8a17.64,17.64,0,0,0,7.3-1.76l1.69,5a23.75,23.75,0,0,1-10.43,2.33C320.81,343.43,316.23,338.61,316.23,329.39Z" transform="translate(-117.14 -196.93)"/><path class="a" d="M349.44,323.05c0-13.07,9-20.53,19.25-20.53s19.25,7.46,19.25,20.53-9,20.38-19.25,20.38S349.44,336,349.44,323.05Zm31.69,0c0-9-5-15-12.44-15s-12.43,6-12.43,15,5,14.84,12.43,14.84S381.13,332,381.13,323.05Z" transform="translate(-117.14 -196.93)"/><path class="a" d="M399.17,332.36c0-8.75,8.19-13,28.32-14.6-.24-5.3-2.81-9.79-10.35-9.79-5.05,0-10,2.41-13.63,4.65l-2.65-4.49c4-2.57,10.59-5.61,17.4-5.61,10.67,0,15.89,6.33,15.89,16v23.9h-5.54l-.56-5.29h-.24c-4.25,3.37-9.87,6.26-15.32,6.26C405.19,343.43,399.17,339.33,399.17,332.36Zm28.32-.08V322.17c-16.69,1.28-21.74,4.57-21.74,9.7,0,4.42,4,6.18,8.5,6.18S423,336,427.49,332.28Z" transform="translate(-117.14 -196.93)"/><path class="a" d="M457.41,327.3V308.85H446.34v-5l11.31-.4.88-12.52h5.54v12.52h19.09v5.37H464.07v18.53c0,7,2.32,10.59,9.86,10.59a25.73,25.73,0,0,0,9.31-1.76l1.44,4.89a34.08,34.08,0,0,1-12.19,2.33C461.1,343.43,457.41,336.93,457.41,327.3Z" transform="translate(-117.14 -196.93)"/><path class="b" d="M543.56,332.36c0-8.75,8.18-13,28.31-14.6-.24-5.3-2.8-9.79-10.34-9.79-5.06,0-10,2.41-13.64,4.65l-2.65-4.49c4-2.57,10.59-5.61,17.41-5.61,10.67,0,15.88,6.33,15.88,16v23.9H573l-.56-5.29h-.25c-4.25,3.37-9.86,6.26-15.32,6.26C549.57,343.43,543.56,339.33,543.56,332.36Zm28.31-.08V322.17c-16.68,1.28-21.73,4.57-21.73,9.7,0,4.42,4,6.18,8.5,6.18S567.38,336,571.87,332.28Z" transform="translate(-117.14 -196.93)"/><path class="b" d="M596.9,303.48h5.53l.65,9.22h.16c4.09-6.33,10.18-10.18,17.4-10.18a16.41,16.41,0,0,1,7.7,1.6l-1.52,5.7a19.4,19.4,0,0,0-7.22-1.29c-5.86,0-11.39,3-16,11.15v22.78H596.9Z" transform="translate(-117.14 -196.93)"/><path class="b" d="M638.85,322.89c0-12.67,9.47-20.37,19.89-20.37,11.23,0,17.81,7.3,17.81,18.28a27.27,27.27,0,0,1-.32,4h-33v-5.14h29l-1.68,1.85c0-9.23-4.58-13.8-11.72-13.8s-13.47,5.45-13.47,15.16c0,10.11,6.58,15.24,15.24,15.24a21.21,21.21,0,0,0,11.87-3.69l2.41,4.33a26.71,26.71,0,0,1-15.08,4.66C648.16,343.43,638.85,335.89,638.85,322.89Z" transform="translate(-117.14 -196.93)"/><path class="b" d="M687.94,332.36c0-8.75,8.18-13,28.32-14.6-.24-5.3-2.81-9.79-10.35-9.79-5,0-10,2.41-13.64,4.65l-2.64-4.49c4-2.57,10.58-5.61,17.4-5.61,10.67,0,15.89,6.33,15.89,16v23.9h-5.54l-.56-5.29h-.24c-4.25,3.37-9.87,6.26-15.32,6.26C694,343.43,687.94,339.33,687.94,332.36Zm28.32-.08V322.17c-16.69,1.28-21.74,4.57-21.74,9.7,0,4.42,4,6.18,8.5,6.18S711.77,336,716.26,332.28Z" transform="translate(-117.14 -196.93)"/><path d="M746.34,320.16c0-15.48,6.81-27.75,18-36.41l3.69,3.36c-10.74,9.07-15.72,19.58-15.72,33.05s5,24,15.72,33l-3.69,3.37C753.15,347.92,746.34,335.64,746.34,320.16Z" transform="translate(-117.14 -196.93)"/><path class="a" d="M786,303.88l11.31-.4h22.7v5.37H786Zm11.15-3.69c0-9.47,5-15.8,15.72-15.8a29,29,0,0,1,11.23,2.24l-1.52,5a21,21,0,0,0-9.06-1.85c-7,0-9.79,3.93-9.79,10.19v42.51h-6.58Z" transform="translate(-117.14 -196.93)"/><path class="a" d="M845.64,329.39V290.72h-13.8v-5.37H852.3v44.52c0,5.61,3.05,8,7.7,8a17.64,17.64,0,0,0,7.3-1.76l1.68,5a23.71,23.71,0,0,1-10.42,2.33C850.21,343.43,845.64,338.61,845.64,329.39Z" transform="translate(-117.14 -196.93)"/><path class="a" d="M878.85,323.05c0-13.07,9-20.53,19.25-20.53s19.25,7.46,19.25,20.53-9,20.38-19.25,20.38S878.85,336,878.85,323.05Zm31.68,0c0-9-5-15-12.43-15s-12.43,6-12.43,15,5,14.84,12.43,14.84S910.53,332,910.53,323.05Z" transform="translate(-117.14 -196.93)"/><path class="a" d="M928.58,332.36c0-8.75,8.18-13,28.32-14.6-.24-5.3-2.81-9.79-10.35-9.79-5,0-10,2.41-13.64,4.65l-2.64-4.49c4-2.57,10.58-5.61,17.4-5.61,10.67,0,15.88,6.33,15.88,16v23.9H958l-.56-5.29h-.24c-4.25,3.37-9.87,6.26-15.32,6.26C934.6,343.43,928.58,339.33,928.58,332.36Zm28.32-.08V322.17c-16.69,1.28-21.74,4.57-21.74,9.7,0,4.42,4,6.18,8.5,6.18S952.4,336,956.9,332.28Z" transform="translate(-117.14 -196.93)"/><path class="a" d="M986.82,327.3V308.85H975.75v-5l11.31-.4.88-12.52h5.53v12.52h19.09v5.37H993.47v18.53c0,7,2.33,10.59,9.87,10.59a25.73,25.73,0,0,0,9.31-1.76l1.44,4.89a34.08,34.08,0,0,1-12.19,2.33C990.51,343.43,986.82,336.93,986.82,327.3Z" transform="translate(-117.14 -196.93)"/><path d="M1080.18,338.13h-.24l-.64,4.33H1074V285.35h6.66v15.56l-.33,7.54h.25a19.16,19.16,0,0,1,13.07-5.93c10.51,0,16.2,7.78,16.2,19.81,0,13.31-8.34,21.1-17.56,21.1C1088.45,343.43,1083.79,341.42,1080.18,338.13Zm22.87-15.72c0-8.58-3.21-14.28-11-14.28-3.45,0-7.46,1.77-11.39,5.78v19.41a16.3,16.3,0,0,0,10.5,4.49C1097.91,337.81,1103.05,332,1103.05,322.41Z" transform="translate(-117.14 -196.93)"/><path d="M1130.4,355.38c6.82-3.05,10.18-7.38,10.1-14l-1.44-7.38,4.49,6.34a5.65,5.65,0,0,1-4.49,1.84c-3.45,0-6.26-2-6.26-6s3-6.1,6.42-6.1c4.73,0,7.22,3.93,7.22,10.27,0,9.38-5.29,16-14.12,19.25Z" transform="translate(-117.14 -196.93)"/><path class="a" d="M1219.19,303.88l11.31-.4h22.71v5.37h-34Zm11.15-3.69c0-9.47,5-15.8,15.73-15.8a29,29,0,0,1,11.23,2.24l-1.53,5a21,21,0,0,0-9.06-1.85c-7,0-9.79,3.93-9.79,10.19v42.51h-6.58Z" transform="translate(-117.14 -196.93)"/><path class="a" d="M1278.79,329.39V290.72H1265v-5.37h20.45v44.52c0,5.61,3,8,7.7,8a17.64,17.64,0,0,0,7.3-1.76l1.69,5a23.75,23.75,0,0,1-10.43,2.33C1283.37,343.43,1278.79,338.61,1278.79,329.39Z" transform="translate(-117.14 -196.93)"/><path class="a" d="M1312,323.05c0-13.07,9-20.53,19.25-20.53s19.25,7.46,19.25,20.53-9,20.38-19.25,20.38S1312,336,1312,323.05Zm31.69,0c0-9-5-15-12.44-15s-12.43,6-12.43,15,5,14.84,12.43,14.84S1343.69,332,1343.69,323.05Z" transform="translate(-117.14 -196.93)"/><path class="a" d="M1361.73,332.36c0-8.75,8.19-13,28.32-14.6-.24-5.3-2.81-9.79-10.35-9.79-5,0-10,2.41-13.64,4.65l-2.64-4.49c4-2.57,10.59-5.61,17.4-5.61,10.67,0,15.89,6.33,15.89,16v23.9h-5.54l-.56-5.29h-.24c-4.25,3.37-9.87,6.26-15.32,6.26C1367.75,343.43,1361.73,339.33,1361.73,332.36Zm28.32-.08V322.17c-16.69,1.28-21.74,4.57-21.74,9.7,0,4.42,4,6.18,8.5,6.18S1385.56,336,1390.05,332.28Z" transform="translate(-117.14 -196.93)"/><path class="a" d="M1420,327.3V308.85H1408.9v-5l11.31-.4.88-12.52h5.54v12.52h19.09v5.37h-19.09v18.53c0,7,2.32,10.59,9.86,10.59a25.73,25.73,0,0,0,9.31-1.76l1.44,4.89a34.08,34.08,0,0,1-12.19,2.33C1423.66,343.43,1420,336.93,1420,327.3Z" transform="translate(-117.14 -196.93)"/><path d="M1507.16,285.35h6.66v15.56l-.4,9.23h.24c3.93-4.34,8.5-7.62,14.52-7.62,9.22,0,13.47,5.45,13.47,15.72v24.22H1535V319.12c0-7.38-2.56-10.83-8.9-10.83-4.65,0-7.78,2.33-12.27,7v27.19h-6.66Z" transform="translate(-117.14 -196.93)"/><path d="M1557.61,353.21c10.75-9.06,15.73-19.57,15.73-33s-5-24-15.73-33.05l3.69-3.36c11.15,8.66,18,20.93,18,36.41s-6.82,27.76-18,36.42Z" transform="translate(-117.14 -196.93)"/><path d="M1664.54,344c0-5.86.8-10.11.8-15.48,0-3.13-2.17-6.18-11.63-6.26v-4.17c9.46-.08,11.63-3.13,11.63-6.26,0-5.05-.8-9.95-.8-15.48,0-8.26,4.81-10.67,14.84-10.67h5v3.77h-4.17c-8.18,0-10,2.09-10,7.3,0,4.57.48,9.55.48,14.52,0,5.21-1.76,7.78-7.29,8.74v.32c5.53,1,7.29,3.53,7.29,8.75,0,5.45-.48,9.62-.48,14.52,0,5.21,1.77,7.3,10,7.3h4.17v3.77h-5C1669.35,354.66,1664.54,352.25,1664.54,344Z" transform="translate(-117.14 -196.93)"/><path d="M1709.78,336.61a6.5,6.5,0,1,1,6.5,6.82A6.5,6.5,0,0,1,1709.78,336.61Z" transform="translate(-117.14 -196.93)"/><path d="M1757.91,336.61a6.5,6.5,0,1,1,6.49,6.82A6.5,6.5,0,0,1,1757.91,336.61Z" transform="translate(-117.14 -196.93)"/><path d="M1806,336.61a6.51,6.51,0,1,1,6.5,6.82A6.5,6.5,0,0,1,1806,336.61Z" transform="translate(-117.14 -196.93)"/><path d="M1844.54,350.89h4.09c8.18,0,10-2.09,10-7.3,0-4.9-.48-9.07-.48-14.52,0-5.22,1.69-7.78,7.22-8.75V320c-5.53-1-7.22-3.53-7.22-8.74,0-5,.48-9.95.48-14.52,0-5.21-1.84-7.3-10-7.3h-4.09v-3.77h4.89c10.11,0,14.76,2.41,14.76,10.67,0,5.53-.72,10.43-.72,15.48,0,3.13,2.16,6.18,11.63,6.26v4.17c-9.47.08-11.63,3.13-11.63,6.26,0,5.37.72,9.62.72,15.48,0,8.26-4.65,10.67-14.76,10.67h-4.89Z" transform="translate(-117.14 -196.93)"/><path class="a" d="M256.63,688.91l11.32-.4h22.7v5.37h-34Zm11.15-3.69c0-9.47,5-15.8,15.73-15.8a29,29,0,0,1,11.23,2.24l-1.53,5a21,21,0,0,0-9.06-1.85c-7,0-9.79,3.93-9.79,10.19v42.51h-6.58Z" transform="translate(-117.14 -196.93)"/><path class="a" d="M316.23,714.42V675.75H302.44v-5.37h20.45V714.9c0,5.61,3.05,8,7.7,8a17.64,17.64,0,0,0,7.3-1.76l1.69,5a23.75,23.75,0,0,1-10.43,2.33C320.81,728.46,316.23,723.64,316.23,714.42Z" transform="translate(-117.14 -196.93)"/><path class="a" d="M349.44,708.08c0-13.07,9-20.53,19.25-20.53s19.25,7.46,19.25,20.53c0,12.92-9,20.38-19.25,20.38S349.44,721,349.44,708.08Zm31.69,0c0-9-5-15-12.44-15s-12.43,6-12.43,15,5,14.84,12.43,14.84S381.13,717,381.13,708.08Z" transform="translate(-117.14 -196.93)"/><path class="a" d="M399.17,717.39c0-8.75,8.19-13,28.32-14.6-.24-5.3-2.81-9.79-10.35-9.79-5.05,0-10,2.41-13.63,4.65l-2.65-4.49c4-2.57,10.59-5.61,17.4-5.61,10.67,0,15.89,6.33,15.89,16v23.9h-5.54l-.56-5.29h-.24c-4.25,3.37-9.87,6.26-15.32,6.26C405.19,728.46,399.17,724.37,399.17,717.39Zm28.32-.08V707.2c-16.69,1.28-21.74,4.57-21.74,9.7,0,4.42,4,6.18,8.5,6.18S423,721,427.49,717.31Z" transform="translate(-117.14 -196.93)"/><path class="a" d="M457.41,712.33V693.88H446.34v-5l11.31-.4.88-12.51h5.54v12.51h19.09v5.37H464.07v18.53c0,7,2.32,10.59,9.86,10.59a25.73,25.73,0,0,0,9.31-1.76l1.44,4.89a34.08,34.08,0,0,1-12.19,2.33C461.1,728.46,457.41,722,457.41,712.33Z" transform="translate(-117.14 -196.93)"/><path class="b" d="M543.56,717.39c0-8.75,8.18-13,28.31-14.6-.24-5.3-2.8-9.79-10.34-9.79-5.06,0-10,2.41-13.64,4.65l-2.65-4.49c4-2.57,10.59-5.61,17.41-5.61,10.67,0,15.88,6.33,15.88,16v23.9H573l-.56-5.29h-.25c-4.25,3.37-9.86,6.26-15.32,6.26C549.57,728.46,543.56,724.37,543.56,717.39Zm28.31-.08V707.2c-16.68,1.28-21.73,4.57-21.73,9.7,0,4.42,4,6.18,8.5,6.18S567.38,721,571.87,717.31Z" transform="translate(-117.14 -196.93)"/><path d="M640.21,690h34.5v5h-34.5Zm0,17.17h34.5v5h-34.5Z" transform="translate(-117.14 -196.93)"/><path class="b" d="M736.07,717.39c0-8.75,8.18-13,28.32-14.6-.25-5.3-2.81-9.79-10.35-9.79-5.06,0-10,2.41-13.64,4.65l-2.65-4.49c4-2.57,10.59-5.61,17.41-5.61,10.67,0,15.88,6.33,15.88,16v23.9h-5.53L765,722.2h-.24c-4.26,3.37-9.87,6.26-15.33,6.26C742.09,728.46,736.07,724.37,736.07,717.39Zm28.32-.08V707.2c-16.69,1.28-21.74,4.57-21.74,9.7,0,4.42,4,6.18,8.5,6.18S759.89,721,764.39,717.31Z" transform="translate(-117.14 -196.93)"/><path class="b" d="M789.41,688.51H795l.64,9.22h.16c4.09-6.33,10.19-10.18,17.4-10.18a16.47,16.47,0,0,1,7.71,1.6l-1.53,5.7a19.4,19.4,0,0,0-7.22-1.29c-5.85,0-11.39,3-16,11.15v22.78h-6.66Z" transform="translate(-117.14 -196.93)"/><path class="b" d="M831.36,707.92c0-12.67,9.47-20.37,19.9-20.37,11.23,0,17.8,7.3,17.8,18.28a27.27,27.27,0,0,1-.32,4h-33v-5.14h29l-1.68,1.85c0-9.23-4.57-13.8-11.71-13.8s-13.48,5.45-13.48,15.16c0,10.11,6.58,15.24,15.24,15.24a21.21,21.21,0,0,0,11.87-3.69l2.41,4.33a26.68,26.68,0,0,1-15.08,4.66C840.67,728.46,831.36,720.92,831.36,707.92Z" transform="translate(-117.14 -196.93)"/><path class="b" d="M880.45,717.39c0-8.75,8.18-13,28.32-14.6-.24-5.3-2.81-9.79-10.35-9.79-5,0-10,2.41-13.64,4.65l-2.64-4.49c4-2.57,10.59-5.61,17.4-5.61,10.67,0,15.89,6.33,15.89,16v23.9h-5.54l-.56-5.29h-.24c-4.25,3.37-9.87,6.26-15.32,6.26C886.47,728.46,880.45,724.37,880.45,717.39Zm28.32-.08V707.2c-16.69,1.28-21.74,4.57-21.74,9.7,0,4.42,4,6.18,8.5,6.18S904.28,721,908.77,717.31Z" transform="translate(-117.14 -196.93)"/><path d="M938.85,705.19c0-15.48,6.82-27.75,18-36.41l3.69,3.36c-10.75,9.07-15.73,19.58-15.73,33.05s5,24,15.73,33l-3.69,3.37C945.67,733,938.85,720.67,938.85,705.19Z" transform="translate(-117.14 -196.93)"/><path d="M983.93,723.16h-.24l-.64,4.33h-5.3V670.38h6.66v15.56l-.32,7.54h.24a19.16,19.16,0,0,1,13.07-5.93c10.51,0,16.21,7.78,16.21,19.81,0,13.31-8.34,21.1-17.57,21.1C992.19,728.46,987.54,726.45,983.93,723.16Zm22.86-15.72c0-8.58-3.21-14.28-11-14.28-3.45,0-7.46,1.77-11.39,5.78v19.41a16.3,16.3,0,0,0,10.51,4.49C1001.66,722.84,1006.79,717.07,1006.79,707.44Z" transform="translate(-117.14 -196.93)"/><path d="M1024.84,717.39c0-8.75,8.18-13,28.31-14.6-.24-5.3-2.81-9.79-10.35-9.79-5,0-10,2.41-13.63,4.65l-2.65-4.49c4-2.57,10.59-5.61,17.41-5.61,10.67,0,15.88,6.33,15.88,16v23.9h-5.53l-.57-5.29h-.24c-4.25,3.37-9.86,6.26-15.32,6.26C1030.85,728.46,1024.84,724.37,1024.84,717.39Zm28.31-.08V707.2c-16.68,1.28-21.74,4.57-21.74,9.7,0,4.42,4,6.18,8.51,6.18S1048.66,721,1053.15,717.31Z" transform="translate(-117.14 -196.93)"/><path d="M1072.24,722.36l3-4.41a27.82,27.82,0,0,0,16.93,5.29c6.57,0,9.78-2.73,9.78-6,0-3-1.52-5.06-12.11-7.22-10.19-2.09-15.24-5.54-15.24-11.39,0-6.26,5.53-11.07,16.2-11.07a29.28,29.28,0,0,1,15.73,5l-3.21,4.25a23,23,0,0,0-13.08-4.09c-6.58,0-9,2.65-9,5.61,0,3.37,3.37,4.82,11.39,6.5,12.91,2.81,16,6,16,12,0,6.34-6.18,11.64-17.32,11.64A34.28,34.28,0,0,1,1072.24,722.36Z" transform="translate(-117.14 -196.93)"/><path d="M1120.13,707.92c0-12.67,9.47-20.37,19.89-20.37,11.23,0,17.81,7.3,17.81,18.28a27.27,27.27,0,0,1-.32,4h-33v-5.14h29l-1.68,1.85c0-9.23-4.58-13.8-11.72-13.8s-13.47,5.45-13.47,15.16c0,10.11,6.58,15.24,15.24,15.24a21.21,21.21,0,0,0,11.87-3.69l2.41,4.33a26.71,26.71,0,0,1-15.08,4.66C1129.44,728.46,1120.13,720.92,1120.13,707.92Z" transform="translate(-117.14 -196.93)"/><path d="M1178.53,740.41c6.81-3,10.18-7.38,10.1-14l-1.44-7.38,4.49,6.34a5.66,5.66,0,0,1-4.49,1.84c-3.45,0-6.26-2-6.26-6s3-6.1,6.42-6.1c4.73,0,7.22,3.93,7.22,10.27,0,9.38-5.3,16-14.12,19.25Z" transform="translate(-117.14 -196.93)"/><path d="M1266.52,670.38h6.66v15.56l-.4,9.23h.24c3.93-4.34,8.5-7.62,14.52-7.62,9.22,0,13.47,5.45,13.47,15.72v24.22h-6.66V704.15c0-7.38-2.56-10.83-8.9-10.83-4.65,0-7.78,2.33-12.27,7v27.19h-6.66Z" transform="translate(-117.14 -196.93)"/><path d="M1312.64,707.92c0-12.67,9.47-20.37,19.9-20.37,11.23,0,17.8,7.3,17.8,18.28a27.27,27.27,0,0,1-.32,4h-33v-5.14h29l-1.68,1.85c0-9.23-4.58-13.8-11.71-13.8s-13.48,5.45-13.48,15.16c0,10.11,6.58,15.24,15.24,15.24a21.21,21.21,0,0,0,11.87-3.69l2.41,4.33a26.68,26.68,0,0,1-15.08,4.66C1322,728.46,1312.64,720.92,1312.64,707.92Z" transform="translate(-117.14 -196.93)"/><path d="M1380.58,693.88h-18v-5.37h24.7v39h-6.66Zm-2.64-18.69a5.29,5.29,0,1,1,5.29,5.14A5,5,0,0,1,1377.94,675.19Z" transform="translate(-117.14 -196.93)"/><path d="M1409.22,734.63c0-3.13,2.24-6.25,6.42-8.66v-.32a7.05,7.05,0,0,1-4-6.42c0-2.49,1.68-5.29,4.65-7.3v-.32a12.41,12.41,0,0,1-4.82-10.11c0-8.5,7.06-14,15.33-14a15.85,15.85,0,0,1,5.77,1h16.12v5.37h-10.1a11.83,11.83,0,0,1,3.29,7.86c0,8.35-6.66,13.4-15.08,13.4a16.84,16.84,0,0,1-6.58-1.44c-1.93,1.2-3,2.64-3,4.49,0,3,3,4.49,8.1,4.49H1434c10,0,14.84,2.57,14.84,9.15,0,7.29-8.43,13.63-21.66,13.63C1415.8,745.46,1409.22,741.53,1409.22,734.63Zm33.13-1.76c0-3.69-3-4.74-8.91-4.74h-7.62a22.08,22.08,0,0,1-5.93-.64c-3.69,2-5,4.25-5,6.5,0,4.09,4.42,6.66,12.76,6.66C1436.73,740.65,1442.35,736.88,1442.35,732.87Zm-6.58-31.37a9,9,0,1,0-9,9.23A8.81,8.81,0,0,0,1435.77,701.5Z" transform="translate(-117.14 -196.93)"/><path d="M1459,670.38h6.66v15.56l-.4,9.23h.24c3.93-4.34,8.5-7.62,14.52-7.62,9.22,0,13.47,5.45,13.47,15.72v24.22h-6.65V704.15c0-7.38-2.57-10.83-8.91-10.83-4.65,0-7.78,2.33-12.27,7v27.19H1459Z" transform="translate(-117.14 -196.93)"/><path d="M1516.22,712.33V693.88h-11.07v-5l11.31-.4.89-12.51h5.53v12.51H1542v5.37h-19.09v18.53c0,7,2.33,10.59,9.87,10.59a25.63,25.63,0,0,0,9.3-1.76l1.45,4.89a34.09,34.09,0,0,1-12.2,2.33C1519.91,728.46,1516.22,722,1516.22,712.33Z" transform="translate(-117.14 -196.93)"/><path d="M1557.61,738.24c10.75-9.06,15.73-19.57,15.73-33s-5-24-15.73-33.05l3.69-3.36c11.15,8.66,18,20.93,18,36.41s-6.82,27.76-18,36.42Z" transform="translate(-117.14 -196.93)"/><path d="M1611.68,740.41c6.82-3,10.18-7.38,10.1-14l-1.44-7.38,4.49,6.34a5.65,5.65,0,0,1-4.49,1.84c-3.45,0-6.26-2-6.26-6s3-6.1,6.42-6.1c4.73,0,7.22,3.93,7.22,10.27,0,9.38-5.29,16-14.12,19.25Zm1.84-47.49a6.51,6.51,0,1,1,6.5,6.82A6.5,6.5,0,0,1,1613.52,692.92Z" transform="translate(-117.14 -196.93)"/><path class="c" d="M1425.72,660c-.67-31.71-3.3-84.57,16.43-116.39,16-25.83,47.59-40.24,65.87-64.45,11.68-15.46,14.86-26.37,15.59-47.43" transform="translate(-117.14 -196.93)"/><polygon points="1439.58 244.81 1406.44 186.57 1372.57 244.38 1439.58 244.81"/><path class="c" d="M1084.29,660q1.77-114.15,3.53-228.28" transform="translate(-117.14 -196.93)"/><polygon points="1004.04 245.11 971.44 186.57 937.03 244.07 1004.04 245.11"/><path d="M117.74,442.73V421.38h5.92v14.26H135.1V422.36h5.83v13.28h17.25v7.09Z" transform="translate(-117.14 -196.93)"/><path d="M117.74,407.7h24.5c7.5,0,10.71-2.91,10.71-7.18,0-4.55-3.18-7.36-10.71-7.36h-24.5v-7.1h23.84c11.86,0,17.21,5.73,17.21,14.65,0,8.75-5.17,14.09-17.09,14.09h-24Z" transform="translate(-117.14 -196.93)"/><path d="M158.18,378.12H117.74v-7.69l17.33-9.34a127.61,127.61,0,0,1,13.33-6.23l0-.14c-5.32.46-10.84.67-17.33.67H117.74v-6.48h40.44V356l-17.62,9.44a131.14,131.14,0,0,1-13.62,6.41l0,.16c5.08-.29,10.54-.42,17.69-.42h13.52Z" transform="translate(-117.14 -196.93)"/><path d="M157.15,315a22.61,22.61,0,0,1,1.58,9.13c0,11.75-7.9,18.8-20.27,18.8-14,0-21.27-9-21.27-19.78a19.16,19.16,0,0,1,1.56-8.44l5.75,1.48a15.86,15.86,0,0,0-1.36,6.67c0,7.09,4.82,12.6,14.93,12.6,9.51,0,14.63-4.86,14.63-12.54a18.62,18.62,0,0,0-1.24-6.84Z" transform="translate(-117.14 -196.93)"/><path d="M123.85,301.31v10.25h-6.11V283.87h6.11v10.34h34.33v7.1Z" transform="translate(-117.14 -196.93)"/><path d="M117.74,272.2h40.44v7.1H117.74Z" transform="translate(-117.14 -196.93)"/><path d="M137.53,232.18c14,0,21.26,7.34,21.26,17.29,0,10.41-8.68,16.68-20.63,16.68-12.32,0-21-6.87-21-17.28C117.14,238.07,126.16,232.18,137.53,232.18Zm.55,26.51c8.41,0,14.9-3.42,14.9-9.58s-6.84-9.47-15.18-9.47c-7.54,0-14.85,3-14.85,9.47S129.72,258.69,138.08,258.69Z" transform="translate(-117.14 -196.93)"/><path d="M158.18,226.14H117.74v-7.69l17.33-9.34a129.68,129.68,0,0,1,13.33-6.23l0-.14c-5.32.46-10.84.67-17.33.67H117.74v-6.48h40.44v7.14l-17.62,9.43a129.12,129.12,0,0,1-13.62,6.41l0,.17c5.08-.3,10.54-.42,17.69-.42h13.52Z" transform="translate(-117.14 -196.93)"/><path d="M157.15,730.77a22.61,22.61,0,0,1,1.58,9.13c0,11.75-7.9,18.8-20.26,18.8-14,0-21.28-9-21.28-19.78a19.16,19.16,0,0,1,1.56-8.44L124.5,732a15.86,15.86,0,0,0-1.36,6.67c0,7.09,4.82,12.6,14.93,12.6,9.51,0,14.63-4.86,14.63-12.54a18.66,18.66,0,0,0-1.24-6.84Z" transform="translate(-117.14 -196.93)"/><path d="M147,717.19l11.16,3.07v7.2l-40.44-11.78v-8.83l40.44-11.7v7.43L147,705.78Zm-5.42-10.35-9.75,2.74c-2.55.68-5.6,1.31-8.09,1.87v.15c2.52.54,5.64,1.15,8.07,1.8l9.77,2.72Z" transform="translate(-117.14 -196.93)"/><path d="M117.74,689.77v-7.1h34.47V667.79h6v22Z" transform="translate(-117.14 -196.93)"/><path d="M117.74,662.53v-7.1h34.47V640.55h6v22Z" transform="translate(-117.14 -196.93)"/><path class="d" d="M186.94,318.58l45.18,0" transform="translate(-117.14 -196.93)"/><path class="d" d="M186.94,702.22l45.18,0" transform="translate(-117.14 -196.93)"/><path class="e" d="M1067.29,788.09l-2.35,8.56h-5.53l9-31h6.77l9,31h-5.7l-2.45-8.56Zm7.94-4.15-2.1-7.48c-.53-2-1-4.29-1.44-6.2h-.11c-.42,1.93-.89,4.32-1.39,6.19l-2.08,7.49Z" transform="translate(-117.14 -196.93)"/><path class="e" d="M1107.25,795.86a17.46,17.46,0,0,1-7,1.21c-9,0-14.42-6.06-14.42-15.54,0-10.71,6.88-16.31,15.17-16.31a14.6,14.6,0,0,1,6.47,1.2l-1.14,4.41a12,12,0,0,0-5.11-1.05c-5.44,0-9.66,3.69-9.66,11.45,0,7.29,3.73,11.22,9.61,11.22a14.36,14.36,0,0,0,5.25-1Z" transform="translate(-117.14 -196.93)"/><path class="e" d="M1117.71,770.33h-7.86v-4.69h21.24v4.69h-7.94v26.32h-5.44Z" transform="translate(-117.14 -196.93)"/><path class="e" d="M1140,765.64v18.79c0,5.74,2.24,8.2,5.51,8.2,3.49,0,5.65-2.43,5.65-8.2V765.64h5.44v18.28c0,9.09-4.39,13.2-11.24,13.2s-10.8-4-10.8-13.11V765.64Z" transform="translate(-117.14 -196.93)"/><path class="e" d="M1167.16,788.09l-2.36,8.56h-5.53l9-31h6.77l9,31h-5.69l-2.46-8.56Zm7.93-4.15-2.1-7.48c-.53-2-1-4.29-1.44-6.2h-.11c-.42,1.93-.89,4.32-1.38,6.19l-2.09,7.49Z" transform="translate(-117.14 -196.93)"/><path class="e" d="M1188.18,765.64h5.44v26.43H1205v4.58h-16.85Z" transform="translate(-117.14 -196.93)"/><path class="e" d="M1226.72,766.06a42.68,42.68,0,0,1,7.81-.63c3.87,0,6.77.79,8.7,2.48a8.76,8.76,0,0,1,2.88,6.79,9.66,9.66,0,0,1-2.54,7c-2.14,2.23-5.5,3.29-9.09,3.29a13.74,13.74,0,0,1-2.36-.16v11.81h-5.4Zm5.4,14.45a9.79,9.79,0,0,0,2.3.21c3.93,0,6.28-2.14,6.28-5.76,0-3.26-2-5.29-5.77-5.29a13,13,0,0,0-2.81.26Z" transform="translate(-117.14 -196.93)"/><path class="e" d="M1253.36,788.09l-2.36,8.56h-5.52l9-31h6.77l9,31h-5.7l-2.46-8.56Zm7.93-4.15-2.1-7.48c-.52-2-1-4.29-1.44-6.2h-.11c-.41,1.93-.89,4.32-1.38,6.19l-2.08,7.49Z" transform="translate(-117.14 -196.93)"/><path class="e" d="M1274.38,766.08a42.78,42.78,0,0,1,7.78-.65c4.07,0,7,.69,9,2.43a7.87,7.87,0,0,1,2.58,6.24,8.22,8.22,0,0,1-5.41,7.78V782c2.22.83,3.48,2.94,4.21,6.15a59.79,59.79,0,0,0,2.28,8.5h-5.6a40.28,40.28,0,0,1-1.94-7.38c-.81-4-2.18-5.35-5.17-5.4h-2.33v12.78h-5.4Zm5.4,13.74h2.73c3.57,0,5.78-2.11,5.78-5.21,0-3.28-2-5-5.56-5a12.79,12.79,0,0,0-3,.25Z" transform="translate(-117.14 -196.93)"/><path class="e" d="M1304.74,788.09l-2.36,8.56h-5.52l9-31h6.77l9,31h-5.7l-2.46-8.56Zm7.93-4.15-2.1-7.48c-.52-2-1-4.29-1.44-6.2H1309c-.41,1.93-.88,4.32-1.38,6.19l-2.08,7.49Z" transform="translate(-117.14 -196.93)"/><path class="e" d="M1349.61,784.2c-.19-3.84-.39-8.48-.35-12.46h-.14c-.89,3.67-2,7.73-3.21,11.36l-4.15,13.18h-4.06l-3.79-12.94c-1.09-3.73-2.12-7.84-2.85-11.6H1331c-.11,3.89-.3,8.59-.52,12.64l-.65,12.27h-5l2.06-31h6.78l3.73,12.49c1.06,3.76,2,7.31,2.69,10.79h.13c.74-3.42,1.7-7,2.81-10.81l3.88-12.47h6.73l1.8,31h-5.2Z" transform="translate(-117.14 -196.93)"/><path class="e" d="M1376.64,782.78h-10.39v9.33h11.66v4.54h-17.1v-31h16.45v4.54h-11v8.14h10.39Z" transform="translate(-117.14 -196.93)"/><path class="e" d="M1388.1,770.33h-7.87v-4.69h21.24v4.69h-7.93v26.32h-5.44Z" transform="translate(-117.14 -196.93)"/><path class="e" d="M1420.8,782.78h-10.39v9.33h11.65v4.54H1405v-31h16.45v4.54h-11v8.14h10.39Z" transform="translate(-117.14 -196.93)"/><path class="e" d="M1426.73,766.08a42.7,42.7,0,0,1,7.78-.65c4.07,0,7,.69,9,2.43a7.87,7.87,0,0,1,2.58,6.24,8.22,8.22,0,0,1-5.41,7.78V782c2.22.83,3.48,2.94,4.21,6.15a59.79,59.79,0,0,0,2.28,8.5h-5.6a40.28,40.28,0,0,1-1.94-7.38c-.8-4-2.18-5.35-5.17-5.4h-2.33v12.78h-5.4Zm5.4,13.74h2.73c3.57,0,5.78-2.11,5.78-5.21,0-3.28-2-5-5.56-5a12.79,12.79,0,0,0-2.95.25Z" transform="translate(-117.14 -196.93)"/><path class="e" d="M1450.86,790.75a14.12,14.12,0,0,0,6.69,1.76c3.44,0,5.35-1.72,5.35-4.26s-1.56-3.78-5.06-5.3c-4.62-1.93-7.63-4.78-7.63-8.9,0-5,4-8.83,10.4-8.83a14.4,14.4,0,0,1,6.6,1.41l-1.23,4.46a11.45,11.45,0,0,0-5.48-1.34c-3.36,0-4.82,1.91-4.82,3.74,0,2.39,1.63,3.5,5.47,5.21,4.95,2.21,7.24,5,7.24,9.12,0,5.16-3.83,9.25-11.1,9.25a16.16,16.16,0,0,1-7.55-1.77Z" transform="translate(-117.14 -196.93)"/><path class="f" d="M956,228.79H972.4v4.54H961.47v8.77h10.18v4.47H961.47V259.8H956Z" transform="translate(-117.14 -196.93)"/><path class="f" d="M1002,244c0,10.76-5.63,16.3-13.26,16.3-8,0-12.79-6.65-12.79-15.82,0-9.45,5.27-16.12,13.26-16.12C997.49,228.32,1002,235.24,1002,244Zm-20.33.42c0,6.45,2.62,11.42,7.35,11.42s7.26-5.24,7.26-11.63c0-5.78-2.32-11.39-7.26-11.39S981.67,238,981.67,244.38Z" transform="translate(-117.14 -196.93)"/><path class="f" d="M1006.63,229.22a43.83,43.83,0,0,1,7.79-.64c4.06,0,7,.69,9,2.43a7.88,7.88,0,0,1,2.57,6.24,8.21,8.21,0,0,1-5.41,7.78v.12c2.23.83,3.48,2.94,4.21,6.15a60.6,60.6,0,0,0,2.28,8.5h-5.6a41.43,41.43,0,0,1-1.94-7.38c-.8-4-2.18-5.36-5.17-5.41H1012V259.8h-5.4ZM1012,243h2.73c3.57,0,5.78-2.11,5.78-5.21,0-3.28-2-5-5.55-5a12.12,12.12,0,0,0-3,.26Z" transform="translate(-117.14 -196.93)"/><path class="f" d="M1055,247.35c-.18-3.85-.39-8.48-.35-12.47h-.13c-.9,3.68-2.06,7.74-3.22,11.37l-4.14,13.18h-4.07l-3.79-12.94c-1.08-3.74-2.12-7.84-2.85-11.61h-.11c-.1,3.89-.3,8.59-.52,12.65l-.64,12.27h-5l2.06-31h6.78l3.72,12.48c1.06,3.77,2,7.32,2.7,10.79h.13c.74-3.41,1.69-7,2.8-10.81l3.89-12.46h6.73l1.79,31h-5.2Z" transform="translate(-117.14 -196.93)"/><path class="f" d="M1071.67,251.24l-2.35,8.56h-5.53l9-31h6.77l9,31h-5.69l-2.46-8.56Zm7.94-4.16-2.1-7.48c-.53-1.95-1-4.29-1.44-6.2H1076c-.42,1.93-.89,4.32-1.38,6.19l-2.09,7.49Z" transform="translate(-117.14 -196.93)"/><path class="f" d="M1092.69,228.79h5.44v26.43h11.42v4.58h-16.86Z" transform="translate(-117.14 -196.93)"/><path class="f" d="M1131.24,229.2a43.75,43.75,0,0,1,7.81-.62c3.87,0,6.77.79,8.7,2.48a8.73,8.73,0,0,1,2.88,6.79,9.62,9.62,0,0,1-2.54,7c-2.14,2.23-5.5,3.3-9.09,3.3a12.73,12.73,0,0,1-2.36-.17V259.8h-5.4Zm5.4,14.46a9.85,9.85,0,0,0,2.3.2c3.93,0,6.28-2.14,6.28-5.75,0-3.27-2-5.29-5.77-5.29a12.36,12.36,0,0,0-2.81.26Z" transform="translate(-117.14 -196.93)"/><path class="f" d="M1157.88,251.24l-2.36,8.56H1150l9-31h6.77l9,31h-5.7l-2.46-8.56Zm7.93-4.16-2.1-7.48c-.53-1.95-1-4.29-1.44-6.2h-.11c-.41,1.93-.89,4.32-1.38,6.19l-2.08,7.49Z" transform="translate(-117.14 -196.93)"/><path class="f" d="M1178.9,229.22a43.71,43.71,0,0,1,7.78-.64c4.07,0,7,.69,9,2.43a7.85,7.85,0,0,1,2.57,6.24,8.21,8.21,0,0,1-5.41,7.78v.12c2.23.83,3.49,2.94,4.22,6.15a60.6,60.6,0,0,0,2.28,8.5h-5.6a40.53,40.53,0,0,1-1.94-7.38c-.81-4-2.18-5.36-5.17-5.41h-2.33V259.8h-5.4Zm5.4,13.75H1187c3.57,0,5.78-2.11,5.78-5.21,0-3.28-2-5-5.56-5a12.08,12.08,0,0,0-3,.26Z" transform="translate(-117.14 -196.93)"/><path class="f" d="M1209.26,251.24l-2.36,8.56h-5.52l9-31h6.77l9,31h-5.7l-2.46-8.56Zm7.93-4.16-2.1-7.48c-.52-1.95-1-4.29-1.44-6.2h-.11c-.41,1.93-.88,4.32-1.38,6.19l-2.08,7.49Z" transform="translate(-117.14 -196.93)"/><path class="f" d="M1254.13,247.35c-.19-3.85-.39-8.48-.35-12.47h-.14c-.89,3.68-2.05,7.74-3.21,11.37l-4.15,13.18h-4.06l-3.79-12.94c-1.09-3.74-2.12-7.84-2.85-11.61h-.11c-.11,3.89-.3,8.59-.52,12.65l-.65,12.27h-5l2.06-31h6.78l3.73,12.48c1.06,3.77,2,7.32,2.69,10.79h.13c.74-3.41,1.7-7,2.8-10.81l3.89-12.46h6.73l1.8,31h-5.2Z" transform="translate(-117.14 -196.93)"/><path class="f" d="M1281.16,245.93h-10.39v9.33h11.65v4.54h-17.09v-31h16.45v4.54h-11v8.13h10.39Z" transform="translate(-117.14 -196.93)"/><path class="f" d="M1292.62,233.47h-7.87v-4.68H1306v4.68h-7.93V259.8h-5.44Z" transform="translate(-117.14 -196.93)"/><path class="f" d="M1325.32,245.93h-10.39v9.33h11.65v4.54h-17.09v-31h16.45v4.54h-11v8.13h10.39Z" transform="translate(-117.14 -196.93)"/><path class="f" d="M1331.25,229.22a43.71,43.71,0,0,1,7.78-.64c4.07,0,7,.69,9,2.43a7.85,7.85,0,0,1,2.57,6.24,8.21,8.21,0,0,1-5.41,7.78v.12c2.23.83,3.49,2.94,4.22,6.15a60.6,60.6,0,0,0,2.28,8.5h-5.6a40.53,40.53,0,0,1-1.94-7.38c-.81-4-2.18-5.36-5.17-5.41h-2.33V259.8h-5.4Zm5.4,13.75h2.73c3.57,0,5.78-2.11,5.78-5.21,0-3.28-2-5-5.56-5a12.08,12.08,0,0,0-2.95.26Z" transform="translate(-117.14 -196.93)"/><path class="f" d="M1355.38,253.9a14.11,14.11,0,0,0,6.69,1.75c3.44,0,5.35-1.72,5.35-4.25s-1.56-3.78-5.06-5.3c-4.62-1.93-7.63-4.78-7.63-8.9,0-5,4-8.83,10.4-8.83a14.4,14.4,0,0,1,6.6,1.41l-1.23,4.46a11.31,11.31,0,0,0-5.48-1.35c-3.36,0-4.82,1.91-4.82,3.75,0,2.38,1.63,3.49,5.47,5.21,4.95,2.2,7.24,5,7.24,9.12,0,5.15-3.83,9.25-11.1,9.25a16.16,16.16,0,0,1-7.55-1.77Z" transform="translate(-117.14 -196.93)"/></svg>