<svg xmlns="http://www.w3.org/2000/svg" viewBox="0 0 1659.69 779.82"><defs><style>.a{fill:#2a57d3;}.b{fill:#e54539;}.c{fill:none;stroke:#000;stroke-linecap:round;stroke-linejoin:round;stroke-width:4px;}</style></defs><path class="a" d="M511.17,404.46h-14.8v-4.69h20.26v34h-5.46ZM509,388.15a4.35,4.35,0,1,1,4.35,4.48A4.24,4.24,0,0,1,509,388.15Z" transform="translate(-57.2 -65.95)"/><path class="a" d="M536.05,399.77h4.47l.46,5.74h.27c3.35-3.71,7-6.58,12-6.58,7.56,0,11.05,4.76,11.05,13.72V433.8h-5.46V413.42c0-6.44-2.11-9.45-7.3-9.45-3.82,0-6.39,2-10.07,6.09V433.8h-5.46Z" transform="translate(-57.2 -65.95)"/><path class="a" d="M583,420.56v-16.1h-9.08v-4.34l9.28-.35.72-10.92h4.54v10.92h15.66v4.69H588.42v16.17c0,6.09,1.91,9.25,8.1,9.25a19.76,19.76,0,0,0,7.63-1.55l1.18,4.28a26.43,26.43,0,0,1-10,2C586,434.64,583,429,583,420.56Z" transform="translate(-57.2 -65.95)"/><path class="b" d="M653.63,425c0-7.63,6.71-11.34,23.23-12.74-.2-4.62-2.31-8.54-8.49-8.54-4.15,0-8.23,2.1-11.19,4.06L655,403.83c3.29-2.24,8.69-4.9,14.28-4.9,8.75,0,13,5.53,13,14V433.8h-4.54l-.46-4.63h-.2c-3.49,2.95-8.09,5.47-12.57,5.47C658.56,434.64,653.63,431.06,653.63,425Zm23.23-.07v-8.82c-13.69,1.12-17.83,4-17.83,8.47,0,3.85,3.29,5.39,7,5.39S673.17,428.13,676.86,424.9Z" transform="translate(-57.2 -65.95)"/><path class="b" d="M691.79,416.85c0-11.06,6.91-17.92,14.48-17.92,3.81,0,6.78,1.61,9.61,4.34H716l-.27-6.23V384h5.46V433.8h-4.47l-.46-4.49h-.2c-2.63,2.88-6.45,5.33-10.46,5.33C697.32,434.64,691.79,428.19,691.79,416.85Zm24,7.84V407.75c-2.89-2.87-5.59-3.92-8.35-3.92-5.53,0-10,5.18-10,12.95,0,8.12,3.55,13,9.4,13C710,429.73,712.91,428.05,715.74,424.69Z" transform="translate(-57.2 -65.95)"/><path class="b" d="M731.27,416.85c0-11.06,6.91-17.92,14.48-17.92,3.81,0,6.78,1.61,9.6,4.34h.14l-.27-6.23V384h5.46V433.8h-4.47l-.46-4.49h-.2c-2.63,2.88-6.45,5.33-10.46,5.33C736.8,434.64,731.27,428.19,731.27,416.85Zm24,7.84V407.75c-2.89-2.87-5.59-3.92-8.35-3.92-5.53,0-10,5.18-10,12.95,0,8.12,3.55,13,9.4,13C749.43,429.73,752.39,428.05,755.22,424.69Z" transform="translate(-57.2 -65.95)"/><path d="M780.49,414.33c0-13.51,5.59-24.22,14.74-31.78l3,2.94c-8.81,7.91-12.89,17.08-12.89,28.84s4.08,20.94,12.89,28.85l-3,2.94C786.08,438.56,780.49,427.84,780.49,414.33Z" transform="translate(-57.2 -65.95)"/><path class="a" d="M827,404.46h-14.8v-4.69h20.26v34H827Zm-2.17-16.31a4.34,4.34,0,1,1,4.34,4.48A4.24,4.24,0,0,1,824.84,388.15Z" transform="translate(-57.2 -65.95)"/><path class="a" d="M851.88,399.77h4.48l.46,5.74h.26c3.36-3.71,7-6.58,12-6.58,7.57,0,11,4.76,11,13.72V433.8h-5.46V413.42c0-6.44-2.1-9.45-7.3-9.45-3.82,0-6.38,2-10.07,6.09V433.8h-5.46Z" transform="translate(-57.2 -65.95)"/><path class="a" d="M898.8,420.56v-16.1h-9.08v-4.34l9.27-.35.73-10.92h4.54v10.92h15.66v4.69H904.26v16.17c0,6.09,1.91,9.25,8.09,9.25a19.72,19.72,0,0,0,7.63-1.55l1.19,4.28a26.47,26.47,0,0,1-10,2C901.82,434.64,898.8,429,898.8,420.56Z" transform="translate(-57.2 -65.95)"/><path d="M969.47,425c0-7.63,6.71-11.34,23.22-12.74-.2-4.62-2.3-8.54-8.49-8.54-4.14,0-8.22,2.1-11.18,4.06l-2.17-3.92c3.29-2.24,8.68-4.9,14.28-4.9,8.75,0,13,5.53,13,14V433.8h-4.54l-.46-4.63H993c-3.49,2.95-8.1,5.47-12.57,5.47C974.4,434.64,969.47,431.06,969.47,425Zm23.22-.07v-8.82c-13.68,1.12-17.83,4-17.83,8.47,0,3.85,3.29,5.39,7,5.39S989,428.13,992.69,424.9Z" transform="translate(-57.2 -65.95)"/><path d="M1016.58,445.07c5.59-2.66,8.35-6.44,8.29-12.25l-1.19-6.45,3.69,5.54a4.51,4.51,0,0,1-3.69,1.61,4.85,4.85,0,0,1-5.13-5.26,5,5,0,0,1,5.27-5.32c3.88,0,5.92,3.43,5.92,9,0,8.19-4.35,13.93-11.58,16.8Z" transform="translate(-57.2 -65.95)"/><path class="a" d="M1103.37,404.46h-14.81v-4.69h20.27v34h-5.46Zm-2.17-16.31a4.34,4.34,0,1,1,4.34,4.48A4.24,4.24,0,0,1,1101.2,388.15Z" transform="translate(-57.2 -65.95)"/><path class="a" d="M1128.24,399.77h4.47l.46,5.74h.27c3.35-3.71,7-6.58,12-6.58,7.56,0,11,4.76,11,13.72V433.8h-5.46V413.42c0-6.44-2.11-9.45-7.3-9.45-3.82,0-6.39,2-10.07,6.09V433.8h-5.46Z" transform="translate(-57.2 -65.95)"/><path class="a" d="M1175.15,420.56v-16.1h-9.08v-4.34l9.28-.35.73-10.92h4.53v10.92h15.66v4.69h-15.66v16.17c0,6.09,1.91,9.25,8.1,9.25a19.72,19.72,0,0,0,7.63-1.55l1.18,4.28a26.38,26.38,0,0,1-10,2C1178.18,434.64,1175.15,429,1175.15,420.56Z" transform="translate(-57.2 -65.95)"/><path d="M1251.74,430h-.19l-.53,3.78h-4.34V384h5.46v13.58l-.26,6.58h.19c2.9-3.15,7-5.18,10.73-5.18,8.62,0,13.29,6.79,13.29,17.29,0,11.62-6.84,18.42-14.41,18.42C1258.52,434.64,1254.71,432.89,1251.74,430Zm18.76-13.73c0-7.49-2.64-12.46-9-12.46-2.83,0-6.12,1.54-9.34,5v16.94a12.93,12.93,0,0,0,8.62,3.92C1266.29,429.73,1270.5,424.69,1270.5,416.29Z" transform="translate(-57.2 -65.95)"/><path d="M1288.07,443.18c8.81-7.91,12.89-17.09,12.89-28.85s-4.08-20.93-12.89-28.84l3-2.94c9.15,7.56,14.74,18.27,14.74,31.78s-5.59,24.23-14.74,31.79Z" transform="translate(-57.2 -65.95)"/><path d="M1375.78,435.13c0-5.11.65-8.83.65-13.52,0-2.73-1.77-5.39-9.54-5.46v-3.64c7.77-.07,9.54-2.73,9.54-5.46,0-4.41-.65-8.68-.65-13.51,0-7.21,3.94-9.31,12.17-9.31H1392v3.29h-3.42c-6.72,0-8.16,1.82-8.16,6.37,0,4,.39,8.33.39,12.67,0,4.55-1.45,6.79-6,7.63v.28c4.54.84,6,3.08,6,7.63,0,4.76-.39,8.4-.39,12.68,0,4.55,1.44,6.37,8.16,6.37H1392v3.29H1388C1379.72,444.44,1375.78,442.34,1375.78,435.13Z" transform="translate(-57.2 -65.95)"/><path class="a" d="M629.61,484.46h-14.8v-4.69h20.26v34h-5.46Zm-2.17-16.31a4.35,4.35,0,1,1,4.34,4.48A4.24,4.24,0,0,1,627.44,468.15Z" transform="translate(-57.2 -65.95)"/><path class="a" d="M654.49,479.77H659l.46,5.74h.26c3.36-3.71,7-6.58,12-6.58,7.57,0,11.06,4.76,11.06,13.72V513.8h-5.46V493.42c0-6.44-2.11-9.45-7.31-9.45-3.81,0-6.38,2-10.06,6.09V513.8h-5.46Z" transform="translate(-57.2 -65.95)"/><path class="a" d="M701.4,500.56v-16.1h-9.08v-4.34l9.28-.35.72-10.92h4.54v10.92h15.66v4.69H706.86v16.17c0,6.09,1.91,9.25,8.09,9.25a19.77,19.77,0,0,0,7.64-1.55l1.18,4.28a26.43,26.43,0,0,1-10,2C704.43,514.64,701.4,509,701.4,500.56Z" transform="translate(-57.2 -65.95)"/><path d="M771.48,509.31l2.5-3.85a21.88,21.88,0,0,0,13.88,4.62c5.39,0,8-2.38,8-5.25,0-2.59-1.25-4.41-9.94-6.3-8.35-1.82-12.5-4.83-12.5-9.94,0-5.46,4.54-9.66,13.29-9.66a23,23,0,0,1,12.9,4.34L797,487a18.08,18.08,0,0,0-10.72-3.57c-5.4,0-7.37,2.31-7.37,4.9,0,2.94,2.76,4.2,9.34,5.67,10.6,2.45,13.16,5.25,13.16,10.5,0,5.54-5.06,10.16-14.21,10.16A26.89,26.89,0,0,1,771.48,509.31Z" transform="translate(-57.2 -65.95)"/><path d="M811.35,500.91V479.77h5.46v20.37c0,6.37,2.11,9.45,7.37,9.45,3.69,0,6.38-1.82,9.94-6.23V479.77h5.46v34H835l-.46-6h-.27c-3.22,4-7,6.8-11.91,6.8C814.84,514.64,811.35,509.88,811.35,500.91Z" transform="translate(-57.2 -65.95)"/><path d="M849.58,479.77h4.34l.46,4.48h.13c1.65-3.15,3.62-5.32,7.31-5.32,3.16,0,5.13,2,6,5.88,1.84-3.64,3.82-5.88,7.5-5.88,4.48,0,7.11,3.71,7.11,10.5V513.8h-5.4V489.85c0-3.92-1.05-6-3.42-6s-3.42,1.75-5.13,5.25V513.8h-5V489.85c0-3.92-.92-6-3.29-6s-3.69,1.75-5.26,5.25V513.8h-5.4Z" transform="translate(-57.2 -65.95)"/><path d="M930.32,481h28.29v4.34H930.32Zm0,15h28.29v4.34H930.32Z" transform="translate(-57.2 -65.95)"/><path d="M1009,505c0-7.63,6.71-11.34,23.22-12.74-.2-4.62-2.3-8.54-8.49-8.54-4.14,0-8.22,2.1-11.18,4.06l-2.17-3.92c3.29-2.24,8.68-4.9,14.27-4.9,8.76,0,13,5.53,13,14V513.8h-4.54l-.46-4.63h-.2c-3.48,2.95-8.09,5.47-12.56,5.47C1013.88,514.64,1009,511.06,1009,505Zm23.22-.07v-8.82c-13.68,1.12-17.83,4-17.83,8.47,0,3.85,3.29,5.39,7,5.39S1028.49,508.13,1032.17,504.9Z" transform="translate(-57.2 -65.95)"/><path d="M1060.73,492.86h-12v-4.34h12V474.87h4.34v13.65h12v4.34h-12v13.65h-4.34Z" transform="translate(-57.2 -65.95)"/><path d="M1093.83,510h-.2l-.53,3.78h-4.34V464h5.46v13.58l-.26,6.58h.2c2.89-3.15,7-5.18,10.72-5.18,8.62,0,13.29,6.79,13.29,17.29,0,11.62-6.84,18.42-14.41,18.42C1100.6,514.64,1096.79,512.89,1093.83,510Zm18.75-13.73c0-7.49-2.63-12.46-9-12.46-2.83,0-6.12,1.54-9.34,5v16.94a12.93,12.93,0,0,0,8.62,3.92C1108.37,509.73,1112.58,504.69,1112.58,496.29Z" transform="translate(-57.2 -65.95)"/><path d="M1135,525.07c5.59-2.66,8.35-6.44,8.29-12.25l-1.19-6.45,3.69,5.54a4.52,4.52,0,0,1-3.69,1.61,4.85,4.85,0,0,1-5.13-5.26,5,5,0,0,1,5.26-5.32c3.89,0,5.92,3.43,5.92,9,0,8.19-4.34,13.93-11.58,16.8Zm1.51-41.45c0-3.5,2.37-5.95,5.33-5.95s5.33,2.45,5.33,5.95-2.37,5.95-5.33,5.95S1136.53,487.19,1136.53,483.62Z" transform="translate(-57.2 -65.95)"/><path class="a" d="M618.43,559.77H623l.52,8.05h.14c3.35-5.53,8.35-8.89,14.27-8.89a12.77,12.77,0,0,1,6.32,1.4l-1.25,5a15.18,15.18,0,0,0-5.92-1.12c-4.81,0-9.35,2.59-13.16,9.73v19.88h-5.46Z" transform="translate(-57.2 -65.95)"/><path class="a" d="M652.84,576.71c0-11.06,7.76-17.78,16.32-17.78,9.21,0,14.6,6.37,14.6,16a25.38,25.38,0,0,1-.26,3.5h-27v-4.48h23.82l-1.38,1.61c0-8-3.75-12-9.61-12s-11,4.76-11,13.23c0,8.82,5.39,13.3,12.5,13.3a16.68,16.68,0,0,0,9.73-3.22l2,3.79a21,21,0,0,1-12.37,4.06C660.47,594.64,652.84,588.05,652.84,576.71Z" transform="translate(-57.2 -65.95)"/><path class="a" d="M701.4,580.56v-16.1h-9.08v-4.34l9.28-.35.72-10.92h4.54v10.92h15.66v4.69H706.86v16.17c0,6.09,1.91,9.25,8.09,9.25a19.77,19.77,0,0,0,7.64-1.55l1.18,4.28a26.43,26.43,0,0,1-10,2C704.43,594.64,701.4,589,701.4,580.56Z" transform="translate(-57.2 -65.95)"/><path class="a" d="M732.39,580.91V559.77h5.46v20.37c0,6.37,2.11,9.45,7.37,9.45,3.69,0,6.38-1.82,9.94-6.23V559.77h5.46v34h-4.54l-.46-5.95h-.27c-3.22,4-7,6.8-11.9,6.8C735.88,594.64,732.39,589.88,732.39,580.91Z" transform="translate(-57.2 -65.95)"/><path class="a" d="M776.35,559.77h4.53l.53,8.05h.13c3.36-5.53,8.36-8.89,14.28-8.89a12.79,12.79,0,0,1,6.32,1.4l-1.25,5a15.18,15.18,0,0,0-5.92-1.12c-4.81,0-9.35,2.59-13.16,9.73v19.88h-5.46Z" transform="translate(-57.2 -65.95)"/><path class="a" d="M812.4,559.77h4.48l.46,5.74h.26c3.36-3.71,7-6.58,12-6.58,7.57,0,11.06,4.76,11.06,13.72v21.14h-5.47V573.42c0-6.44-2.1-9.45-7.3-9.45-3.81,0-6.38,2-10.07,6.09v23.73H812.4Z" transform="translate(-57.2 -65.95)"/><path d="M889.92,589.31l2.5-3.85a21.88,21.88,0,0,0,13.88,4.62c5.39,0,8-2.38,8-5.25,0-2.59-1.25-4.41-9.94-6.3-8.36-1.82-12.5-4.83-12.5-9.94,0-5.46,4.54-9.66,13.29-9.66a23,23,0,0,1,12.9,4.34L915.44,567a18.08,18.08,0,0,0-10.72-3.57c-5.4,0-7.37,2.31-7.37,4.9,0,2.94,2.76,4.2,9.34,5.67,10.6,2.45,13.16,5.25,13.16,10.5,0,5.53-5.06,10.16-14.21,10.16A27,27,0,0,1,889.92,589.31Z" transform="translate(-57.2 -65.95)"/><path d="M929.79,580.91V559.77h5.46v20.37c0,6.37,2.11,9.45,7.37,9.45,3.68,0,6.38-1.82,9.93-6.23V559.77H958v34h-4.54l-.47-5.95h-.26c-3.22,4-7,6.8-11.91,6.8C933.28,594.64,929.79,589.88,929.79,580.91Z" transform="translate(-57.2 -65.95)"/><path d="M968,559.77h4.34l.46,4.48H973c1.65-3.15,3.62-5.32,7.31-5.32,3.16,0,5.13,2,6,5.88,1.84-3.64,3.82-5.88,7.5-5.88,4.47,0,7.11,3.71,7.11,10.5v24.36h-5.4V569.85c0-3.92-1-6-3.42-6s-3.42,1.75-5.13,5.25v24.64h-5V569.85c0-3.92-.92-6-3.29-6s-3.69,1.75-5.27,5.25v24.64H968Z" transform="translate(-57.2 -65.95)"/><path d="M1016.58,605.07c5.59-2.66,8.35-6.44,8.29-12.25l-1.19-6.45,3.69,5.54a4.51,4.51,0,0,1-3.69,1.61,4.86,4.86,0,0,1-5.13-5.26,5,5,0,0,1,5.27-5.32c3.88,0,5.92,3.43,5.92,9,0,8.19-4.35,13.93-11.58,16.8Zm1.51-41.45c0-3.5,2.37-6,5.33-6s5.33,2.45,5.33,6-2.37,6-5.33,6S1018.09,567.19,1018.09,563.62Z" transform="translate(-57.2 -65.95)"/><path d="M497,681.15h3.36c6.71,0,8.22-1.82,8.22-6.37,0-4.28-.39-7.92-.39-12.68,0-4.55,1.38-6.79,5.92-7.63v-.28c-4.54-.84-5.92-3.08-5.92-7.63,0-4.34.39-8.68.39-12.67,0-4.55-1.51-6.37-8.22-6.37H497v-3.29h4c8.29,0,12.1,2.1,12.1,9.31,0,4.83-.59,9.1-.59,13.51,0,2.73,1.78,5.39,9.54,5.46v3.64c-7.76.07-9.54,2.73-9.54,5.46,0,4.69.59,8.4.59,13.52,0,7.21-3.81,9.31-12.1,9.31h-4Z" transform="translate(-57.2 -65.95)"/><path class="c" d="M548.17,374.9c-20.5-59.57-75-106.11-137-117.07" transform="translate(-57.2 -65.95)"/><path class="c" d="M438.11,295c-10.08-12.2-21.86-26.65-31.93-38.85l51.49-14.4" transform="translate(-57.2 -65.95)"/><path class="c" d="M709,373.54l.19-137.37" transform="translate(-57.2 -65.95)"/><path class="c" d="M683.06,271.56c8.22-13.46,18.41-28,26.63-41.45,7.42,18.69,15.25,26.3,30.17,38.08" transform="translate(-57.2 -65.95)"/><path class="c" d="M1028.1,322.6a134.73,134.73,0,0,1,133.74-118.4" transform="translate(-57.2 -65.95)"/><path class="c" d="M1121.63,182.05c16.51,7.77,28.83,12.82,45.33,20.59-11.46,16.38-19,26-30.47,42.38" transform="translate(-57.2 -65.95)"/><path class="c" d="M1050,578.32c27.86,8.07,43.42,44.13,44.4,80.69s-9.69,73.85-20.2,110" transform="translate(-57.2 -65.95)"/><path class="c" d="M1054.39,724.91c10.64,15.9,16.43,30.64,19.11,49,16.29-13.24,26.92-22.92,38.69-39.87" transform="translate(-57.2 -65.95)"/><path class="c" d="M1131.63,458.6c26.63-.71,40.18.58,66.81-.13-8.18,52.2-1.39,104.57-2,156.95-18.92-.44-45.31,1.12-64.23.68" transform="translate(-57.2 -65.95)"/><path class="c" d="M1198.44,531.66,1552.25,535" transform="translate(-57.2 -65.95)"/><path class="c" d="M1515.46,566.08c13.26-10.19,26.53-21.57,39.79-31.75-13.78-9.92-28.22-20.9-43.15-28" transform="translate(-57.2 -65.95)"/><path class="c" d="M812.88,372.05c.77-9.57,1.54-35.37,2.3-44.94,159.64-4.21,292.44-3.5,457.29,0,2.54,35.8,1.07,19.69,1.18,44.83" transform="translate(-57.2 -65.95)"/><path d="M57.2,212a41.53,41.53,0,0,1,10.09-1.17c6.26,0,10.24,1.5,13,4.47a14.9,14.9,0,0,1,3.6,10.11c0,7.62-4,12.29-9.81,14.6v.17c4.18,1.34,6.69,5.57,7.94,12.35,1.66,8.68,2.64,12.61,3.59,14.62H81.91c-.82-1.66-1.88-6.63-3.21-13.76-1.53-8.09-4.59-11.67-11.29-11.89H60.8v25.65H57.2Zm3.6,26.42h6.73c7.62,0,12.71-4.85,12.71-12.35,0-8.25-5-12-13.07-12a26,26,0,0,0-6.37.64Z" transform="translate(-57.2 -65.95)"/><path d="M94.54,246.48c0,13.71,6.13,18.06,12.8,18.06a17,17,0,0,0,9-2.06l.91,3c-1.55,1-5.06,2.39-10.38,2.39-10,0-15.9-8.31-15.9-20.08,0-13.09,6.3-21.36,15.13-21.36,10.81,0,13.05,11.5,13.05,17.64a19.27,19.27,0,0,1-.09,2.41Zm20.78-3.08c.12-6.83-2.56-13.72-9.75-13.72S95.29,237.19,94.7,243.4Z" transform="translate(-57.2 -65.95)"/><path d="M132.79,216v11.23h9.59v3.16h-9.59V256.7c0,5.21,1.55,7.88,5,7.88a10.92,10.92,0,0,0,3.65-.51l.44,3a11.12,11.12,0,0,1-4.63.84,7.16,7.16,0,0,1-6-2.67c-1.54-2-2.09-5-2.09-9.39V230.43h-5.82v-3.16h5.82v-9.91Z" transform="translate(-57.2 -65.95)"/><path d="M175.83,257.28c0,3.83.15,7,.31,9.83h-3.33l-.27-6.2h-.15a12.87,12.87,0,0,1-11.29,7c-5.18,0-11.49-3.35-11.49-16.7v-24h3.6v23.19c0,8.15,2,14.15,8.72,14.15,5.21,0,8.56-4.29,9.74-7.75a16.9,16.9,0,0,0,.56-4.18V227.27h3.6Z" transform="translate(-57.2 -65.95)"/><path d="M187.34,238.4c0-3.68-.15-7.68-.31-11.13h3.36l.15,7.61h.2c1.43-4.58,5.11-8.45,9.88-8.45a6.51,6.51,0,0,1,1.27.13v3.82a7.12,7.12,0,0,0-1.44-.09c-5,0-8.47,4.85-9.27,10.79a27.11,27.11,0,0,0-.24,3.66v22.37h-3.6Z" transform="translate(-57.2 -65.95)"/><path d="M208.91,236.7c0-4-.16-6.39-.31-9.43h3.32l.24,6.51h.16a12.44,12.44,0,0,1,11.5-7.35c3.7,0,11.7,2.22,11.7,15.7v25h-3.6V242.8c0-6.78-2.12-13.08-9.11-13.08-4.6,0-8.63,3.65-9.9,8.91a15.79,15.79,0,0,0-.4,3.53v25h-3.6Z" transform="translate(-57.2 -65.95)"/><path d="M267.44,216v11.23H277v3.16h-9.6V256.7c0,5.21,1.56,7.88,5.05,7.88a10.92,10.92,0,0,0,3.65-.51l.44,3a11.12,11.12,0,0,1-4.63.84,7.16,7.16,0,0,1-6-2.67c-1.54-2-2.09-5-2.09-9.39V230.43H258v-3.16h5.82v-9.91Z" transform="translate(-57.2 -65.95)"/><path d="M284.49,227.27l8.6,25.5c1,3,1.82,6.17,2.49,8.78h.15c.68-2.45,1.62-5.68,2.6-9l8-25.33h3.8l-9.4,27.51c-4,12.14-7,20.58-11.8,25.73a21.35,21.35,0,0,1-6.27,4.68L281.32,282a20,20,0,0,0,6.24-4.92,33.2,33.2,0,0,0,5.43-9.41,5.84,5.84,0,0,0,.44-1.85,4.65,4.65,0,0,0-.37-1.67l-12.37-36.86Z" transform="translate(-57.2 -65.95)"/><path d="M316.85,239.86c0-5.58-.15-9.3-.31-12.59H320l.24,6.88h.16c2.58-5.16,6.73-7.72,12.05-7.72,8.37,0,14.39,7.72,14.39,20.25,0,14.53-7.29,21.27-15.29,21.27a12,12,0,0,1-10.93-6.68h-.15v22.12h-3.6Zm3.6,11.86a17,17,0,0,0,.28,3.2c1.48,6.62,6.06,9.79,10.67,9.79,7.78,0,11.75-7.69,11.75-17.87,0-8.89-3.88-17.16-11.58-17.16-4.86,0-9.46,4.28-10.72,10.32a18.92,18.92,0,0,0-.4,3.33Z" transform="translate(-57.2 -65.95)"/><path d="M356.52,246.48c0,13.71,6.13,18.06,12.8,18.06a17.08,17.08,0,0,0,9-2.06l.9,3c-1.55,1-5.05,2.39-10.38,2.39-10,0-15.89-8.31-15.89-20.08,0-13.09,6.3-21.36,15.13-21.36,10.81,0,13,11.5,13,17.64a21.66,21.66,0,0,1-.08,2.41Zm20.79-3.08c.11-6.83-2.56-13.72-9.76-13.72s-10.27,7.51-10.86,13.72Z" transform="translate(-57.2 -65.95)"/><path d="M488.57,66.79h23.66v3.29H492.17V92.46h18.47v3.29H492.17v27h-3.6Z" transform="translate(-57.2 -65.95)"/><path d="M544.48,112.91c0,3.82.15,6.94.31,9.82h-3.33l-.27-6.2H541a12.87,12.87,0,0,1-11.29,7c-5.19,0-11.5-3.35-11.5-16.7v-24h3.6v23.19c0,8.16,2,14.16,8.72,14.16,5.22,0,8.57-4.29,9.74-7.76a16.8,16.8,0,0,0,.57-4.17V82.89h3.6Z" transform="translate(-57.2 -65.95)"/><path d="M556,92.32c0-4-.15-6.39-.31-9.43H559l.24,6.51h.15a12.46,12.46,0,0,1,11.51-7.34c3.69,0,11.7,2.21,11.7,15.69v25H579V98.42c0-6.78-2.13-13.08-9.11-13.08-4.6,0-8.63,3.65-9.9,8.91a15.84,15.84,0,0,0-.41,3.53v25H556Z" transform="translate(-57.2 -65.95)"/><path d="M617.1,121.18a19.56,19.56,0,0,1-9.48,2.31c-9.75,0-16.33-8-16.33-20.33,0-12.14,7.06-21.1,17.52-21.1a15.84,15.84,0,0,1,8.42,2.15L616,87.45a14.21,14.21,0,0,0-7.6-2c-9,0-13.42,8.51-13.42,17.59,0,10.5,5.43,17.15,13.24,17.15a17,17,0,0,0,8-2Z" transform="translate(-57.2 -65.95)"/><path d="M630.94,71.66V82.89h9.6v3.16h-9.6v26.27c0,5.21,1.56,7.88,5,7.88a10.92,10.92,0,0,0,3.65-.51l.43,3a11,11,0,0,1-4.62.84,7.16,7.16,0,0,1-6-2.67c-1.54-2-2.09-5-2.09-9.39V86.05h-5.83V82.89h5.83V73Z" transform="translate(-57.2 -65.95)"/><path d="M652.67,71.86c0,1.86-1.06,3.33-3,3.33-1.61,0-2.75-1.47-2.75-3.33a3.09,3.09,0,0,1,2.87-3.33C651.57,68.53,652.67,70,652.67,71.86ZM648,122.73V82.89h3.6v39.84Z" transform="translate(-57.2 -65.95)"/><path d="M691.7,102.55c0,14.82-8.37,21-15.94,21-8.38,0-15.27-7.38-15.27-20.54,0-14,7.54-21,15.81-21C685.13,82.06,691.7,89.6,691.7,102.55Zm-27.54.35c0,8.91,4.53,17.43,11.87,17.43s12-8.56,12-17.65c0-7-3-17.38-11.9-17.38C667.54,85.3,664.16,94.94,664.16,102.9Z" transform="translate(-57.2 -65.95)"/><path d="M700.51,92.32c0-4-.15-6.39-.31-9.43h3.33l.24,6.51h.15a12.46,12.46,0,0,1,11.51-7.34c3.69,0,11.7,2.21,11.7,15.69v25h-3.6V98.42c0-6.78-2.13-13.08-9.11-13.08-4.6,0-8.63,3.65-9.9,8.91a15.84,15.84,0,0,0-.41,3.53v25h-3.6Z" transform="translate(-57.2 -65.95)"/><path d="M754.11,92.32c0-4-.15-6.39-.31-9.43h3.33l.24,6.51h.15A12.46,12.46,0,0,1,769,82.06c3.69,0,11.7,2.21,11.7,15.69v25h-3.6V98.42c0-6.78-2.13-13.08-9.11-13.08-4.6,0-8.63,3.65-9.91,8.91a16.48,16.48,0,0,0-.4,3.53v25h-3.6Z" transform="translate(-57.2 -65.95)"/><path d="M810.48,122.73l-.48-5.31h-.19a12,12,0,0,1-10.47,6.15c-6.65,0-10.19-5.2-10.19-11,0-9.32,7.36-14.54,20.57-14.45V97c0-4.8-.8-11.67-8.64-11.63A13.68,13.68,0,0,0,792.91,88l-1.1-2.83a17,17,0,0,1,9.77-3.1c9.08,0,11.75,7,11.75,14.83v16.53a72.55,72.55,0,0,0,.47,9.31Zm-.76-21.32c-6.57-.18-16.77.81-16.77,10.69,0,5.8,3.3,8.23,6.78,8.23,5.33,0,8.56-3.7,9.67-7.86a9.36,9.36,0,0,0,.32-2.44Z" transform="translate(-57.2 -65.95)"/><path d="M824.56,92.32c0-4-.15-6.39-.31-9.43h3.33l.24,6.46H828c2.11-4.23,5.41-7.29,10.95-7.29,4.55,0,8.25,3,9.81,8h.16a14.91,14.91,0,0,1,3.75-5.25,11.13,11.13,0,0,1,7.81-2.79c3.77,0,11.12,2.38,11.12,16.1v24.57H868V98.8c0-8-2.53-13.46-8.73-13.46-4.16,0-7.55,3.44-8.85,7.78a15.34,15.34,0,0,0-.52,4v25.63h-3.6V97.23c0-6.61-2.57-11.89-8.37-11.89-4.44,0-8.1,3.91-9.29,8.78a16.25,16.25,0,0,0-.45,3.78v24.83h-3.6Z" transform="translate(-57.2 -65.95)"/><path d="M883.79,102.1c0,13.71,6.12,18.06,12.79,18.06a17.08,17.08,0,0,0,9-2.06l.9,3c-1.55,1-5.05,2.38-10.38,2.38-10,0-15.89-8.3-15.89-20.08,0-13.09,6.3-21.35,15.13-21.35,10.81,0,13,11.49,13,17.63a21.66,21.66,0,0,1-.08,2.41ZM904.57,99c.12-6.83-2.56-13.72-9.76-13.72S884.54,92.81,883.94,99Z" transform="translate(-57.2 -65.95)"/><path d="M911.28,126.05,933.43,66H937l-22.27,60.1Z" transform="translate(-57.2 -65.95)"/><path d="M613.29,144.25h3.6v24.92H617a13.18,13.18,0,0,1,4.52-5.09,11.77,11.77,0,0,1,6.76-2c3.51,0,11.58,2.09,11.58,15.49v25.18h-3.6V178.22c0-6.69-2.23-12.83-9-12.83-4.74,0-8.59,3.69-10,8.71a12.73,12.73,0,0,0-.4,3.64v25h-3.6Z" transform="translate(-57.2 -65.95)"/><path d="M652.15,182.1c0,13.71,6.13,18.06,12.8,18.06a17,17,0,0,0,9-2.06l.91,3c-1.55,1-5.06,2.38-10.38,2.38-10,0-15.9-8.3-15.9-20.08,0-13.09,6.3-21.35,15.13-21.35,10.81,0,13.05,11.49,13.05,17.63a19.27,19.27,0,0,1-.09,2.41ZM672.93,179c.12-6.83-2.56-13.72-9.75-13.72S652.9,172.81,652.31,179Z" transform="translate(-57.2 -65.95)"/><path d="M703.82,202.73l-.47-5.31h-.2a11.93,11.93,0,0,1-10.46,6.15c-6.65,0-10.19-5.2-10.19-11,0-9.32,7.36-14.54,20.57-14.45V177c0-4.8-.81-11.67-8.64-11.63a13.73,13.73,0,0,0-8.18,2.65l-1.1-2.83a17,17,0,0,1,9.77-3.1c9.09,0,11.75,7,11.75,14.83v16.53a70.76,70.76,0,0,0,.48,9.31Zm-.75-21.32c-6.57-.18-16.78.81-16.78,10.69,0,5.8,3.31,8.23,6.79,8.23,5.33,0,8.56-3.7,9.67-7.86a9.36,9.36,0,0,0,.32-2.44Z" transform="translate(-57.2 -65.95)"/><path d="M744.7,144.25v49.56c0,2.65.15,6.51.31,8.92H741.8l-.28-6.88h-.23a12.36,12.36,0,0,1-11.68,7.72c-8.05,0-14.43-7.55-14.43-20.2,0-13.58,7-21.31,15.06-21.31a11.42,11.42,0,0,1,10.7,6.45h.16V144.25Zm-3.6,34.19a18.41,18.41,0,0,0-.29-3.39c-1-5.32-5-9.75-10.31-9.75-7.44,0-11.65,7.85-11.65,17.73,0,9,3.58,17.3,11.39,17.3,4.4,0,8.9-3,10.54-10a12.92,12.92,0,0,0,.32-3.13Z" transform="translate(-57.2 -65.95)"/><path d="M757.08,182.1c0,13.71,6.13,18.06,12.8,18.06a17.11,17.11,0,0,0,9-2.06l.9,3c-1.55,1-5.06,2.38-10.38,2.38-10,0-15.89-8.3-15.89-20.08,0-13.09,6.29-21.35,15.13-21.35,10.81,0,13,11.49,13,17.63a21.66,21.66,0,0,1-.08,2.41ZM777.87,179c.11-6.83-2.56-13.72-9.76-13.72s-10.27,7.51-10.87,13.72Z" transform="translate(-57.2 -65.95)"/><path d="M790.35,174c0-3.68-.15-7.68-.31-11.13h3.36l.16,7.61h.2c1.42-4.58,5.11-8.44,9.87-8.44a5.91,5.91,0,0,1,1.28.13V166a7.23,7.23,0,0,0-1.45-.09c-5,0-8.46,4.85-9.26,10.79a27.09,27.09,0,0,0-.25,3.66v22.37h-3.6Z" transform="translate(-57.2 -65.95)"/><path d="M1193.2,167.3a45.44,45.44,0,0,1,10.11-1.08c5.61,0,10,1.63,12.73,4.5,2.43,2.58,3.88,6.27,3.88,11s-1.15,8.13-3.28,10.87c-3.14,4.22-8.49,6.41-14.47,6.41a19.11,19.11,0,0,1-5.37-.51v24h-3.6Zm3.6,27.85a19,19,0,0,0,5.51.64c8.49,0,13.93-4.67,13.93-13.74,0-8.05-4.91-12.59-13.12-12.59a29.66,29.66,0,0,0-6.32.59Z" transform="translate(-57.2 -65.95)"/><path d="M1244.92,222.53l-.47-5.31h-.2a11.93,11.93,0,0,1-10.46,6.15c-6.65,0-10.19-5.19-10.19-11,0-9.32,7.36-14.55,20.57-14.46v-1.18c0-4.81-.81-11.68-8.64-11.64a13.73,13.73,0,0,0-8.18,2.65l-1.1-2.82a16.93,16.93,0,0,1,9.77-3.11c9.09,0,11.75,7,11.75,14.83v16.53a70.76,70.76,0,0,0,.48,9.31Zm-.75-21.32c-6.57-.17-16.78.81-16.78,10.7,0,5.8,3.31,8.22,6.79,8.22,5.33,0,8.56-3.7,9.67-7.86a9.31,9.31,0,0,0,.32-2.44Z" transform="translate(-57.2 -65.95)"/><path d="M1259,193.83c0-3.69-.15-7.68-.31-11.13H1262l.16,7.6h.2c1.42-4.57,5.11-8.44,9.87-8.44a5.91,5.91,0,0,1,1.28.13v3.81a8.12,8.12,0,0,0-1.45-.08c-5,0-8.46,4.84-9.26,10.78a27.35,27.35,0,0,0-.25,3.67v22.36H1259Z" transform="translate(-57.2 -65.95)"/><path d="M1298.29,222.53l-.48-5.31h-.19a11.94,11.94,0,0,1-10.46,6.15c-6.66,0-10.2-5.19-10.2-11,0-9.32,7.36-14.55,20.58-14.46v-1.18c0-4.81-.81-11.68-8.65-11.64a13.68,13.68,0,0,0-8.17,2.65l-1.1-2.82a16.91,16.91,0,0,1,9.77-3.11c9.08,0,11.75,7,11.75,14.83v16.53a72.55,72.55,0,0,0,.47,9.31Zm-.75-21.32c-6.58-.17-16.78.81-16.78,10.7,0,5.8,3.3,8.22,6.78,8.22,5.33,0,8.56-3.7,9.68-7.86a9.75,9.75,0,0,0,.32-2.44Z" transform="translate(-57.2 -65.95)"/><path d="M1312.37,192.13c0-4-.15-6.39-.31-9.43h3.33l.24,6.45h.16c2.1-4.23,5.4-7.29,10.94-7.29,4.55,0,8.25,3.06,9.81,8h.16a14.86,14.86,0,0,1,3.75-5.24,11.14,11.14,0,0,1,7.81-2.8c3.77,0,11.12,2.39,11.12,16.11v24.56h-3.6V198.6c0-7.95-2.53-13.45-8.73-13.45-4.16,0-7.55,3.43-8.85,7.77a15.4,15.4,0,0,0-.52,4v25.63h-3.6V197c0-6.62-2.57-11.89-8.37-11.89-4.44,0-8.1,3.91-9.29,8.78a16.18,16.18,0,0,0-.45,3.78v24.82h-3.6Z" transform="translate(-57.2 -65.95)"/><path d="M1371.6,201.91c0,13.7,6.12,18.06,12.8,18.06a17.17,17.17,0,0,0,9-2.06l.9,3c-1.54,1-5,2.38-10.38,2.38-10,0-15.89-8.3-15.89-20.07,0-13.1,6.3-21.36,15.13-21.36,10.81,0,13,11.5,13,17.64a21.85,21.85,0,0,1-.08,2.41Zm20.78-3.08c.12-6.83-2.56-13.73-9.76-13.73s-10.27,7.51-10.86,13.73Z" transform="translate(-57.2 -65.95)"/><path d="M1409.84,171.46V182.7h9.6v3.16h-9.6v26.26c0,5.21,1.56,7.88,5.05,7.88a10.92,10.92,0,0,0,3.65-.51l.43,3a11,11,0,0,1-4.62.84,7.14,7.14,0,0,1-6-2.67c-1.54-2-2.09-5-2.09-9.39V185.86h-5.83V182.7h5.83v-9.92Z" transform="translate(-57.2 -65.95)"/><path d="M1427.22,201.91c0,13.7,6.13,18.06,12.8,18.06a17.18,17.18,0,0,0,9-2.06l.9,3c-1.55,1-5.06,2.38-10.38,2.38-10,0-15.89-8.3-15.89-20.07,0-13.1,6.3-21.36,15.13-21.36,10.81,0,13,11.5,13,17.64a21.85,21.85,0,0,1-.08,2.41Zm20.79-3.08c.11-6.83-2.56-13.73-9.76-13.73s-10.27,7.51-10.87,13.73Z" transform="translate(-57.2 -65.95)"/><path d="M1460.5,193.83c0-3.69-.16-7.68-.32-11.13h3.37l.15,7.6h.2c1.43-4.57,5.11-8.44,9.87-8.44a5.91,5.91,0,0,1,1.28.13v3.81a8,8,0,0,0-1.44-.08c-5,0-8.47,4.84-9.27,10.78a27.37,27.37,0,0,0-.24,3.67v22.36h-3.6Z" transform="translate(-57.2 -65.95)"/><path d="M1480.23,217.46a13.89,13.89,0,0,0,7.58,2.55c5.3,0,8-3.26,8-7.48s-2-6.58-7-9.08c-5.53-2.72-8.92-6.1-8.92-11a10.35,10.35,0,0,1,10.81-10.56,12.81,12.81,0,0,1,7.64,2.42l-1.48,3.12a10.51,10.51,0,0,0-6.64-2.26,6.45,6.45,0,0,0-6.77,6.67c0,3.89,2.16,5.67,6.88,8.14,5.31,2.6,9.11,5.84,9.11,11.93,0,7.14-5,11.41-11.86,11.41a15.3,15.3,0,0,1-8.68-2.63Z" transform="translate(-57.2 -65.95)"/><path d="M1580.18,502.56a37.83,37.83,0,0,1,9.52-1.17c6,0,10.08,1.46,12.79,4.38,2.07,2.21,3.2,5.28,3.2,9.22a13.23,13.23,0,0,1-8.84,12.48v.21c4.9,1.23,10.77,5.63,10.77,14.42a15.9,15.9,0,0,1-3.83,10.82c-3.3,3.74-8.64,5.17-15.18,5.17a70,70,0,0,1-8.43-.5Zm3.6,23.7h6.32c7,0,11.88-4.7,11.88-11,0-7.25-4.67-10.6-12.47-10.6a22.5,22.5,0,0,0-5.73.55Zm0,28.16a26.89,26.89,0,0,0,5.56.42c7.9,0,14.52-3.52,14.52-12.65,0-8.88-6.75-12.76-14.57-12.8h-5.51Z" transform="translate(-57.2 -65.95)"/><path d="M1645.22,537.53c0,14.82-8.37,21-15.94,21-8.38,0-15.27-7.37-15.27-20.53,0-14,7.54-21,15.81-21C1638.65,517,1645.22,524.58,1645.22,537.53Zm-27.54.35c0,8.91,4.53,17.42,11.87,17.42s12-8.55,12-17.64c0-7-3-17.39-11.9-17.39C1621.06,520.27,1617.68,529.92,1617.68,537.88Z" transform="translate(-57.2 -65.95)"/><path d="M1680.82,499.23v49.56c0,2.64.15,6.51.31,8.92h-3.21l-.27-6.88h-.23a12.38,12.38,0,0,1-11.69,7.71c-8,0-14.43-7.54-14.43-20.19,0-13.58,7-21.32,15.07-21.32a11.44,11.44,0,0,1,10.7,6.45h.15V499.23Zm-3.6,34.18a19.27,19.27,0,0,0-.28-3.38c-1-5.32-5-9.76-10.31-9.76-7.45,0-11.65,7.85-11.65,17.74,0,9,3.58,17.29,11.39,17.29,4.39,0,8.9-3,10.53-10a12.92,12.92,0,0,0,.32-3.13Z" transform="translate(-57.2 -65.95)"/><path d="M1691.23,517.87l8.6,25.5c1,3,1.82,6.17,2.49,8.77h.15c.68-2.45,1.62-5.67,2.61-8.95l8-25.32h3.81l-9.41,27.51c-4,12.14-7,20.57-11.8,25.73a21.06,21.06,0,0,1-6.27,4.67l-1.35-3.2a19.87,19.87,0,0,0,6.24-4.93,33.23,33.23,0,0,0,5.44-9.4,6.15,6.15,0,0,0,.43-1.86,4.73,4.73,0,0,0-.36-1.66l-12.38-36.86Z" transform="translate(-57.2 -65.95)"/><path d="M982.87,789.79A41.53,41.53,0,0,1,993,788.62c6.26,0,10.24,1.51,13,4.47a14.9,14.9,0,0,1,3.6,10.11c0,7.62-4,12.29-9.81,14.6V818c4.18,1.34,6.69,5.57,7.94,12.35,1.65,8.68,2.64,12.61,3.59,14.62h-3.73c-.82-1.65-1.88-6.63-3.21-13.76-1.53-8.09-4.59-11.67-11.29-11.88h-6.61v25.64h-3.6Zm3.6,26.42h6.73c7.62,0,12.71-4.85,12.71-12.35,0-8.25-5-12-13.07-12a26.61,26.61,0,0,0-6.37.63Z" transform="translate(-57.2 -65.95)"/><path d="M1020.21,824.31c0,13.71,6.13,18.06,12.8,18.06a17.16,17.16,0,0,0,9-2l.91,3c-1.55,1-5.06,2.38-10.38,2.38-10,0-15.9-8.3-15.9-20.08,0-13.09,6.3-21.35,15.13-21.35,10.81,0,13,11.49,13,17.63a19.27,19.27,0,0,1-.09,2.41Zm20.78-3.08c.12-6.83-2.56-13.72-9.75-13.72S1021,815,1020.37,821.23Z" transform="translate(-57.2 -65.95)"/><path d="M1058.45,793.87V805.1h9.6v3.16h-9.6v26.27c0,5.21,1.56,7.88,5,7.88a10.92,10.92,0,0,0,3.65-.51l.43,3a11,11,0,0,1-4.62.84,7.16,7.16,0,0,1-6-2.67c-1.54-2-2.09-5-2.09-9.39V808.26H1049V805.1h5.82v-9.91Z" transform="translate(-57.2 -65.95)"/><path d="M1101.5,835.12c0,3.82.15,6.94.31,9.82h-3.33l-.27-6.2h-.15a12.88,12.88,0,0,1-11.3,7c-5.18,0-11.49-3.35-11.49-16.7v-24h3.61v23.19c0,8.16,2,14.16,8.71,14.16,5.22,0,8.57-4.29,9.74-7.76a16.8,16.8,0,0,0,.57-4.17V805.1h3.6Z" transform="translate(-57.2 -65.95)"/><path d="M1113,816.23c0-3.68-.16-7.68-.32-11.13h3.37l.15,7.61h.2c1.43-4.57,5.11-8.44,9.88-8.44a5.88,5.88,0,0,1,1.27.13v3.81a7.12,7.12,0,0,0-1.44-.09c-5,0-8.47,4.85-9.27,10.79a27.22,27.22,0,0,0-.24,3.66v22.37H1113Z" transform="translate(-57.2 -65.95)"/><path d="M1134.58,814.53c0-4-.16-6.39-.32-9.43h3.33l.24,6.51h.16a12.44,12.44,0,0,1,11.5-7.34c3.7,0,11.7,2.21,11.7,15.69v25h-3.6V820.63c0-6.78-2.12-13.08-9.11-13.08-4.6,0-8.63,3.65-9.9,8.91a15.86,15.86,0,0,0-.4,3.53v25h-3.6Z" transform="translate(-57.2 -65.95)"/></svg>