<svg xmlns="http://www.w3.org/2000/svg" viewBox="0 0 1661.71 561.77"><defs><style>.a{fill:#2a57d3;}.b{fill:#e54539;}.c,.d{fill:none;stroke:#000;}.c{stroke-miterlimit:10;stroke-width:14px;}.d{stroke-linecap:round;stroke-linejoin:round;stroke-width:4px;}</style></defs><path class="a" d="M264.9,327.3V308.85H253.83v-5l11.31-.4L266,291h5.53v12.52h19.1v5.37h-19.1v18.53c0,7,2.33,10.59,9.87,10.59a25.73,25.73,0,0,0,9.31-1.76l1.44,4.89A34.08,34.08,0,0,1,280,343.43C268.59,343.43,264.9,336.93,264.9,327.3Z" transform="translate(-117.14 -196.93)"/><path class="a" d="M301.88,358.43l1.36-5.3a12.48,12.48,0,0,0,3.53.56c5.45,0,8.74-3.45,10.67-8.26l1.12-2.89-18.13-39.06h6.74l9.46,21.5c1.53,3.45,3.21,7.54,4.82,11.31h.32c1.36-3.69,2.89-7.78,4.17-11.31l8.42-21.5h6.42l-17.25,42.19c-2.88,7.7-7.62,13.56-16.52,13.56A16.39,16.39,0,0,1,301.88,358.43Z" transform="translate(-117.14 -196.93)"/><path class="a" d="M352.09,303.48h5.45l.56,5h.25c3.61-3.45,8.74-5.93,13.47-5.93,10.51,0,16.12,7.78,16.12,19.89,0,13.23-8.34,21-17.72,21-3.61,0-8.1-1.85-11.63-5.06h-.16l.32,7.38v13.16h-6.66Zm29,18.93c0-8.58-3.21-14.28-11-14.28-3.45,0-7.46,1.77-11.39,5.78v19.41a16.27,16.27,0,0,0,10.34,4.49C376,337.81,381.13,332,381.13,322.41Z" transform="translate(-117.14 -196.93)"/><path class="a" d="M398.21,322.89c0-12.67,9.47-20.37,19.89-20.37,11.23,0,17.81,7.3,17.81,18.28a27.27,27.27,0,0,1-.32,4h-33v-5.14h29L430,321.53c0-9.23-4.58-13.8-11.72-13.8s-13.47,5.45-13.47,15.16c0,10.11,6.58,15.24,15.24,15.24a21.21,21.21,0,0,0,11.87-3.69l2.41,4.33a26.71,26.71,0,0,1-15.08,4.66C407.52,343.43,398.21,335.89,398.21,322.89Z" transform="translate(-117.14 -196.93)"/><path class="b" d="M497.27,303.88l11.31-.4h22.71v5.37h-34Zm11.15-3.69c0-9.47,5-15.8,15.73-15.8a29,29,0,0,1,11.23,2.24l-1.53,5a21,21,0,0,0-9.06-1.85c-7,0-9.79,3.93-9.79,10.19v42.51h-6.58Z" transform="translate(-117.14 -196.93)"/><path class="b" d="M543.72,289.84h7.38l16.84,33.05L573,333.8h.16c-.24-5.21-.89-11.15-.89-16.69V289.84h6.42v52.62h-7.38l-16.84-33-5.06-10.91h-.16c.24,5.38.89,11,.89,16.45v27.51h-6.42Z" transform="translate(-117.14 -196.93)"/><path class="b" d="M591.69,332.36c0-8.75,8.18-13,28.31-14.6-.24-5.3-2.81-9.79-10.35-9.79-5,0-10,2.41-13.63,4.65l-2.65-4.49c4-2.57,10.59-5.61,17.41-5.61,10.67,0,15.88,6.33,15.88,16v23.9h-5.54l-.56-5.29h-.24c-4.25,3.37-9.86,6.26-15.32,6.26C597.7,343.43,591.69,339.33,591.69,332.36Zm28.31-.08V322.17c-16.68,1.28-21.74,4.57-21.74,9.7,0,4.42,4,6.18,8.51,6.18S615.51,336,620,332.28Z" transform="translate(-117.14 -196.93)"/><path class="b" d="M638.05,303.48h5.29l.56,5.13h.16c2-3.61,4.42-6.09,8.91-6.09,3.85,0,6.26,2.24,7.38,6.73,2.24-4.17,4.65-6.73,9.14-6.73,5.46,0,8.67,4.25,8.67,12v27.91h-6.58V315c0-4.49-1.29-6.82-4.17-6.82s-4.17,2-6.26,6v28.23h-6.1V315c0-4.49-1.12-6.82-4-6.82-2.72,0-4.49,2-6.41,6v28.23h-6.58Z" transform="translate(-117.14 -196.93)"/><path class="b" d="M687,322.89c0-12.67,9.46-20.37,19.89-20.37,11.23,0,17.81,7.3,17.81,18.28a27.27,27.27,0,0,1-.32,4h-33v-5.14h29l-1.69,1.85c0-9.23-4.57-13.8-11.71-13.8s-13.47,5.45-13.47,15.16c0,10.11,6.57,15.24,15.24,15.24a21.21,21.21,0,0,0,11.87-3.69l2.41,4.33A26.71,26.71,0,0,1,708,343.43C696.28,343.43,687,335.89,687,322.89Z" transform="translate(-117.14 -196.93)"/><path d="M746.34,320.16c0-15.48,6.81-27.75,18-36.41l3.69,3.36c-10.74,9.07-15.72,19.58-15.72,33.05s5,24,15.72,33l-3.69,3.37C753.15,347.92,746.34,335.64,746.34,320.16Z" transform="translate(-117.14 -196.93)"/><path class="a" d="M794.3,327.3V308.85H783.23v-5l11.31-.4.89-12.52H801v12.52h19.09v5.37H801v18.53c0,7,2.33,10.59,9.87,10.59a25.63,25.63,0,0,0,9.3-1.76l1.45,4.89a34.09,34.09,0,0,1-12.2,2.33C798,343.43,794.3,336.93,794.3,327.3Z" transform="translate(-117.14 -196.93)"/><path class="a" d="M831.28,358.43l1.37-5.3a12.48,12.48,0,0,0,3.53.56c5.45,0,8.74-3.45,10.66-8.26l1.13-2.89-18.13-39.06h6.74L846,325c1.53,3.45,3.21,7.54,4.81,11.31h.33c1.36-3.69,2.88-7.78,4.17-11.31l8.42-21.5h6.42l-17.25,42.19c-2.89,7.7-7.62,13.56-16.52,13.56A16.5,16.5,0,0,1,831.28,358.43Z" transform="translate(-117.14 -196.93)"/><path class="a" d="M881.5,303.48H887l.56,5h.24c3.61-3.45,8.75-5.93,13.48-5.93,10.51,0,16.12,7.78,16.12,19.89,0,13.23-8.34,21-17.73,21-3.61,0-8.1-1.85-11.63-5.06h-.16l.32,7.38v13.16H881.5Zm29,18.93c0-8.58-3.2-14.28-11-14.28-3.45,0-7.46,1.77-11.39,5.78v19.41a16.27,16.27,0,0,0,10.35,4.49C905.4,337.81,910.53,332,910.53,322.41Z" transform="translate(-117.14 -196.93)"/><path class="a" d="M927.62,322.89c0-12.67,9.46-20.37,19.89-20.37,11.23,0,17.81,7.3,17.81,18.28a27.27,27.27,0,0,1-.32,4H932v-5.14h29l-1.69,1.85c0-9.23-4.57-13.8-11.71-13.8s-13.47,5.45-13.47,15.16c0,10.11,6.57,15.24,15.24,15.24a21.21,21.21,0,0,0,11.87-3.69l2.4,4.33a26.68,26.68,0,0,1-15.08,4.66C936.92,343.43,927.62,335.89,927.62,322.89Z" transform="translate(-117.14 -196.93)"/><path d="M1024.84,332.36c0-8.75,8.18-13,28.31-14.6-.24-5.3-2.81-9.79-10.35-9.79-5,0-10,2.41-13.63,4.65l-2.65-4.49c4-2.57,10.59-5.61,17.41-5.61,10.67,0,15.88,6.33,15.88,16v23.9h-5.53l-.57-5.29h-.24c-4.25,3.37-9.86,6.26-15.32,6.26C1030.85,343.43,1024.84,339.33,1024.84,332.36Zm28.31-.08V322.17c-16.68,1.28-21.74,4.57-21.74,9.7,0,4.42,4,6.18,8.51,6.18S1048.66,336,1053.15,332.28Z" transform="translate(-117.14 -196.93)"/><path d="M1082.27,355.38c6.82-3.05,10.19-7.38,10.11-14l-1.45-7.38,4.5,6.34a5.68,5.68,0,0,1-4.5,1.84c-3.45,0-6.25-2-6.25-6s3-6.1,6.41-6.1c4.74,0,7.22,3.93,7.22,10.27,0,9.38-5.29,16-14.11,19.25Z" transform="translate(-117.14 -196.93)"/><path class="a" d="M1179.33,327.3V308.85h-11.07v-5l11.31-.4.88-12.52H1186v12.52h19.09v5.37H1186v18.53c0,7,2.32,10.59,9.86,10.59a25.73,25.73,0,0,0,9.31-1.76l1.44,4.89a34.08,34.08,0,0,1-12.19,2.33C1183,343.43,1179.33,336.93,1179.33,327.3Z" transform="translate(-117.14 -196.93)"/><path class="a" d="M1216.31,358.43l1.36-5.3a12.54,12.54,0,0,0,3.53.56c5.45,0,8.74-3.45,10.67-8.26l1.12-2.89-18.13-39.06h6.74l9.47,21.5c1.52,3.45,3.2,7.54,4.81,11.31h.32c1.36-3.69,2.89-7.78,4.17-11.31l8.42-21.5h6.42L1238,345.67c-2.88,7.7-7.62,13.56-16.52,13.56A16.39,16.39,0,0,1,1216.31,358.43Z" transform="translate(-117.14 -196.93)"/><path class="a" d="M1266.52,303.48H1272l.57,5h.24c3.61-3.45,8.74-5.93,13.47-5.93,10.51,0,16.13,7.78,16.13,19.89,0,13.23-8.35,21-17.73,21-3.61,0-8.1-1.85-11.63-5.06h-.16l.32,7.38v13.16h-6.66Zm29,18.93c0-8.58-3.21-14.28-11-14.28-3.45,0-7.46,1.77-11.39,5.78v19.41a16.27,16.27,0,0,0,10.35,4.49C1290.42,337.81,1295.56,332,1295.56,322.41Z" transform="translate(-117.14 -196.93)"/><path class="a" d="M1312.64,322.89c0-12.67,9.47-20.37,19.9-20.37,11.23,0,17.8,7.3,17.8,18.28a27.27,27.27,0,0,1-.32,4h-33v-5.14h29l-1.68,1.85c0-9.23-4.58-13.8-11.71-13.8s-13.48,5.45-13.48,15.16c0,10.11,6.58,15.24,15.24,15.24a21.21,21.21,0,0,0,11.87-3.69l2.41,4.33a26.68,26.68,0,0,1-15.08,4.66C1322,343.43,1312.64,335.89,1312.64,322.89Z" transform="translate(-117.14 -196.93)"/><path d="M1417.08,338.13h-.24l-.64,4.33h-5.3V285.35h6.66v15.56l-.32,7.54h.24a19.16,19.16,0,0,1,13.08-5.93c10.5,0,16.2,7.78,16.2,19.81,0,13.31-8.34,21.1-17.57,21.1C1425.34,343.43,1420.69,341.42,1417.08,338.13Zm22.86-15.72c0-8.58-3.21-14.28-11-14.28-3.45,0-7.46,1.77-11.39,5.78v19.41a16.3,16.3,0,0,0,10.51,4.49C1434.81,337.81,1439.94,332,1439.94,322.41Z" transform="translate(-117.14 -196.93)"/><path d="M1461.36,353.21c10.75-9.06,15.72-19.57,15.72-33s-5-24-15.72-33.05l3.69-3.36c11.15,8.66,18,20.93,18,36.41s-6.82,27.76-18,36.42Z" transform="translate(-117.14 -196.93)"/><path d="M1568.28,344c0-5.86.8-10.11.8-15.48,0-3.13-2.16-6.18-11.63-6.26v-4.17c9.47-.08,11.63-3.13,11.63-6.26,0-5.05-.8-9.95-.8-15.48,0-8.26,4.81-10.67,14.84-10.67h5v3.77h-4.18c-8.18,0-9.94,2.09-9.94,7.3,0,4.57.48,9.55.48,14.52,0,5.21-1.77,7.78-7.3,8.74v.32c5.53,1,7.3,3.53,7.3,8.75,0,5.45-.48,9.62-.48,14.52,0,5.21,1.76,7.3,9.94,7.3h4.18v3.77h-5C1573.09,354.66,1568.28,352.25,1568.28,344Z" transform="translate(-117.14 -196.93)"/><path d="M1613.52,336.61a6.51,6.51,0,1,1,6.5,6.82A6.5,6.5,0,0,1,1613.52,336.61Z" transform="translate(-117.14 -196.93)"/><path d="M1661.65,336.61a6.51,6.51,0,1,1,6.5,6.82A6.5,6.5,0,0,1,1661.65,336.61Z" transform="translate(-117.14 -196.93)"/><path d="M1709.78,336.61a6.5,6.5,0,1,1,6.5,6.82A6.5,6.5,0,0,1,1709.78,336.61Z" transform="translate(-117.14 -196.93)"/><path d="M1748.28,350.89h4.09c8.18,0,10-2.09,10-7.3,0-4.9-.48-9.07-.48-14.52,0-5.22,1.68-7.78,7.22-8.75V320c-5.54-1-7.22-3.53-7.22-8.74,0-5,.48-9.95.48-14.52,0-5.21-1.85-7.3-10-7.3h-4.09v-3.77h4.89c10.11,0,14.76,2.41,14.76,10.67,0,5.53-.72,10.43-.72,15.48,0,3.13,2.17,6.18,11.63,6.26v4.17c-9.46.08-11.63,3.13-11.63,6.26,0,5.37.72,9.62.72,15.48,0,8.26-4.65,10.67-14.76,10.67h-4.89Z" transform="translate(-117.14 -196.93)"/><path class="a" d="M264.9,712.33V693.88H253.83v-5l11.31-.4L266,676h5.53v12.51h19.1v5.37h-19.1v18.53c0,7,2.33,10.59,9.87,10.59a25.73,25.73,0,0,0,9.31-1.76l1.44,4.89A34.08,34.08,0,0,1,280,728.46C268.59,728.46,264.9,722,264.9,712.33Z" transform="translate(-117.14 -196.93)"/><path class="a" d="M301.88,743.46l1.36-5.3a12.48,12.48,0,0,0,3.53.56c5.45,0,8.74-3.45,10.67-8.26l1.12-2.89-18.13-39.06h6.74l9.46,21.5c1.53,3.45,3.21,7.54,4.82,11.31h.32c1.36-3.69,2.89-7.78,4.17-11.31l8.42-21.5h6.42L323.53,730.7c-2.88,7.7-7.62,13.56-16.52,13.56A16.39,16.39,0,0,1,301.88,743.46Z" transform="translate(-117.14 -196.93)"/><path class="a" d="M352.09,688.51h5.45l.56,5h.25c3.61-3.45,8.74-5.93,13.47-5.93,10.51,0,16.12,7.78,16.12,19.89,0,13.23-8.34,21-17.72,21-3.61,0-8.1-1.85-11.63-5.06h-.16l.32,7.38v13.16h-6.66Zm29,18.93c0-8.58-3.21-14.28-11-14.28-3.45,0-7.46,1.77-11.39,5.78v19.41a16.27,16.27,0,0,0,10.34,4.49C376,722.84,381.13,717.07,381.13,707.44Z" transform="translate(-117.14 -196.93)"/><path class="a" d="M398.21,707.92c0-12.67,9.47-20.37,19.89-20.37,11.23,0,17.81,7.3,17.81,18.28a27.27,27.27,0,0,1-.32,4h-33v-5.14h29L430,706.56c0-9.23-4.58-13.8-11.72-13.8s-13.47,5.45-13.47,15.16c0,10.11,6.58,15.24,15.24,15.24a21.21,21.21,0,0,0,11.87-3.69l2.41,4.33a26.71,26.71,0,0,1-15.08,4.66C407.52,728.46,398.21,720.92,398.21,707.92Z" transform="translate(-117.14 -196.93)"/><path class="b" d="M493,688.51h6.82l9,22.06q2.28,5.89,4.33,11.55h.32c1.36-3.77,2.65-7.62,4.25-11.55l9-22.06h6.42l-16.2,39h-7.46Z" transform="translate(-117.14 -196.93)"/><path class="b" d="M543.56,717.39c0-8.75,8.18-13,28.31-14.6-.24-5.3-2.8-9.79-10.34-9.79-5.06,0-10,2.41-13.64,4.65l-2.65-4.49c4-2.57,10.59-5.61,17.41-5.61,10.67,0,15.88,6.33,15.88,16v23.9H573l-.56-5.29h-.25c-4.25,3.37-9.86,6.26-15.32,6.26C549.57,728.46,543.56,724.37,543.56,717.39Zm28.31-.08V707.2c-16.68,1.28-21.73,4.57-21.73,9.7,0,4.42,4,6.18,8.5,6.18S567.38,721,571.87,717.31Z" transform="translate(-117.14 -196.93)"/><path class="b" d="M596.9,688.51h5.53l.65,9.22h.16c4.09-6.33,10.18-10.18,17.4-10.18a16.41,16.41,0,0,1,7.7,1.6l-1.52,5.7a19.4,19.4,0,0,0-7.22-1.29c-5.86,0-11.39,3-16,11.15v22.78H596.9Z" transform="translate(-117.14 -196.93)"/><path d="M688.34,690h34.49v5H688.34Zm0,17.17h34.49v5H688.34Z" transform="translate(-117.14 -196.93)"/><path class="b" d="M786,688.91l11.31-.4h22.7v5.37H786Zm11.15-3.69c0-9.47,5-15.8,15.72-15.8a29,29,0,0,1,11.23,2.24l-1.52,5a21,21,0,0,0-9.06-1.85c-7,0-9.79,3.93-9.79,10.19v42.51h-6.58Z" transform="translate(-117.14 -196.93)"/><path class="b" d="M832.49,674.87h7.38l16.84,33,5,10.91h.16c-.24-5.21-.88-11.15-.88-16.68V674.87h6.42v52.62h-7.38l-16.85-33-5.05-10.9H838c.24,5.37.88,11,.88,16.44v27.51h-6.41Z" transform="translate(-117.14 -196.93)"/><path class="b" d="M880.45,717.39c0-8.75,8.18-13,28.32-14.6-.24-5.3-2.81-9.79-10.35-9.79-5,0-10,2.41-13.64,4.65l-2.64-4.49c4-2.57,10.59-5.61,17.4-5.61,10.67,0,15.89,6.33,15.89,16v23.9h-5.54l-.56-5.29h-.24c-4.25,3.37-9.87,6.26-15.32,6.26C886.47,728.46,880.45,724.37,880.45,717.39Zm28.32-.08V707.2c-16.69,1.28-21.74,4.57-21.74,9.7,0,4.42,4,6.18,8.5,6.18S904.28,721,908.77,717.31Z" transform="translate(-117.14 -196.93)"/><path class="b" d="M926.82,688.51h5.29l.56,5.13h.16c2-3.61,4.41-6.09,8.91-6.09,3.85,0,6.25,2.24,7.38,6.73,2.24-4.17,4.65-6.73,9.14-6.73,5.45,0,8.66,4.25,8.66,12v27.91h-6.57V700.06c0-4.49-1.29-6.82-4.18-6.82-2.72,0-4.17,2-6.25,6v28.23h-6.1V700.06c0-4.49-1.12-6.82-4-6.82-2.73,0-4.49,2-6.42,6v28.23h-6.57Z" transform="translate(-117.14 -196.93)"/><path class="b" d="M975.75,707.92c0-12.67,9.46-20.37,19.89-20.37,11.23,0,17.81,7.3,17.81,18.28a27.27,27.27,0,0,1-.32,4h-33v-5.14h29l-1.69,1.85c0-9.23-4.57-13.8-11.71-13.8s-13.48,5.45-13.48,15.16c0,10.11,6.58,15.24,15.24,15.24a21.22,21.22,0,0,0,11.88-3.69l2.4,4.33a26.68,26.68,0,0,1-15.08,4.66C985.05,728.46,975.75,720.92,975.75,707.92Z" transform="translate(-117.14 -196.93)"/><path d="M1035.1,705.19c0-15.48,6.82-27.75,18-36.41l3.69,3.36C1046,681.21,1041,691.72,1041,705.19s5,24,15.72,33l-3.69,3.37C1041.92,733,1035.1,720.67,1035.1,705.19Z" transform="translate(-117.14 -196.93)"/><path d="M1086.44,707.28l-13.64-18.77h7.3l6.18,8.5c1.36,2.17,3,4.49,4.57,6.58h.32c1.45-2.09,3-4.49,4.42-6.66l5.77-8.42h7.06l-13.8,19.33,14.92,19.65h-7.38l-6.73-9c-1.69-2.17-3.45-4.81-5.14-7.06H1090c-1.6,2.33-3.21,4.65-4.81,7.14l-6.42,8.9h-7.06Z" transform="translate(-117.14 -196.93)"/><path d="M1130.4,740.41c6.82-3,10.18-7.38,10.1-14l-1.44-7.38,4.49,6.34a5.65,5.65,0,0,1-4.49,1.84c-3.45,0-6.26-2-6.26-6s3-6.1,6.42-6.1c4.73,0,7.22,3.93,7.22,10.27,0,9.38-5.29,16-14.12,19.25Z" transform="translate(-117.14 -196.93)"/><path d="M1216.31,743.46l1.36-5.3a12.54,12.54,0,0,0,3.53.56c5.45,0,8.74-3.45,10.67-8.26l1.12-2.89-18.13-39.06h6.74l9.47,21.5c1.52,3.45,3.2,7.54,4.81,11.31h.32c1.36-3.69,2.89-7.78,4.17-11.31l8.42-21.5h6.42L1238,730.7c-2.88,7.7-7.62,13.56-16.52,13.56A16.39,16.39,0,0,1,1216.31,743.46Z" transform="translate(-117.14 -196.93)"/><path d="M1268.85,738.24c10.74-9.06,15.72-19.57,15.72-33s-5-24-15.72-33.05l3.69-3.36c11.15,8.66,18,20.93,18,36.41s-6.81,27.76-18,36.42Z" transform="translate(-117.14 -196.93)"/><path d="M1322.91,740.41c6.82-3,10.19-7.38,10.11-14l-1.45-7.38,4.5,6.34a5.68,5.68,0,0,1-4.5,1.84c-3.45,0-6.25-2-6.25-6s3-6.1,6.41-6.1c4.74,0,7.22,3.93,7.22,10.27,0,9.38-5.29,16-14.12,19.25Zm1.84-47.49a6.51,6.51,0,1,1,6.5,6.82A6.5,6.5,0,0,1,1324.75,692.92Z" transform="translate(-117.14 -196.93)"/><path class="c" d="M1671.59,383.5c0,258.24-970.1,33-1094.16,229.44" transform="translate(-117.14 -196.93)"/><polygon points="433.67 396.85 447.29 462.45 497.3 417.86 433.67 396.85"/><path d="M117.74,442.73V421.38h5.92v14.26H135.1V422.36h5.83v13.28h17.25v7.09Z" transform="translate(-117.14 -196.93)"/><path d="M117.74,407.7h24.5c7.5,0,10.71-2.91,10.71-7.18,0-4.55-3.18-7.36-10.71-7.36h-24.5v-7.1h23.84c11.86,0,17.21,5.73,17.21,14.65,0,8.75-5.17,14.09-17.09,14.09h-24Z" transform="translate(-117.14 -196.93)"/><path d="M158.18,378.12H117.74v-7.69l17.33-9.34a127.61,127.61,0,0,1,13.33-6.23l0-.14c-5.32.46-10.84.67-17.33.67H117.74v-6.48h40.44V356l-17.62,9.44a131.14,131.14,0,0,1-13.62,6.41l0,.16c5.08-.29,10.54-.42,17.69-.42h13.52Z" transform="translate(-117.14 -196.93)"/><path d="M157.15,315a22.61,22.61,0,0,1,1.58,9.13c0,11.75-7.9,18.8-20.27,18.8-14,0-21.27-9-21.27-19.78a19.16,19.16,0,0,1,1.56-8.44l5.75,1.48a15.86,15.86,0,0,0-1.36,6.67c0,7.09,4.82,12.6,14.93,12.6,9.51,0,14.63-4.86,14.63-12.54a18.62,18.62,0,0,0-1.24-6.84Z" transform="translate(-117.14 -196.93)"/><path d="M123.85,301.31v10.25h-6.11V283.87h6.11v10.34h34.33v7.1Z" transform="translate(-117.14 -196.93)"/><path d="M117.74,272.2h40.44v7.1H117.74Z" transform="translate(-117.14 -196.93)"/><path d="M137.53,232.18c14,0,21.26,7.34,21.26,17.29,0,10.41-8.68,16.68-20.63,16.68-12.32,0-21-6.87-21-17.28C117.14,238.07,126.16,232.18,137.53,232.18Zm.55,26.51c8.41,0,14.9-3.42,14.9-9.58s-6.84-9.47-15.18-9.47c-7.54,0-14.85,3-14.85,9.47S129.72,258.69,138.08,258.69Z" transform="translate(-117.14 -196.93)"/><path d="M158.18,226.14H117.74v-7.69l17.33-9.34a129.68,129.68,0,0,1,13.33-6.23l0-.14c-5.32.46-10.84.67-17.33.67H117.74v-6.48h40.44v7.14l-17.62,9.43a129.12,129.12,0,0,1-13.62,6.41l0,.17c5.08-.3,10.54-.42,17.69-.42h13.52Z" transform="translate(-117.14 -196.93)"/><path d="M157.15,730.77a22.61,22.61,0,0,1,1.58,9.13c0,11.75-7.9,18.8-20.26,18.8-14,0-21.28-9-21.28-19.78a19.16,19.16,0,0,1,1.56-8.44L124.5,732a15.86,15.86,0,0,0-1.36,6.67c0,7.09,4.82,12.6,14.93,12.6,9.51,0,14.63-4.86,14.63-12.54a18.66,18.66,0,0,0-1.24-6.84Z" transform="translate(-117.14 -196.93)"/><path d="M147,717.19l11.16,3.07v7.2l-40.44-11.78v-8.83l40.44-11.7v7.43L147,705.78Zm-5.42-10.35-9.75,2.74c-2.55.68-5.6,1.31-8.09,1.87v.15c2.52.54,5.64,1.15,8.07,1.8l9.77,2.72Z" transform="translate(-117.14 -196.93)"/><path d="M117.74,689.77v-7.1h34.47V667.79h6v22Z" transform="translate(-117.14 -196.93)"/><path d="M117.74,662.53v-7.1h34.47V640.55h6v22Z" transform="translate(-117.14 -196.93)"/><path class="d" d="M186.94,318.58l45.18,0" transform="translate(-117.14 -196.93)"/><path class="d" d="M186.94,702.22l45.18,0" transform="translate(-117.14 -196.93)"/><path d="M931.36,454.1a56.1,56.1,0,0,1,10.16-.84c5.3,0,9.12.9,11.74,3.17a10.26,10.26,0,0,1,3.35,8.13,10.72,10.72,0,0,1-7.05,10.15v.16c2.9,1.08,4.54,3.83,5.49,8,1.15,5,2.21,9.57,3,11.08h-7.3c-.6-1.16-1.53-4.69-2.53-9.62-1.05-5.27-2.84-7-6.74-7.05h-3V494h-7Zm7,17.92H942c4.66,0,7.54-2.74,7.54-6.79,0-4.28-2.65-6.52-7.25-6.55a16.22,16.22,0,0,0-3.85.33Z" transform="translate(-117.14 -196.93)"/><path d="M983.87,475.89H970.32v12.16h15.2V494h-22.3V453.53h21.46v5.92H970.32v10.61h13.55Z" transform="translate(-117.14 -196.93)"/><path d="M998.81,459.64H988.55v-6.11h27.7v6.11h-10.34V494h-7.1Z" transform="translate(-117.14 -196.93)"/><path d="M1027.84,453.53V478c0,7.5,2.91,10.71,7.17,10.71,4.56,0,7.37-3.18,7.37-10.71v-24.5h7.09v23.84c0,11.86-5.72,17.21-14.65,17.21-8.74,0-14.08-5.17-14.08-17.09v-24Z" transform="translate(-117.14 -196.93)"/><path d="M1057.42,454.1a56.1,56.1,0,0,1,10.16-.84c5.3,0,9.11.9,11.73,3.17a10.24,10.24,0,0,1,3.36,8.13,10.71,10.71,0,0,1-7.06,10.15v.16c2.91,1.08,4.55,3.83,5.49,8,1.16,5,2.22,9.57,3,11.08h-7.3c-.6-1.16-1.53-4.69-2.53-9.62-1-5.27-2.84-7-6.74-7.05h-3V494h-7Zm7,17.92H1068c4.67,0,7.55-2.74,7.55-6.79,0-4.28-2.65-6.52-7.25-6.55a16.39,16.39,0,0,0-3.86.33Z" transform="translate(-117.14 -196.93)"/><path d="M1089.28,494V453.53H1097l9.34,17.33a129.68,129.68,0,0,1,6.23,13.33l.14,0c-.46-5.32-.67-10.84-.67-17.33V453.53h6.48V494h-7.14l-9.43-17.62a129.12,129.12,0,0,1-6.41-13.62l-.17,0c.29,5.08.42,10.54.42,17.69V494Z" transform="translate(-117.14 -196.93)"/><path d="M1147.19,475.89h-13.56v12.16h15.2V494h-22.29V453.53H1148v5.92h-14.37v10.61h13.56Z" transform="translate(-117.14 -196.93)"/><path d="M1154.92,454.1a60.17,60.17,0,0,1,10.4-.84c6.72,0,11.34,1.44,14.67,4.27,3.75,3.12,6,8.09,6,15.32,0,7.67-2.38,13.06-6,16.4s-9.31,5.08-16.36,5.08a66.83,66.83,0,0,1-8.76-.5Zm7.08,34.39a21.37,21.37,0,0,0,3.35.17c8,0,13.23-4.79,13.23-15.66,0-9-4.34-14.17-12.5-14.17a19.55,19.55,0,0,0-4.08.36Z" transform="translate(-117.14 -196.93)"/><path d="M1210,494l-11.9-40.44h7.75l4.87,18.32c1.33,4.9,2.58,9.81,3.49,14.72h.14c.92-4.84,2.21-9.85,3.56-14.69l5.11-18.35h7.59L1218,494Z" transform="translate(-117.14 -196.93)"/><path d="M1239.34,482.81,1236.27,494h-7.21l11.78-40.44h8.83L1261.38,494H1254l-3.21-11.16Zm10.35-5.42-2.74-9.75c-.69-2.55-1.32-5.6-1.88-8.09h-.14c-.55,2.52-1.16,5.63-1.81,8.07l-2.71,9.77Z" transform="translate(-117.14 -196.93)"/><path d="M1266.76,453.53h7.09V488h14.88v6h-22Z" transform="translate(-117.14 -196.93)"/><path d="M1299.15,453.53V478c0,7.5,2.91,10.71,7.18,10.71,4.55,0,7.36-3.18,7.36-10.71v-24.5h7.1v23.84c0,11.86-5.72,17.21-14.65,17.21-8.75,0-14.08-5.17-14.08-17.09v-24Z" transform="translate(-117.14 -196.93)"/><path d="M1349.38,475.89h-13.55v12.16H1351V494h-22.29V453.53h21.45v5.92h-14.36v10.61h13.55Z" transform="translate(-117.14 -196.93)"/></svg>