<svg xmlns="http://www.w3.org/2000/svg" viewBox="0 0 1661.71 600.18"><defs><style>.a{fill:#2a57d3;}.b{fill:#e54539;}.c,.d{fill:none;stroke:#000;}.c{stroke-miterlimit:10;stroke-width:14px;}.d{stroke-linecap:round;stroke-linejoin:round;stroke-width:4px;}.e{fill:#27c46a;}.f{fill:#d6b425;}</style></defs><path class="a" d="M264.9,327.3V308.85H253.83v-5l11.31-.4L266,291h5.53v12.52h19.1v5.37h-19.1v18.53c0,7,2.33,10.59,9.87,10.59a25.73,25.73,0,0,0,9.31-1.76l1.44,4.89A34.08,34.08,0,0,1,280,343.43C268.59,343.43,264.9,336.93,264.9,327.3Z" transform="translate(-117.14 -196.93)"/><path class="a" d="M301.88,358.43l1.36-5.3a12.48,12.48,0,0,0,3.53.56c5.45,0,8.74-3.45,10.67-8.26l1.12-2.89-18.13-39.06h6.74l9.46,21.5c1.53,3.45,3.21,7.54,4.82,11.31h.32c1.36-3.69,2.89-7.78,4.17-11.31l8.42-21.5h6.42l-17.25,42.19c-2.88,7.7-7.62,13.56-16.52,13.56A16.39,16.39,0,0,1,301.88,358.43Z" transform="translate(-117.14 -196.93)"/><path class="a" d="M352.09,303.48h5.45l.56,5h.25c3.61-3.45,8.74-5.93,13.47-5.93,10.51,0,16.12,7.78,16.12,19.89,0,13.23-8.34,21-17.72,21-3.61,0-8.1-1.85-11.63-5.06h-.16l.32,7.38v13.16h-6.66Zm29,18.93c0-8.58-3.21-14.28-11-14.28-3.45,0-7.46,1.77-11.39,5.78v19.41a16.27,16.27,0,0,0,10.34,4.49C376,337.81,381.13,332,381.13,322.41Z" transform="translate(-117.14 -196.93)"/><path class="a" d="M398.21,322.89c0-12.67,9.47-20.37,19.89-20.37,11.23,0,17.81,7.3,17.81,18.28a27.27,27.27,0,0,1-.32,4h-33v-5.14h29L430,321.53c0-9.23-4.58-13.8-11.72-13.8s-13.47,5.45-13.47,15.16c0,10.11,6.58,15.24,15.24,15.24a21.21,21.21,0,0,0,11.87-3.69l2.41,4.33a26.71,26.71,0,0,1-15.08,4.66C407.52,343.43,398.21,335.89,398.21,322.89Z" transform="translate(-117.14 -196.93)"/><path class="b" d="M497.27,303.88l11.31-.4h22.71v5.37h-34Zm11.15-3.69c0-9.47,5-15.8,15.73-15.8a29,29,0,0,1,11.23,2.24l-1.53,5a21,21,0,0,0-9.06-1.85c-7,0-9.79,3.93-9.79,10.19v42.51h-6.58Z" transform="translate(-117.14 -196.93)"/><path class="b" d="M543.72,289.84h7.38l16.84,33.05L573,333.8h.16c-.24-5.21-.89-11.15-.89-16.69V289.84h6.42v52.62h-7.38l-16.84-33-5.06-10.91h-.16c.24,5.38.89,11,.89,16.45v27.51h-6.42Z" transform="translate(-117.14 -196.93)"/><path class="b" d="M591.69,332.36c0-8.75,8.18-13,28.31-14.6-.24-5.3-2.81-9.79-10.35-9.79-5,0-10,2.41-13.63,4.65l-2.65-4.49c4-2.57,10.59-5.61,17.41-5.61,10.67,0,15.88,6.33,15.88,16v23.9h-5.54l-.56-5.29h-.24c-4.25,3.37-9.86,6.26-15.32,6.26C597.7,343.43,591.69,339.33,591.69,332.36Zm28.31-.08V322.17c-16.68,1.28-21.74,4.57-21.74,9.7,0,4.42,4,6.18,8.51,6.18S615.51,336,620,332.28Z" transform="translate(-117.14 -196.93)"/><path class="b" d="M638.05,303.48h5.29l.56,5.13h.16c2-3.61,4.42-6.09,8.91-6.09,3.85,0,6.26,2.24,7.38,6.73,2.24-4.17,4.65-6.73,9.14-6.73,5.46,0,8.67,4.25,8.67,12v27.91h-6.58V315c0-4.49-1.29-6.82-4.17-6.82s-4.17,2-6.26,6v28.23h-6.1V315c0-4.49-1.12-6.82-4-6.82-2.72,0-4.49,2-6.41,6v28.23h-6.58Z" transform="translate(-117.14 -196.93)"/><path class="b" d="M687,322.89c0-12.67,9.46-20.37,19.89-20.37,11.23,0,17.81,7.3,17.81,18.28a27.27,27.27,0,0,1-.32,4h-33v-5.14h29l-1.69,1.85c0-9.23-4.57-13.8-11.71-13.8s-13.47,5.45-13.47,15.16c0,10.11,6.57,15.24,15.24,15.24a21.21,21.21,0,0,0,11.87-3.69l2.41,4.33A26.71,26.71,0,0,1,708,343.43C696.28,343.43,687,335.89,687,322.89Z" transform="translate(-117.14 -196.93)"/><path d="M746.34,320.16c0-15.48,6.81-27.75,18-36.41l3.69,3.36c-10.74,9.07-15.72,19.58-15.72,33.05s5,24,15.72,33l-3.69,3.37C753.15,347.92,746.34,335.64,746.34,320.16Z" transform="translate(-117.14 -196.93)"/><path class="a" d="M794.3,327.3V308.85H783.23v-5l11.31-.4.89-12.52H801v12.52h19.09v5.37H801v18.53c0,7,2.33,10.59,9.87,10.59a25.63,25.63,0,0,0,9.3-1.76l1.45,4.89a34.09,34.09,0,0,1-12.2,2.33C798,343.43,794.3,336.93,794.3,327.3Z" transform="translate(-117.14 -196.93)"/><path class="a" d="M831.28,358.43l1.37-5.3a12.48,12.48,0,0,0,3.53.56c5.45,0,8.74-3.45,10.66-8.26l1.13-2.89-18.13-39.06h6.74L846,325c1.53,3.45,3.21,7.54,4.81,11.31h.33c1.36-3.69,2.88-7.78,4.17-11.31l8.42-21.5h6.42l-17.25,42.19c-2.89,7.7-7.62,13.56-16.52,13.56A16.5,16.5,0,0,1,831.28,358.43Z" transform="translate(-117.14 -196.93)"/><path class="a" d="M881.5,303.48H887l.56,5h.24c3.61-3.45,8.75-5.93,13.48-5.93,10.51,0,16.12,7.78,16.12,19.89,0,13.23-8.34,21-17.73,21-3.61,0-8.1-1.85-11.63-5.06h-.16l.32,7.38v13.16H881.5Zm29,18.93c0-8.58-3.2-14.28-11-14.28-3.45,0-7.46,1.77-11.39,5.78v19.41a16.27,16.27,0,0,0,10.35,4.49C905.4,337.81,910.53,332,910.53,322.41Z" transform="translate(-117.14 -196.93)"/><path class="a" d="M927.62,322.89c0-12.67,9.46-20.37,19.89-20.37,11.23,0,17.81,7.3,17.81,18.28a27.27,27.27,0,0,1-.32,4H932v-5.14h29l-1.69,1.85c0-9.23-4.57-13.8-11.71-13.8s-13.47,5.45-13.47,15.16c0,10.11,6.57,15.24,15.24,15.24a21.21,21.21,0,0,0,11.87-3.69l2.4,4.33a26.68,26.68,0,0,1-15.08,4.66C936.92,343.43,927.62,335.89,927.62,322.89Z" transform="translate(-117.14 -196.93)"/><path d="M1024.84,332.36c0-8.75,8.18-13,28.31-14.6-.24-5.3-2.81-9.79-10.35-9.79-5,0-10,2.41-13.63,4.65l-2.65-4.49c4-2.57,10.59-5.61,17.41-5.61,10.67,0,15.88,6.33,15.88,16v23.9h-5.53l-.57-5.29h-.24c-4.25,3.37-9.86,6.26-15.32,6.26C1030.85,343.43,1024.84,339.33,1024.84,332.36Zm28.31-.08V322.17c-16.68,1.28-21.74,4.57-21.74,9.7,0,4.42,4,6.18,8.51,6.18S1048.66,336,1053.15,332.28Z" transform="translate(-117.14 -196.93)"/><path d="M1082.27,355.38c6.82-3.05,10.19-7.38,10.11-14l-1.45-7.38,4.5,6.34a5.68,5.68,0,0,1-4.5,1.84c-3.45,0-6.25-2-6.25-6s3-6.1,6.41-6.1c4.74,0,7.22,3.93,7.22,10.27,0,9.38-5.29,16-14.11,19.25Z" transform="translate(-117.14 -196.93)"/><path class="a" d="M1179.33,327.3V308.85h-11.07v-5l11.31-.4.88-12.52H1186v12.52h19.09v5.37H1186v18.53c0,7,2.32,10.59,9.86,10.59a25.73,25.73,0,0,0,9.31-1.76l1.44,4.89a34.08,34.08,0,0,1-12.19,2.33C1183,343.43,1179.33,336.93,1179.33,327.3Z" transform="translate(-117.14 -196.93)"/><path class="a" d="M1216.31,358.43l1.36-5.3a12.54,12.54,0,0,0,3.53.56c5.45,0,8.74-3.45,10.67-8.26l1.12-2.89-18.13-39.06h6.74l9.47,21.5c1.52,3.45,3.2,7.54,4.81,11.31h.32c1.36-3.69,2.89-7.78,4.17-11.31l8.42-21.5h6.42L1238,345.67c-2.88,7.7-7.62,13.56-16.52,13.56A16.39,16.39,0,0,1,1216.31,358.43Z" transform="translate(-117.14 -196.93)"/><path class="a" d="M1266.52,303.48H1272l.57,5h.24c3.61-3.45,8.74-5.93,13.47-5.93,10.51,0,16.13,7.78,16.13,19.89,0,13.23-8.35,21-17.73,21-3.61,0-8.1-1.85-11.63-5.06h-.16l.32,7.38v13.16h-6.66Zm29,18.93c0-8.58-3.21-14.28-11-14.28-3.45,0-7.46,1.77-11.39,5.78v19.41a16.27,16.27,0,0,0,10.35,4.49C1290.42,337.81,1295.56,332,1295.56,322.41Z" transform="translate(-117.14 -196.93)"/><path class="a" d="M1312.64,322.89c0-12.67,9.47-20.37,19.9-20.37,11.23,0,17.8,7.3,17.8,18.28a27.27,27.27,0,0,1-.32,4h-33v-5.14h29l-1.68,1.85c0-9.23-4.58-13.8-11.71-13.8s-13.48,5.45-13.48,15.16c0,10.11,6.58,15.24,15.24,15.24a21.21,21.21,0,0,0,11.87-3.69l2.41,4.33a26.68,26.68,0,0,1-15.08,4.66C1322,343.43,1312.64,335.89,1312.64,322.89Z" transform="translate(-117.14 -196.93)"/><path d="M1417.08,338.13h-.24l-.64,4.33h-5.3V285.35h6.66v15.56l-.32,7.54h.24a19.16,19.16,0,0,1,13.08-5.93c10.5,0,16.2,7.78,16.2,19.81,0,13.31-8.34,21.1-17.57,21.1C1425.34,343.43,1420.69,341.42,1417.08,338.13Zm22.86-15.72c0-8.58-3.21-14.28-11-14.28-3.45,0-7.46,1.77-11.39,5.78v19.41a16.3,16.3,0,0,0,10.51,4.49C1434.81,337.81,1439.94,332,1439.94,322.41Z" transform="translate(-117.14 -196.93)"/><path d="M1461.36,353.21c10.75-9.06,15.72-19.57,15.72-33s-5-24-15.72-33.05l3.69-3.36c11.15,8.66,18,20.93,18,36.41s-6.82,27.76-18,36.42Z" transform="translate(-117.14 -196.93)"/><path d="M1568.28,344c0-5.86.8-10.11.8-15.48,0-3.13-2.16-6.18-11.63-6.26v-4.17c9.47-.08,11.63-3.13,11.63-6.26,0-5.05-.8-9.95-.8-15.48,0-8.26,4.81-10.67,14.84-10.67h5v3.77h-4.18c-8.18,0-9.94,2.09-9.94,7.3,0,4.57.48,9.55.48,14.52,0,5.21-1.77,7.78-7.3,8.74v.32c5.53,1,7.3,3.53,7.3,8.75,0,5.45-.48,9.62-.48,14.52,0,5.21,1.76,7.3,9.94,7.3h4.18v3.77h-5C1573.09,354.66,1568.28,352.25,1568.28,344Z" transform="translate(-117.14 -196.93)"/><path d="M1613.52,336.61a6.51,6.51,0,1,1,6.5,6.82A6.5,6.5,0,0,1,1613.52,336.61Z" transform="translate(-117.14 -196.93)"/><path d="M1661.65,336.61a6.51,6.51,0,1,1,6.5,6.82A6.5,6.5,0,0,1,1661.65,336.61Z" transform="translate(-117.14 -196.93)"/><path d="M1709.78,336.61a6.5,6.5,0,1,1,6.5,6.82A6.5,6.5,0,0,1,1709.78,336.61Z" transform="translate(-117.14 -196.93)"/><path d="M1748.28,350.89h4.09c8.18,0,10-2.09,10-7.3,0-4.9-.48-9.07-.48-14.52,0-5.22,1.68-7.78,7.22-8.75V320c-5.54-1-7.22-3.53-7.22-8.74,0-5,.48-9.95.48-14.52,0-5.21-1.85-7.3-10-7.3h-4.09v-3.77h4.89c10.11,0,14.76,2.41,14.76,10.67,0,5.53-.72,10.43-.72,15.48,0,3.13,2.17,6.18,11.63,6.26v4.17c-9.46.08-11.63,3.13-11.63,6.26,0,5.37.72,9.62.72,15.48,0,8.26-4.65,10.67-14.76,10.67h-4.89Z" transform="translate(-117.14 -196.93)"/><path class="a" d="M264.9,712.33V693.88H253.83v-5l11.31-.4L266,676h5.53v12.51h19.1v5.37h-19.1v18.53c0,7,2.33,10.59,9.87,10.59a25.73,25.73,0,0,0,9.31-1.76l1.44,4.89A34.08,34.08,0,0,1,280,728.46C268.59,728.46,264.9,722,264.9,712.33Z" transform="translate(-117.14 -196.93)"/><path class="a" d="M301.88,743.46l1.36-5.3a12.48,12.48,0,0,0,3.53.56c5.45,0,8.74-3.45,10.67-8.26l1.12-2.89-18.13-39.06h6.74l9.46,21.5c1.53,3.45,3.21,7.54,4.82,11.31h.32c1.36-3.69,2.89-7.78,4.17-11.31l8.42-21.5h6.42L323.53,730.7c-2.88,7.7-7.62,13.56-16.52,13.56A16.39,16.39,0,0,1,301.88,743.46Z" transform="translate(-117.14 -196.93)"/><path class="a" d="M352.09,688.51h5.45l.56,5h.25c3.61-3.45,8.74-5.93,13.47-5.93,10.51,0,16.12,7.78,16.12,19.89,0,13.23-8.34,21-17.72,21-3.61,0-8.1-1.85-11.63-5.06h-.16l.32,7.38v13.16h-6.66Zm29,18.93c0-8.58-3.21-14.28-11-14.28-3.45,0-7.46,1.77-11.39,5.78v19.41a16.27,16.27,0,0,0,10.34,4.49C376,722.84,381.13,717.07,381.13,707.44Z" transform="translate(-117.14 -196.93)"/><path class="a" d="M398.21,707.92c0-12.67,9.47-20.37,19.89-20.37,11.23,0,17.81,7.3,17.81,18.28a27.27,27.27,0,0,1-.32,4h-33v-5.14h29L430,706.56c0-9.23-4.58-13.8-11.72-13.8s-13.47,5.45-13.47,15.16c0,10.11,6.58,15.24,15.24,15.24a21.21,21.21,0,0,0,11.87-3.69l2.41,4.33a26.71,26.71,0,0,1-15.08,4.66C407.52,728.46,398.21,720.92,398.21,707.92Z" transform="translate(-117.14 -196.93)"/><path class="b" d="M493,688.51h6.82l9,22.06q2.28,5.89,4.33,11.55h.32c1.36-3.77,2.65-7.62,4.25-11.55l9-22.06h6.42l-16.2,39h-7.46Z" transform="translate(-117.14 -196.93)"/><path class="b" d="M543.56,717.39c0-8.75,8.18-13,28.31-14.6-.24-5.3-2.8-9.79-10.34-9.79-5.06,0-10,2.41-13.64,4.65l-2.65-4.49c4-2.57,10.59-5.61,17.41-5.61,10.67,0,15.88,6.33,15.88,16v23.9H573l-.56-5.29h-.25c-4.25,3.37-9.86,6.26-15.32,6.26C549.57,728.46,543.56,724.37,543.56,717.39Zm28.31-.08V707.2c-16.68,1.28-21.73,4.57-21.73,9.7,0,4.42,4,6.18,8.5,6.18S567.38,721,571.87,717.31Z" transform="translate(-117.14 -196.93)"/><path class="b" d="M596.9,688.51h5.53l.65,9.22h.16c4.09-6.33,10.18-10.18,17.4-10.18a16.41,16.41,0,0,1,7.7,1.6l-1.52,5.7a19.4,19.4,0,0,0-7.22-1.29c-5.86,0-11.39,3-16,11.15v22.78H596.9Z" transform="translate(-117.14 -196.93)"/><path d="M688.34,690h34.49v5H688.34Zm0,17.17h34.49v5H688.34Z" transform="translate(-117.14 -196.93)"/><path class="b" d="M786,688.91l11.31-.4h22.7v5.37H786Zm11.15-3.69c0-9.47,5-15.8,15.72-15.8a29,29,0,0,1,11.23,2.24l-1.52,5a21,21,0,0,0-9.06-1.85c-7,0-9.79,3.93-9.79,10.19v42.51h-6.58Z" transform="translate(-117.14 -196.93)"/><path class="b" d="M832.49,674.87h7.38l16.84,33,5,10.91h.16c-.24-5.21-.88-11.15-.88-16.68V674.87h6.42v52.62h-7.38l-16.85-33-5.05-10.9H838c.24,5.37.88,11,.88,16.44v27.51h-6.41Z" transform="translate(-117.14 -196.93)"/><path class="b" d="M880.45,717.39c0-8.75,8.18-13,28.32-14.6-.24-5.3-2.81-9.79-10.35-9.79-5,0-10,2.41-13.64,4.65l-2.64-4.49c4-2.57,10.59-5.61,17.4-5.61,10.67,0,15.89,6.33,15.89,16v23.9h-5.54l-.56-5.29h-.24c-4.25,3.37-9.87,6.26-15.32,6.26C886.47,728.46,880.45,724.37,880.45,717.39Zm28.32-.08V707.2c-16.69,1.28-21.74,4.57-21.74,9.7,0,4.42,4,6.18,8.5,6.18S904.28,721,908.77,717.31Z" transform="translate(-117.14 -196.93)"/><path class="b" d="M926.82,688.51h5.29l.56,5.13h.16c2-3.61,4.41-6.09,8.91-6.09,3.85,0,6.25,2.24,7.38,6.73,2.24-4.17,4.65-6.73,9.14-6.73,5.45,0,8.66,4.25,8.66,12v27.91h-6.57V700.06c0-4.49-1.29-6.82-4.18-6.82-2.72,0-4.17,2-6.25,6v28.23h-6.1V700.06c0-4.49-1.12-6.82-4-6.82-2.73,0-4.49,2-6.42,6v28.23h-6.57Z" transform="translate(-117.14 -196.93)"/><path class="b" d="M975.75,707.92c0-12.67,9.46-20.37,19.89-20.37,11.23,0,17.81,7.3,17.81,18.28a27.27,27.27,0,0,1-.32,4h-33v-5.14h29l-1.69,1.85c0-9.23-4.57-13.8-11.71-13.8s-13.48,5.45-13.48,15.16c0,10.11,6.58,15.24,15.24,15.24a21.22,21.22,0,0,0,11.88-3.69l2.4,4.33a26.68,26.68,0,0,1-15.08,4.66C985.05,728.46,975.75,720.92,975.75,707.92Z" transform="translate(-117.14 -196.93)"/><path d="M1035.1,705.19c0-15.48,6.82-27.75,18-36.41l3.69,3.36C1046,681.21,1041,691.72,1041,705.19s5,24,15.72,33l-3.69,3.37C1041.92,733,1035.1,720.67,1035.1,705.19Z" transform="translate(-117.14 -196.93)"/><path d="M1086.44,707.28l-13.64-18.77h7.3l6.18,8.5c1.36,2.17,3,4.49,4.57,6.58h.32c1.45-2.09,3-4.49,4.42-6.66l5.77-8.42h7.06l-13.8,19.33,14.92,19.65h-7.38l-6.73-9c-1.69-2.17-3.45-4.81-5.14-7.06H1090c-1.6,2.33-3.21,4.65-4.81,7.14l-6.42,8.9h-7.06Z" transform="translate(-117.14 -196.93)"/><path d="M1130.4,740.41c6.82-3,10.18-7.38,10.1-14l-1.44-7.38,4.49,6.34a5.65,5.65,0,0,1-4.49,1.84c-3.45,0-6.26-2-6.26-6s3-6.1,6.42-6.1c4.73,0,7.22,3.93,7.22,10.27,0,9.38-5.29,16-14.12,19.25Z" transform="translate(-117.14 -196.93)"/><path d="M1216.31,743.46l1.36-5.3a12.54,12.54,0,0,0,3.53.56c5.45,0,8.74-3.45,10.67-8.26l1.12-2.89-18.13-39.06h6.74l9.47,21.5c1.52,3.45,3.2,7.54,4.81,11.31h.32c1.36-3.69,2.89-7.78,4.17-11.31l8.42-21.5h6.42L1238,730.7c-2.88,7.7-7.62,13.56-16.52,13.56A16.39,16.39,0,0,1,1216.31,743.46Z" transform="translate(-117.14 -196.93)"/><path d="M1268.85,738.24c10.74-9.06,15.72-19.57,15.72-33s-5-24-15.72-33.05l3.69-3.36c11.15,8.66,18,20.93,18,36.41s-6.81,27.76-18,36.42Z" transform="translate(-117.14 -196.93)"/><path d="M1322.91,740.41c6.82-3,10.19-7.38,10.11-14l-1.45-7.38,4.5,6.34a5.68,5.68,0,0,1-4.5,1.84c-3.45,0-6.25-2-6.25-6s3-6.1,6.41-6.1c4.74,0,7.22,3.93,7.22,10.27,0,9.38-5.29,16-14.12,19.25Zm1.84-47.49a6.51,6.51,0,1,1,6.5,6.82A6.5,6.5,0,0,1,1324.75,692.92Z" transform="translate(-117.14 -196.93)"/><path class="c" d="M1237.74,659.38c0-163.35,174.09-114.73,190.91-227.67" transform="translate(-117.14 -196.93)"/><polygon points="1343.65 244.64 1310.22 186.57 1276.64 244.56 1343.65 244.64"/><path class="c" d="M1091.76,660c0-134-45.23-91.48-48.88-228.27" transform="translate(-117.14 -196.93)"/><polygon points="959.53 244.6 926.02 186.57 892.52 244.6 959.53 244.6"/><path d="M117.74,442.73V421.38h5.92v14.26H135.1V422.36h5.83v13.28h17.25v7.09Z" transform="translate(-117.14 -196.93)"/><path d="M117.74,407.7h24.5c7.5,0,10.71-2.91,10.71-7.18,0-4.55-3.18-7.36-10.71-7.36h-24.5v-7.1h23.84c11.86,0,17.21,5.73,17.21,14.65,0,8.75-5.17,14.09-17.09,14.09h-24Z" transform="translate(-117.14 -196.93)"/><path d="M158.18,378.12H117.74v-7.69l17.33-9.34a127.61,127.61,0,0,1,13.33-6.23l0-.14c-5.32.46-10.84.67-17.33.67H117.74v-6.48h40.44V356l-17.62,9.44a131.14,131.14,0,0,1-13.62,6.41l0,.16c5.08-.29,10.54-.42,17.69-.42h13.52Z" transform="translate(-117.14 -196.93)"/><path d="M157.15,315a22.61,22.61,0,0,1,1.58,9.13c0,11.75-7.9,18.8-20.27,18.8-14,0-21.27-9-21.27-19.78a19.16,19.16,0,0,1,1.56-8.44l5.75,1.48a15.86,15.86,0,0,0-1.36,6.67c0,7.09,4.82,12.6,14.93,12.6,9.51,0,14.63-4.86,14.63-12.54a18.62,18.62,0,0,0-1.24-6.84Z" transform="translate(-117.14 -196.93)"/><path d="M123.85,301.31v10.25h-6.11V283.87h6.11v10.34h34.33v7.1Z" transform="translate(-117.14 -196.93)"/><path d="M117.74,272.2h40.44v7.1H117.74Z" transform="translate(-117.14 -196.93)"/><path d="M137.53,232.18c14,0,21.26,7.34,21.26,17.29,0,10.41-8.68,16.68-20.63,16.68-12.32,0-21-6.87-21-17.28C117.14,238.07,126.16,232.18,137.53,232.18Zm.55,26.51c8.41,0,14.9-3.42,14.9-9.58s-6.84-9.47-15.18-9.47c-7.54,0-14.85,3-14.85,9.47S129.72,258.69,138.08,258.69Z" transform="translate(-117.14 -196.93)"/><path d="M158.18,226.14H117.74v-7.69l17.33-9.34a129.68,129.68,0,0,1,13.33-6.23l0-.14c-5.32.46-10.84.67-17.33.67H117.74v-6.48h40.44v7.14l-17.62,9.43a129.12,129.12,0,0,1-13.62,6.41l0,.17c5.08-.3,10.54-.42,17.69-.42h13.52Z" transform="translate(-117.14 -196.93)"/><path d="M157.15,730.77a22.61,22.61,0,0,1,1.58,9.13c0,11.75-7.9,18.8-20.26,18.8-14,0-21.28-9-21.28-19.78a19.16,19.16,0,0,1,1.56-8.44L124.5,732a15.86,15.86,0,0,0-1.36,6.67c0,7.09,4.82,12.6,14.93,12.6,9.51,0,14.63-4.86,14.63-12.54a18.66,18.66,0,0,0-1.24-6.84Z" transform="translate(-117.14 -196.93)"/><path d="M147,717.19l11.16,3.07v7.2l-40.44-11.78v-8.83l40.44-11.7v7.43L147,705.78Zm-5.42-10.35-9.75,2.74c-2.55.68-5.6,1.31-8.09,1.87v.15c2.52.54,5.64,1.15,8.07,1.8l9.77,2.72Z" transform="translate(-117.14 -196.93)"/><path d="M117.74,689.77v-7.1h34.47V667.79h6v22Z" transform="translate(-117.14 -196.93)"/><path d="M117.74,662.53v-7.1h34.47V640.55h6v22Z" transform="translate(-117.14 -196.93)"/><path class="d" d="M186.94,318.58l45.18,0" transform="translate(-117.14 -196.93)"/><path class="d" d="M186.94,702.22l45.18,0" transform="translate(-117.14 -196.93)"/><path class="e" d="M968.05,788.09l-2.35,8.56h-5.53l9-31H976l9,31h-5.69l-2.46-8.56Zm7.94-4.15-2.1-7.48c-.53-2-1-4.29-1.44-6.2h-.11c-.42,1.93-.89,4.32-1.38,6.19l-2.09,7.49Z" transform="translate(-117.14 -196.93)"/><path class="e" d="M1008,795.86a17.42,17.42,0,0,1-7,1.21c-9,0-14.41-6.06-14.41-15.54,0-10.71,6.87-16.31,15.16-16.31a14.53,14.53,0,0,1,6.47,1.2l-1.13,4.41a12,12,0,0,0-5.12-1.05c-5.43,0-9.65,3.69-9.65,11.45,0,7.29,3.72,11.22,9.61,11.22a14.26,14.26,0,0,0,5.24-1Z" transform="translate(-117.14 -196.93)"/><path class="e" d="M1018.48,770.33h-7.87v-4.69h21.24v4.69h-7.93v26.32h-5.44Z" transform="translate(-117.14 -196.93)"/><path class="e" d="M1040.73,765.64v18.79c0,5.74,2.23,8.2,5.5,8.2,3.5,0,5.65-2.43,5.65-8.2V765.64h5.44v18.28c0,9.09-4.39,13.2-11.24,13.2-6.7,0-10.79-4-10.79-13.11V765.64Z" transform="translate(-117.14 -196.93)"/><path class="e" d="M1067.92,788.09l-2.35,8.56H1060l9-31h6.77l9,31h-5.7l-2.46-8.56Zm7.94-4.15-2.1-7.48c-.53-2-1-4.29-1.44-6.2h-.11c-.42,1.93-.89,4.32-1.39,6.19l-2.08,7.49Z" transform="translate(-117.14 -196.93)"/><path class="e" d="M1088.94,765.64h5.44v26.43h11.41v4.58h-16.85Z" transform="translate(-117.14 -196.93)"/><path class="e" d="M1127.49,766.06a42.47,42.47,0,0,1,7.8-.63c3.87,0,6.78.79,8.71,2.48a8.76,8.76,0,0,1,2.87,6.79,9.62,9.62,0,0,1-2.54,7c-2.14,2.23-5.49,3.29-9.09,3.29a13.7,13.7,0,0,1-2.35-.16v11.81h-5.4Zm5.4,14.45a9.69,9.69,0,0,0,2.29.21c3.94,0,6.28-2.14,6.28-5.76,0-3.26-2-5.29-5.77-5.29a12.79,12.79,0,0,0-2.8.26Z" transform="translate(-117.14 -196.93)"/><path class="e" d="M1154.12,788.09l-2.35,8.56h-5.53l9-31H1162l9,31h-5.7l-2.45-8.56Zm7.94-4.15-2.1-7.48c-.53-2-1-4.29-1.44-6.2h-.11c-.42,1.93-.89,4.32-1.39,6.19l-2.08,7.49Z" transform="translate(-117.14 -196.93)"/><path class="e" d="M1175.14,766.08a42.82,42.82,0,0,1,7.79-.65c4.07,0,7,.69,9,2.43a7.9,7.9,0,0,1,2.57,6.24,8.21,8.21,0,0,1-5.41,7.78V782c2.23.83,3.48,2.94,4.21,6.15a61.22,61.22,0,0,0,2.28,8.5H1190a41.16,41.16,0,0,1-1.94-7.38c-.8-4-2.17-5.35-5.16-5.4h-2.34v12.78h-5.4Zm5.4,13.74h2.73c3.58,0,5.79-2.11,5.79-5.21,0-3.28-2-5-5.56-5a12.9,12.9,0,0,0-3,.25Z" transform="translate(-117.14 -196.93)"/><path class="e" d="M1205.5,788.09l-2.35,8.56h-5.53l9-31h6.77l9,31h-5.69l-2.46-8.56Zm7.94-4.15-2.1-7.48c-.53-2-1-4.29-1.44-6.2h-.11c-.42,1.93-.89,4.32-1.39,6.19l-2.08,7.49Z" transform="translate(-117.14 -196.93)"/><path class="e" d="M1250.37,784.2c-.18-3.84-.39-8.48-.35-12.46h-.13c-.9,3.67-2.06,7.73-3.22,11.36l-4.14,13.18h-4.07l-3.79-12.94c-1.08-3.73-2.12-7.84-2.85-11.6h-.11c-.1,3.89-.3,8.59-.52,12.64l-.64,12.27h-5l2.06-31h6.78l3.72,12.49c1.06,3.76,2,7.31,2.7,10.79h.13c.74-3.42,1.69-7,2.8-10.81l3.89-12.47h6.73l1.79,31H1251Z" transform="translate(-117.14 -196.93)"/><path class="e" d="M1277.41,782.78H1267v9.33h11.65v4.54h-17.09v-31H1278v4.54h-11v8.14h10.39Z" transform="translate(-117.14 -196.93)"/><path class="e" d="M1288.86,770.33H1281v-4.69h21.23v4.69h-7.93v26.32h-5.44Z" transform="translate(-117.14 -196.93)"/><path class="e" d="M1321.57,782.78h-10.4v9.33h11.66v4.54h-17.1v-31h16.46v4.54h-11v8.14h10.4Z" transform="translate(-117.14 -196.93)"/><path class="e" d="M1327.49,766.08a42.82,42.82,0,0,1,7.79-.65c4.06,0,7,.69,9,2.43a7.9,7.9,0,0,1,2.57,6.24,8.21,8.21,0,0,1-5.41,7.78V782c2.23.83,3.48,2.94,4.21,6.15a61.22,61.22,0,0,0,2.28,8.5h-5.6a41.16,41.16,0,0,1-1.94-7.38c-.8-4-2.17-5.35-5.16-5.4h-2.34v12.78h-5.4Zm5.4,13.74h2.73c3.58,0,5.79-2.11,5.79-5.21,0-3.28-2-5-5.56-5a12.9,12.9,0,0,0-3,.25Z" transform="translate(-117.14 -196.93)"/><path class="e" d="M1351.63,790.75a14.08,14.08,0,0,0,6.69,1.76c3.43,0,5.35-1.72,5.35-4.26s-1.56-3.78-5.07-5.3c-4.61-1.93-7.63-4.78-7.63-8.9,0-5,4-8.83,10.41-8.83a14.38,14.38,0,0,1,6.59,1.41l-1.22,4.46a11.53,11.53,0,0,0-5.49-1.34c-3.35,0-4.82,1.91-4.82,3.74,0,2.39,1.63,3.5,5.48,5.21,4.95,2.21,7.23,5,7.23,9.12,0,5.16-3.83,9.25-11.09,9.25a16.17,16.17,0,0,1-7.56-1.77Z" transform="translate(-117.14 -196.93)"/><path class="f" d="M907,228.79H923.4v4.54H912.47v8.77h10.18v4.47H912.47V259.8H907Z" transform="translate(-117.14 -196.93)"/><path class="f" d="M953,244c0,10.76-5.63,16.3-13.26,16.3-8,0-12.79-6.65-12.79-15.82,0-9.45,5.27-16.12,13.26-16.12C948.49,228.32,953,235.24,953,244Zm-20.33.42c0,6.45,2.62,11.42,7.35,11.42s7.26-5.24,7.26-11.63c0-5.78-2.32-11.39-7.26-11.39S932.67,238,932.67,244.38Z" transform="translate(-117.14 -196.93)"/><path class="f" d="M957.63,229.22a43.83,43.83,0,0,1,7.79-.64c4.06,0,7,.69,9,2.43a7.88,7.88,0,0,1,2.57,6.24,8.21,8.21,0,0,1-5.41,7.78v.12c2.23.83,3.48,2.94,4.21,6.15a60.6,60.6,0,0,0,2.28,8.5h-5.6a41.43,41.43,0,0,1-1.94-7.38c-.8-4-2.18-5.36-5.17-5.41H963V259.8h-5.4ZM963,243h2.73c3.57,0,5.78-2.11,5.78-5.21,0-3.28-2-5-5.55-5a12.12,12.12,0,0,0-3,.26Z" transform="translate(-117.14 -196.93)"/><path class="f" d="M1006,247.35c-.18-3.85-.39-8.48-.35-12.47h-.13c-.9,3.68-2.06,7.74-3.22,11.37l-4.14,13.18h-4.07l-3.79-12.94c-1.08-3.74-2.12-7.84-2.85-11.61h-.11c-.1,3.89-.3,8.59-.52,12.65l-.64,12.27h-5l2.06-31h6.78l3.72,12.48c1.06,3.77,2,7.32,2.7,10.79h.13c.74-3.41,1.69-7,2.8-10.81l3.89-12.46h6.73l1.79,31h-5.2Z" transform="translate(-117.14 -196.93)"/><path class="f" d="M1022.67,251.24l-2.35,8.56h-5.53l9-31h6.77l9,31h-5.69l-2.46-8.56Zm7.94-4.16-2.1-7.48c-.53-1.95-1-4.29-1.44-6.2H1027c-.42,1.93-.89,4.32-1.38,6.19l-2.09,7.49Z" transform="translate(-117.14 -196.93)"/><path class="f" d="M1043.69,228.79h5.44v26.43h11.42v4.58h-16.86Z" transform="translate(-117.14 -196.93)"/><path class="f" d="M1082.24,229.2a43.75,43.75,0,0,1,7.81-.62c3.87,0,6.77.79,8.7,2.48a8.73,8.73,0,0,1,2.88,6.79,9.62,9.62,0,0,1-2.54,7c-2.14,2.23-5.5,3.3-9.09,3.3a12.73,12.73,0,0,1-2.36-.17V259.8h-5.4Zm5.4,14.46a9.85,9.85,0,0,0,2.3.2c3.93,0,6.28-2.14,6.28-5.75,0-3.27-2-5.29-5.77-5.29a12.36,12.36,0,0,0-2.81.26Z" transform="translate(-117.14 -196.93)"/><path class="f" d="M1108.88,251.24l-2.36,8.56H1101l9-31h6.77l9,31h-5.7l-2.46-8.56Zm7.93-4.16-2.1-7.48c-.53-1.95-1-4.29-1.44-6.2h-.11c-.41,1.93-.89,4.32-1.38,6.19l-2.08,7.49Z" transform="translate(-117.14 -196.93)"/><path class="f" d="M1129.9,229.22a43.71,43.71,0,0,1,7.78-.64c4.07,0,7,.69,9,2.43a7.85,7.85,0,0,1,2.57,6.24,8.21,8.21,0,0,1-5.41,7.78v.12c2.23.83,3.49,2.94,4.22,6.15a60.6,60.6,0,0,0,2.28,8.5h-5.6a40.53,40.53,0,0,1-1.94-7.38c-.81-4-2.18-5.36-5.17-5.41h-2.33V259.8h-5.4Zm5.4,13.75H1138c3.57,0,5.78-2.11,5.78-5.21,0-3.28-2-5-5.56-5a12.08,12.08,0,0,0-3,.26Z" transform="translate(-117.14 -196.93)"/><path class="f" d="M1160.26,251.24l-2.36,8.56h-5.52l9-31h6.77l9,31h-5.7l-2.46-8.56Zm7.93-4.16-2.1-7.48c-.52-1.95-1-4.29-1.44-6.2h-.11c-.41,1.93-.88,4.32-1.38,6.19l-2.08,7.49Z" transform="translate(-117.14 -196.93)"/><path class="f" d="M1205.13,247.35c-.19-3.85-.39-8.48-.35-12.47h-.14c-.89,3.68-2.05,7.74-3.21,11.37l-4.15,13.18h-4.06l-3.79-12.94c-1.09-3.74-2.12-7.84-2.85-11.61h-.11c-.11,3.89-.3,8.59-.52,12.65l-.65,12.27h-5l2.06-31h6.78l3.73,12.48c1.06,3.77,2,7.32,2.69,10.79h.13c.74-3.41,1.7-7,2.8-10.81l3.89-12.46h6.73l1.8,31h-5.2Z" transform="translate(-117.14 -196.93)"/><path class="f" d="M1232.16,245.93h-10.39v9.33h11.65v4.54h-17.09v-31h16.45v4.54h-11v8.13h10.39Z" transform="translate(-117.14 -196.93)"/><path class="f" d="M1243.62,233.47h-7.87v-4.68H1257v4.68h-7.93V259.8h-5.44Z" transform="translate(-117.14 -196.93)"/><path class="f" d="M1276.32,245.93h-10.39v9.33h11.65v4.54h-17.09v-31h16.45v4.54h-11v8.13h10.39Z" transform="translate(-117.14 -196.93)"/><path class="f" d="M1282.25,229.22a43.71,43.71,0,0,1,7.78-.64c4.07,0,7,.69,9,2.43a7.85,7.85,0,0,1,2.57,6.24,8.21,8.21,0,0,1-5.41,7.78v.12c2.23.83,3.49,2.94,4.22,6.15a60.6,60.6,0,0,0,2.28,8.5h-5.6a40.53,40.53,0,0,1-1.94-7.38c-.81-4-2.18-5.36-5.17-5.41h-2.33V259.8h-5.4Zm5.4,13.75h2.73c3.57,0,5.78-2.11,5.78-5.21,0-3.28-2-5-5.56-5a12.08,12.08,0,0,0-2.95.26Z" transform="translate(-117.14 -196.93)"/><path class="f" d="M1306.38,253.9a14.11,14.11,0,0,0,6.69,1.75c3.44,0,5.35-1.72,5.35-4.25s-1.56-3.78-5.06-5.3c-4.62-1.93-7.63-4.78-7.63-8.9,0-5,4-8.83,10.4-8.83a14.4,14.4,0,0,1,6.6,1.41l-1.23,4.46a11.31,11.31,0,0,0-5.48-1.35c-3.36,0-4.82,1.91-4.82,3.75,0,2.38,1.63,3.49,5.47,5.21,4.95,2.2,7.24,5,7.24,9.12,0,5.15-3.83,9.25-11.1,9.25a16.16,16.16,0,0,1-7.55-1.77Z" transform="translate(-117.14 -196.93)"/></svg>