<?xml version="1.0" encoding="UTF-8" standalone="no"?>
<svg
   xmlns:dc="http://purl.org/dc/elements/1.1/"
   xmlns:cc="http://creativecommons.org/ns#"
   xmlns:rdf="http://www.w3.org/1999/02/22-rdf-syntax-ns#"
   xmlns:svg="http://www.w3.org/2000/svg"
   xmlns="http://www.w3.org/2000/svg"
   xmlns:sodipodi="http://sodipodi.sourceforge.net/DTD/sodipodi-0.dtd"
   xmlns:inkscape="http://www.inkscape.org/namespaces/inkscape"
   inkscape:version="1.0 (4035a4fb49, 2020-05-01)"
   sodipodi:docname="function-parts.svg"
   id="svg214"
   version="1.1"
   viewBox="0 0 1738.47 695.52">
  <metadata
     id="metadata218">
    <rdf:RDF>
      <cc:Work
         rdf:about="">
        <dc:format>image/svg+xml</dc:format>
        <dc:type
           rdf:resource="http://purl.org/dc/dcmitype/StillImage" />
      </cc:Work>
    </rdf:RDF>
  </metadata>
  <sodipodi:namedview
     inkscape:current-layer="svg214"
     inkscape:window-maximized="0"
     inkscape:window-y="0"
     inkscape:window-x="953"
     inkscape:cy="488.81716"
     inkscape:cx="971.1675"
     inkscape:zoom="0.29389587"
     showgrid="false"
     id="namedview216"
     inkscape:window-height="1008"
     inkscape:window-width="958"
     inkscape:pageshadow="2"
     inkscape:pageopacity="0"
     guidetolerance="10"
     gridtolerance="10"
     objecttolerance="10"
     borderopacity="1"
     bordercolor="#666666"
     pagecolor="#ffffff" />
  <defs
     id="defs4">
    <style
       id="style2">.a{fill:#2a57d3;}.b{fill:#e54539;}.c{fill:none;stroke:#000;stroke-linecap:round;stroke-linejoin:round;stroke-width:6px;}</style>
  </defs>
  <path
     id="path6"
     transform="translate(-42.37 -137.56)"
     d="M496.35,391.76h-14.8v-4.69h20.26v34h-5.46Zm-2.17-16.32a4.34,4.34,0,1,1,4.34,4.48A4.24,4.24,0,0,1,494.18,375.44Z"
     class="a" />
  <path
     id="path8"
     transform="translate(-42.37 -137.56)"
     d="M521.22,387.07h4.48l.46,5.74h.26c3.36-3.71,7-6.58,12-6.58,7.57,0,11.06,4.76,11.06,13.72v21.14h-5.47V400.72c0-6.44-2.1-9.45-7.3-9.45-3.81,0-6.38,2-10.07,6.09v23.73h-5.46Z"
     class="a" />
  <path
     id="path10"
     transform="translate(-42.37 -137.56)"
     d="M568.14,407.86v-16.1h-9.08v-4.34l9.28-.35.72-10.93h4.54v10.93h15.66v4.69H573.6v16.17c0,6.09,1.91,9.24,8.09,9.24a19.9,19.9,0,0,0,7.63-1.54l1.19,4.27a26.47,26.47,0,0,1-10,2C571.16,421.93,568.14,416.26,568.14,407.86Z"
     class="a" />
  <path
     id="path12"
     transform="translate(-42.37 -137.56)"
     d="M638.21,416.61l2.5-3.85a21.93,21.93,0,0,0,13.89,4.62c5.39,0,8-2.38,8-5.25,0-2.59-1.26-4.41-9.94-6.3-8.36-1.82-12.5-4.83-12.5-9.94,0-5.46,4.54-9.66,13.29-9.66a23,23,0,0,1,12.9,4.34l-2.64,3.71A18.08,18.08,0,0,0,653,390.71c-5.4,0-7.37,2.31-7.37,4.9,0,2.94,2.76,4.2,9.34,5.67,10.6,2.45,13.16,5.25,13.16,10.5,0,5.53-5.06,10.15-14.21,10.15A27,27,0,0,1,638.21,416.61Z"
     class="b" />
  <path
     id="path14"
     transform="translate(-42.37 -137.56)"
     d="M678.09,408.21V387.07h5.46v20.37c0,6.37,2.11,9.45,7.37,9.45,3.68,0,6.38-1.82,9.93-6.23V387.07h5.47v34h-4.54l-.47-5.95h-.26c-3.22,4-7,6.79-11.91,6.79C681.58,421.93,678.09,417.17,678.09,408.21Z"
     class="b" />
  <path
     id="path16"
     transform="translate(-42.37 -137.56)"
     d="M716.32,387.07h4.34l.46,4.48h.13c1.65-3.15,3.62-5.32,7.31-5.32,3.15,0,5.13,2,6.05,5.88,1.84-3.64,3.82-5.88,7.5-5.88,4.47,0,7.11,3.71,7.11,10.5v24.36h-5.4V397.15c0-3.92-1.05-5.95-3.42-5.95s-3.42,1.75-5.13,5.25v24.64h-5V397.15c0-3.92-.92-5.95-3.29-5.95s-3.69,1.75-5.27,5.25v24.64h-5.39Z"
     class="b" />
  <path
     id="path18"
     transform="translate(-42.37 -137.56)"
     d="M765.67,401.63c0-13.51,5.59-24.23,14.74-31.79l3,2.94c-8.81,7.92-12.89,17.09-12.89,28.85s4.08,20.93,12.89,28.84l-3,2.94C771.26,425.85,765.67,415.14,765.67,401.63Z" />
  <path
     id="path20"
     transform="translate(-42.37 -137.56)"
     d="M812.19,391.76H797.38v-4.69h20.27v34h-5.46ZM810,375.44a4.34,4.34,0,1,1,4.34,4.48A4.24,4.24,0,0,1,810,375.44Z"
     class="a" />
  <path
     id="path22"
     transform="translate(-42.37 -137.56)"
     d="M837.06,387.07h4.47l.46,5.74h.27c3.35-3.71,7-6.58,12-6.58,7.56,0,11.05,4.76,11.05,13.72v21.14h-5.46V400.72c0-6.44-2.1-9.45-7.3-9.45-3.82,0-6.38,2-10.07,6.09v23.73h-5.46Z"
     class="a" />
  <path
     id="path24"
     transform="translate(-42.37 -137.56)"
     d="M884,407.86v-16.1h-9.08v-4.34l9.28-.35.72-10.93h4.54v10.93h15.66v4.69H889.43v16.17c0,6.09,1.91,9.24,8.1,9.24a19.9,19.9,0,0,0,7.63-1.54l1.18,4.27a26.38,26.38,0,0,1-10,2C887,421.93,884,416.26,884,407.86Z"
     class="a" />
  <path
     id="path26"
     transform="translate(-42.37 -137.56)"
     d="M954.64,412.27c0-7.63,6.71-11.34,23.23-12.74-.2-4.62-2.3-8.54-8.49-8.54-4.14,0-8.22,2.1-11.18,4.06L956,391.13c3.29-2.24,8.69-4.9,14.28-4.9,8.75,0,13,5.53,13,14v20.86h-4.54l-.46-4.62h-.2c-3.49,2.94-8.09,5.46-12.57,5.46C959.58,421.93,954.64,418.36,954.64,412.27Zm23.23-.07v-8.82c-13.69,1.12-17.83,4-17.83,8.47,0,3.85,3.29,5.39,7,5.39S974.18,415.42,977.87,412.2Z" />
  <path
     id="path28"
     transform="translate(-42.37 -137.56)"
     d="M1001.75,432.36c5.6-2.66,8.36-6.44,8.29-12.25l-1.18-6.44,3.68,5.53a4.49,4.49,0,0,1-3.68,1.61,4.85,4.85,0,0,1-5.13-5.25,5,5,0,0,1,5.26-5.32c3.88,0,5.92,3.43,5.92,9,0,8.19-4.34,13.93-11.58,16.8Z" />
  <path
     id="path30"
     transform="translate(-42.37 -137.56)"
     d="M1088.54,391.76h-14.8v-4.69H1094v34h-5.46Zm-2.17-16.32a4.35,4.35,0,1,1,4.34,4.48A4.24,4.24,0,0,1,1086.37,375.44Z"
     class="a" />
  <path
     id="path32"
     transform="translate(-42.37 -137.56)"
     d="M1113.42,387.07h4.47l.46,5.74h.26c3.36-3.71,7-6.58,12-6.58,7.57,0,11.06,4.76,11.06,13.72v21.14h-5.46V400.72c0-6.44-2.11-9.45-7.31-9.45-3.81,0-6.38,2-10.06,6.09v23.73h-5.46Z"
     class="a" />
  <path
     id="path34"
     transform="translate(-42.37 -137.56)"
     d="M1160.33,407.86v-16.1h-9.08v-4.34l9.28-.35.72-10.93h4.54v10.93h15.66v4.69h-15.66v16.17c0,6.09,1.91,9.24,8.09,9.24a20,20,0,0,0,7.64-1.54l1.18,4.27a26.43,26.43,0,0,1-10,2C1163.36,421.93,1160.33,416.26,1160.33,407.86Z"
     class="a" />
  <path
     id="path36"
     transform="translate(-42.37 -137.56)"
     d="M1236.92,417.31h-.2l-.52,3.78h-4.35V371.24h5.47v13.59l-.27,6.58h.2c2.89-3.15,7-5.18,10.72-5.18,8.62,0,13.3,6.79,13.3,17.29,0,11.62-6.85,18.41-14.41,18.41C1243.7,421.93,1239.88,420.18,1236.92,417.31Zm18.75-13.72c0-7.49-2.63-12.46-9-12.46-2.83,0-6.12,1.54-9.34,5v16.94a13,13,0,0,0,8.61,3.92C1251.46,417,1255.67,412,1255.67,403.59Z" />
  <path
     id="path38"
     transform="translate(-42.37 -137.56)"
     d="M1273.24,430.47c8.82-7.91,12.9-17.08,12.9-28.84s-4.08-20.93-12.9-28.85l3-2.94c9.14,7.56,14.74,18.28,14.74,31.79s-5.6,24.22-14.74,31.78Z" />
  <path
     id="path40"
     transform="translate(-42.37 -137.56)"
     d="M1361,422.42c0-5.11.66-8.82.66-13.51,0-2.73-1.78-5.39-9.54-5.46v-3.64c7.76-.07,9.54-2.73,9.54-5.46,0-4.41-.66-8.68-.66-13.52,0-7.21,4-9.31,12.17-9.31h4.08v3.29h-3.42c-6.71,0-8.16,1.82-8.16,6.38,0,4,.4,8.33.4,12.67,0,4.55-1.45,6.79-6,7.63v.28c4.54.84,6,3.08,6,7.63,0,4.76-.4,8.4-.4,12.67,0,4.55,1.45,6.37,8.16,6.37h3.42v3.29h-4.08C1364.9,431.73,1361,429.63,1361,422.42Z" />
  <path
     id="path42"
     transform="translate(-42.37 -137.56)"
     d="M614.79,471.76H600v-4.69h20.26v34h-5.46Zm-2.17-16.32a4.34,4.34,0,1,1,4.34,4.48A4.24,4.24,0,0,1,612.62,455.44Z"
     class="a" />
  <path
     id="path44"
     transform="translate(-42.37 -137.56)"
     d="M639.66,467.07h4.48l.46,5.74h.26c3.36-3.71,7-6.58,12-6.58C664.47,466.23,668,471,668,480v21.14h-5.46V480.72c0-6.44-2.1-9.45-7.3-9.45-3.82,0-6.38,2-10.07,6.09v23.73h-5.46Z"
     class="a" />
  <path
     id="path46"
     transform="translate(-42.37 -137.56)"
     d="M686.58,487.86v-16.1H677.5v-4.34l9.27-.35.73-10.93H692v10.93H707.7v4.69H692v16.17c0,6.09,1.91,9.24,8.09,9.24a19.9,19.9,0,0,0,7.63-1.54L709,499.9a26.47,26.47,0,0,1-10,2C689.6,501.93,686.58,496.26,686.58,487.86Z"
     class="a" />
  <path
     id="path48"
     transform="translate(-42.37 -137.56)"
     d="M757.25,492.27c0-7.63,6.71-11.34,23.22-12.74-.2-4.62-2.3-8.54-8.49-8.54-4.14,0-8.22,2.1-11.18,4.06l-2.17-3.92c3.29-2.24,8.68-4.9,14.27-4.9,8.76,0,13,5.53,13,14v20.86h-4.54l-.46-4.62h-.2c-3.48,2.94-8.09,5.46-12.56,5.46C762.18,501.93,757.25,498.36,757.25,492.27Zm23.22-.07v-8.82c-13.68,1.12-17.83,4-17.83,8.47,0,3.85,3.29,5.39,7,5.39S776.79,495.42,780.47,492.2Z" />
  <path
     id="path50"
     transform="translate(-42.37 -137.56)"
     d="M795.41,484.15c0-11.06,6.91-17.92,14.47-17.92,3.82,0,6.78,1.61,9.61,4.34h.13l-.26-6.23v-13.1h5.46v49.85h-4.47l-.47-4.48h-.19c-2.63,2.87-6.45,5.32-10.46,5.32C800.94,501.93,795.41,495.49,795.41,484.15Zm24,7.84V475.05c-2.9-2.87-5.59-3.92-8.36-3.92-5.52,0-10,5.18-10,12.95,0,8.12,3.55,12.95,9.41,12.95C813.57,497,816.53,495.35,819.36,492Z" />
  <path
     id="path52"
     transform="translate(-42.37 -137.56)"
     d="M834.89,484.15c0-11.06,6.91-17.92,14.47-17.92,3.82,0,6.78,1.61,9.61,4.34h.13l-.26-6.23v-13.1h5.46v49.85h-4.47l-.47-4.48h-.19c-2.63,2.87-6.45,5.32-10.46,5.32C840.42,501.93,834.89,495.49,834.89,484.15Zm24,7.84V475.05c-2.9-2.87-5.59-3.92-8.36-3.92-5.52,0-10,5.18-10,12.95,0,8.12,3.55,12.95,9.41,12.95C853.05,497,856,495.35,858.84,492Z" />
  <path
     id="path54"
     transform="translate(-42.37 -137.56)"
     d="M891.15,471.76H876.34v-4.69h20.27v34h-5.46ZM889,455.44a4.35,4.35,0,1,1,8.69,0,4.35,4.35,0,1,1-8.69,0Z" />
  <path
     id="path56"
     transform="translate(-42.37 -137.56)"
     d="M923.45,487.86v-16.1h-9.08v-4.34l9.28-.35.73-10.93h4.53v10.93h15.66v4.69H928.91v16.17c0,6.09,1.91,9.24,8.1,9.24a19.9,19.9,0,0,0,7.63-1.54l1.18,4.27a26.38,26.38,0,0,1-10,2C926.48,501.93,923.45,496.26,923.45,487.86Z" />
  <path
     id="path58"
     transform="translate(-42.37 -137.56)"
     d="M970.1,471.76H955.3v-4.69h20.27v34H970.1Zm-2.17-16.32a4.35,4.35,0,1,1,8.69,0,4.35,4.35,0,1,1-8.69,0Z" />
  <path
     id="path60"
     transform="translate(-42.37 -137.56)"
     d="M992.81,484.15c0-11.41,7.37-17.92,15.79-17.92s15.79,6.51,15.79,17.92-7.37,17.78-15.79,17.78S992.81,495.42,992.81,484.15Zm26,0c0-7.84-4.08-13.09-10.2-13.09s-10.2,5.25-10.2,13.09,4.08,13,10.2,13S1018.8,491.92,1018.8,484.15Z" />
  <path
     id="path62"
     transform="translate(-42.37 -137.56)"
     d="M1034.46,467.07h4.47l.46,5.74h.26c3.36-3.71,7-6.58,12-6.58,7.56,0,11,4.76,11,13.72v21.14h-5.46V480.72c0-6.44-2.11-9.45-7.31-9.45-3.81,0-6.38,2-10.06,6.09v23.73h-5.46Z" />
  <path
     id="path64"
     transform="translate(-42.37 -137.56)"
     d="M1112.89,468.33h28.29v4.34h-28.29Zm0,15h28.29v4.34h-28.29Z" />
  <path
     id="path66"
     transform="translate(-42.37 -137.56)"
     d="M1191.52,492.27c0-7.63,6.71-11.34,23.23-12.74-.2-4.62-2.31-8.54-8.49-8.54-4.15,0-8.23,2.1-11.19,4.06l-2.17-3.92c3.29-2.24,8.69-4.9,14.28-4.9,8.75,0,13,5.53,13,14v20.86h-4.54l-.46-4.62h-.2c-3.49,2.94-8.09,5.46-12.57,5.46C1196.45,501.93,1191.52,498.36,1191.52,492.27Zm23.23-.07v-8.82c-13.69,1.12-17.83,4-17.83,8.47,0,3.85,3.29,5.39,7,5.39S1211.06,495.42,1214.75,492.2Z" />
  <path
     id="path68"
     transform="translate(-42.37 -137.56)"
     d="M1243.3,480.16h-12v-4.34h12V462.17h4.35v13.65h12v4.34h-12v13.65h-4.35Z" />
  <path
     id="path70"
     transform="translate(-42.37 -137.56)"
     d="M1276.4,497.31h-.2l-.52,3.78h-4.35V451.24h5.46v13.59l-.26,6.58h.2c2.89-3.15,7-5.18,10.72-5.18,8.62,0,13.29,6.79,13.29,17.29,0,11.62-6.84,18.41-14.41,18.41C1283.18,501.93,1279.36,500.18,1276.4,497.31Zm18.75-13.72c0-7.49-2.63-12.46-9-12.46-2.83,0-6.12,1.54-9.35,5v16.94a13,13,0,0,0,8.62,3.92C1290.94,497,1295.15,492,1295.15,483.59Z" />
  <path
     id="path72"
     transform="translate(-42.37 -137.56)"
     d="M1317.59,512.36c5.59-2.66,8.36-6.44,8.29-12.25l-1.18-6.44,3.68,5.53a4.5,4.5,0,0,1-3.68,1.61,4.86,4.86,0,0,1-5.14-5.25,5,5,0,0,1,5.27-5.32c3.88,0,5.92,3.43,5.92,9,0,8.19-4.34,13.93-11.58,16.8Zm1.51-41.44c0-3.5,2.37-5.95,5.33-5.95s5.33,2.45,5.33,5.95-2.37,5.95-5.33,5.95S1319.1,474.49,1319.1,470.92Z" />
  <path
     id="path74"
     transform="translate(-42.37 -137.56)"
     d="M603.6,547.07h4.54l.53,8h.13c3.36-5.53,8.36-8.89,14.28-8.89a12.79,12.79,0,0,1,6.32,1.4l-1.25,5a15.23,15.23,0,0,0-5.93-1.12c-4.8,0-9.34,2.59-13.16,9.73v19.88H603.6Z"
     class="a" />
  <path
     id="path76"
     transform="translate(-42.37 -137.56)"
     d="M638,564c0-11.06,7.76-17.78,16.31-17.78,9.22,0,14.61,6.37,14.61,16a25.38,25.38,0,0,1-.26,3.5h-27v-4.48h23.81l-1.38,1.61c0-8.05-3.75-12-9.6-12s-11.06,4.76-11.06,13.23c0,8.82,5.4,13.3,12.5,13.3a16.69,16.69,0,0,0,9.74-3.22l2,3.78a21,21,0,0,1-12.37,4.06C645.65,581.93,638,575.35,638,564Z"
     class="a" />
  <path
     id="path78"
     transform="translate(-42.37 -137.56)"
     d="M686.58,567.86v-16.1H677.5v-4.34l9.27-.35.73-10.93H692v10.93H707.7v4.69H692v16.17c0,6.09,1.91,9.24,8.09,9.24a19.9,19.9,0,0,0,7.63-1.54L709,579.9a26.47,26.47,0,0,1-10,2C689.6,581.93,686.58,576.26,686.58,567.86Z"
     class="a" />
  <path
     id="path80"
     transform="translate(-42.37 -137.56)"
     d="M717.57,568.21V547.07H723v20.37c0,6.37,2.1,9.45,7.37,9.45,3.68,0,6.38-1.82,9.93-6.23V547.07h5.46v34h-4.54l-.46-6h-.26c-3.22,4-7,6.79-11.91,6.79C721.06,581.93,717.57,577.17,717.57,568.21Z"
     class="a" />
  <path
     id="path82"
     transform="translate(-42.37 -137.56)"
     d="M761.52,547.07h4.54l.53,8h.13c3.36-5.53,8.36-8.89,14.28-8.89a12.73,12.73,0,0,1,6.31,1.4l-1.25,5a15.15,15.15,0,0,0-5.92-1.12c-4.8,0-9.34,2.59-13.16,9.73v19.88h-5.46Z"
     class="a" />
  <path
     id="path84"
     transform="translate(-42.37 -137.56)"
     d="M797.58,547.07h4.47l.46,5.74h.27c3.35-3.71,7-6.58,12-6.58,7.56,0,11,4.76,11,13.72v21.14h-5.46V560.72c0-6.44-2.1-9.45-7.3-9.45-3.82,0-6.38,2-10.07,6.09v23.73h-5.46Z"
     class="a" />
  <path
     id="path86"
     transform="translate(-42.37 -137.56)"
     d="M875.68,572.27c0-7.63,6.71-11.34,23.23-12.74-.2-4.62-2.3-8.54-8.49-8.54-4.14,0-8.22,2.1-11.18,4.06l-2.17-3.92c3.29-2.24,8.68-4.9,14.27-4.9,8.75,0,13,5.53,13,14v20.86h-4.54l-.46-4.62h-.2c-3.48,2.94-8.09,5.46-12.56,5.46C880.62,581.93,875.68,578.36,875.68,572.27Zm23.23-.07v-8.82c-13.69,1.12-17.83,4-17.83,8.47,0,3.85,3.29,5.39,7,5.39S895.22,575.42,898.91,572.2Z" />
  <path
     id="path88"
     transform="translate(-42.37 -137.56)"
     d="M913.85,564.15c0-11.06,6.91-17.92,14.47-17.92,3.82,0,6.78,1.61,9.61,4.34h.13l-.26-6.23v-13.1h5.46v49.85h-4.48l-.46-4.48h-.19c-2.64,2.87-6.45,5.32-10.47,5.32C919.37,581.93,913.85,575.49,913.85,564.15ZM937.8,572V555.05c-2.9-2.87-5.6-3.92-8.36-3.92-5.53,0-10,5.18-10,13,0,8.12,3.55,12.95,9.41,12.95C932,577,935,575.35,937.8,572Z" />
  <path
     id="path90"
     transform="translate(-42.37 -137.56)"
     d="M953.33,564.15c0-11.06,6.91-17.92,14.47-17.92,3.82,0,6.78,1.61,9.61,4.34h.13l-.26-6.23v-13.1h5.46v49.85h-4.48l-.46-4.48h-.19c-2.64,2.87-6.45,5.32-10.47,5.32C958.85,581.93,953.33,575.49,953.33,564.15ZM977.28,572V555.05c-2.9-2.87-5.6-3.92-8.36-3.92-5.53,0-10,5.18-10,13,0,8.12,3.55,12.95,9.41,12.95C971.49,577,974.45,575.35,977.28,572Z" />
  <path
     id="path92"
     transform="translate(-42.37 -137.56)"
     d="M1009.58,551.76h-14.8v-4.69H1015v34h-5.46Zm-2.17-16.32a4.35,4.35,0,1,1,4.35,4.48A4.24,4.24,0,0,1,1007.41,535.44Z" />
  <path
     id="path94"
     transform="translate(-42.37 -137.56)"
     d="M1041.89,567.86v-16.1h-9.08v-4.34l9.28-.35.72-10.93h4.54v10.93H1063v4.69h-15.66v16.17c0,6.09,1.91,9.24,8.1,9.24a19.9,19.9,0,0,0,7.63-1.54l1.18,4.27a26.38,26.38,0,0,1-10,2C1044.92,581.93,1041.89,576.26,1041.89,567.86Z" />
  <path
     id="path96"
     transform="translate(-42.37 -137.56)"
     d="M1088.54,551.76h-14.8v-4.69H1094v34h-5.46Zm-2.17-16.32a4.35,4.35,0,1,1,4.34,4.48A4.24,4.24,0,0,1,1086.37,535.44Z" />
  <path
     id="path98"
     transform="translate(-42.37 -137.56)"
     d="M1111.24,564.15c0-11.41,7.37-17.92,15.8-17.92s15.79,6.51,15.79,17.92-7.37,17.78-15.79,17.78S1111.24,575.42,1111.24,564.15Zm26,0c0-7.84-4.08-13.09-10.19-13.09s-10.2,5.25-10.2,13.09,4.08,13,10.2,13S1137.23,571.92,1137.23,564.15Z" />
  <path
     id="path100"
     transform="translate(-42.37 -137.56)"
     d="M1152.9,547.07h4.47l.46,5.74h.26c3.36-3.71,7-6.58,12-6.58,7.57,0,11.06,4.76,11.06,13.72v21.14h-5.46V560.72c0-6.44-2.11-9.45-7.31-9.45-3.81,0-6.38,2-10.06,6.09v23.73h-5.46Z" />
  <path
     id="path102"
     transform="translate(-42.37 -137.56)"
     d="M1199.15,592.36c5.59-2.66,8.36-6.44,8.29-12.25l-1.18-6.44,3.68,5.53a4.5,4.5,0,0,1-3.68,1.61,4.85,4.85,0,0,1-5.13-5.25,5,5,0,0,1,5.26-5.32c3.88,0,5.92,3.43,5.92,9,0,8.19-4.34,13.93-11.58,16.8Zm1.52-41.44c0-3.5,2.36-5.95,5.32-5.95s5.33,2.45,5.33,5.95-2.36,6-5.33,6S1200.67,554.49,1200.67,550.92Z" />
  <path
     id="path104"
     transform="translate(-42.37 -137.56)"
     d="M482.14,668.44h3.35c6.72,0,8.23-1.82,8.23-6.37,0-4.27-.4-7.91-.4-12.67,0-4.55,1.39-6.79,5.93-7.63v-.28c-4.54-.84-5.93-3.08-5.93-7.63,0-4.34.4-8.69.4-12.68,0-4.55-1.51-6.37-8.23-6.37h-3.35v-3.29h4c8.29,0,12.11,2.1,12.11,9.31,0,4.84-.59,9.11-.59,13.52,0,2.73,1.77,5.39,9.54,5.46v3.64c-7.77.07-9.54,2.73-9.54,5.46,0,4.69.59,8.4.59,13.51,0,7.21-3.82,9.31-12.11,9.31h-4Z" />
  <path
     style="stroke-width:4.8;stroke-miterlimit:4;stroke-dasharray:none"
     id="path106"
     transform="translate(-42.37 -137.56)"
     d="M533.34,364.2c-20.49-59.58-75-106.12-137-117.07"
     class="c" />
  <path
     style="stroke-width:4.8;stroke-miterlimit:4;stroke-dasharray:none"
     id="path108"
     transform="translate(-42.37 -137.56)"
     d="M423.28,284.31c-10.07-12.2-21.85-26.65-31.93-38.85l51.5-14.4"
     class="c" />
  <path
     style="stroke-width:4.8;stroke-miterlimit:4;stroke-dasharray:none"
     id="path110"
     transform="translate(-42.37 -137.56)"
     d="M694.19,363.84l.19-137.38"
     class="c" />
  <path
     style="stroke-width:4.8;stroke-miterlimit:4;stroke-dasharray:none"
     id="path112"
     transform="translate(-42.37 -137.56)"
     d="M669.24,260.85c8.22-13.46,18.4-28,26.63-41.45,7.41,18.69,15.24,26.3,30.17,38.09"
     class="c" />
  <path
     style="stroke-width:4.8;stroke-miterlimit:4;stroke-dasharray:none"
     id="path114"
     transform="translate(-42.37 -137.56)"
     d="M1013.27,309.89A134.77,134.77,0,0,1,1147,191.49"
     class="c" />
  <path
     style="stroke-width:4.8;stroke-miterlimit:4;stroke-dasharray:none"
     id="path116"
     transform="translate(-42.37 -137.56)"
     d="M1106.81,169.34c16.51,7.78,28.82,12.83,45.33,20.6-11.46,16.38-19,26-30.47,42.37"
     class="c" />
  <path
     style="stroke-width:4.8;stroke-miterlimit:4;stroke-dasharray:none"
     id="path118"
     transform="translate(-42.37 -137.56)"
     d="M1229.18,565.62c27.85,8.07,43.42,44.12,44.39,80.68s-9.68,73.85-20.19,110"
     class="c" />
  <path
     style="stroke-width:4.8;stroke-miterlimit:4;stroke-dasharray:none"
     id="path120"
     transform="translate(-42.37 -137.56)"
     d="M1233.57,712.21c10.64,15.9,16.43,30.63,19.11,49,16.29-13.24,26.92-22.92,38.69-39.87"
     class="c" />
  <path
     style="stroke-width:4.8;stroke-miterlimit:4;stroke-dasharray:none"
     id="path122"
     transform="translate(-42.37 -137.56)"
     d="M1311.59,445.9c26.63-.71,40.18.57,66.81-.14-8.18,52.2-1.39,104.57-2,157-18.92-.44-45.31,1.11-64.23.67"
     class="c" />
  <path
     style="stroke-width:4.8;stroke-miterlimit:4;stroke-dasharray:none"
     id="path124"
     transform="translate(-42.37 -137.56)"
     d="M1378.4,519l236.8,2.54"
     class="c" />
  <path
     style="stroke-width:4.8;stroke-miterlimit:4;stroke-dasharray:none"
     id="path126"
     transform="translate(-42.37 -137.56)"
     d="M1579.42,553.37c13.26-10.18,26.52-21.57,39.78-31.75-13.77-9.92-28.22-20.9-43.15-28"
     class="c" />
  <path
     style="stroke-width:4.8;stroke-miterlimit:4;stroke-dasharray:none"
     id="path128"
     transform="translate(-42.37 -137.56)"
     d="M798.06,359.34c.77-9.57,1.53-35.36,2.3-44.93,159.64-4.22,292.44-3.5,457.29,0,2.54,35.8,1.07,19.69,1.18,44.83"
     class="c" />
  <path
     id="path130"
     transform="translate(-42.37 -137.56)"
     d="M42.37,201.25a42.09,42.09,0,0,1,10.09-1.16c6.27,0,10.25,1.5,13,4.46a14.91,14.91,0,0,1,3.59,10.11c0,7.62-4,12.29-9.8,14.6v.17c4.18,1.34,6.69,5.57,7.94,12.36,1.65,8.67,2.63,12.6,3.58,14.61H67.09c-.82-1.65-1.88-6.63-3.21-13.76-1.53-8.09-4.6-11.66-11.29-11.88H46V256.4h-3.6ZM46,227.67h6.74c7.62,0,12.71-4.85,12.71-12.34,0-8.26-5-12-13.07-12a26.78,26.78,0,0,0-6.38.63Z" />
  <path
     id="path132"
     transform="translate(-42.37 -137.56)"
     d="M79.72,235.77c0,13.71,6.12,18.06,12.79,18.06a17.2,17.2,0,0,0,9-2.05l.9,3c-1.54,1-5,2.38-10.38,2.38-10,0-15.89-8.3-15.89-20.07,0-13.1,6.3-21.36,15.13-21.36,10.81,0,13,11.49,13,17.63a21.66,21.66,0,0,1-.08,2.41Zm20.78-3.07c.11-6.83-2.56-13.73-9.76-13.73s-10.27,7.51-10.86,13.73Z" />
  <path
     id="path134"
     transform="translate(-42.37 -137.56)"
     d="M118,205.33v11.24h9.6v3.15H118V246c0,5.21,1.55,7.88,5.05,7.88a10.92,10.92,0,0,0,3.65-.51l.43,3a11,11,0,0,1-4.62.84,7.16,7.16,0,0,1-6-2.67c-1.54-2-2.09-5-2.09-9.39V219.72h-5.83v-3.15h5.83v-9.92Z" />
  <path
     id="path136"
     transform="translate(-42.37 -137.56)"
     d="M161,246.58c0,3.83.15,6.94.31,9.82H158l-.27-6.19h-.16a12.86,12.86,0,0,1-11.29,7c-5.18,0-11.49-3.35-11.49-16.69v-24h3.6v23.19c0,8.15,2.05,14.15,8.72,14.15,5.22,0,8.57-4.29,9.74-7.76a16.8,16.8,0,0,0,.57-4.17V216.57H161Z" />
  <path
     id="path138"
     transform="translate(-42.37 -137.56)"
     d="M172.51,227.7c0-3.69-.15-7.69-.31-11.13h3.36l.16,7.6h.2c1.43-4.57,5.11-8.44,9.87-8.44a5.91,5.91,0,0,1,1.28.13v3.81a8,8,0,0,0-1.44-.08c-5,0-8.47,4.84-9.27,10.78a27.24,27.24,0,0,0-.25,3.67V256.4h-3.6Z" />
  <path
     id="path140"
     transform="translate(-42.37 -137.56)"
     d="M194.08,226c0-4-.15-6.39-.31-9.43h3.33l.24,6.51h.16a12.44,12.44,0,0,1,11.5-7.35c3.69,0,11.7,2.21,11.7,15.69v25h-3.6V232.09C217.1,225.31,215,219,208,219c-4.6,0-8.63,3.65-9.9,8.91a15.7,15.7,0,0,0-.41,3.53V256.4h-3.6Z" />
  <path
     id="path142"
     transform="translate(-42.37 -137.56)"
     d="M252.62,205.33v11.24h9.6v3.15h-9.6V246c0,5.21,1.55,7.88,5.05,7.88a10.92,10.92,0,0,0,3.65-.51l.43,3a11,11,0,0,1-4.62.84,7.15,7.15,0,0,1-6-2.67c-1.54-2-2.09-5-2.09-9.39V219.72h-5.83v-3.15H249v-9.92Z" />
  <path
     id="path144"
     transform="translate(-42.37 -137.56)"
     d="M269.67,216.57l8.6,25.49c1,3.05,1.82,6.17,2.48,8.78h.16c.67-2.45,1.61-5.67,2.6-9l8-25.32h3.8l-9.41,27.51c-4,12.14-7,20.57-11.79,25.73a21.38,21.38,0,0,1-6.27,4.67l-1.35-3.21a19.9,19.9,0,0,0,6.23-4.92,33.2,33.2,0,0,0,5.44-9.41,6,6,0,0,0,.43-1.85,4.59,4.59,0,0,0-.36-1.67l-12.37-36.85Z" />
  <path
     id="path146"
     transform="translate(-42.37 -137.56)"
     d="M302,229.15c0-5.57-.16-9.29-.32-12.58h3.45l.24,6.88h.15c2.59-5.16,6.74-7.72,12.06-7.72C326,215.73,332,223.45,332,236c0,14.53-7.3,21.27-15.29,21.27a12,12,0,0,1-10.93-6.67h-.15v22.12H302Zm3.6,11.87a17.84,17.84,0,0,0,.27,3.19c1.49,6.63,6.07,9.79,10.68,9.79,7.78,0,11.74-7.69,11.74-17.86,0-8.89-3.87-17.17-11.57-17.17-4.86,0-9.46,4.29-10.72,10.32a18.92,18.92,0,0,0-.4,3.33Z" />
  <path
     id="path148"
     transform="translate(-42.37 -137.56)"
     d="M341.7,235.77c0,13.71,6.13,18.06,12.8,18.06a17.23,17.23,0,0,0,9-2.05l.9,3c-1.55,1-5.06,2.38-10.38,2.38-10,0-15.9-8.3-15.9-20.07,0-13.1,6.3-21.36,15.13-21.36,10.82,0,13,11.49,13,17.63a21.66,21.66,0,0,1-.08,2.41Zm20.79-3.07c.11-6.83-2.56-13.73-9.76-13.73s-10.27,7.51-10.87,13.73Z" />
  <path
     id="path150"
     transform="translate(-42.37 -137.56)"
     d="M494.9,137.56h23.67v3.28H498.5v22.39H517v3.28H498.5v27h-3.6Z" />
  <path
     id="path152"
     transform="translate(-42.37 -137.56)"
     d="M550.81,183.67c0,3.83.16,6.94.32,9.82H547.8l-.27-6.19h-.16a12.85,12.85,0,0,1-11.29,7c-5.18,0-11.49-3.35-11.49-16.69v-24h3.6v23.19c0,8.15,2,14.15,8.72,14.15,5.21,0,8.56-4.29,9.74-7.75a16.9,16.9,0,0,0,.56-4.18V153.66h3.6Z" />
  <path
     id="path154"
     transform="translate(-42.37 -137.56)"
     d="M562.36,163.09c0-4-.16-6.39-.32-9.43h3.33l.24,6.51h.16a12.44,12.44,0,0,1,11.5-7.35c3.7,0,11.7,2.21,11.7,15.69v25h-3.6V169.18c0-6.77-2.12-13.07-9.11-13.07-4.6,0-8.63,3.65-9.9,8.91a15.73,15.73,0,0,0-.4,3.53v24.94h-3.6Z" />
  <path
     id="path156"
     transform="translate(-42.37 -137.56)"
     d="M623.44,191.94a19.49,19.49,0,0,1-9.49,2.31c-9.75,0-16.33-8-16.33-20.33,0-12.13,7.06-21.1,17.52-21.1a15.93,15.93,0,0,1,8.42,2.15l-1.25,3.24a14.3,14.3,0,0,0-7.59-2c-9.05,0-13.43,8.51-13.43,17.59,0,10.49,5.43,17.15,13.25,17.15a16.8,16.8,0,0,0,8-2Z" />
  <path
     id="path158"
     transform="translate(-42.37 -137.56)"
     d="M637.28,142.42v11.24h9.59v3.16h-9.59v26.26c0,5.21,1.55,7.89,5,7.89a11.3,11.3,0,0,0,3.66-.51l.43,2.95a11.12,11.12,0,0,1-4.63.84,7.14,7.14,0,0,1-6-2.67c-1.53-2-2.08-5-2.08-9.39V156.82h-5.83v-3.16h5.83v-9.92Z" />
  <path
     id="path160"
     transform="translate(-42.37 -137.56)"
     d="M659,142.62c0,1.87-1.06,3.33-3,3.33-1.61,0-2.74-1.46-2.74-3.33a3.09,3.09,0,0,1,2.86-3.33C657.9,139.29,659,140.75,659,142.62Zm-4.66,50.87V153.66h3.6v39.83Z" />
  <path
     id="path162"
     transform="translate(-42.37 -137.56)"
     d="M698,173.31c0,14.83-8.37,21-15.94,21-8.38,0-15.27-7.37-15.27-20.54,0-13.94,7.55-21,15.81-21C691.46,152.82,698,160.37,698,173.31Zm-27.54.35c0,8.92,4.53,17.43,11.87,17.43s12-8.56,12-17.64c0-7-3.05-17.39-11.9-17.39C673.88,156.06,670.49,165.71,670.49,173.66Z" />
  <path
     id="path164"
     transform="translate(-42.37 -137.56)"
     d="M706.85,163.09c0-4-.16-6.39-.32-9.43h3.33l.24,6.51h.16a12.44,12.44,0,0,1,11.5-7.35c3.7,0,11.7,2.21,11.7,15.69v25h-3.6V169.18c0-6.77-2.12-13.07-9.11-13.07-4.6,0-8.63,3.65-9.9,8.91a15.73,15.73,0,0,0-.4,3.53v24.94h-3.6Z" />
  <path
     id="path166"
     transform="translate(-42.37 -137.56)"
     d="M760.45,163.09c0-4-.16-6.39-.32-9.43h3.33l.24,6.51h.16a12.44,12.44,0,0,1,11.5-7.35c3.69,0,11.7,2.21,11.7,15.69v25h-3.6V169.18c0-6.77-2.12-13.07-9.11-13.07-4.6,0-8.63,3.65-9.9,8.91a15.73,15.73,0,0,0-.4,3.53v24.94h-3.6Z" />
  <path
     id="path168"
     transform="translate(-42.37 -137.56)"
     d="M816.81,193.49l-.48-5.31h-.19a11.94,11.94,0,0,1-10.46,6.15c-6.65,0-10.2-5.19-10.2-11,0-9.32,7.36-14.55,20.58-14.46v-1.18c0-4.81-.81-11.68-8.65-11.64a13.7,13.7,0,0,0-8.17,2.65l-1.1-2.82a16.91,16.91,0,0,1,9.77-3.11c9.08,0,11.75,7,11.75,14.83v16.53a72.55,72.55,0,0,0,.47,9.31Zm-.75-21.32c-6.58-.17-16.78.82-16.78,10.7,0,5.8,3.3,8.22,6.78,8.22,5.33,0,8.57-3.7,9.68-7.86a9.25,9.25,0,0,0,.32-2.44Z" />
  <path
     id="path170"
     transform="translate(-42.37 -137.56)"
     d="M830.9,163.09c0-4-.16-6.39-.32-9.43h3.33l.24,6.46h.16c2.1-4.24,5.41-7.3,10.94-7.3,4.56,0,8.25,3.06,9.81,8h.16a15.11,15.11,0,0,1,3.75-5.24,11.15,11.15,0,0,1,7.82-2.8c3.77,0,11.12,2.39,11.12,16.11v24.56h-3.6V169.56c0-7.95-2.54-13.45-8.74-13.45-4.15,0-7.54,3.43-8.85,7.77a15.85,15.85,0,0,0-.52,4v25.63h-3.6V168c0-6.62-2.57-11.89-8.37-11.89-4.44,0-8.1,3.91-9.29,8.78a16.19,16.19,0,0,0-.44,3.78v24.82h-3.6Z" />
  <path
     id="path172"
     transform="translate(-42.37 -137.56)"
     d="M890.12,172.87c0,13.71,6.13,18.06,12.8,18.06a17.14,17.14,0,0,0,9-2.06l.91,3c-1.55,1-5.06,2.38-10.38,2.38-10,0-15.9-8.3-15.9-20.07,0-13.1,6.3-21.36,15.13-21.36,10.81,0,13.05,11.5,13.05,17.64a19.43,19.43,0,0,1-.09,2.41Zm20.78-3.08c.12-6.83-2.56-13.73-9.75-13.73s-10.28,7.51-10.87,13.73Z" />
  <path
     id="path174"
     transform="translate(-42.37 -137.56)"
     d="M1179.37,154.59a45.44,45.44,0,0,1,10.11-1.08c5.62,0,10,1.63,12.73,4.51,2.44,2.58,3.88,6.27,3.88,11s-1.14,8.12-3.27,10.86c-3.15,4.22-8.49,6.42-14.47,6.42a19.17,19.17,0,0,1-5.38-.52v24h-3.6Zm3.6,27.85a19.07,19.07,0,0,0,5.52.64c8.49,0,13.93-4.67,13.93-13.73,0-8-4.92-12.59-13.13-12.59a29.15,29.15,0,0,0-6.32.59Z" />
  <path
     id="path176"
     transform="translate(-42.37 -137.56)"
     d="M1231.1,209.83l-.48-5.31h-.19a11.94,11.94,0,0,1-10.46,6.15c-6.65,0-10.2-5.2-10.2-11,0-9.32,7.36-14.54,20.58-14.45v-1.19c0-4.8-.81-11.67-8.65-11.63a13.7,13.7,0,0,0-8.17,2.65l-1.1-2.83a17,17,0,0,1,9.77-3.11c9.09,0,11.75,7,11.75,14.84v16.53a70.76,70.76,0,0,0,.48,9.31Zm-.75-21.33c-6.57-.17-16.78.82-16.78,10.7,0,5.8,3.31,8.23,6.78,8.23,5.33,0,8.57-3.7,9.68-7.86a9.36,9.36,0,0,0,.32-2.44Z" />
  <path
     id="path178"
     transform="translate(-42.37 -137.56)"
     d="M1245.15,181.12c0-3.68-.15-7.68-.31-11.13h3.36l.16,7.61h.19c1.43-4.58,5.12-8.45,9.88-8.45a6.61,6.61,0,0,1,1.28.13v3.82a7.28,7.28,0,0,0-1.45-.09c-5,0-8.46,4.85-9.27,10.79a27.11,27.11,0,0,0-.24,3.66v22.37h-3.6Z" />
  <path
     id="path180"
     transform="translate(-42.37 -137.56)"
     d="M1284.46,209.83l-.47-5.31h-.2a11.93,11.93,0,0,1-10.46,6.15c-6.65,0-10.19-5.2-10.19-11,0-9.32,7.36-14.54,20.57-14.45v-1.19c0-4.8-.81-11.67-8.64-11.63a13.73,13.73,0,0,0-8.18,2.65l-1.1-2.83a17,17,0,0,1,9.77-3.11c9.09,0,11.75,7,11.75,14.84v16.53a70.76,70.76,0,0,0,.48,9.31Zm-.75-21.33c-6.57-.17-16.78.82-16.78,10.7,0,5.8,3.31,8.23,6.79,8.23,5.33,0,8.56-3.7,9.67-7.86a9.36,9.36,0,0,0,.32-2.44Z" />
  <path
     id="path182"
     transform="translate(-42.37 -137.56)"
     d="M1298.55,179.42c0-4-.15-6.39-.31-9.43h3.33l.24,6.46h.15c2.1-4.23,5.41-7.3,10.94-7.3,4.56,0,8.25,3.06,9.82,8h.16a14.91,14.91,0,0,1,3.75-5.25,11.14,11.14,0,0,1,7.81-2.8c3.77,0,11.12,2.39,11.12,16.11v24.57H1342V185.9c0-8-2.54-13.46-8.74-13.46-4.15,0-7.54,3.43-8.84,7.78a15.28,15.28,0,0,0-.52,4v25.63h-3.6v-25.5c0-6.62-2.58-11.89-8.38-11.89-4.43,0-8.09,3.91-9.29,8.78a16.81,16.81,0,0,0-.44,3.78v24.83h-3.6Z" />
  <path
     id="path184"
     transform="translate(-42.37 -137.56)"
     d="M1357.77,189.2c0,13.71,6.13,18.06,12.8,18.06a17.08,17.08,0,0,0,9-2.06l.9,3c-1.55,1-5.06,2.39-10.38,2.39-10,0-15.89-8.31-15.89-20.08,0-13.09,6.29-21.36,15.13-21.36,10.81,0,13,11.5,13,17.64a21.66,21.66,0,0,1-.08,2.41Zm20.79-3.08c.11-6.83-2.56-13.72-9.76-13.72s-10.27,7.51-10.87,13.72Z" />
  <path
     id="path186"
     transform="translate(-42.37 -137.56)"
     d="M1396,158.75V170h9.6v3.16H1396v26.27c0,5.21,1.55,7.88,5,7.88a11,11,0,0,0,3.66-.51l.43,3a11,11,0,0,1-4.62.84,7.14,7.14,0,0,1-6-2.67c-1.54-2-2.09-5-2.09-9.4V173.15h-5.83V170h5.83v-9.91Z" />
  <path
     id="path188"
     transform="translate(-42.37 -137.56)"
     d="M1413.4,189.2c0,13.71,6.13,18.06,12.8,18.06a17.11,17.11,0,0,0,9-2.06l.9,3c-1.55,1-5.06,2.39-10.38,2.39-10,0-15.9-8.31-15.9-20.08,0-13.09,6.3-21.36,15.13-21.36,10.82,0,13,11.5,13,17.64a21.66,21.66,0,0,1-.08,2.41Zm20.79-3.08c.11-6.83-2.56-13.72-9.76-13.72s-10.27,7.51-10.87,13.72Z" />
  <path
     id="path190"
     transform="translate(-42.37 -137.56)"
     d="M1446.67,181.12c0-3.68-.15-7.68-.31-11.13h3.36l.16,7.61h.2c1.42-4.58,5.11-8.45,9.87-8.45a6.61,6.61,0,0,1,1.28.13v3.82a7.28,7.28,0,0,0-1.45-.09c-5,0-8.46,4.85-9.27,10.79a27.11,27.11,0,0,0-.24,3.66v22.37h-3.6Z" />
  <path
     id="path192"
     transform="translate(-42.37 -137.56)"
     d="M1466.41,204.75a13.79,13.79,0,0,0,7.58,2.55c5.29,0,8-3.25,8-7.48s-2-6.57-7-9.08c-5.52-2.71-8.91-6.09-8.91-11a10.35,10.35,0,0,1,10.8-10.57,12.81,12.81,0,0,1,7.64,2.42L1483,174.7a10.42,10.42,0,0,0-6.64-2.26,6.43,6.43,0,0,0-6.76,6.66c0,3.89,2.16,5.68,6.88,8.14,5.31,2.61,9.11,5.84,9.11,11.93,0,7.15-5,11.42-11.87,11.42a15.35,15.35,0,0,1-8.67-2.63Z" />
  <path
     id="path194"
     transform="translate(-42.37 -137.56)"
     d="M1644.14,489.85a37.78,37.78,0,0,1,9.52-1.17c6,0,10.07,1.46,12.78,4.39,2.08,2.2,3.21,5.27,3.21,9.21a13.25,13.25,0,0,1-8.84,12.49V515c4.89,1.22,10.76,5.63,10.76,14.42a15.89,15.89,0,0,1-3.83,10.81c-3.3,3.75-8.64,5.17-15.18,5.17a67.75,67.75,0,0,1-8.42-.5Zm3.6,23.71h6.31c7,0,11.88-4.7,11.88-11,0-7.24-4.67-10.59-12.47-10.59a22.55,22.55,0,0,0-5.72.54Zm0,28.15a26.83,26.83,0,0,0,5.56.42c7.9,0,14.51-3.51,14.51-12.65,0-8.87-6.74-12.76-14.56-12.8h-5.51Z" />
  <path
     id="path196"
     transform="translate(-42.37 -137.56)"
     d="M1709.17,524.82c0,14.82-8.36,21-15.94,21-8.38,0-15.27-7.38-15.27-20.54,0-13.95,7.55-21,15.82-21C1702.6,504.33,1709.17,511.87,1709.17,524.82Zm-27.53.35c0,8.91,4.53,17.43,11.86,17.43s12-8.56,12-17.65c0-7-3.06-17.38-11.91-17.38C1685,507.57,1681.64,517.21,1681.64,525.17Z" />
  <path
     id="path198"
     transform="translate(-42.37 -137.56)"
     d="M1744.78,486.52v49.56c0,2.65.15,6.51.31,8.92h-3.22l-.27-6.88h-.23a12.36,12.36,0,0,1-11.69,7.72c-8,0-14.42-7.55-14.42-20.2,0-13.58,7-21.31,15.06-21.31a11.43,11.43,0,0,1,10.7,6.45h.16V486.52Zm-3.6,34.19a19.32,19.32,0,0,0-.29-3.39c-1-5.32-5-9.75-10.31-9.75-7.45,0-11.65,7.85-11.65,17.73,0,9,3.58,17.3,11.39,17.3,4.4,0,8.9-3,10.54-10a13.44,13.44,0,0,0,.32-3.13Z" />
  <path
     id="path200"
     transform="translate(-42.37 -137.56)"
     d="M1755.19,505.16l8.6,25.5c1,3.05,1.82,6.17,2.48,8.78h.16c.67-2.45,1.61-5.68,2.6-9l8-25.33h3.8l-9.41,27.51c-4,12.15-7,20.58-11.79,25.74a21.51,21.51,0,0,1-6.27,4.67l-1.35-3.21a19.9,19.9,0,0,0,6.23-4.92,33.2,33.2,0,0,0,5.44-9.41,6,6,0,0,0,.43-1.85,4.59,4.59,0,0,0-.36-1.67l-12.38-36.86Z" />
  <path
     id="path202"
     transform="translate(-42.37 -137.56)"
     d="M1162,777.08a42.09,42.09,0,0,1,10.09-1.16c6.27,0,10.25,1.5,13,4.47a14.87,14.87,0,0,1,3.59,10.1c0,7.63-4,12.3-9.8,14.61v.16c4.18,1.34,6.69,5.58,7.94,12.36,1.65,8.68,2.63,12.6,3.58,14.62h-3.72c-.82-1.66-1.88-6.64-3.21-13.76-1.54-8.09-4.6-11.67-11.29-11.89h-6.62v25.65H1162Zm3.6,26.43h6.74c7.62,0,12.71-4.86,12.71-12.35,0-8.26-5-12-13.07-12a26.13,26.13,0,0,0-6.38.64Z" />
  <path
     id="path204"
     transform="translate(-42.37 -137.56)"
     d="M1199.38,811.61c0,13.71,6.13,18.06,12.8,18.06a17.18,17.18,0,0,0,9-2.06l.9,3c-1.55,1-5.06,2.39-10.38,2.39-10,0-15.89-8.31-15.89-20.08,0-13.1,6.3-21.36,15.13-21.36,10.81,0,13,11.5,13,17.64a21.66,21.66,0,0,1-.08,2.41Zm20.79-3.08c.11-6.83-2.56-13.73-9.76-13.73s-10.27,7.51-10.87,13.73Z" />
  <path
     id="path206"
     transform="translate(-42.37 -137.56)"
     d="M1237.63,781.16V792.4h9.6v3.16h-9.6v26.26c0,5.22,1.55,7.89,5,7.89a11.21,11.21,0,0,0,3.66-.51l.43,2.95a11,11,0,0,1-4.62.85,7.13,7.13,0,0,1-6-2.68c-1.54-2-2.09-5-2.09-9.39V795.56h-5.83V792.4H1234v-9.91Z" />
  <path
     id="path208"
     transform="translate(-42.37 -137.56)"
     d="M1280.68,822.41c0,3.83.15,6.94.31,9.83h-3.33l-.27-6.2h-.16a12.85,12.85,0,0,1-11.29,7c-5.18,0-11.49-3.35-11.49-16.69v-24h3.6v23.19c0,8.15,2,14.15,8.72,14.15,5.21,0,8.56-4.29,9.74-7.75a16.89,16.89,0,0,0,.57-4.18V792.4h3.6Z" />
  <path
     id="path210"
     transform="translate(-42.37 -137.56)"
     d="M1292.18,803.53c0-3.69-.15-7.68-.31-11.13h3.36l.16,7.6h.2c1.42-4.57,5.11-8.44,9.87-8.44a5.91,5.91,0,0,1,1.28.13v3.81a8.12,8.12,0,0,0-1.45-.08c-5,0-8.46,4.84-9.26,10.79a27.09,27.09,0,0,0-.25,3.66v22.37h-3.6Z" />
  <path
     id="path212"
     transform="translate(-42.37 -137.56)"
     d="M1313.75,801.83c0-4-.15-6.39-.31-9.43h3.33l.24,6.51h.15a12.47,12.47,0,0,1,11.51-7.35c3.69,0,11.7,2.21,11.7,15.69v25h-3.6V807.92c0-6.77-2.13-13.07-9.11-13.07-4.6,0-8.63,3.65-9.91,8.91a16.33,16.33,0,0,0-.4,3.53v25h-3.6Z" />
</svg>
