<?xml version="1.0" encoding="UTF-8" standalone="no"?>
<svg
   xmlns:dc="http://purl.org/dc/elements/1.1/"
   xmlns:cc="http://creativecommons.org/ns#"
   xmlns:rdf="http://www.w3.org/1999/02/22-rdf-syntax-ns#"
   xmlns:svg="http://www.w3.org/2000/svg"
   xmlns="http://www.w3.org/2000/svg"
   xmlns:sodipodi="http://sodipodi.sourceforge.net/DTD/sodipodi-0.dtd"
   xmlns:inkscape="http://www.inkscape.org/namespaces/inkscape"
   xml:space="preserve"
   style="enable-background:new 0 0 1659.4 630.7;"
   viewBox="0 0 1659.4 630.7"
   y="0px"
   x="0px"
   sodipodi:docname="gears-system.svg"
   inkscape:version="1.0 (4035a4fb49, 2020-05-01)"
   id="Livello_1"
   version="1.1"><metadata
   id="metadata34"><rdf:RDF><cc:Work
       rdf:about=""><dc:format>image/svg+xml</dc:format><dc:type
         rdf:resource="http://purl.org/dc/dcmitype/StillImage" /></cc:Work></rdf:RDF></metadata><defs
   id="defs32" />
<style
   id="style2"
   type="text/css">
	.st0{fill:none;stroke:#000000;stroke-width:6;stroke-linecap:round;stroke-linejoin:round;}
	.st1{fill:none;stroke:#000000;stroke-width:6;stroke-miterlimit:10;}
</style>
<sodipodi:namedview
   inkscape:document-rotation="0"
   showgrid="false"
   pagecolor="#ffffff"
   objecttolerance="10"
   inkscape:zoom="0.38020561"
   inkscape:window-y="0"
   inkscape:window-x="953"
   inkscape:window-width="958"
   inkscape:window-maximized="0"
   inkscape:window-height="1008"
   inkscape:pageshadow="2"
   inkscape:pageopacity="0"
   inkscape:cy="188.92416"
   inkscape:cx="671.21335"
   inkscape:current-layer="Livello_1"
   id="namedview23"
   guidetolerance="10"
   gridtolerance="10"
   borderopacity="1"
   bordercolor="#666666">
	</sodipodi:namedview>
<path
   d="M245.5,297.9c98.6-7.7,195.7-1.9,294.5,2.7c-2.1-20.7-0.2-36.1,2-53.2c38,25.7,77.6,50,115.6,75.7  c-40,27.3-79.3,53.7-119.3,81c1.7-17.6,1.9-36.2,3.5-53.8c-99.9-4.1-190.7-4.6-299,3.3C236.3,335.1,234.5,314,245.5,297.9  L245.5,297.9z"
   class="st0"
   id="path6"
   style="stroke-width:4.4;stroke-miterlimit:5.5;stroke-dasharray:none" />
<path
   d="M622.8,264.1c-1.9-84.6-2.3-86.1,0-170.7c201.1-5.4,221.8-2,422.9-2.4c-1.2,75.4,1.2,93.8,0,169.2"
   class="st0"
   id="path8"
   style="stroke-width:4.4;stroke-miterlimit:5.5;stroke-dasharray:none" />
<path
   d="M1045.7,374.5c-0.3,66.5-0.9,89.3-1.2,155.8c-59.3,0.9-87.2-0.2-114.8,0  c-122.7,0.9-184.3,0.4-306.9,2.6c2.8-63.7-1.2-59,1.2-154.2"
   class="st0"
   id="path10"
   style="stroke-width:4.4;stroke-miterlimit:5.5;stroke-dasharray:none" />
<path
   d="M996.7,340.6c98.6,7.7,195.7,1.9,294.5-2.7c-2.1,20.7-0.2,36.1,2,53.2c38-25.7,77.6-50,115.6-75.7  c-40-27.3-79.3-53.7-119.3-81c1.7,17.6,1.9,36.2,3.5,53.8c-99.9,4.1-190.7,4.6-299-3.2C987.5,303.3,985.7,324.5,996.7,340.6  L996.7,340.6z"
   class="st0"
   id="path12"
   style="stroke-width:4.4;stroke-miterlimit:5.5;stroke-dasharray:none" />
<path
   d="M892.7,256.6l-21.5-8.4c0.2-9.6-1.4-19.1-4.7-28.2l17.6-15c0.7-0.6,0.6-1.9-0.1-3.1L872.8,184  c-0.7-1.1-1.9-1.8-2.7-1.4l-21.2,9.3c-6.7-6.9-14.6-12.5-23.3-16.6l1.8-22.9c0.1-0.9-1-1.7-2.3-2l-20.6-4.7c-1.3-0.3-2.6,0-2.9,0.8  l-8.4,21.5c-9.6-0.2-19.1,1.4-28.2,4.7l-15-17.6c-0.6-0.7-1.9-0.6-3.1,0.1l-17.9,11.2c-1.1,0.7-1.8,1.9-1.5,2.7l9.3,21.2  c-6.9,6.7-12.5,14.6-16.6,23.3l-23.1-1.9c-0.9-0.1-1.9,0.9-2.2,2.2l-4.7,20.6c-0.3,1.3,0.2,2.7,1,3l21.6,8.4  c-0.1,9.6,1.5,19.2,4.8,28.2L700,289c-0.7,0.6-0.6,1.9,0.1,3.1l11.2,17.9c0.7,1.1,1.9,1.8,2.7,1.4l21.2-9.3  c6.7,6.9,14.6,12.5,23.3,16.6l-1.8,23.2c-0.1,0.9,0.9,1.9,2.2,2.2l20.6,4.7c1.3,0.3,2.7-0.2,3-1l8.4-21.5c9.6,0.1,19.2-1.5,28.2-4.8  l15,17.6c0.6,0.7,1.9,0.6,3.1-0.1l17.9-11.2c1.1-0.7,1.8-1.9,1.5-2.7l-9.3-21.2c6.9-6.7,12.5-14.6,16.6-23.3l22.9,1.8  c0.9,0.1,1.7-1,2-2.3l4.7-20.6C893.8,258.2,893.5,256.9,892.7,256.6L892.7,256.6z"
   class="st0"
   id="path14"
   style="stroke-width:4.4;stroke-miterlimit:5.5;stroke-dasharray:none" />
<ellipse
   ry="45.7"
   rx="45.7"
   cy="247"
   cx="792.1"
   class="st1"
   id="circle16"
   style="stroke-width:4.4;stroke-miterlimit:5.5;stroke-dasharray:none" />
<path
   d="M962.3,373.3l-17.8,0.6c-2.8-6.9-6.9-13.2-12-18.6l7.9-16c0.3-0.6-0.2-1.6-1-2.1l-13.5-9.3  c-0.9-0.6-1.9-0.7-2.4-0.2l-12.2,13.1c-6.9-2.9-14.2-4.4-21.6-4.6l-5.7-16.8c-0.2-0.6-1.2-0.9-2.2-0.7l-16.1,2.9  c-1,0.2-1.9,0.8-1.8,1.5l0.6,17.8c-6.9,2.8-13.2,6.9-18.6,12l-16-7.9c-0.6-0.3-1.6,0.2-2.1,1l-9.3,13.5c-0.6,0.9-0.7,1.9-0.2,2.4  l13.1,12.2c-2.9,6.9-4.4,14.2-4.6,21.6l-17,5.8c-0.6,0.2-1.1,1.2-0.9,2.3l2.9,16.1c0.2,1,1,1.8,1.6,1.8l17.9-0.6  c2.8,6.9,6.9,13.2,12,18.6l-7.9,16c-0.3,0.6,0.2,1.6,1,2.1l13.5,9.3c0.9,0.6,1.9,0.7,2.4,0.2l12.2-13.1c6.9,2.9,14.2,4.4,21.6,4.6  l5.8,17c0.2,0.6,1.2,1.1,2.3,0.9l16.1-2.9c1-0.2,1.8-1,1.8-1.6l-0.6-17.9c6.9-2.8,13.2-6.9,18.6-12l16.1,7.9c0.6,0.3,1.6-0.2,2.1-1  l9.3-13.5c0.6-0.9,0.7-1.9,0.2-2.4l-13-12.2c2.9-6.9,4.4-14.2,4.6-21.6l16.8-5.7c0.6-0.2,0.9-1.2,0.7-2.2l-2.9-16.1  C963.6,374.1,963,373.3,962.3,373.3L962.3,373.3z"
   class="st0"
   id="path18"
   style="stroke-width:4.4;stroke-miterlimit:5.5;stroke-dasharray:none" />
<ellipse
   ry="35.4"
   rx="35.4"
   cy="397.4"
   cx="887.9"
   class="st1"
   id="circle20"
   style="stroke-width:4.4;stroke-miterlimit:5.5;stroke-dasharray:none" />
<g
   transform="matrix(0.95807043,0,0,0.95807043,17.178504,11.119722)"
   id="g19">
	<g
   id="g17">
		<path
   id="path13"
   d="m 374.3,194 v 70.1 H 362 V 194 Z" />
		<path
   id="path15"
   d="M 388.3,264.1 V 194 h 13.3 l 16.2,30 c 4,7.3 7.9,15.8 10.8,23.1 h 0.2 c -0.8,-9.2 -1.2,-18.8 -1.2,-30 V 194 h 11.2 v 70.1 H 426.4 L 410,233.6 c -3.9,-7.3 -8.1,-15.8 -11.1,-23.6 h -0.3 c 0.5,8.8 0.7,18.3 0.7,30.7 v 23.4 z" />
	</g>
</g>
<g
   transform="matrix(0.95807043,0,0,0.95807043,51.506283,11.119722)"
   id="g29">
	<g
   id="g27">
		<path
   id="path21"
   d="m 1141.3,228.3 c 0,24.3 -12.7,36.9 -30,36.9 -18,0 -28.9,-15 -28.9,-35.8 0,-21.4 11.9,-36.4 30,-36.4 18.7,0 28.9,15.6 28.9,35.3 z m -45.9,1 c 0,14.6 5.9,25.8 16.6,25.8 10.8,0 16.4,-11.8 16.4,-26.3 0,-13.1 -5.2,-25.7 -16.4,-25.7 -11,0 -16.6,11.7 -16.6,26.2 z" />
		<path
   id="path23"
   d="m 1164,194 v 42.5 c 0,13 5,18.6 12.4,18.6 7.9,0 12.8,-5.5 12.8,-18.6 V 194 h 12.3 v 41.3 c 0,20.6 -9.9,29.8 -25.4,29.8 -15.2,0 -24.4,-9 -24.4,-29.6 V 194 Z" />
		<path
   id="path25"
   d="m 1227,204.6 h -17.8 V 194 h 48 v 10.6 h -17.9 v 59.5 H 1227 Z" />
	</g>
</g>
</svg>
