<svg id="Livello_1" data-name="Livello 1" xmlns="http://www.w3.org/2000/svg" viewBox="0 0 698.75 1884.87"><defs><style>.cls-1{fill:#992264;}.cls-1,.cls-2{fill-opacity:0.8;}.cls-2{fill:#e8b162;}.cls-3,.cls-4{fill:none;stroke:#000;stroke-linecap:round;stroke-width:5px;}.cls-3{stroke-linejoin:round;}.cls-4{stroke-miterlimit:10;}</style></defs><path class="cls-1" d="M193.12,212.23s81.59,62.48,198.8,0c0,0-3.06,123.69-98.93,133.47-39.51,4-62-26.22-76.06-46.93C193.12,263.69,193.12,212.23,193.12,212.23Z" transform="translate(-190.62 -17.66)"/><path class="cls-2" d="M440.56,212.23s81.58,62.48,198.79,0c0,0-3.06,123.69-98.93,133.47-39.51,4-62-26.22-76.06-46.93C440.56,263.69,440.56,212.23,440.56,212.23Z" transform="translate(-190.62 -17.66)"/><path class="cls-3" d="M392.65,161.28c.67,38.84.49,78.84-14.06,114.86S331.78,343.77,293,345.7c-39.56,2-68.57-27.68-84.94-63.74s-16.62-77.28-13.12-116.72c29.59,22.6,56.12,31.36,98.06,30.34,37.22-.89,71.82-9.56,99.66-34.3-67.64-39.36-127.15-42-197.72,4" transform="translate(-190.62 -17.66)"/><path class="cls-3" d="M297.67,346.42c1.21,43.45,16.83,93.64,64.42,105.38.8.2-.78-.26,0,0-51.29,20.78-94.22,18.84-138.44,2.28l1.26-1.14a66.78,66.78,0,0,0,40.28-27.61c15-22.37,14.8-51.18,14.07-78.05" transform="translate(-190.62 -17.66)"/><path class="cls-3" d="M639.61,161.28c.68,38.84.5,78.84-14.05,114.86S578.75,343.77,540,345.7C500.4,347.67,471.39,318,455,282S438.4,204.68,441.9,165.24C471.49,187.84,498,196.6,540,195.58c37.23-.89,71.83-9.56,99.66-34.3-67.63-39.36-127.14-42-197.71,4" transform="translate(-190.62 -17.66)"/><path class="cls-3" d="M544.64,346.42c1.21,43.45,16.83,93.64,64.42,105.38.8.2-.78-.26,0,0-51.29,20.78-94.23,18.84-138.44,2.28l1.26-1.14a66.78,66.78,0,0,0,40.28-27.61c15-22.37,14.8-51.18,14.07-78.05" transform="translate(-190.62 -17.66)"/><path class="cls-3" d="M886.58,161.28c.67,38.84.49,78.84-14.05,114.86s-46.81,67.63-85.61,69.56C747.37,347.67,718.36,318,702,282s-16.62-77.28-13.13-116.72c29.6,22.6,56.13,31.36,98.06,30.34,37.23-.89,71.83-9.56,99.66-34.3-67.63-39.36-127.15-42-197.72,4" transform="translate(-190.62 -17.66)"/><path class="cls-3" d="M791.61,346.42c1.2,43.45,16.83,93.64,64.42,105.38.8.2-.79-.26,0,0-51.29,20.78-94.23,18.84-138.45,2.28l1.27-1.14a66.78,66.78,0,0,0,40.28-27.61c15-22.37,14.79-51.18,14.06-78.05" transform="translate(-190.62 -17.66)"/><path class="cls-3" d="M293,115.68c0-39.06,45.19-70.23,119.7-84.65S604.1,16.14,676.41,32,796,76,785.7,110.89" transform="translate(-190.62 -17.66)"/><path class="cls-4" d="M759.82,83.94a107.29,107.29,0,0,1,25.11,31.74c10.87-13.51,15.92-19.88,26.79-33.39" transform="translate(-190.62 -17.66)"/><path d="M284.13,301.11a13.26,13.26,0,0,1-4.37-.69,10.66,10.66,0,0,1-3.43-1.95,8.66,8.66,0,0,1-2.25-3,9.27,9.27,0,0,1-.8-3.87,9.1,9.1,0,0,1,1.26-4.8,10,10,0,0,1,4-3.53,27,27,0,0,1,6.94-2.38,70.8,70.8,0,0,1,10.25-1.33,6.9,6.9,0,0,0-2-4.56q-1.79-1.78-5.76-1.78a15.17,15.17,0,0,0-5.45,1,40.8,40.8,0,0,0-5.19,2.42l-2.78-5.1a42.36,42.36,0,0,1,6.81-3.1,23.22,23.22,0,0,1,8-1.39q6.81,0,10.38,3.6t3.57,10.42v19.24h-6.21l-.6-4h-.2a28.39,28.39,0,0,1-5.71,3.41A15.49,15.49,0,0,1,284.13,301.11Zm2.31-5.95a10.81,10.81,0,0,0,4.73-1.09,24.13,24.13,0,0,0,4.53-2.88v-6.87a64.08,64.08,0,0,0-7.27.89,18.22,18.22,0,0,0-4.63,1.42,6.14,6.14,0,0,0-2.45,1.95,4.3,4.3,0,0,0-.73,2.41,3.42,3.42,0,0,0,1.69,3.18A8,8,0,0,0,286.44,295.16Z" transform="translate(-190.62 -17.66)"/><path d="M538.14,301.11a11.75,11.75,0,0,1-4.82-1.12,15.43,15.43,0,0,1-4.63-3.24h-.2l-.66,3.57h-6V253.64h7.67v12l-.33,5.69h.2a15.81,15.81,0,0,1,4.66-3.14,12.73,12.73,0,0,1,5.26-1.16,12.89,12.89,0,0,1,5.62,1.16,11.59,11.59,0,0,1,4.16,3.3,14.92,14.92,0,0,1,2.62,5.19,24.37,24.37,0,0,1,.89,6.81,21.75,21.75,0,0,1-1.19,7.44,16.59,16.59,0,0,1-3.21,5.52,13.87,13.87,0,0,1-4.63,3.44A12.89,12.89,0,0,1,538.14,301.11Zm-1.52-6.28a7.19,7.19,0,0,0,5.76-2.81q2.31-2.81,2.31-8.37,0-4.89-1.78-7.6c-1.2-1.81-3.11-2.71-5.76-2.71a8.62,8.62,0,0,0-3.77.93,14.17,14.17,0,0,0-3.9,3v14.61a10.46,10.46,0,0,0,3.71,2.32A10.64,10.64,0,0,0,536.62,294.83Z" transform="translate(-190.62 -17.66)"/><path d="M728.17,301.11a17.29,17.29,0,0,1-6.25-1,10,10,0,0,1-4.1-2.81,11,11,0,0,1-2.25-4.4,21.94,21.94,0,0,1-.69-5.68V273.87h-8.67v-5.69l9-.33,1-10.18h6.28v10.18h14.81v6H722.48v13.36c0,2.68.56,4.66,1.69,5.91S727.24,295,730,295a17.79,17.79,0,0,0,3.77-.37,22.41,22.41,0,0,0,3.3-1l1.46,5.56c-1.46.48-3,.91-4.7,1.29A26.4,26.4,0,0,1,728.17,301.11Z" transform="translate(-190.62 -17.66)"/><path d="M763.8,301.11a20.5,20.5,0,0,1-6.94-1.16,16.59,16.59,0,0,1-5.65-3.34,15.37,15.37,0,0,1-3.8-5.35,17.77,17.77,0,0,1-1.39-7.21,17.38,17.38,0,0,1,1.39-7.11,16.15,16.15,0,0,1,9.09-8.72,17.23,17.23,0,0,1,6.31-1.16,16.45,16.45,0,0,1,6.42,1.16,13.5,13.5,0,0,1,4.69,3.17,13.2,13.2,0,0,1,2.91,4.86,18.76,18.76,0,0,1,1,6.21,21.1,21.1,0,0,1-.1,2.15,15.12,15.12,0,0,1-.23,1.69H753.62a9.59,9.59,0,0,0,3.64,6.74,12.35,12.35,0,0,0,7.53,2.19,15.19,15.19,0,0,0,4.77-.73,24.41,24.41,0,0,0,4.36-2l2.58,4.77a23.58,23.58,0,0,1-5.85,2.77A22.05,22.05,0,0,1,763.8,301.11ZM763,272.94a9,9,0,0,0-9.19,7.94h17.26a9.18,9.18,0,0,0-2.48-5.95A7.74,7.74,0,0,0,763,272.94Z" transform="translate(-190.62 -17.66)"/><path d="M784.7,300.32V267.85h5.88l.6,4.1h.2a10.58,10.58,0,0,1,2.71-3.5,6.74,6.74,0,0,1,4.49-1.39q4.56,0,5.89,5.42a11.78,11.78,0,0,1,2.84-3.9,6.66,6.66,0,0,1,4.56-1.52,6.14,6.14,0,0,1,5.33,2.68q1.88,2.67,1.88,7.57v23h-7.34V277.84q0-4.3-2.58-4.3a2.81,2.81,0,0,0-2.21,1,14.12,14.12,0,0,0-1.89,3.08v22.68h-6.35V277.84a6.85,6.85,0,0,0-.59-3.21,2.08,2.08,0,0,0-2-1.09,2.83,2.83,0,0,0-2.22,1,13.18,13.18,0,0,0-1.82,3.08v22.68Z" transform="translate(-190.62 -17.66)"/><path d="M826.75,313.14V267.85H833l.6,3.7h.2a19.92,19.92,0,0,1,4.85-3.2,12.88,12.88,0,0,1,5.53-1.29,13.09,13.09,0,0,1,5.65,1.16,11.25,11.25,0,0,1,4.17,3.33,15.69,15.69,0,0,1,2.57,5.23,24,24,0,0,1,.9,6.81,21.79,21.79,0,0,1-1.19,7.44,16.58,16.58,0,0,1-3.21,5.49,14.26,14.26,0,0,1-4.63,3.4,12.92,12.92,0,0,1-5.39,1.19,11.73,11.73,0,0,1-4.59-1,13.92,13.92,0,0,1-4.27-2.84H834l.4,5.68v10.18Zm14.75-18.31a7.23,7.23,0,0,0,5.81-2.81q2.33-2.81,2.32-8.37,0-4.89-1.79-7.6c-1.19-1.81-3.1-2.71-5.75-2.71a8.62,8.62,0,0,0-3.77.93,14,14,0,0,0-3.9,3v14.61a10.55,10.55,0,0,0,7.08,3Z" transform="translate(-190.62 -17.66)"/><path class="cls-1" d="M687.52,691.55s81.59,62.47,198.8,0c0,0-3.06,123.68-98.93,133.46-39.51,4-62-26.22-76.06-46.93C687.52,743,687.52,691.55,687.52,691.55Z" transform="translate(-190.62 -17.66)"/><path class="cls-2" d="M440.56,691.55s81.58,62.47,198.79,0c0,0-3.06,123.68-98.93,133.46-39.51,4-62-26.22-76.06-46.93C440.56,743,440.56,691.55,440.56,691.55Z" transform="translate(-190.62 -17.66)"/><path class="cls-3" d="M392.74,640.59c.67,38.84.49,78.84-14.06,114.86s-46.8,67.63-85.6,69.56c-39.56,2-68.57-27.68-84.94-63.74S191.52,684,195,644.55c29.59,22.6,56.13,31.36,98.06,30.35,37.22-.9,71.83-9.57,99.66-34.31-67.63-39.36-127.15-42.05-197.72,4" transform="translate(-190.62 -17.66)"/><path class="cls-3" d="M297.76,825.73c1.21,43.45,16.83,93.65,64.42,105.38.8.2-.78-.26,0,0C310.89,951.89,268,950,223.74,933.39l1.26-1.14a66.74,66.74,0,0,0,40.28-27.61c15-22.37,14.8-51.18,14.07-78" transform="translate(-190.62 -17.66)"/><path class="cls-3" d="M639.71,640.59c.67,38.84.49,78.84-14.06,114.86s-46.81,67.63-85.6,69.56c-39.56,2-68.57-27.68-84.94-63.74S438.49,684,442,644.55c29.59,22.6,56.12,31.36,98.06,30.35,37.22-.9,71.82-9.57,99.66-34.31-67.64-39.36-127.15-42.05-197.72,4" transform="translate(-190.62 -17.66)"/><path class="cls-3" d="M544.73,825.73c1.21,43.45,16.83,93.65,64.42,105.38.8.2-.78-.26,0,0-51.29,20.78-94.22,18.84-138.44,2.28l1.26-1.14a66.74,66.74,0,0,0,40.28-27.61c15-22.37,14.8-51.18,14.07-78" transform="translate(-190.62 -17.66)"/><path class="cls-3" d="M886.67,640.59c.67,38.84.49,78.84-14,114.86S825.81,823.08,787,825c-39.55,2-68.56-27.68-84.93-63.74S685.46,684,689,644.55c29.6,22.6,56.13,31.36,98.06,30.35,37.23-.9,71.83-9.57,99.66-34.31-67.63-39.36-127.14-42.05-197.72,4" transform="translate(-190.62 -17.66)"/><path class="cls-3" d="M791.7,825.73c1.2,43.45,16.83,93.65,64.42,105.38.8.2-.79-.26,0,0-51.29,20.78-94.23,18.84-138.44,2.28l1.26-1.14a66.74,66.74,0,0,0,40.28-27.61c15-22.37,14.79-51.18,14.06-78" transform="translate(-190.62 -17.66)"/><path class="cls-3" d="M540.14,593.45c0-39.06-22.65-70.23-60-84.65s-95.92-14.89-132.15.95-59.94,44-54.77,78.91" transform="translate(-190.62 -17.66)"/><path class="cls-4" d="M319.63,561.71a107.42,107.42,0,0,0-25.11,31.74c-10.88-13.51-15.15-18.34-26-31.85" transform="translate(-190.62 -17.66)"/><path d="M284.22,780.42a13.16,13.16,0,0,1-4.36-.69,10.71,10.71,0,0,1-3.44-2,8.66,8.66,0,0,1-2.25-3,9.27,9.27,0,0,1-.79-3.87,9,9,0,0,1,1.25-4.79,10,10,0,0,1,4-3.54,27.16,27.16,0,0,1,6.94-2.38,69.56,69.56,0,0,1,10.25-1.32,6.9,6.9,0,0,0-2-4.57q-1.79-1.78-5.76-1.78a15.17,15.17,0,0,0-5.45,1,40.8,40.8,0,0,0-5.19,2.42l-2.78-5.09a42.29,42.29,0,0,1,6.81-3.11,23.26,23.26,0,0,1,8-1.39q6.81,0,10.38,3.6t3.57,10.42v19.24h-6.21l-.6-4h-.19a28.75,28.75,0,0,1-5.72,3.41A15.49,15.49,0,0,1,284.22,780.42Zm2.31-5.95a10.81,10.81,0,0,0,4.73-1.09,24.13,24.13,0,0,0,4.53-2.88v-6.87a66.46,66.46,0,0,0-7.27.89,18.22,18.22,0,0,0-4.63,1.42,6.14,6.14,0,0,0-2.45,1.95,4.29,4.29,0,0,0-.72,2.41,3.41,3.41,0,0,0,1.68,3.18A8,8,0,0,0,286.53,774.47Z" transform="translate(-190.62 -17.66)"/><path d="M538.24,780.42a11.76,11.76,0,0,1-4.83-1.12,15.43,15.43,0,0,1-4.63-3.24h-.2l-.66,3.57h-6V733h7.67v12l-.33,5.69h.2a15.81,15.81,0,0,1,4.66-3.14,13.32,13.32,0,0,1,10.88,0,11.71,11.71,0,0,1,4.17,3.3,15.26,15.26,0,0,1,2.61,5.19,24.37,24.37,0,0,1,.89,6.81,21.75,21.75,0,0,1-1.19,7.44,16.59,16.59,0,0,1-3.21,5.52,13.83,13.83,0,0,1-4.62,3.44A13,13,0,0,1,538.24,780.42Zm-1.53-6.28a7.19,7.19,0,0,0,5.76-2.81q2.31-2.8,2.31-8.36c0-3.27-.59-5.8-1.78-7.61s-3.11-2.71-5.76-2.71a8.54,8.54,0,0,0-3.76.93,14.2,14.2,0,0,0-3.91,3v14.61a10.46,10.46,0,0,0,3.71,2.32A10.64,10.64,0,0,0,536.71,774.14Z" transform="translate(-190.62 -17.66)"/><path d="M728.26,780.42a17.29,17.29,0,0,1-6.25-1,10,10,0,0,1-4.1-2.81,11,11,0,0,1-2.25-4.4,21.94,21.94,0,0,1-.69-5.68V753.18H706.3v-5.69l9-.33,1-10.18h6.28v10.18h14.81v6H722.57v13.36q0,4,1.69,5.91t5.85,1.89a17.79,17.79,0,0,0,3.77-.37,23.67,23.67,0,0,0,3.3-1l1.46,5.55a45.52,45.52,0,0,1-4.7,1.29A26.4,26.4,0,0,1,728.26,780.42Z" transform="translate(-190.62 -17.66)"/><path d="M763.89,780.42a20.26,20.26,0,0,1-6.94-1.16,16.73,16.73,0,0,1-5.65-3.33,15.41,15.41,0,0,1-3.8-5.36,17.77,17.77,0,0,1-1.39-7.21,17.38,17.38,0,0,1,1.39-7.11,16.38,16.38,0,0,1,3.73-5.35,16.15,16.15,0,0,1,5.36-3.37,17.44,17.44,0,0,1,6.31-1.16,16.64,16.64,0,0,1,6.42,1.16A13.64,13.64,0,0,1,774,750.7a13.28,13.28,0,0,1,2.91,4.86,18.82,18.82,0,0,1,1,6.22,20.9,20.9,0,0,1-.1,2.14,15.12,15.12,0,0,1-.23,1.69H753.71a9.59,9.59,0,0,0,3.64,6.74,12.36,12.36,0,0,0,7.54,2.19,15.13,15.13,0,0,0,4.76-.73,24.74,24.74,0,0,0,4.36-2l2.58,4.76a23.58,23.58,0,0,1-5.85,2.77A22,22,0,0,1,763.89,780.42Zm-.79-28.17a9,9,0,0,0-9.19,7.94h17.26a9.18,9.18,0,0,0-2.48-6A7.78,7.78,0,0,0,763.1,752.25Z" transform="translate(-190.62 -17.66)"/><path d="M784.79,779.63V747.16h5.88l.6,4.1h.2a10.58,10.58,0,0,1,2.71-3.5,6.74,6.74,0,0,1,4.49-1.39c3,0,5,1.81,5.89,5.42a11.78,11.78,0,0,1,2.84-3.9,6.66,6.66,0,0,1,4.56-1.52,6.14,6.14,0,0,1,5.33,2.68c1.25,1.78,1.88,4.31,1.88,7.57v23h-7.34V757.15q0-4.3-2.58-4.3a2.81,2.81,0,0,0-2.21,1,14.12,14.12,0,0,0-1.89,3.08v22.68h-6.34V757.15a6.83,6.83,0,0,0-.6-3.21,2.08,2.08,0,0,0-2-1.09,2.83,2.83,0,0,0-2.22,1,13.18,13.18,0,0,0-1.82,3.08v22.68Z" transform="translate(-190.62 -17.66)"/><path d="M826.84,792.46v-45.3h6.28l.6,3.71h.2a19.54,19.54,0,0,1,4.86-3.21,12.84,12.84,0,0,1,5.52-1.29,13.24,13.24,0,0,1,5.65,1.16,11.18,11.18,0,0,1,4.17,3.34,15.54,15.54,0,0,1,2.57,5.22,24,24,0,0,1,.9,6.81,21.75,21.75,0,0,1-1.19,7.44,16.58,16.58,0,0,1-3.21,5.49,14.26,14.26,0,0,1-4.63,3.4,12.92,12.92,0,0,1-5.39,1.19,11.73,11.73,0,0,1-4.59-1,13.92,13.92,0,0,1-4.27-2.84h-.2l.4,5.68v10.19Zm14.75-18.32a7.23,7.23,0,0,0,5.81-2.81q2.33-2.8,2.32-8.36c0-3.27-.6-5.8-1.79-7.61s-3.1-2.71-5.75-2.71a8.62,8.62,0,0,0-3.77.93,14,14,0,0,0-3.9,3v14.61a10.55,10.55,0,0,0,7.08,3Z" transform="translate(-190.62 -17.66)"/><path class="cls-1" d="M686.37,1171.57s81.58,62.47,198.8,0c0,0-3.06,123.69-98.94,133.47-39.5,4-62-26.22-76.06-46.94C686.37,1223,686.37,1171.57,686.37,1171.57Z" transform="translate(-190.62 -17.66)"/><path class="cls-2" d="M193.12,1171.57s81.59,62.47,198.8,0c0,0-3.06,123.69-98.93,133.47-39.51,4-62-26.22-76.06-46.94C193.12,1223,193.12,1171.57,193.12,1171.57Z" transform="translate(-190.62 -17.66)"/><path class="cls-3" d="M392.74,1120.62c.67,38.84.49,78.84-14.06,114.86s-46.8,67.62-85.6,69.56c-39.56,2-68.57-27.68-84.94-63.74S191.52,1164,195,1124.57c29.59,22.6,56.13,31.36,98.06,30.35,37.22-.9,71.83-9.56,99.66-34.3-67.63-39.36-127.15-42-197.72,4" transform="translate(-190.62 -17.66)"/><path class="cls-3" d="M297.76,1305.75c1.21,43.46,16.83,93.65,64.42,105.39.8.2-.78-.26,0,0-51.29,20.78-94.22,18.84-138.44,2.28l1.26-1.14a66.78,66.78,0,0,0,40.28-27.61c15-22.37,14.8-51.18,14.07-78.06" transform="translate(-190.62 -17.66)"/><path class="cls-3" d="M639.71,1120.62c.67,38.84.49,78.84-14.06,114.86s-46.81,67.62-85.6,69.56c-39.56,2-68.57-27.68-84.94-63.74S438.49,1164,442,1124.57c29.59,22.6,56.12,31.36,98.06,30.35,37.22-.9,71.82-9.56,99.66-34.3-67.64-39.36-127.15-42-197.72,4" transform="translate(-190.62 -17.66)"/><path class="cls-3" d="M544.73,1305.75c1.21,43.46,16.83,93.65,64.42,105.39.8.2-.78-.26,0,0-51.29,20.78-94.22,18.84-138.44,2.28l1.26-1.14a66.78,66.78,0,0,0,40.28-27.61c15-22.37,14.8-51.18,14.07-78.06" transform="translate(-190.62 -17.66)"/><path class="cls-3" d="M886.67,1120.62c.67,38.84.49,78.84-14,114.86S825.81,1303.1,787,1305c-39.55,2-68.56-27.68-84.93-63.74S685.46,1164,689,1124.57c29.6,22.6,56.13,31.36,98.06,30.35,37.23-.9,71.83-9.56,99.66-34.3-67.63-39.36-127.14-42-197.72,4" transform="translate(-190.62 -17.66)"/><path class="cls-3" d="M791.7,1305.75c1.2,43.46,16.83,93.65,64.42,105.39.8.2-.79-.26,0,0-51.29,20.78-94.23,18.84-138.44,2.28l1.26-1.14a66.78,66.78,0,0,0,40.28-27.61c15-22.37,14.79-51.18,14.06-78.06" transform="translate(-190.62 -17.66)"/><path d="M284.22,1260.45a12.91,12.91,0,0,1-4.36-.7,10.35,10.35,0,0,1-3.44-2,8.57,8.57,0,0,1-2.25-3,9.19,9.19,0,0,1-.79-3.86,9.09,9.09,0,0,1,1.25-4.8,10.05,10.05,0,0,1,4-3.54,27.55,27.55,0,0,1,6.94-2.38,72.37,72.37,0,0,1,10.25-1.32,6.9,6.9,0,0,0-2-4.56q-1.79-1.78-5.76-1.79a15.18,15.18,0,0,0-5.45,1,40.74,40.74,0,0,0-5.19,2.41l-2.78-5.09a44.1,44.1,0,0,1,6.81-3.11,23.49,23.49,0,0,1,8-1.38q6.81,0,10.38,3.6t3.57,10.41v19.24h-6.21l-.6-4h-.19a29.23,29.23,0,0,1-5.72,3.41A15.65,15.65,0,0,1,284.22,1260.45Zm2.31-6a11,11,0,0,0,4.73-1.09,24.13,24.13,0,0,0,4.53-2.88v-6.88a63.81,63.81,0,0,0-7.27.9,17.83,17.83,0,0,0-4.63,1.42,6.14,6.14,0,0,0-2.45,2,4.29,4.29,0,0,0-.72,2.41,3.4,3.4,0,0,0,1.68,3.17A8,8,0,0,0,286.53,1254.5Z" transform="translate(-190.62 -17.66)"/><path d="M538.24,1260.45a11.78,11.78,0,0,1-4.83-1.13,15.25,15.25,0,0,1-4.63-3.24h-.2l-.66,3.57h-6V1213h7.67v12l-.33,5.68h.2a16,16,0,0,1,4.66-3.14,13.43,13.43,0,0,1,10.88,0,11.74,11.74,0,0,1,4.17,3.31,15.08,15.08,0,0,1,2.61,5.19,24.37,24.37,0,0,1,.89,6.81,21.75,21.75,0,0,1-1.19,7.44,16.59,16.59,0,0,1-3.21,5.52,14,14,0,0,1-4.62,3.44A13,13,0,0,1,538.24,1260.45Zm-1.53-6.28a7.19,7.19,0,0,0,5.76-2.81q2.31-2.82,2.31-8.37,0-4.89-1.78-7.6t-5.76-2.71a8.67,8.67,0,0,0-3.76.92,14.26,14.26,0,0,0-3.91,3v14.61a10.57,10.57,0,0,0,3.71,2.31A10.41,10.41,0,0,0,536.71,1254.17Z" transform="translate(-190.62 -17.66)"/><path d="M728.26,1260.45a17.29,17.29,0,0,1-6.25-1,10.13,10.13,0,0,1-4.1-2.81,11.07,11.07,0,0,1-2.25-4.4,22,22,0,0,1-.69-5.69v-13.35H706.3v-5.69l9-.33,1-10.18h6.28v10.18h14.81v6H722.57v13.35q0,4,1.69,5.92c1.12,1.26,3.07,1.88,5.85,1.88a18.49,18.49,0,0,0,3.77-.36,22.41,22.41,0,0,0,3.3-1l1.46,5.56c-1.46.48-3,.91-4.7,1.29A26.4,26.4,0,0,1,728.26,1260.45Z" transform="translate(-190.62 -17.66)"/><path d="M763.89,1260.45a20.5,20.5,0,0,1-6.94-1.16,16.59,16.59,0,0,1-5.65-3.34,15.37,15.37,0,0,1-3.8-5.35,17.77,17.77,0,0,1-1.39-7.21,17.35,17.35,0,0,1,1.39-7.11,16.12,16.12,0,0,1,9.09-8.73,17.43,17.43,0,0,1,6.31-1.15,16.64,16.64,0,0,1,6.42,1.15,13.52,13.52,0,0,1,4.69,3.18,13.2,13.2,0,0,1,2.91,4.86,18.72,18.72,0,0,1,1,6.21,21.1,21.1,0,0,1-.1,2.15,15.46,15.46,0,0,1-.23,1.69H753.71a9.59,9.59,0,0,0,3.64,6.74,12.36,12.36,0,0,0,7.54,2.18,15.13,15.13,0,0,0,4.76-.72,24.09,24.09,0,0,0,4.36-2l2.58,4.76a23.25,23.25,0,0,1-5.85,2.78A22.3,22.3,0,0,1,763.89,1260.45Zm-.79-28.17a8.95,8.95,0,0,0-9.19,7.93h17.26a9.23,9.23,0,0,0-2.48-6A7.78,7.78,0,0,0,763.1,1232.28Z" transform="translate(-190.62 -17.66)"/><path d="M784.79,1259.65v-32.46h5.88l.6,4.1h.2a10.72,10.72,0,0,1,2.71-3.51,6.79,6.79,0,0,1,4.49-1.38c3,0,5,1.8,5.89,5.42a11.78,11.78,0,0,1,2.84-3.9,6.61,6.61,0,0,1,4.56-1.52,6.15,6.15,0,0,1,5.33,2.67q1.88,2.68,1.88,7.57v23h-7.34v-22.48q0-4.29-2.58-4.29a2.81,2.81,0,0,0-2.21,1,14,14,0,0,0-1.89,3.07v22.68h-6.34v-22.48a6.76,6.76,0,0,0-.6-3.2,2.08,2.08,0,0,0-2-1.09,2.83,2.83,0,0,0-2.22,1,13.08,13.08,0,0,0-1.82,3.07v22.68Z" transform="translate(-190.62 -17.66)"/><path d="M826.84,1272.48v-45.29h6.28l.6,3.7h.2a19.54,19.54,0,0,1,4.86-3.21,13,13,0,0,1,5.52-1.28,13.23,13.23,0,0,1,5.65,1.15,11.28,11.28,0,0,1,4.17,3.34,15.69,15.69,0,0,1,2.57,5.23,23.89,23.89,0,0,1,.9,6.81,21.73,21.73,0,0,1-1.19,7.43,16.38,16.38,0,0,1-3.21,5.49,14.3,14.3,0,0,1-4.63,3.41,12.92,12.92,0,0,1-5.39,1.19,11.73,11.73,0,0,1-4.59-1,14,14,0,0,1-4.27-2.85h-.2l.4,5.69v10.18Zm14.75-18.31a7.23,7.23,0,0,0,5.81-2.81q2.33-2.82,2.32-8.37,0-4.89-1.79-7.6c-1.19-1.81-3.1-2.71-5.75-2.71a8.74,8.74,0,0,0-3.77.92,14.08,14.08,0,0,0-3.9,3v14.61a10.61,10.61,0,0,0,3.67,2.31A10.21,10.21,0,0,0,841.59,1254.17Z" transform="translate(-190.62 -17.66)"/><path class="cls-3" d="M788,1074.23c0-39-22.65-70.23-60-84.64s-95.92-14.9-132.16.94-59.93,44-54.76,78.92" transform="translate(-190.62 -17.66)"/><path class="cls-4" d="M567.53,1042.5a107.22,107.22,0,0,0-25.11,31.73c-10.88-13.51-15.15-18.33-26-31.84" transform="translate(-190.62 -17.66)"/><path class="cls-1" d="M440.65,1645.32s81.58,62.47,198.79,0c0,0-3.05,123.68-98.93,133.46-39.5,4-62-26.22-76.06-46.93C440.65,1696.78,440.65,1645.32,440.65,1645.32Z" transform="translate(-190.62 -17.66)"/><path class="cls-2" d="M193.08,1645.32s81.58,62.47,198.8,0c0,0-3.06,123.68-98.94,133.46-39.5,4-62-26.22-76.06-46.93C193.08,1696.78,193.08,1645.32,193.08,1645.32Z" transform="translate(-190.62 -17.66)"/><path class="cls-3" d="M392.69,1594.36c.67,38.84.49,78.84-14.05,114.86s-46.81,67.63-85.61,69.56c-39.55,2-68.56-27.68-84.93-63.74s-16.62-77.27-13.13-116.72c29.6,22.6,56.13,31.36,98.06,30.35,37.23-.9,71.83-9.57,99.66-34.31-67.63-39.36-127.15-42-197.72,4" transform="translate(-190.62 -17.66)"/><path class="cls-3" d="M297.72,1779.5c1.2,43.45,16.83,93.65,64.42,105.39.8.19-.79-.26,0,0-51.3,20.77-94.23,18.83-138.45,2.27L225,1886a66.8,66.8,0,0,0,40.28-27.62c15-22.37,14.79-51.18,14.06-78.05" transform="translate(-190.62 -17.66)"/><path class="cls-3" d="M639.66,1594.36c.67,38.84.49,78.84-14.06,114.86s-46.8,67.63-85.6,69.56c-39.55,2-68.56-27.68-84.93-63.74s-16.63-77.27-13.13-116.72c29.6,22.6,56.13,31.36,98.06,30.35,37.23-.9,71.83-9.57,99.66-34.31-67.63-39.36-127.15-42-197.72,4" transform="translate(-190.62 -17.66)"/><path class="cls-3" d="M544.69,1779.5c1.2,43.45,16.83,93.65,64.41,105.39.81.19-.78-.26,0,0-51.29,20.77-94.22,18.83-138.44,2.27l1.26-1.13a66.79,66.79,0,0,0,40.29-27.62c15-22.37,14.79-51.18,14.06-78.05" transform="translate(-190.62 -17.66)"/><path class="cls-3" d="M886.63,1594.36c.67,38.84.49,78.84-14.06,114.86s-46.8,67.63-85.6,69.56c-39.55,2-68.56-27.68-84.94-63.74s-16.62-77.27-13.12-116.72c29.6,22.6,56.13,31.36,98.06,30.35,37.23-.9,71.83-9.57,99.66-34.31-67.63-39.36-127.15-42-197.72,4" transform="translate(-190.62 -17.66)"/><path class="cls-3" d="M791.66,1779.5c1.2,43.45,16.82,93.65,64.41,105.39.81.19-.78-.26,0,0-51.29,20.77-94.22,18.83-138.44,2.27l1.26-1.13a66.79,66.79,0,0,0,40.29-27.62c15-22.37,14.79-51.18,14.06-78.05" transform="translate(-190.62 -17.66)"/><path d="M284.17,1734.19a13.2,13.2,0,0,1-4.36-.69,10.63,10.63,0,0,1-3.44-2,8.66,8.66,0,0,1-2.25-3,9.27,9.27,0,0,1-.79-3.87,9.06,9.06,0,0,1,1.26-4.79,9.94,9.94,0,0,1,4-3.54,27.25,27.25,0,0,1,6.95-2.38,69.38,69.38,0,0,1,10.25-1.32,7,7,0,0,0-2-4.57q-1.78-1.78-5.75-1.78a15.26,15.26,0,0,0-5.46,1,42.13,42.13,0,0,0-5.19,2.42l-2.77-5.09a41.51,41.51,0,0,1,6.81-3.11,23.18,23.18,0,0,1,8-1.39q6.81,0,10.38,3.6t3.57,10.42v19.24h-6.22l-.59-4h-.2a29.19,29.19,0,0,1-5.72,3.4A15.42,15.42,0,0,1,284.17,1734.19Zm2.32-6a10.81,10.81,0,0,0,4.73-1.09,24.13,24.13,0,0,0,4.53-2.88v-6.87a66.68,66.68,0,0,0-7.28.89,18.77,18.77,0,0,0-4.63,1.42,6.18,6.18,0,0,0-2.44,2,4.23,4.23,0,0,0-.73,2.42,3.4,3.4,0,0,0,1.69,3.17A8,8,0,0,0,286.49,1728.24Z" transform="translate(-190.62 -17.66)"/><path d="M538.19,1734.19a11.83,11.83,0,0,1-4.83-1.12,15.68,15.68,0,0,1-4.63-3.24h-.19l-.66,3.57h-6v-46.68h7.67v12l-.33,5.69h.2a15.87,15.87,0,0,1,4.66-3.14,13.3,13.3,0,0,1,10.87,0,11.63,11.63,0,0,1,4.17,3.3,14.91,14.91,0,0,1,2.61,5.19,24,24,0,0,1,.9,6.81,21.75,21.75,0,0,1-1.19,7.44,16.83,16.83,0,0,1-3.21,5.52,14,14,0,0,1-4.63,3.44A12.92,12.92,0,0,1,538.19,1734.19Zm-1.52-6.28a7.17,7.17,0,0,0,5.75-2.81c1.54-1.87,2.32-4.66,2.32-8.36,0-3.27-.6-5.8-1.79-7.61s-3.11-2.71-5.75-2.71a8.58,8.58,0,0,0-3.77.93,14,14,0,0,0-3.9,3v14.61a10.42,10.42,0,0,0,3.7,2.32A10.74,10.74,0,0,0,536.67,1727.91Z" transform="translate(-190.62 -17.66)"/><path d="M728.21,1734.19a17.32,17.32,0,0,1-6.25-1,10.1,10.1,0,0,1-4.1-2.81,11.27,11.27,0,0,1-2.25-4.4,21.94,21.94,0,0,1-.69-5.68V1707h-8.66v-5.69l9-.33,1-10.18h6.28v10.18h14.82v6H722.52v13.36c0,2.69.57,4.66,1.69,5.91s3.08,1.89,5.85,1.89a18.42,18.42,0,0,0,3.77-.36,24.85,24.85,0,0,0,3.31-1l1.45,5.55a45.31,45.31,0,0,1-4.69,1.29A26.5,26.5,0,0,1,728.21,1734.19Z" transform="translate(-190.62 -17.66)"/><path d="M763.85,1734.19a20.5,20.5,0,0,1-6.94-1.15,17,17,0,0,1-5.66-3.34,15.54,15.54,0,0,1-3.8-5.36,17.93,17.93,0,0,1-1.39-7.21,17.55,17.55,0,0,1,1.39-7.11,16.41,16.41,0,0,1,3.74-5.35,16.11,16.11,0,0,1,5.35-3.37,17.49,17.49,0,0,1,6.32-1.16,16.59,16.59,0,0,1,6.41,1.16,13,13,0,0,1,7.61,8,18.82,18.82,0,0,1,1,6.22c0,.75,0,1.46-.1,2.14s-.15,1.25-.23,1.69H753.67a9.66,9.66,0,0,0,3.63,6.75,12.47,12.47,0,0,0,7.54,2.18,14.8,14.8,0,0,0,4.76-.73,24.11,24.11,0,0,0,4.37-2l2.57,4.76a23.25,23.25,0,0,1-5.85,2.77A21.94,21.94,0,0,1,763.85,1734.19Zm-.79-28.17a9,9,0,0,0-9.19,7.94h17.25a9.13,9.13,0,0,0-2.48-6A7.77,7.77,0,0,0,763.06,1706Z" transform="translate(-190.62 -17.66)"/><path d="M784.74,1733.4v-32.47h5.89l.59,4.1h.2a10.84,10.84,0,0,1,2.71-3.5,6.75,6.75,0,0,1,4.5-1.39q4.56,0,5.88,5.42a11.8,11.8,0,0,1,2.85-3.9,6.63,6.63,0,0,1,4.56-1.52,6.11,6.11,0,0,1,5.32,2.68c1.26,1.78,1.89,4.31,1.89,7.57v23h-7.34v-22.48q0-4.31-2.58-4.3a2.85,2.85,0,0,0-2.22,1,14.55,14.55,0,0,0-1.88,3.08v22.68h-6.35v-22.48a7,7,0,0,0-.59-3.21,2.08,2.08,0,0,0-2-1.09,2.81,2.81,0,0,0-2.21,1,12.52,12.52,0,0,0-1.82,3.08v22.68Z" transform="translate(-190.62 -17.66)"/><path d="M826.8,1746.23v-45.3h6.28l.59,3.71h.2a19.54,19.54,0,0,1,4.86-3.21,12.87,12.87,0,0,1,5.52-1.29,13.28,13.28,0,0,1,5.66,1.16,11.07,11.07,0,0,1,4.16,3.34,15.55,15.55,0,0,1,2.58,5.22,24,24,0,0,1,.89,6.81,21.51,21.51,0,0,1-1.19,7.44,16.39,16.39,0,0,1-3.2,5.49,14.26,14.26,0,0,1-4.63,3.4,13,13,0,0,1-5.39,1.19,11.81,11.81,0,0,1-4.6-1,14,14,0,0,1-4.26-2.84h-.2l.4,5.68v10.19Zm14.74-18.32a7.23,7.23,0,0,0,5.82-2.81q2.31-2.8,2.31-8.36c0-3.27-.59-5.8-1.78-7.61s-3.11-2.71-5.75-2.71a8.58,8.58,0,0,0-3.77.93,14,14,0,0,0-3.9,3v14.61a10.49,10.49,0,0,0,3.67,2.32A10.38,10.38,0,0,0,841.54,1727.91Z" transform="translate(-190.62 -17.66)"/><path class="cls-3" d="M788,1548c0-39.06-22.65-70.23-60-84.65s-95.91-14.89-132.15,1-59.93,44-54.77,78.91" transform="translate(-190.62 -17.66)"/><path class="cls-4" d="M567.48,1516.24A107.29,107.29,0,0,0,542.37,1548c-10.87-13.51-15.15-18.34-26-31.85" transform="translate(-190.62 -17.66)"/></svg>