<svg xmlns="http://www.w3.org/2000/svg" viewBox="0 0 1750.69 745.73"><defs><style>.a{fill:#0084fc;}.a,.b{opacity:0.3;}.b{fill:#ff0013;}.c,.d,.g,.h{fill:none;stroke:#000;}.c,.d{stroke-linecap:round;}.c,.d,.h{stroke-linejoin:round;}.c{stroke-width:5px;}.d,.g{stroke-width:8px;}.e{fill:#212121;}.f{fill:#606060;}.g{stroke-miterlimit:10;}.h{stroke-width:18px;}</style></defs><path class="a" d="M1125.75,179.68l18.07-4.35,58.61-.64,162.06,5,201.43-2.49h161.81l101.5-4.56,4.06,19V334c-103.26,3-195.86,5-287.29,6-78.59.83-156.31.92-239.22.27-56.47-.45-115.34-1.24-178.53-2.36Z" transform="translate(-94.48 -167.87)"/><path class="b" d="M97.39,178.8l18.07-4.35,58.61-.64,162.06,5,201.43-2.5H699.37l101.5-4.55,4.06,19V333.1c-103.26,3-195.86,5-287.29,6-78.59.83-156.31.92-239.22.26C222,338.92,163.08,338.13,99.89,337Z" transform="translate(-94.48 -167.87)"/><path class="c" d="M104.44,902.27c255,12.57,479.1,11.18,711.12-.71-18.09.93-4-731.11-14.69-729.81-36.56,4.42-369,6.88-442,7.25-71.73.37-257.76-12.3-261.48-.2-2.16,7,4.81,274.07,6.31,348.64C106.16,649.54,102,780.17,104.44,902.27Z" transform="translate(-94.48 -167.87)"/><path class="c" d="M197.18,669.85c59-5,128.63.11,185.92.11.18-18.8-3.92-191.43,1.27-191.75-15.92.78-191.64,5-191.84-.12,1.23,19.5,0,165.31,4.28,191.8Z" transform="translate(-94.48 -167.87)"/><path class="c" d="M527.56,629.2c60.85,5.2,132.68-.11,191.78-.11.18,19.39-4,197.46,1.3,197.8-16.41-.81-197.67-5.17-197.88.11,1.27-20.11,0-170.51,4.41-197.83Z" transform="translate(-94.48 -167.87)"/><path d="M346.37,252.23c0-6-.22-10.84-.44-15.44h11l.6,7.32h.28a17,17,0,0,1,15.05-8.41c6.53,0,11.48,3.48,13.63,9.09h.22a20.29,20.29,0,0,1,6.1-6.34,17,17,0,0,1,9.71-2.75c8.63,0,16.29,6.12,16.29,21.87v32H406.26v-30c0-8.07-2.37-13.37-8.38-13.37-4.08,0-7.14,2.93-8.41,6.76a15.61,15.61,0,0,0-.6,4.38v32.25H376.32V258.07c0-6.62-2.28-11.91-8.15-11.91-4.32,0-7.47,3.4-8.64,7.21a14.39,14.39,0,0,0-.6,4.35v31.83H346.37Z" transform="translate(-94.48 -167.87)"/><path d="M459.48,289.55l-.84-5.73h-.3a17.24,17.24,0,0,1-14.24,6.82c-9.76,0-15.62-7.25-15.62-15.66,0-13.39,11.74-19.82,28.92-19.8v-1c0-4.08-1.6-9.27-9.86-9.25a24.94,24.94,0,0,0-12.88,3.64l-2.52-8.43c3.57-2.19,10-4.41,17.76-4.41,15.92,0,20.34,10.26,20.34,21.73v19.62a80.46,80.46,0,0,0,.78,12.5Zm-1.74-26c-7.94-.07-16.69,1.69-16.69,10.07,0,5.4,3.33,7.75,7,7.75a9.61,9.61,0,0,0,9.31-6.92,10.4,10.4,0,0,0,.34-2.83Z" transform="translate(-94.48 -167.87)"/><path d="M496.81,222.31c0,4-2.8,7-7.24,7a7.05,7.05,0,1,1,7.24-7Zm-13.46,67.24V236.79h12.81v52.76Z" transform="translate(-94.48 -167.87)"/><path d="M509.47,252.23c0-6-.22-10.84-.44-15.44H520.2l.63,7.41h.29a17.71,17.71,0,0,1,15.51-8.5c9.07,0,17.17,6.19,17.17,21.55v32.3H541V258.68c0-6.88-2.28-12.47-8.89-12.47-4.58,0-7.92,3.29-9.2,7.42a14.32,14.32,0,0,0-.61,4.4v31.52H509.47Z" transform="translate(-94.48 -167.87)"/><path class="c" d="M1131.55,900.9c255,12.57,479.1,11.18,711.11-.71-18.08.92-4-731.11-14.68-729.81-36.56,4.41-369,6.88-442,7.25-71.73.36-257.76-12.3-261.48-.21-2.16,7,4.8,274.07,6.31,348.64C1133.27,648.16,1129.09,778.8,1131.55,900.9Z" transform="translate(-94.48 -167.87)"/><path class="c" d="M1127,335.63c263.9,4.7,452.59,3.51,705-3.91" transform="translate(-94.48 -167.87)"/><path class="c" d="M1224.29,668.48c59-5,128.62.11,185.92.11.17-18.8-3.92-191.43,1.27-191.76-15.92.78-191.64,5-191.84-.11,1.23,19.49,0,165.3,4.27,191.79Z" transform="translate(-94.48 -167.87)"/><path class="d" d="M1291.65,401.85c15.32,17.12,30.63,32.24,45.95,49.35" transform="translate(-94.48 -167.87)"/><path class="d" d="M1337.5,400.48c-15.29,18.7-29.59,34.4-44.89,53.1" transform="translate(-94.48 -167.87)"/><path class="d" d="M1627.17,544.85l23.1,29.62" transform="translate(-94.48 -167.87)"/><path class="d" d="M1669.11,543.81c-12,22.14-24.1,43.28-36.15,65.42" transform="translate(-94.48 -167.87)"/><path class="c" d="M1554.67,627.83c60.85,5.2,132.68-.11,191.78-.11.18,19.39-4,197.46,1.3,197.79-16.41-.81-197.67-5.16-197.88.12,1.27-20.11,0-170.51,4.41-197.84Z" transform="translate(-94.48 -167.87)"/><path d="M1372.76,276.31a26,26,0,0,0,12.15,3.52c5.35,0,7.94-2.38,7.94-5.95s-2-5.41-8-7.95c-9.58-3.88-13.45-9.34-13.42-15.32,0-9.22,7.39-16.29,18.85-16.29a27.52,27.52,0,0,1,12.84,3l-2.57,9.12a20.55,20.55,0,0,0-10-2.8c-4.52,0-7,2.44-7,5.56s2.16,4.82,8.35,7.49c8.83,3.64,13,8.62,13.08,16,0,10-7.5,16.46-20.23,16.46-5.71,0-11.21-1.43-14.64-3.5Z" transform="translate(-94.48 -167.87)"/><path d="M1423.12,235.42l5,24c1.14,5.65,2.24,11.29,3.07,16.88h.29c1-5.54,2.51-11.44,3.9-16.75l6.43-24.11H1452l6.12,23.5c1.51,6.07,2.85,11.71,3.86,17.36h.27c.73-5.56,1.83-11.25,3.14-17.31l5.31-23.55h12.61l-15.61,52.76h-11.6l-5.9-21.53a157.18,157.18,0,0,1-3.62-16.68h-.22a142.37,142.37,0,0,1-3.74,16.73l-6.29,21.48h-11.66l-14.81-52.76Z" transform="translate(-94.48 -167.87)"/><path d="M1518,288.18l-.84-5.73h-.31a17.24,17.24,0,0,1-14.23,6.82c-9.76,0-15.63-7.26-15.63-15.66,0-13.39,11.74-19.83,28.93-19.8v-1c0-4.08-1.61-9.28-9.87-9.25a25.06,25.06,0,0,0-12.88,3.63l-2.51-8.43c3.57-2.18,10-4.41,17.76-4.41,15.92,0,20.34,10.26,20.34,21.73v19.63a79.32,79.32,0,0,0,.78,12.5Zm-1.74-26c-7.94-.07-16.69,1.7-16.69,10.08,0,5.4,3.32,7.75,7,7.75a9.61,9.61,0,0,0,9.3-6.92,10.14,10.14,0,0,0,.35-2.84Z" transform="translate(-94.48 -167.87)"/><path d="M1541.86,252.64c0-6.93-.21-12.42-.43-17.22h11.24l.63,7.59h.22c3.47-5.65,9-8.69,16-8.69,11.61,0,20.24,10.65,20.24,26.93,0,19.14-10.83,28-21.82,28-6,0-10.74-2.8-13.06-6.6h-.22v26.77h-12.79Zm12.79,14.28a15.92,15.92,0,0,0,.43,3.87c1.35,5.34,5.45,8.4,10,8.4,7.68,0,11.75-7.41,11.75-17.46,0-9.68-3.93-17.11-11.52-17.11-4.72,0-9,3.78-10.17,8.94a13.71,13.71,0,0,0-.48,3.52Z" transform="translate(-94.48 -167.87)"/><path class="d" d="M295.5,417.39c-6.05-5-16.2-4.7-23-.51S262,428.32,260.86,435.57c-1.21,7.81,1.23,17.07,9.25,20.54,9.18,3.95,20.62-2.3,24.53-10.62s2.45-17.74.91-26.64c1,14.88,10.84,29.08,25.36,36.74" transform="translate(-94.48 -167.87)"/><path class="d" d="M605.56,526.05l1.73,66.71c-2.27-9.26-.65-21.48,9.18-25.45s22.46,1.2,26.64,10.54-.3,21.23-9.51,26.37-20.15,2.32-26.2-6" transform="translate(-94.48 -167.87)"/><path class="e" d="M259.39,600.6l6.74-9.32c5.29,4.57,11.57,8.54,20.6,8.54,10.08,0,17.71-5.63,17.71-15.25,0-9.45-6.93-14.78-16.95-14.78-5.94,0-9.3,1.31-14.8,4.39l-6.88-4.42,2.4-39.29h47v12.32H280.79l-1.72,19.11a31.44,31.44,0,0,1,12.57-2.52c14.94,0,27.35,7.76,27.35,24.85,0,17.45-14.54,27.4-30.35,27.4C274.6,611.63,265.76,606.47,259.39,600.6Z" transform="translate(-94.48 -167.87)"/><path class="f" d="M591.49,757.59c24.87-21.47,39.91-35.21,39.91-47.56,0-8.4-5.14-13.68-15.15-13.68-6.92,0-12.73,4.07-17.54,8.78l-8-8c7.76-7.81,15.69-12.37,27.41-12.37,16.38,0,27.08,9.71,27.08,24.45,0,14.19-14.37,28.76-32.85,45.23,4.78-.42,10.23-.76,14.66-.76h22.44V766h-58Z" transform="translate(-94.48 -167.87)"/><path class="e" d="M1286.25,599.68l6.74-9.32c5.28,4.57,11.56,8.54,20.59,8.54,10.08,0,17.71-5.63,17.71-15.25,0-9.45-6.93-14.78-17-14.78-5.94,0-9.3,1.31-14.79,4.39l-6.89-4.42,2.4-39.29h47v12.31h-34.39L1305.93,561a31.36,31.36,0,0,1,12.56-2.52c14.94,0,27.36,7.76,27.36,24.85,0,17.45-14.54,27.39-30.36,27.39C1301.45,610.7,1292.61,605.55,1286.25,599.68Z" transform="translate(-94.48 -167.87)"/><path class="f" d="M1617.23,757.77c24.87-21.46,39.92-35.2,39.92-47.55,0-8.4-5.14-13.68-15.16-13.68-6.91,0-12.73,4.07-17.54,8.78l-8-8c7.76-7.81,15.69-12.37,27.41-12.37,16.39,0,27.09,9.71,27.09,24.44,0,14.19-14.37,28.76-32.85,45.24,4.77-.42,10.22-.76,14.66-.76h22.43v12.24h-58Z" transform="translate(-94.48 -167.87)"/><path class="c" d="M98.64,340.36c263.9,4.7,452.59,3.5,705-3.91" transform="translate(-94.48 -167.87)"/><path class="g" d="M1450.49,515a204.62,204.62,0,0,1,110.31,58.52" transform="translate(-94.48 -167.87)"/><polygon points="1447.14 414.51 1484.81 427.59 1477.31 388.42 1447.14 414.51"/><path class="g" d="M1508.49,786.3a204.62,204.62,0,0,1-110.31-58.52" transform="translate(-94.48 -167.87)"/><polygon points="1322.89 551.04 1285.21 537.96 1292.71 577.13 1322.89 551.04"/><path class="h" d="M865.76,557.23h166.08" transform="translate(-94.48 -167.87)"/><polygon points="929.22 417.18 977.4 389.36 929.22 361.54 929.22 417.18"/><path class="h" d="M1071.88,606.12H905.8" transform="translate(-94.48 -167.87)"/><polygon points="819.47 410.42 771.28 438.25 819.47 466.07 819.47 410.42"/><path class="g" d="M422.71,515A204.6,204.6,0,0,1,533,573.52" transform="translate(-94.48 -167.87)"/><polygon points="419.35 414.51 457.03 427.59 449.53 388.42 419.35 414.51"/><path class="g" d="M480.7,786.3a204.63,204.63,0,0,1-110.3-58.52" transform="translate(-94.48 -167.87)"/><polygon points="295.1 551.04 257.43 537.96 264.93 577.13 295.1 551.04"/></svg>