<?xml version="1.0" encoding="UTF-8" standalone="no"?>
<svg
   xmlns:dc="http://purl.org/dc/elements/1.1/"
   xmlns:cc="http://creativecommons.org/ns#"
   xmlns:rdf="http://www.w3.org/1999/02/22-rdf-syntax-ns#"
   xmlns:svg="http://www.w3.org/2000/svg"
   xmlns="http://www.w3.org/2000/svg"
   xmlns:sodipodi="http://sodipodi.sourceforge.net/DTD/sodipodi-0.dtd"
   xmlns:inkscape="http://www.inkscape.org/namespaces/inkscape"
   inkscape:version="1.0 (4035a4fb49, 2020-05-01)"
   sodipodi:docname="swapping-diagram.svg"
   version="1.1"
   viewBox="0 0 1273.4 978.46"
   data-name="Livello 1"
   id="Livello_1">
  <metadata
     id="metadata53">
    <rdf:RDF>
      <cc:Work
         rdf:about="">
        <dc:format>image/svg+xml</dc:format>
        <dc:type
           rdf:resource="http://purl.org/dc/dcmitype/StillImage" />
      </cc:Work>
    </rdf:RDF>
  </metadata>
  <sodipodi:namedview
     inkscape:current-layer="Livello_1"
     inkscape:window-maximized="1"
     inkscape:window-y="-8"
     inkscape:window-x="-8"
     inkscape:cy="641.82583"
     inkscape:cx="479.55146"
     inkscape:zoom="0.56634124"
     inkscape:snap-bbox="true"
     showgrid="false"
     id="namedview51"
     inkscape:window-height="1017"
     inkscape:window-width="1920"
     inkscape:pageshadow="2"
     inkscape:pageopacity="0"
     guidetolerance="10"
     gridtolerance="10"
     objecttolerance="10"
     borderopacity="1"
     bordercolor="#666666"
     pagecolor="#ffffff" />
  <defs
     id="defs4">
    <style
       id="style2">.cls-1,.cls-3{fill:none;}.cls-1,.cls-2,.cls-3{stroke:#000;stroke-width:5px;}.cls-1,.cls-2{stroke-miterlimit:10;}.cls-2{fill:#d8d8d8;}.cls-3{stroke-linecap:round;stroke-linejoin:round;}.cls-4{fill:#00589d;}</style>
  </defs>
  <circle
     id="circle6"
     r="211.4"
     cy="652.07"
     cx="213.9"
     class="cls-1" />
  <path
     id="path8"
     transform="translate(-271.06 -49.52)"
     d="M360.79,741.2a24.38,24.38,0,0,1-7.56-1.15,18,18,0,0,1-6.05-3.29A15.91,15.91,0,0,1,344,716.63a18.11,18.11,0,0,1,7-6.12,48.35,48.35,0,0,1,12.34-4.15,140.43,140.43,0,0,1,18.17-2.42,14.18,14.18,0,0,0-3.4-8.88q-3.18-3.69-10.67-3.7a26.94,26.94,0,0,0-10.1,2,66.67,66.67,0,0,0-9.05,4.38L344.06,690q2.31-1.38,5.19-2.83a53.4,53.4,0,0,1,6.17-2.59,49.1,49.1,0,0,1,6.81-1.85,37.34,37.34,0,0,1,7.21-.69q11.76,0,17.65,6.35T393,705.9v33.92h-9.34l-.92-7.27h-.35a53.52,53.52,0,0,1-10.09,6.05A27.06,27.06,0,0,1,360.79,741.2Zm3.23-9.11a21.25,21.25,0,0,0,8.82-2,40.15,40.15,0,0,0,8.71-5.54V711.21A128.06,128.06,0,0,0,367.71,713a35.48,35.48,0,0,0-8.83,2.77,12,12,0,0,0-4.67,3.75,8.19,8.19,0,0,0-1.38,4.62,6.44,6.44,0,0,0,3.29,6.11A15.89,15.89,0,0,0,364,732.09Z" />
  <path
     id="path10"
     transform="translate(-271.06 -49.52)"
     d="M457.69,693.33V685h50.52v8.31Zm0,25v-8.31h50.52v8.31Z" />
  <path
     id="path12"
     transform="translate(-271.06 -49.52)"
     d="M596.58,741.2a41.49,41.49,0,0,1-8.83-.87,40.16,40.16,0,0,1-7.26-2.25,29.76,29.76,0,0,1-5.89-3.23,52.15,52.15,0,0,1-4.78-3.8l5.53-7.38a40.47,40.47,0,0,0,8.31,5.71,24.62,24.62,0,0,0,11.53,2.48,21,21,0,0,0,6.87-1.1,17.61,17.61,0,0,0,5.54-3.06,14.12,14.12,0,0,0,3.74-4.84,14.65,14.65,0,0,0,1.39-6.46q0-7.15-4.67-11t-12.29-3.86a25.43,25.43,0,0,0-4,.28,24.85,24.85,0,0,0-3.4.81,25.47,25.47,0,0,0-3.29,1.33c-1.12.54-2.29,1.15-3.52,1.84l-5.77-3.69,2.31-35.76h42.57V676H588.16l-1.73,19.73a37.19,37.19,0,0,1,5.88-2,28.87,28.87,0,0,1,6.69-.7,34.11,34.11,0,0,1,9.81,1.39,22.47,22.47,0,0,1,8,4.21,20.42,20.42,0,0,1,5.43,7.15,24.06,24.06,0,0,1,2,10.21A23.75,23.75,0,0,1,622,726.72a24,24,0,0,1-6.17,7.9,27,27,0,0,1-8.89,4.91A32.52,32.52,0,0,1,596.58,741.2Z" />
  <circle
     id="circle14"
     r="211.4"
     cy="650.3"
     cx="1059.5"
     class="cls-1" />
  <path
     id="path16"
     transform="translate(-271.06 -49.52)"
     d="M1216.08,739.44a21.92,21.92,0,0,1-8.6-2,27.6,27.6,0,0,1-8.36-5.66h-.35l-1,6.23h-9V656.26h11.43V678l-.47,10.38h.35a29.17,29.17,0,0,1,8.42-5.88,22.6,22.6,0,0,1,9.58-2.19,23.42,23.42,0,0,1,9.92,2,19.59,19.59,0,0,1,7.32,5.76,26.71,26.71,0,0,1,4.5,9.06,42.09,42.09,0,0,1,1.56,11.88,37.18,37.18,0,0,1-2.08,12.92,28.63,28.63,0,0,1-5.59,9.52,24.63,24.63,0,0,1-8.08,5.94A22.61,22.61,0,0,1,1216.08,739.44Zm-2.2-9.46a14,14,0,0,0,11.19-5.37q4.5-5.36,4.5-15.51,0-8.88-3.46-14.08T1215,689.83a17.14,17.14,0,0,0-7.27,1.79,25.53,25.53,0,0,0-7.61,5.83v26.64a21.9,21.9,0,0,0,7.26,4.56A19.41,19.41,0,0,0,1213.88,730Z" />
  <path
     id="path18"
     transform="translate(-271.06 -49.52)"
     d="M1303.28,691.56v-8.3h50.53v8.3Zm0,25v-8.31h50.53v8.31Z" />
  <path
     id="path20"
     transform="translate(-271.06 -49.52)"
     d="M1417.26,738.05v-6.69q9-7.85,16-14.24a149.26,149.26,0,0,0,11.83-11.89,56.21,56.21,0,0,0,7.32-10.21,19.48,19.48,0,0,0,2.54-9.23,13.25,13.25,0,0,0-3.69-9.8q-3.69-3.69-11.31-3.69a17.7,17.7,0,0,0-9.23,2.54,36.66,36.66,0,0,0-7.61,6l-6.46-6.34a42.9,42.9,0,0,1,11-8.31,29.73,29.73,0,0,1,13.78-3,31.06,31.06,0,0,1,10.1,1.56,22,22,0,0,1,7.73,4.44,19.7,19.7,0,0,1,4.9,7,23.11,23.11,0,0,1,1.73,9.06,23.84,23.84,0,0,1-2.42,10.21,54.49,54.49,0,0,1-6.69,10.49,122.86,122.86,0,0,1-10.16,11.14q-5.88,5.76-12.8,12l6.86-.46q3.52-.23,6.64-.23h22.49v9.69Z" />
  <circle
     id="circle22"
     r="211.4"
     cy="213.9"
     cx="636.7"
     class="cls-2" />
  <path
     id="path24"
     transform="translate(-271.06 -49.52)"
     d="M817.61,303a28.37,28.37,0,0,1-10.56-1.73,17,17,0,0,1-6.92-4.84,19.22,19.22,0,0,1-3.75-7.44,37.4,37.4,0,0,1-1.15-9.63V254.47H779.77v-8.65l15.92-.58,1.5-17.88h9.46v17.88H833.3v9.23H806.65v24.92q0,7.26,2.94,10.84t10.67,3.58a34.41,34.41,0,0,0,6.81-.64,38.07,38.07,0,0,0,6.11-1.79l2.31,8.42q-3.81,1.27-8.08,2.25A43.6,43.6,0,0,1,817.61,303Z" />
  <path
     id="path26"
     transform="translate(-271.06 -49.52)"
     d="M879.67,303a35.62,35.62,0,0,1-12-2,28,28,0,0,1-9.69-5.76,26.81,26.81,0,0,1-6.52-9.35,31.83,31.83,0,0,1-2.36-12.57,30.42,30.42,0,0,1,2.42-12.4,28.86,28.86,0,0,1,6.4-9.29,27.77,27.77,0,0,1,9.18-5.83,29.75,29.75,0,0,1,10.84-2,29.26,29.26,0,0,1,11.07,2,22.37,22.37,0,0,1,8.14,5.48,23.78,23.78,0,0,1,5,8.42,32.28,32.28,0,0,1,1.73,10.78c0,1.23,0,2.39-.12,3.46a21.86,21.86,0,0,1-.35,2.77H860.52q.93,8.77,6.63,13a22.8,22.8,0,0,0,14,4.27,27,27,0,0,0,8.65-1.33,38.61,38.61,0,0,0,7.73-3.63l4,7.26a44,44,0,0,1-9.86,4.79A36.58,36.58,0,0,1,879.67,303Zm-1.38-50.18a19,19,0,0,0-6.12,1,16.08,16.08,0,0,0-5.19,2.94,17.44,17.44,0,0,0-3.92,4.85,21.29,21.29,0,0,0-2.31,6.69h32.88q-.58-7.72-4.67-11.59A14.91,14.91,0,0,0,878.29,252.85Z" />
  <path
     id="path28"
     transform="translate(-271.06 -49.52)"
     d="M916.81,301.65V245.24h9l.93,7.38H927a20.15,20.15,0,0,1,4.9-6.29,11.7,11.7,0,0,1,7.79-2.48q8.07,0,10.38,9.69a25.16,25.16,0,0,1,5.25-7,11.16,11.16,0,0,1,7.78-2.66,10.78,10.78,0,0,1,9.29,4.56q3.28,4.56,3.29,13.09v40.15H964.46V262.31q0-8.65-5.19-8.65a5.6,5.6,0,0,0-4.39,2,28.55,28.55,0,0,0-3.69,5.88v40.15h-9.92V262.31q0-8.65-5.07-8.65a5.93,5.93,0,0,0-4.5,2,23,23,0,0,0-3.7,5.88v40.15Z" />
  <path
     id="path30"
     transform="translate(-271.06 -49.52)"
     d="M990.18,324.72V245.24h9.35l.92,6.92h.35a31.69,31.69,0,0,1,8.76-6,23.57,23.57,0,0,1,10-2.31,23.13,23.13,0,0,1,9.86,2,19.69,19.69,0,0,1,7.27,5.77,26.71,26.71,0,0,1,4.5,9.06,42.09,42.09,0,0,1,1.56,11.88,37.45,37.45,0,0,1-2.08,12.92,28.63,28.63,0,0,1-5.59,9.52A24.72,24.72,0,0,1,1027,301a23.13,23.13,0,0,1-9.57,2.07,21.15,21.15,0,0,1-8.19-1.78,26.55,26.55,0,0,1-7.85-5.14H1001l.57,10.15v18.46Zm25-31.15a14.13,14.13,0,0,0,11.3-5.36q4.5-5.37,4.5-15.52,0-8.88-3.46-14.07t-11.08-5.19a17.1,17.1,0,0,0-7.26,1.79,25.8,25.8,0,0,0-7.62,5.82v26.65a22.2,22.2,0,0,0,7.27,4.56A19.39,19.39,0,0,0,1015.22,293.57Z" />
  <path
     id="path32"
     transform="translate(-271.06 -49.52)"
     d="M649.53,221.67a571,571,0,0,0-197.8,228.11"
     class="cls-1" />
  <path
     id="path34"
     transform="translate(-271.06 -49.52)"
     d="M635.35,267.1c18.16-47.81.35.17,18.52-47.65-48.25-1.86-.36-.16-48.6-2"
     class="cls-3" />
  <path
     id="path36"
     d="m 841.08362,809.19247 a 773.07266,773.07266 0 0 1 -408.76724,3.07334"
     class="cls-1" />
  <path
     style="stroke-width:5.962;stroke-miterlimit:4;stroke-dasharray:none"
     sodipodi:nodetypes="ccc"
     id="path38"
     d="m 467.51495,849.03617 c 0,0 0.18143,0.17964 -35.19857,-36.77036 43.69,-20.53 -1.06429,0.4825 42.67571,-20.0475"
     class="cls-3" />
  <path
     id="path40"
     transform="translate(-271.06 -49.52)"
     d="M1345.68,442.59A571,571,0,0,0,1162,203"
     class="cls-1" />
  <path
     id="path42"
     transform="translate(-271.06 -49.52)"
     d="M1304.6,418.74c42.86,27.92-.24.31,42.62,28.23,12.09-46.74.24-.31,12.32-47.05"
     class="cls-3" />
  <path
     id="path44"
     transform="translate(-271.06 -49.52)"
     d="M462.76,232.54h-.25l-14.8,7.6-2.65-11.49,19.69-10h12.68v83H462.76Z"
     class="cls-4" />
  <path
     id="path46"
     transform="translate(-271.06 -49.52)"
     d="M885.25,1028v-9.4l9.19-9.44c16.78-16.75,26.24-27.7,26.32-39.43,0-7.6-4-13.65-13.72-13.65-6.81,0-12.4,3.41-16.08,6.14l-4-10.94A38.32,38.32,0,0,1,910,943.69c17.74,0,25.82,11.48,25.82,24.63,0,14.89-10.33,27.2-23.44,40.31l-6.6,6.4v.25h31.72V1028Z"
     class="cls-4" />
  <path
     id="path48"
     transform="translate(-271.06 -49.52)"
     d="M1323.53,285.24a36.89,36.89,0,0,0,16.89,4.57c10.9,0,15.81-6.41,15.78-13.52-.06-9.84-8.6-14.31-18-14.35h-5.71v-11h5.42c6.89,0,15.81-3.35,15.81-11.83,0-6.13-4.09-10.58-12.36-10.58a29.31,29.31,0,0,0-15,4.7l-3.14-11c4.28-3,12.62-5.8,21.55-5.8,16,0,24.23,9.32,24.23,20.1,0,8.55-4.93,15.64-14.31,19.26V256c9.37,2,17,9.45,17,20.91,0,13.73-11,25.05-30.4,25.05-8.92,0-16.73-2.46-20.9-5.15Z"
     class="cls-4" />
</svg>
