<svg id="Livello_1" data-name="Livello 1" xmlns="http://www.w3.org/2000/svg" viewBox="0 0 585.24 1372.63"><defs><style>.cls-1{fill:#e6e6e6;fill-opacity:0.5;}.cls-1,.cls-2{stroke:#000;}.cls-1,.cls-2,.cls-3,.cls-4{stroke-linecap:round;stroke-linejoin:round;stroke-width:5px;}.cls-2,.cls-3,.cls-4{fill:none;}.cls-3{stroke:#d30700;}.cls-4{stroke:#00bd00;}</style></defs><path class="cls-1" d="M565.51,438.31A660.69,660.69,0,0,0,764,409c15.35-4.76,31.86-11.16,39.65-25.22,9.39-16.95,1.81-39.34-12.51-52.38s-33.71-18.77-52.56-23.26c-98.51-23.42-190.9-13.89-290.16-6.13-34.5,2.69-67.46,8.5-97.45,27.64-44.33,28.29-26.77,63.62,17.88,77.84a679,679,0,0,0,195.87,32.3c8.1,79.5,9.67,91.92,7.49,159.11" transform="translate(-246.56 -290.84)"/><path class="cls-1" d="M569,714.29c-45.59,1.18-91.19,2.17-136.77,4.05-23.39,1-47.92,5-71.26,4.32-2,0-7.72,2.21-9.32,1.32-7.28-4.1-3.8-22.4-3.56-30.78,1-34.61,3.38-63,3.42-97.54,33.29,3.23,47.14.24,72.69,1q53.73,1.58,107.47,2.13c50,.5,100,.18,149.91-.19,27.28-.2,54.54-1,81.82-1.3,19.42-.21,17.4,6.16,19.37,26.66a444.91,444.91,0,0,1,1.5,64.17c-.42,8.67,1,16.39-5.7,20.78-6,4-27.1.69-34.6.89l-135.69,3.5c-49.11,1.27-38.9-2.69-40.26,31.69-1.14,28.93-2.15,57.86-3.23,86.79" transform="translate(-246.56 -290.84)"/><path class="cls-1" d="M559.16,950.86Q670,949,780.84,949.61c-6.71-37.77,4-57.64,9-117.41-20.56,7.88-130.28,1.66-146.5,1.87l-147.51,1.87-73.75.93c-14.67.19-50-5.91-62.6,2.46-15.72,10.42-9.09,30.9-10.28,48.15-1.63,23.63-3.06,69.19-3.06,69.19,57.11-2.22,103.8-3.71,160.94-4.81,52-1,50.92-11.19,53.75,23.56,2.35,28.84,3.87,57.77,5.8,86.64-43.91,32.67-99.09,78.17-143,110.85,53.89,49.55,87.63,78.84,141.35,136.94,48.48-47.16,102.35-91.28,148.07-141.18,4.31-4.71-123.31-87.35-146.55-108.56" transform="translate(-246.56 -290.84)"/><path class="cls-2" d="M424.9,1172.6c-48,.58-115.73-.84-163.71-.26C249.37,993.6,246,849.61,251.91,642.41c48.07-6.09,44.79-6.4,96.71-4.67" transform="translate(-246.56 -290.84)"/><path class="cls-2" d="M302.66,616a107.39,107.39,0,0,0,48.88,20.94C339.24,647.4,327,657.65,312,670.45" transform="translate(-246.56 -290.84)"/><path class="cls-2" d="M715.08,1167c36.21,1.27,75.64-1.46,111.85-.19.79,83.28,1.58,168.56,2.36,251.84l-265.37,2.1c1.19,41.59,0,51.85,0,103.7" transform="translate(-246.56 -290.84)"/><path class="cls-1" d="M402.61,1584.07c-3.87,16.78,4.7,34.6,17.76,45.82s29.95,16.91,46.69,21c79.79,19.44,167,11.58,237.74-30.06,8.62-5.07,17.47-16.08,21.35-25.29,4.6-10.91.85-24-6.75-33.06s-18.42-14.8-29.35-19.35c-56.59-23.61-120.38-20.7-177.32-13.42C478.87,1534,411.87,1543.94,402.61,1584.07Z" transform="translate(-246.56 -290.84)"/><path d="M477.6,345.84a52.68,52.68,0,0,1,9.5-.76c4.71,0,8.25,1,10.6,3a10.66,10.66,0,0,1,3.49,8.27,11.72,11.72,0,0,1-3.08,8.52c-2.61,2.72-6.7,4-11.07,4a15.43,15.43,0,0,1-2.87-.2v14.38H477.6Zm6.57,17.6a12.12,12.12,0,0,0,2.8.25c4.79,0,7.64-2.61,7.64-7,0-4-2.47-6.44-7-6.44a15.78,15.78,0,0,0-3.42.31Z" transform="translate(-246.56 -290.84)"/><path d="M505.82,364.26c0-3.31-.1-6-.23-8.44h5.75l.27,4.86h.19c1.26-3.52,4.16-5.43,6.89-5.43a6.26,6.26,0,0,1,1.51.14v6.34a8.4,8.4,0,0,0-1.8-.16,5.83,5.83,0,0,0-5.76,5.06,11.25,11.25,0,0,0-.2,2.23v14.22h-6.62Z" transform="translate(-246.56 -290.84)"/><path d="M547.54,369.25c0,10.31-6.63,14.4-12.75,14.4-7.12,0-12.47-5.17-12.47-14,0-9.21,5.58-14.36,12.86-14.36S547.54,360.76,547.54,369.25Zm-18.47.21c0,5.05,2.07,9.3,5.93,9.3,3.66,0,5.79-4.29,5.79-9.36,0-4.19-1.53-9.25-5.79-9.25S529.07,365.09,529.07,369.46Z" transform="translate(-246.56 -290.84)"/><path d="M552.63,383.08c.12-1.89.23-4.93.23-7.56V343.63h6.61v15.71h.11a8.67,8.67,0,0,1,7.8-4.09c6.11,0,10.28,5.51,10.24,13.74,0,9.77-5.52,14.66-11.25,14.66a8.2,8.2,0,0,1-7.63-4.45h-.13l-.32,3.88Zm6.84-10.8a7,7,0,0,0,.19,1.65,5.44,5.44,0,0,0,5.22,4.43c3.9,0,6.06-3.55,6.06-9.05,0-4.87-2-8.79-6-8.79a5.67,5.67,0,0,0-5.22,4.6,7.67,7.67,0,0,0-.22,1.78Z" transform="translate(-246.56 -290.84)"/><path d="M582.94,343.63h6.62v39.45h-6.62Z" transform="translate(-246.56 -290.84)"/><path d="M601.37,371.27c.15,5.28,3.67,7.29,7.72,7.29a18.31,18.31,0,0,0,6.73-1.17l1,4.61a22.51,22.51,0,0,1-8.72,1.6c-8.3,0-13.06-5.36-13.06-13.74,0-8,4.49-14.61,12.37-14.61s10.81,6.66,10.81,13a16.91,16.91,0,0,1-.21,3ZM612,366.63c0-3.08-1.16-6.74-5-6.74s-5.34,3.83-5.59,6.74Z" transform="translate(-246.56 -290.84)"/><path d="M623.37,363.8c0-3.13-.11-5.6-.22-8h5.68l.32,3.78h.14a8.79,8.79,0,0,1,7.78-4.35,7.21,7.21,0,0,1,7,4.7h.11a10.43,10.43,0,0,1,3.16-3.27,8.74,8.74,0,0,1,5-1.43c4.45,0,8.41,3.17,8.41,11.31v16.52h-6.49V367.57c0-4.17-1.23-6.91-4.33-6.91a4.69,4.69,0,0,0-4.35,3.5,8.24,8.24,0,0,0-.3,2.26v16.66h-6.49V366.82c0-3.42-1.18-6.16-4.21-6.16a4.91,4.91,0,0,0-4.47,3.73,7.63,7.63,0,0,0-.31,2.24v16.45h-6.49Z" transform="translate(-246.56 -290.84)"/><path d="M413.28,634v31.89c0,2.63.11,5.64.23,7.56h-5.84l-.32-4h-.13a8.75,8.75,0,0,1-7.91,4.56c-6.14,0-10.64-5.62-10.64-14,0-9.27,5.2-14.44,11.12-14.44,3.28,0,5.66,1.4,6.77,3.37h.12V634Zm-6.6,23.27a9.56,9.56,0,0,0-.14-1.76,5.38,5.38,0,0,0-5.12-4.63c-4,0-6.06,4-6.06,9s2.17,8.77,6,8.77a5.32,5.32,0,0,0,5.15-4.45,7.66,7.66,0,0,0,.21-1.93Z" transform="translate(-246.56 -290.84)"/><path d="M425,661.63c.14,5.29,3.67,7.29,7.71,7.29a18.37,18.37,0,0,0,6.74-1.17l1,4.61a22.36,22.36,0,0,1-8.72,1.6c-8.3,0-13.07-5.36-13.07-13.74,0-8,4.5-14.6,12.38-14.6s10.81,6.65,10.81,13a16.64,16.64,0,0,1-.22,3ZM435.61,657c0-3.08-1.16-6.74-5-6.74s-5.33,3.83-5.58,6.74Z" transform="translate(-246.56 -290.84)"/><path d="M446.63,667.31a13.37,13.37,0,0,0,6.28,1.82c2.76,0,4.1-1.23,4.1-3.07s-1-2.8-4.13-4.11c-4.95-2-6.95-4.83-6.93-7.92,0-4.76,3.81-8.41,9.74-8.41a14.18,14.18,0,0,1,6.63,1.54L461,651.87a10.58,10.58,0,0,0-5.16-1.45c-2.33,0-3.6,1.26-3.6,2.87s1.12,2.5,4.32,3.88c4.56,1.87,6.74,4.45,6.76,8.28,0,5.15-3.87,8.51-10.45,8.51a15.49,15.49,0,0,1-7.57-1.81Z" transform="translate(-246.56 -290.84)"/><path d="M475.51,638.7a3.5,3.5,0,0,1-3.74,3.63,3.47,3.47,0,0,1-3.57-3.63,3.66,3.66,0,0,1,7.31,0Zm-6.95,34.74V646.18h6.62v27.26Z" transform="translate(-246.56 -290.84)"/><path d="M505.07,646.18c-.12,2-.24,4.34-.24,8.05v15.46c0,5.94-1.11,9.67-3.73,12.1S495,685,491.28,685a18.34,18.34,0,0,1-8.58-1.91l1.4-5.07a14.73,14.73,0,0,0,7.11,1.83c4.21,0,7.08-2.35,7.08-8v-2.28h-.11a8,8,0,0,1-7.07,3.69c-6.39,0-10.58-5.76-10.58-13.3,0-9.15,5.37-14.36,11.31-14.36a7.64,7.64,0,0,1,7.06,4H499l.27-3.41Zm-6.84,10.57a7,7,0,0,0-.23-1.9c-.64-2.21-2.27-4-4.86-4-3.53,0-5.95,3.5-5.95,8.94,0,5,2.18,8.51,5.9,8.51a5,5,0,0,0,4.83-3.78,8.23,8.23,0,0,0,.31-2.38Z" transform="translate(-246.56 -290.84)"/><path d="M511.51,654.16c0-3.13-.11-5.6-.22-8h5.77l.32,3.83h.15a9.15,9.15,0,0,1,8-4.39c4.69,0,8.87,3.2,8.87,11.13v16.69H527.8v-16c0-3.55-1.18-6.44-4.6-6.44a5.08,5.08,0,0,0-4.76,3.83,7.52,7.52,0,0,0-.31,2.28v16.28h-6.62Z" transform="translate(-246.56 -290.84)"/><path d="M537.94,675.69l13.32-40.55h4.61l-13.36,40.55Z" transform="translate(-246.56 -290.84)"/><path d="M559.1,655.08c0-3.58-.11-6.42-.23-8.9h5.81l.33,3.92h.11a9.23,9.23,0,0,1,8.27-4.48c6,0,10.46,5.5,10.46,13.91,0,9.89-5.6,14.48-11.28,14.48a7.75,7.75,0,0,1-6.75-3.41h-.11v13.83H559.1Zm6.61,7.38a8.22,8.22,0,0,0,.22,2,5.37,5.37,0,0,0,5.16,4.34c4,0,6.07-3.83,6.07-9,0-5-2-8.84-5.95-8.84a5.65,5.65,0,0,0-5.26,4.62,7.26,7.26,0,0,0-.24,1.82Z" transform="translate(-246.56 -290.84)"/><path d="M589.18,634h6.62v39.45h-6.62Z" transform="translate(-246.56 -290.84)"/><path d="M617,673.44l-.43-3h-.16a8.94,8.94,0,0,1-7.36,3.52,7.8,7.8,0,0,1-8.07-8.09c0-6.92,6.06-10.25,14.94-10.24v-.53c0-2.1-.83-4.79-5.09-4.78a13,13,0,0,0-6.66,1.88l-1.3-4.35a18.37,18.37,0,0,1,9.18-2.28c8.22,0,10.51,5.3,10.51,11.23V667a42.06,42.06,0,0,0,.4,6.45ZM616.1,660c-4.1,0-8.62.88-8.62,5.21,0,2.79,1.71,4,3.63,4a5,5,0,0,0,4.81-3.57,5.2,5.2,0,0,0,.18-1.47Z" transform="translate(-246.56 -290.84)"/><path d="M629.33,654.16c0-3.13-.11-5.6-.22-8h5.77l.33,3.83h.14a9.16,9.16,0,0,1,8-4.39c4.69,0,8.87,3.2,8.87,11.13v16.69h-6.62v-16c0-3.55-1.18-6.44-4.6-6.44a5.06,5.06,0,0,0-4.75,3.83,7.5,7.5,0,0,0-.32,2.28v16.28h-6.62Z" transform="translate(-246.56 -290.84)"/><path d="M659,654.16c0-3.13-.11-5.6-.22-8h5.77l.33,3.83H665a9.16,9.16,0,0,1,8-4.39c4.69,0,8.87,3.2,8.87,11.13v16.69H675.3v-16c0-3.55-1.18-6.44-4.6-6.44a5.06,5.06,0,0,0-4.75,3.83,7.5,7.5,0,0,0-.32,2.28v16.28H659Z" transform="translate(-246.56 -290.84)"/><path d="M695.65,638.7a3.52,3.52,0,0,1-3.74,3.63,3.47,3.47,0,0,1-3.58-3.63,3.66,3.66,0,0,1,7.32,0Zm-7,34.74V646.18h6.62v27.26Z" transform="translate(-246.56 -290.84)"/><path d="M702.19,654.16c0-3.13-.11-5.6-.23-8h5.77l.33,3.83h.15a9.15,9.15,0,0,1,8-4.39c4.69,0,8.88,3.2,8.88,11.13v16.69h-6.63v-16c0-3.55-1.17-6.44-4.59-6.44a5.08,5.08,0,0,0-4.76,3.83,7.52,7.52,0,0,0-.31,2.28v16.28h-6.62Z" transform="translate(-246.56 -290.84)"/><path d="M754.89,646.18c-.13,2-.24,4.34-.24,8.05v15.46c0,5.94-1.11,9.67-3.73,12.1s-6.13,3.21-9.83,3.21a18.37,18.37,0,0,1-8.58-1.91l1.4-5.07a14.77,14.77,0,0,0,7.12,1.83c4.2,0,7.08-2.35,7.08-8v-2.28H748a8,8,0,0,1-7.07,3.69c-6.39,0-10.59-5.76-10.59-13.3,0-9.15,5.37-14.36,11.31-14.36a7.64,7.64,0,0,1,7.06,4h.12l.26-3.41ZM748,656.75a7,7,0,0,0-.23-1.9,5.05,5.05,0,0,0-4.86-4c-3.53,0-5.94,3.5-5.94,8.94,0,5,2.17,8.51,5.9,8.51a5,5,0,0,0,4.82-3.78,8.23,8.23,0,0,0,.31-2.38Z" transform="translate(-246.56 -290.84)"/><path d="M411.38,890.42c0-3.58-.11-6.42-.22-8.9H417l.33,3.92h.11a9.23,9.23,0,0,1,8.27-4.48c6,0,10.46,5.5,10.46,13.91,0,9.89-5.6,14.48-11.28,14.48a7.75,7.75,0,0,1-6.75-3.41H418v13.83h-6.61ZM418,897.8a8.28,8.28,0,0,0,.22,2,5.37,5.37,0,0,0,5.16,4.34c4,0,6.08-3.83,6.08-9,0-5-2-8.84-6-8.84a5.63,5.63,0,0,0-5.25,4.62,6.84,6.84,0,0,0-.25,1.82Z" transform="translate(-246.56 -290.84)"/><path d="M441.45,890c0-3.31-.09-6-.22-8.44H447l.26,4.86h.19c1.26-3.52,4.16-5.42,6.89-5.42a6.25,6.25,0,0,1,1.51.13v6.34a8.4,8.4,0,0,0-1.8-.16c-2.92,0-5.13,2-5.76,5.06a12.17,12.17,0,0,0-.2,2.24v14.21h-6.62Z" transform="translate(-246.56 -290.84)"/><path d="M483.17,895c0,10.31-6.62,14.4-12.75,14.4-7.12,0-12.47-5.17-12.47-14,0-9.21,5.58-14.35,12.86-14.35S483.17,886.47,483.17,895Zm-18.47.21c0,5.05,2.07,9.3,5.94,9.3,3.66,0,5.78-4.29,5.78-9.36,0-4.18-1.53-9.25-5.79-9.25S464.7,890.8,464.7,895.16Z" transform="translate(-246.56 -290.84)"/><path d="M511.58,881.52c-.13,2-.24,4.34-.24,8.05V905c0,6-1.11,9.68-3.73,12.11s-6.13,3.21-9.83,3.21a18.39,18.39,0,0,1-8.58-1.91l1.4-5.07a14.77,14.77,0,0,0,7.12,1.83c4.2,0,7.08-2.35,7.08-8v-2.28h-.11a8,8,0,0,1-7.07,3.69c-6.39,0-10.59-5.76-10.59-13.3,0-9.15,5.37-14.36,11.31-14.36a7.66,7.66,0,0,1,7.07,4h.11l.26-3.41Zm-6.85,10.57a7,7,0,0,0-.23-1.9,5.05,5.05,0,0,0-4.86-4c-3.52,0-5.94,3.5-5.94,8.94,0,5,2.17,8.51,5.9,8.51a5,5,0,0,0,4.82-3.78,8.23,8.23,0,0,0,.31-2.38Z" transform="translate(-246.56 -290.84)"/><path d="M518,890c0-3.31-.09-6-.22-8.44h5.75l.27,4.86H524c1.26-3.52,4.16-5.42,6.89-5.42a6.2,6.2,0,0,1,1.51.13v6.34a8.36,8.36,0,0,0-1.79-.16c-2.92,0-5.14,2-5.77,5.06a12.24,12.24,0,0,0-.19,2.24v14.21H518Z" transform="translate(-246.56 -290.84)"/><path d="M550.37,908.78l-.43-2.95h-.16a8.94,8.94,0,0,1-7.36,3.52,7.8,7.8,0,0,1-8.07-8.09c0-6.92,6.07-10.25,14.95-10.24v-.53c0-2.1-.83-4.79-5.1-4.78a13,13,0,0,0-6.66,1.88l-1.3-4.35a18.3,18.3,0,0,1,9.18-2.28c8.23,0,10.51,5.3,10.51,11.23v10.14a42.06,42.06,0,0,0,.4,6.45Zm-.9-13.44c-4.1,0-8.62.88-8.62,5.21,0,2.79,1.72,4,3.63,4a5,5,0,0,0,4.81-3.57,5.2,5.2,0,0,0,.18-1.47Z" transform="translate(-246.56 -290.84)"/><path d="M562.7,889.5c0-3.13-.11-5.6-.22-8h5.68l.32,3.78h.14A8.79,8.79,0,0,1,576.4,881a7.2,7.2,0,0,1,7,4.69h.12a10.41,10.41,0,0,1,3.15-3.27,8.78,8.78,0,0,1,5-1.42c4.45,0,8.41,3.16,8.41,11.3v16.52h-6.49V893.27c0-4.17-1.22-6.91-4.33-6.91a4.7,4.7,0,0,0-4.35,3.5,8.24,8.24,0,0,0-.3,2.26v16.66h-6.49V892.52c0-3.42-1.18-6.16-4.21-6.16a4.91,4.91,0,0,0-4.47,3.73,7.65,7.65,0,0,0-.31,2.25v16.44H562.7Z" transform="translate(-246.56 -290.84)"/><path d="M606.94,889.5c0-3.13-.11-5.6-.22-8h5.68l.32,3.78h.14a8.79,8.79,0,0,1,7.78-4.34,7.2,7.2,0,0,1,7,4.69h.12a10.41,10.41,0,0,1,3.15-3.27,8.78,8.78,0,0,1,5-1.42c4.45,0,8.41,3.16,8.41,11.3v16.52h-6.49V893.27c0-4.17-1.22-6.91-4.33-6.91a4.7,4.7,0,0,0-4.35,3.5,8.24,8.24,0,0,0-.3,2.26v16.66h-6.49V892.52c0-3.42-1.18-6.16-4.21-6.16a4.89,4.89,0,0,0-4.46,3.73,7.33,7.33,0,0,0-.32,2.25v16.44h-6.49Z" transform="translate(-246.56 -290.84)"/><path d="M658.14,874a3.52,3.52,0,0,1-3.74,3.63,3.47,3.47,0,0,1-3.58-3.63,3.66,3.66,0,0,1,7.32,0Zm-7,34.74V881.52h6.62v27.26Z" transform="translate(-246.56 -290.84)"/><path d="M664.68,889.5c0-3.13-.11-5.6-.22-8h5.77l.32,3.83h.15a9.15,9.15,0,0,1,8-4.39c4.7,0,8.88,3.2,8.88,11.13v16.69H681V892.83c0-3.56-1.18-6.44-4.6-6.44a5.08,5.08,0,0,0-4.76,3.83,7.52,7.52,0,0,0-.31,2.28v16.28h-6.62Z" transform="translate(-246.56 -290.84)"/><path d="M717.38,881.52c-.13,2-.24,4.34-.24,8.05V905c0,6-1.11,9.68-3.73,12.11s-6.13,3.21-9.83,3.21a18.37,18.37,0,0,1-8.58-1.91l1.4-5.07a14.77,14.77,0,0,0,7.12,1.83c4.2,0,7.08-2.35,7.08-8v-2.28h-.11a8,8,0,0,1-7.07,3.69c-6.39,0-10.59-5.76-10.59-13.3,0-9.15,5.37-14.36,11.31-14.36a7.67,7.67,0,0,1,7.07,4h.11l.26-3.41Zm-6.85,10.57a7,7,0,0,0-.23-1.9,5.05,5.05,0,0,0-4.86-4c-3.52,0-5.94,3.5-5.94,8.94,0,5,2.17,8.51,5.9,8.51a5,5,0,0,0,4.82-3.78,8.23,8.23,0,0,0,.31-2.38Z" transform="translate(-246.56 -290.84)"/><path d="M503.94,1157.11v7.65h6.17v4.9h-6.17v12.66c0,3.34,1,4.78,3.3,4.78a10.09,10.09,0,0,0,2.43-.26l.13,5.06a14.68,14.68,0,0,1-4.68.64,7.59,7.59,0,0,1-5.6-2.08c-1.43-1.5-2.11-3.85-2.11-7.57v-13.23h-3.7v-4.9h3.7v-6Z" transform="translate(-246.56 -290.84)"/><path d="M519.29,1180.21c.15,5.29,3.68,7.29,7.72,7.29a18.27,18.27,0,0,0,6.73-1.17l1,4.61a22.31,22.31,0,0,1-8.71,1.6c-8.31,0-13.07-5.36-13.07-13.74,0-8,4.49-14.6,12.38-14.6s10.81,6.65,10.81,13a16.64,16.64,0,0,1-.22,3Zm10.62-4.64c0-3.08-1.16-6.74-5-6.74s-5.34,3.83-5.59,6.74Z" transform="translate(-246.56 -290.84)"/><path d="M540.92,1185.89a13.41,13.41,0,0,0,6.28,1.82c2.77,0,4.11-1.23,4.11-3.07s-1-2.8-4.13-4.11c-4.95-2-6.95-4.83-6.94-7.92,0-4.76,3.82-8.41,9.75-8.41a14.21,14.21,0,0,1,6.63,1.54l-1.33,4.71a10.51,10.51,0,0,0-5.15-1.45c-2.34,0-3.6,1.26-3.6,2.87s1.12,2.5,4.32,3.88c4.56,1.87,6.74,4.45,6.76,8.28,0,5.15-3.88,8.51-10.46,8.51a15.45,15.45,0,0,1-7.56-1.81Z" transform="translate(-246.56 -290.84)"/><path d="M570.52,1157.11v7.65h6.18v4.9h-6.18v12.66c0,3.34,1,4.78,3.3,4.78a10,10,0,0,0,2.43-.26l.14,5.06a14.8,14.8,0,0,1-4.69.64,7.55,7.55,0,0,1-5.59-2.08c-1.44-1.5-2.11-3.85-2.11-7.57v-13.23h-3.71v-4.9H564v-6Z" transform="translate(-246.56 -290.84)"/><path d="M588.35,1157.28a3.52,3.52,0,0,1-3.75,3.63,3.47,3.47,0,0,1-3.57-3.63,3.66,3.66,0,0,1,7.32,0Zm-7,34.74v-27.26H588V1192Z" transform="translate(-246.56 -290.84)"/><path d="M594.89,1172.74c0-3.13-.11-5.6-.23-8h5.77l.33,3.83h.15a9.13,9.13,0,0,1,8-4.39c4.69,0,8.87,3.2,8.87,11.13V1192h-6.62v-16c0-3.56-1.18-6.44-4.59-6.44a5.07,5.07,0,0,0-4.76,3.83,7.52,7.52,0,0,0-.31,2.28V1192h-6.62Z" transform="translate(-246.56 -290.84)"/><path d="M647.58,1164.76c-.12,2-.23,4.34-.23,8v15.45c0,6-1.12,9.68-3.74,12.11s-6.13,3.21-9.82,3.21a18.37,18.37,0,0,1-8.58-1.91l1.4-5.07a14.76,14.76,0,0,0,7.11,1.83c4.21,0,7.09-2.35,7.09-8v-2.28h-.12a8,8,0,0,1-7.07,3.69c-6.39,0-10.58-5.76-10.58-13.3,0-9.15,5.37-14.36,11.31-14.36a7.64,7.64,0,0,1,7.06,4h.11l.27-3.41Zm-6.84,10.57a7,7,0,0,0-.23-1.9,5.05,5.05,0,0,0-4.86-4c-3.53,0-5.94,3.5-5.94,8.94,0,5,2.17,8.51,5.9,8.51a5,5,0,0,0,4.82-3.78,8.23,8.23,0,0,0,.31-2.38Z" transform="translate(-246.56 -290.84)"/><path d="M475.66,1601.73a17.21,17.21,0,0,0,8.14,2.13c4.19,0,6.51-2.09,6.51-5.18,0-2.91-1.89-4.6-6.16-6.45-5.62-2.35-9.29-5.82-9.29-10.83,0-6.1,4.82-10.75,12.67-10.75a17.45,17.45,0,0,1,8,1.72l-1.49,5.43a13.87,13.87,0,0,0-6.67-1.64c-4.08,0-5.87,2.32-5.87,4.55,0,2.91,2,4.26,6.66,6.35,6,2.69,8.81,6.09,8.81,11.1,0,6.28-4.66,11.26-13.5,11.26a19.8,19.8,0,0,1-9.2-2.15Z" transform="translate(-246.56 -290.84)"/><path d="M526.46,1595.07c0,10.31-6.62,14.4-12.75,14.4-7.12,0-12.47-5.17-12.47-14,0-9.22,5.58-14.36,12.86-14.36S526.46,1586.59,526.46,1595.07Zm-18.47.22c0,5,2.07,9.29,5.94,9.29,3.65,0,5.78-4.28,5.78-9.36,0-4.18-1.53-9.25-5.79-9.25S508,1590.92,508,1595.29Z" transform="translate(-246.56 -290.84)"/><path d="M531.79,1569.45h6.62v39.46h-6.62Z" transform="translate(-246.56 -290.84)"/><path d="M568,1600.81c0,3.16.11,5.85.22,8.1h-5.77l-.34-3.75H562a9.14,9.14,0,0,1-7.94,4.31c-5,0-8.74-3.22-8.74-11.58v-16.25h6.62v15.22c0,4.34,1.21,7.18,4.5,7.18a5,5,0,0,0,4.6-3.38,6.29,6.29,0,0,0,.37-2.2v-16.82H568Z" transform="translate(-246.56 -290.84)"/><path d="M582.52,1574v7.65h6.18v4.9h-6.18v12.66c0,3.34,1,4.78,3.31,4.78a10,10,0,0,0,2.42-.26l.14,5.07a15.15,15.15,0,0,1-4.69.63,7.55,7.55,0,0,1-5.59-2.08c-1.43-1.5-2.11-3.85-2.11-7.57v-13.23h-3.71v-4.9H576v-6.05Z" transform="translate(-246.56 -290.84)"/><path d="M600.35,1574.16a3.52,3.52,0,0,1-3.75,3.63,3.47,3.47,0,0,1-3.57-3.63,3.66,3.66,0,0,1,7.32,0Zm-7,34.75v-27.27H600v27.27Z" transform="translate(-246.56 -290.84)"/><path d="M630.56,1595.07c0,10.31-6.62,14.4-12.75,14.4-7.11,0-12.46-5.17-12.46-14,0-9.22,5.57-14.36,12.85-14.36S630.56,1586.59,630.56,1595.07Zm-18.47.22c0,5,2.07,9.29,5.94,9.29,3.66,0,5.78-4.28,5.78-9.36,0-4.18-1.53-9.25-5.79-9.25S612.09,1590.92,612.09,1595.29Z" transform="translate(-246.56 -290.84)"/><path d="M635.89,1589.62c0-3.12-.11-5.6-.22-8h5.77l.33,3.83h.15a9.15,9.15,0,0,1,8-4.39c4.69,0,8.87,3.2,8.87,11.13v16.7h-6.62v-16c0-3.55-1.18-6.44-4.59-6.44a5.07,5.07,0,0,0-4.76,3.83,7.52,7.52,0,0,0-.31,2.28v16.29h-6.63Z" transform="translate(-246.56 -290.84)"/><path class="cls-2" d="M551.24,559l21,40.1c6.39-19.38,15.94-32.82,28.81-43.43" transform="translate(-246.56 -290.84)"/><path class="cls-2" d="M545.19,792.38a148.8,148.8,0,0,1,19.28,42.1L594,794.58" transform="translate(-246.56 -290.84)"/><path class="cls-2" d="M545.19,1490.08l19,33.87,25.44-36" transform="translate(-246.56 -290.84)"/><path class="cls-3" d="M364.84,1091.35c23.23,28.79,29.12,33.29,52.21,48.91" transform="translate(-246.56 -290.84)"/><path class="cls-3" d="M418.05,1095c-23.61,15.18-40.28,26.32-60.95,45.29" transform="translate(-246.56 -290.84)"/><path class="cls-4" d="M708.3,1093.34l23.64,40A211.32,211.32,0,0,1,770,1070" transform="translate(-246.56 -290.84)"/></svg>